<svg xmlns="http://www.w3.org/2000/svg" height="300.0" viewBox="-0.7925 -0.54775 1.585 1.0835" width="438.8555606829718" xmlns:xlink="http://www.w3.org/1999/xlink"><g fill-opacity="1.0" font-size="3.0e-2" stroke="none" stroke-width="0.0" fill="#0d0d0d" text-anchor="middle"><text x="-0.75" y="-0.5">AA</text><text x="-0.75" y="-0.41666666666666663">AKo</text><text x="-0.75" y="-0.33333333333333337">AQo</text><text x="-0.75" y="-0.2499999999999999">AJo</text><text x="-0.75" y="-0.16666666666666663">ATo</text><text x="-0.75" y="-8.333333333333326e-2">A9o</text><text x="-0.75" y="-0.0">A8o</text><text x="-0.75" y="8.333333333333343e-2">A7o</text><text x="-0.75" y="0.16666666666666669">A6o</text><text x="-0.75" y="0.25">A5o</text><text x="-0.75" y="0.33333333333333337">A4o</text><text x="-0.75" y="0.41666666666666674">A3o</text><text x="-0.75" y="0.5">A2o</text><text x="-0.6249999999999998" y="-0.5">AKs</text><text x="-0.6249999999999998" y="-0.41666666666666663">KK</text><text x="-0.6249999999999998" y="-0.33333333333333337">KQo</text><text x="-0.6249999999999998" y="-0.2499999999999999">KJo</text><text x="-0.6249999999999998" y="-0.16666666666666663">KTo</text><text x="-0.6249999999999998" y="-8.333333333333326e-2">K9o</text><text x="-0.6249999999999998" y="-0.0">K8o</text><text x="-0.6249999999999998" y="8.333333333333343e-2">K7o</text><text x="-0.6249999999999998" y="0.16666666666666669">K6o</text><text x="-0.6249999999999998" y="0.25">K5o</text><text x="-0.6249999999999998" y="0.33333333333333337">K4o</text><text x="-0.6249999999999998" y="0.41666666666666674">K3o</text><text x="-0.6249999999999998" y="0.5">K2o</text><text x="-0.5" y="-0.5">AQs</text><text x="-0.5" y="-0.41666666666666663">KQs</text><text x="-0.5" y="-0.33333333333333337">QQ</text><text x="-0.5" y="-0.2499999999999999">QJo</text><text x="-0.5" y="-0.16666666666666663">QTo</text><text x="-0.5" y="-8.333333333333326e-2">Q9o</text><text x="-0.5" y="-0.0">Q8o</text><text x="-0.5" y="8.333333333333343e-2">Q7o</text><text x="-0.5" y="0.16666666666666669">Q6o</text><text x="-0.5" y="0.25">Q5o</text><text x="-0.5" y="0.33333333333333337">Q4o</text><text x="-0.5" y="0.41666666666666674">Q3o</text><text x="-0.5" y="0.5">Q2o</text><text x="-0.375" y="-0.5">AJs</text><text x="-0.375" y="-0.41666666666666663">KJs</text><text x="-0.375" y="-0.33333333333333337">QJs</text><text x="-0.375" y="-0.2499999999999999">JJ</text><text x="-0.375" y="-0.16666666666666663">JTo</text><text x="-0.375" y="-8.333333333333326e-2">J9o</text><text x="-0.375" y="-0.0">J8o</text><text x="-0.375" y="8.333333333333343e-2">J7o</text><text x="-0.375" y="0.16666666666666669">J6o</text><text x="-0.375" y="0.25">J5o</text><text x="-0.375" y="0.33333333333333337">J4o</text><text x="-0.375" y="0.41666666666666674">J3o</text><text x="-0.375" y="0.5">J2o</text><text x="-0.25" y="-0.5">ATs</text><text x="-0.25" y="-0.41666666666666663">KTs</text><text x="-0.25" y="-0.33333333333333337">QTs</text><text x="-0.25" y="-0.2499999999999999">JTs</text><text x="-0.25" y="-0.16666666666666663">TT</text><text x="-0.25" y="-8.333333333333326e-2">T9o</text><text x="-0.25" y="-0.0">T8o</text><text x="-0.25" y="8.333333333333343e-2">T7o</text><text x="-0.25" y="0.16666666666666669">T6o</text><text x="-0.25" y="0.25">T5o</text><text x="-0.25" y="0.33333333333333337">T4o</text><text x="-0.25" y="0.41666666666666674">T3o</text><text x="-0.25" y="0.5">T2o</text><text x="-0.12499999999999989" y="-0.5">A9s</text><text x="-0.12499999999999989" y="-0.41666666666666663">K9s</text><text x="-0.12499999999999989" y="-0.33333333333333337">Q9s</text><text x="-0.12499999999999989" y="-0.2499999999999999">J9s</text><text x="-0.12499999999999989" y="-0.16666666666666663">T9s</text><text x="-0.12499999999999989" y="-8.333333333333326e-2">99</text><text x="-0.12499999999999989" y="-0.0">98o</text><text x="-0.12499999999999989" y="8.333333333333343e-2">97o</text><text x="-0.12499999999999989" y="0.16666666666666669">96o</text><text x="-0.12499999999999989" y="0.25">95o</text><text x="-0.12499999999999989" y="0.33333333333333337">94o</text><text x="-0.12499999999999989" y="0.41666666666666674">93o</text><text x="-0.12499999999999989" y="0.5">92o</text><text x="0.0" y="-0.5">A8s</text><text x="0.0" y="-0.41666666666666663">K8s</text><text x="0.0" y="-0.33333333333333337">Q8s</text><text x="0.0" y="-0.2499999999999999">J8s</text><text x="0.0" y="-0.16666666666666663">T8s</text><text x="0.0" y="-8.333333333333326e-2">98s</text><text x="0.0" y="-0.0">88</text><text x="0.0" y="8.333333333333343e-2">87o</text><text x="0.0" y="0.16666666666666669">86o</text><text x="0.0" y="0.25">85o</text><text x="0.0" y="0.33333333333333337">84o</text><text x="0.0" y="0.41666666666666674">83o</text><text x="0.0" y="0.5">82o</text><text x="0.125" y="-0.5">A7s</text><text x="0.125" y="-0.41666666666666663">K7s</text><text x="0.125" y="-0.33333333333333337">Q7s</text><text x="0.125" y="-0.2499999999999999">J7s</text><text x="0.125" y="-0.16666666666666663">T7s</text><text x="0.125" y="-8.333333333333326e-2">97s</text><text x="0.125" y="-0.0">87s</text><text x="0.125" y="8.333333333333343e-2">77</text><text x="0.125" y="0.16666666666666669">76o</text><text x="0.125" y="0.25">75o</text><text x="0.125" y="0.33333333333333337">74o</text><text x="0.125" y="0.41666666666666674">73o</text><text x="0.125" y="0.5">72o</text><text x="0.25" y="-0.5">A6s</text><text x="0.25" y="-0.41666666666666663">K6s</text><text x="0.25" y="-0.33333333333333337">Q6s</text><text x="0.25" y="-0.2499999999999999">J6s</text><text x="0.25" y="-0.16666666666666663">T6s</text><text x="0.25" y="-8.333333333333326e-2">96s</text><text x="0.25" y="-0.0">86s</text><text x="0.25" y="8.333333333333343e-2">76s</text><text x="0.25" y="0.16666666666666669">66</text><text x="0.25" y="0.25">65o</text><text x="0.25" y="0.33333333333333337">64o</text><text x="0.25" y="0.41666666666666674">63o</text><text x="0.25" y="0.5">62o</text><text x="0.37499999999999956" y="-0.5">A5s</text><text x="0.37499999999999956" y="-0.41666666666666663">K5s</text><text x="0.37499999999999956" y="-0.33333333333333337">Q5s</text><text x="0.37499999999999956" y="-0.2499999999999999">J5s</text><text x="0.37499999999999956" y="-0.16666666666666663">T5s</text><text x="0.37499999999999956" y="-8.333333333333326e-2">95s</text><text x="0.37499999999999956" y="-0.0">85s</text><text x="0.37499999999999956" y="8.333333333333343e-2">75s</text><text x="0.37499999999999956" y="0.16666666666666669">65s</text><text x="0.37499999999999956" y="0.25">55</text><text x="0.37499999999999956" y="0.33333333333333337">54o</text><text x="0.37499999999999956" y="0.41666666666666674">53o</text><text x="0.37499999999999956" y="0.5">52o</text><text x="0.5" y="-0.5">A4s</text><text x="0.5" y="-0.41666666666666663">K4s</text><text x="0.5" y="-0.33333333333333337">Q4s</text><text x="0.5" y="-0.2499999999999999">J4s</text><text x="0.5" y="-0.16666666666666663">T4s</text><text x="0.5" y="-8.333333333333326e-2">94s</text><text x="0.5" y="-0.0">84s</text><text x="0.5" y="8.333333333333343e-2">74s</text><text x="0.5" y="0.16666666666666669">64s</text><text x="0.5" y="0.25">54s</text><text x="0.5" y="0.33333333333333337">44</text><text x="0.5" y="0.41666666666666674">43o</text><text x="0.5" y="0.5">42o</text><text x="0.625" y="-0.5">A3s</text><text x="0.625" y="-0.41666666666666663">K3s</text><text x="0.625" y="-0.33333333333333337">Q3s</text><text x="0.625" y="-0.2499999999999999">J3s</text><text x="0.625" y="-0.16666666666666663">T3s</text><text x="0.625" y="-8.333333333333326e-2">93s</text><text x="0.625" y="-0.0">83s</text><text x="0.625" y="8.333333333333343e-2">73s</text><text x="0.625" y="0.16666666666666669">63s</text><text x="0.625" y="0.25">53s</text><text x="0.625" y="0.33333333333333337">43s</text><text x="0.625" y="0.41666666666666674">33</text><text x="0.625" y="0.5">32o</text><text x="0.75" y="-0.5">A2s</text><text x="0.75" y="-0.41666666666666663">K2s</text><text x="0.75" y="-0.33333333333333337">Q2s</text><text x="0.75" y="-0.2499999999999999">J2s</text><text x="0.75" y="-0.16666666666666663">T2s</text><text x="0.75" y="-8.333333333333326e-2">92s</text><text x="0.75" y="-0.0">82s</text><text x="0.75" y="8.333333333333343e-2">72s</text><text x="0.75" y="0.16666666666666669">62s</text><text x="0.75" y="0.25">52s</text><text x="0.75" y="0.33333333333333337">42s</text><text x="0.75" y="0.41666666666666674">32s</text><text x="0.75" y="0.5">22</text></g></svg>