<svg xmlns="http://www.w3.org/2000/svg" height="300.0" viewBox="-0.77 -0.52 1.54 1.04" width="444.2307692307692" xmlns:xlink="http://www.w3.org/1999/xlink"><g fill-opacity="1.0" font-size="3.0e-2" stroke="none" stroke-width="0.0" fill="#0d0d0d" text-anchor="middle"><text x="0.41896650175302885" y="0.46153846153846156">22</text><text x="0.41896650175302885" y="0.3846153846153846">32s</text><text x="0.41896650175302885" y="0.3076923076923077">42s</text><text x="0.41896650175302885" y="0.23076923076923073">52s</text><text x="0.41896650175302885" y="0.15384615384615385">62s</text><text x="0.41896650175302885" y="7.692307692307687e-2">72s</text><text x="0.41896650175302885" y="-0.0">82s</text><text x="0.41896650175302885" y="-7.692307692307698e-2">92s</text><text x="0.41896650175302885" y="-0.15384615384615385">T2s</text><text x="0.41896650175302885" y="-0.23076923076923073">J2s</text><text x="0.41896650175302885" y="-0.3076923076923077">Q2s</text><text x="0.41896650175302885" y="-0.3846153846153847">K2s</text><text x="0.41896650175302885" y="-0.46153846153846156">A2s</text><text x="0.32544918161278646" y="0.46153846153846156">32o</text><text x="0.32544918161278646" y="0.3846153846153846">33</text><text x="0.32544918161278646" y="0.3076923076923077">43s</text><text x="0.32544918161278646" y="0.23076923076923073">53s</text><text x="0.32544918161278646" y="0.15384615384615385">63s</text><text x="0.32544918161278646" y="7.692307692307687e-2">73s</text><text x="0.32544918161278646" y="-0.0">83s</text><text x="0.32544918161278646" y="-7.692307692307698e-2">93s</text><text x="0.32544918161278646" y="-0.15384615384615385">T3s</text><text x="0.32544918161278646" y="-0.23076923076923073">J3s</text><text x="0.32544918161278646" y="-0.3076923076923077">Q3s</text><text x="0.32544918161278646" y="-0.3846153846153847">K3s</text><text x="0.32544918161278646" y="-0.46153846153846156">A3s</text><text x="0.2319318614725443" y="0.46153846153846156">42o</text><text x="0.2319318614725443" y="0.3846153846153846">43o</text><text x="0.2319318614725443" y="0.3076923076923077">44</text><text x="0.2319318614725443" y="0.23076923076923073">54s</text><text x="0.2319318614725443" y="0.15384615384615385">64s</text><text x="0.2319318614725443" y="7.692307692307687e-2">74s</text><text x="0.2319318614725443" y="-0.0">84s</text><text x="0.2319318614725443" y="-7.692307692307698e-2">94s</text><text x="0.2319318614725443" y="-0.15384615384615385">T4s</text><text x="0.2319318614725443" y="-0.23076923076923073">J4s</text><text x="0.2319318614725443" y="-0.3076923076923077">Q4s</text><text x="0.2319318614725443" y="-0.3846153846153847">K4s</text><text x="0.2319318614725443" y="-0.46153846153846156">A4s</text><text x="0.1384145413323019" y="0.46153846153846156">52o</text><text x="0.1384145413323019" y="0.3846153846153846">53o</text><text x="0.1384145413323019" y="0.3076923076923077">54o</text><text x="0.1384145413323019" y="0.23076923076923073">55</text><text x="0.1384145413323019" y="0.15384615384615385">65s</text><text x="0.1384145413323019" y="7.692307692307687e-2">75s</text><text x="0.1384145413323019" y="-0.0">85s</text><text x="0.1384145413323019" y="-7.692307692307698e-2">95s</text><text x="0.1384145413323019" y="-0.15384615384615385">T5s</text><text x="0.1384145413323019" y="-0.23076923076923073">J5s</text><text x="0.1384145413323019" y="-0.3076923076923077">Q5s</text><text x="0.1384145413323019" y="-0.3846153846153847">K5s</text><text x="0.1384145413323019" y="-0.46153846153846156">A5s</text><text x="4.489722119205963e-2" y="0.46153846153846156">62o</text><text x="4.489722119205963e-2" y="0.3846153846153846">63o</text><text x="4.489722119205963e-2" y="0.3076923076923077">64o</text><text x="4.489722119205963e-2" y="0.23076923076923073">65o</text><text x="4.489722119205963e-2" y="0.15384615384615385">66</text><text x="4.489722119205963e-2" y="7.692307692307687e-2">76s</text><text x="4.489722119205963e-2" y="-0.0">86s</text><text x="4.489722119205963e-2" y="-7.692307692307698e-2">96s</text><text x="4.489722119205963e-2" y="-0.15384615384615385">T6s</text><text x="4.489722119205963e-2" y="-0.23076923076923073">J6s</text><text x="4.489722119205963e-2" y="-0.3076923076923077">Q6s</text><text x="4.489722119205963e-2" y="-0.3846153846153847">K6s</text><text x="4.489722119205963e-2" y="-0.46153846153846156">A6s</text><text x="-4.8620098948182755e-2" y="0.46153846153846156">72o</text><text x="-4.8620098948182755e-2" y="0.3846153846153846">73o</text><text x="-4.8620098948182755e-2" y="0.3076923076923077">74o</text><text x="-4.8620098948182755e-2" y="0.23076923076923073">75o</text><text x="-4.8620098948182755e-2" y="0.15384615384615385">76o</text><text x="-4.8620098948182755e-2" y="7.692307692307687e-2">77</text><text x="-4.8620098948182755e-2" y="-0.0">87s</text><text x="-4.8620098948182755e-2" y="-7.692307692307698e-2">97s</text><text x="-4.8620098948182755e-2" y="-0.15384615384615385">T7s</text><text x="-4.8620098948182755e-2" y="-0.23076923076923073">J7s</text><text x="-4.8620098948182755e-2" y="-0.3076923076923077">Q7s</text><text x="-4.8620098948182755e-2" y="-0.3846153846153847">K7s</text><text x="-4.8620098948182755e-2" y="-0.46153846153846156">A7s</text><text x="-0.14213741908842503" y="0.46153846153846156">82o</text><text x="-0.14213741908842503" y="0.3846153846153846">83o</text><text x="-0.14213741908842503" y="0.3076923076923077">84o</text><text x="-0.14213741908842503" y="0.23076923076923073">85o</text><text x="-0.14213741908842503" y="0.15384615384615385">86o</text><text x="-0.14213741908842503" y="7.692307692307687e-2">87o</text><text x="-0.14213741908842503" y="-0.0">88</text><text x="-0.14213741908842503" y="-7.692307692307698e-2">98s</text><text x="-0.14213741908842503" y="-0.15384615384615385">T8s</text><text x="-0.14213741908842503" y="-0.23076923076923073">J8s</text><text x="-0.14213741908842503" y="-0.3076923076923077">Q8s</text><text x="-0.14213741908842503" y="-0.3846153846153847">K8s</text><text x="-0.14213741908842503" y="-0.46153846153846156">A8s</text><text x="-0.23565473922866742" y="0.46153846153846156">92o</text><text x="-0.23565473922866742" y="0.3846153846153846">93o</text><text x="-0.23565473922866742" y="0.3076923076923077">94o</text><text x="-0.23565473922866742" y="0.23076923076923073">95o</text><text x="-0.23565473922866742" y="0.15384615384615385">96o</text><text x="-0.23565473922866742" y="7.692307692307687e-2">97o</text><text x="-0.23565473922866742" y="-0.0">98o</text><text x="-0.23565473922866742" y="-7.692307692307698e-2">99</text><text x="-0.23565473922866742" y="-0.15384615384615385">T9s</text><text x="-0.23565473922866742" y="-0.23076923076923073">J9s</text><text x="-0.23565473922866742" y="-0.3076923076923077">Q9s</text><text x="-0.23565473922866742" y="-0.3846153846153847">K9s</text><text x="-0.23565473922866742" y="-0.46153846153846156">A9s</text><text x="-0.3291720593689096" y="0.46153846153846156">T2o</text><text x="-0.3291720593689096" y="0.3846153846153846">T3o</text><text x="-0.3291720593689096" y="0.3076923076923077">T4o</text><text x="-0.3291720593689096" y="0.23076923076923073">T5o</text><text x="-0.3291720593689096" y="0.15384615384615385">T6o</text><text x="-0.3291720593689096" y="7.692307692307687e-2">T7o</text><text x="-0.3291720593689096" y="-0.0">T8o</text><text x="-0.3291720593689096" y="-7.692307692307698e-2">T9o</text><text x="-0.3291720593689096" y="-0.15384615384615385">TT</text><text x="-0.3291720593689096" y="-0.23076923076923073">JTs</text><text x="-0.3291720593689096" y="-0.3076923076923077">QTs</text><text x="-0.3291720593689096" y="-0.3846153846153847">KTs</text><text x="-0.3291720593689096" y="-0.46153846153846156">ATs</text><text x="-0.42268937950915186" y="0.46153846153846156">J2o</text><text x="-0.42268937950915186" y="0.3846153846153846">J3o</text><text x="-0.42268937950915186" y="0.3076923076923077">J4o</text><text x="-0.42268937950915186" y="0.23076923076923073">J5o</text><text x="-0.42268937950915186" y="0.15384615384615385">J6o</text><text x="-0.42268937950915186" y="7.692307692307687e-2">J7o</text><text x="-0.42268937950915186" y="-0.0">J8o</text><text x="-0.42268937950915186" y="-7.692307692307698e-2">J9o</text><text x="-0.42268937950915186" y="-0.15384615384615385">JTo</text><text x="-0.42268937950915186" y="-0.23076923076923073">JJ</text><text x="-0.42268937950915186" y="-0.3076923076923077">QJs</text><text x="-0.42268937950915186" y="-0.3846153846153847">KJs</text><text x="-0.42268937950915186" y="-0.46153846153846156">AJs</text><text x="-0.5162066996493943" y="0.46153846153846156">Q2o</text><text x="-0.5162066996493943" y="0.3846153846153846">Q3o</text><text x="-0.5162066996493943" y="0.3076923076923077">Q4o</text><text x="-0.5162066996493943" y="0.23076923076923073">Q5o</text><text x="-0.5162066996493943" y="0.15384615384615385">Q6o</text><text x="-0.5162066996493943" y="7.692307692307687e-2">Q7o</text><text x="-0.5162066996493943" y="-0.0">Q8o</text><text x="-0.5162066996493943" y="-7.692307692307698e-2">Q9o</text><text x="-0.5162066996493943" y="-0.15384615384615385">QTo</text><text x="-0.5162066996493943" y="-0.23076923076923073">QJo</text><text x="-0.5162066996493943" y="-0.3076923076923077">QQ</text><text x="-0.5162066996493943" y="-0.3846153846153847">KQs</text><text x="-0.5162066996493943" y="-0.46153846153846156">AQs</text><text x="-0.6097240197896366" y="0.46153846153846156">K2o</text><text x="-0.6097240197896366" y="0.3846153846153846">K3o</text><text x="-0.6097240197896366" y="0.3076923076923077">K4o</text><text x="-0.6097240197896366" y="0.23076923076923073">K5o</text><text x="-0.6097240197896366" y="0.15384615384615385">K6o</text><text x="-0.6097240197896366" y="7.692307692307687e-2">K7o</text><text x="-0.6097240197896366" y="-0.0">K8o</text><text x="-0.6097240197896366" y="-7.692307692307698e-2">K9o</text><text x="-0.6097240197896366" y="-0.15384615384615385">KTo</text><text x="-0.6097240197896366" y="-0.23076923076923073">KJo</text><text x="-0.6097240197896366" y="-0.3076923076923077">KQo</text><text x="-0.6097240197896366" y="-0.3846153846153847">KK</text><text x="-0.6097240197896366" y="-0.46153846153846156">AKs</text><text x="-0.7032413399298789" y="0.46153846153846156">A2o</text><text x="-0.7032413399298789" y="0.3846153846153846">A3o</text><text x="-0.7032413399298789" y="0.3076923076923077">A4o</text><text x="-0.7032413399298789" y="0.23076923076923073">A5o</text><text x="-0.7032413399298789" y="0.15384615384615385">A6o</text><text x="-0.7032413399298789" y="7.692307692307687e-2">A7o</text><text x="-0.7032413399298789" y="-0.0">A8o</text><text x="-0.7032413399298789" y="-7.692307692307698e-2">A9o</text><text x="-0.7032413399298789" y="-0.15384615384615385">ATo</text><text x="-0.7032413399298789" y="-0.23076923076923073">AJo</text><text x="-0.7032413399298789" y="-0.3076923076923077">AQo</text><text x="-0.7032413399298789" y="-0.3846153846153847">AKo</text><text x="-0.7032413399298789" y="-0.46153846153846156">AA</text></g><g stroke-opacity="0.0" fill-opacity="0.3" stroke="#000000" stroke-width="0.0" fill="#0017e8"><rect height="7.692307692307693e-2" width="9.351732014024228e-2" x="-0.75" y="0.4230769230769231"/></g><g stroke-opacity="0.0" fill-opacity="0.3" stroke="#000000" stroke-width="0.0" fill="#0009f6"><rect height="7.692307692307693e-2" width="9.351732014024228e-2" x="-0.75" y="0.34615384615384615"/></g><g stroke-opacity="0.0" fill-opacity="0.3" stroke="#000000" stroke-width="0.0" fill="#000df2"><rect height="7.692307692307693e-2" width="9.351732014024228e-2" x="-0.75" y="0.2692307692307692"/></g><g stroke-opacity="0.0" fill-opacity="0.3" stroke="#000000" stroke-width="0.0" fill="#1300ec"><rect height="7.692307692307693e-2" width="9.351732014024228e-2" x="-0.75" y="0.1923076923076923"/></g><g stroke-opacity="0.0" fill-opacity="0.3" stroke="#000000" stroke-width="0.0" fill="#1000ef"><rect height="7.692307692307693e-2" width="9.351732014024228e-2" x="-0.75" y="0.11538461538461536"/></g><g stroke-opacity="0.0" fill-opacity="0.3" stroke="#000000" stroke-width="0.0" fill="#1200ed"><rect height="7.692307692307693e-2" width="9.351732014024228e-2" x="-0.75" y="3.8461538461538436e-2"/></g><g stroke-opacity="0.0" fill-opacity="0.3" stroke="#000000" stroke-width="0.0" fill="#2e00d1"><rect height="7.692307692307698e-2" width="9.351732014024228e-2" x="-0.75" y="-3.846153846153855e-2"/></g><g stroke-opacity="0.0" fill-opacity="0.3" stroke="#000000" stroke-width="0.0" fill="#1f00e0"><rect height="7.692307692307687e-2" width="9.351732014024228e-2" x="-0.75" y="-0.11538461538461542"/></g><g stroke-opacity="0.0" fill-opacity="0.3" stroke="#000000" stroke-width="0.0" fill="#2e00d1"><rect height="7.692307692307687e-2" width="9.351732014024228e-2" x="-0.75" y="-0.1923076923076923"/></g><g stroke-opacity="0.0" fill-opacity="0.3" stroke="#000000" stroke-width="0.0" fill="#2300dc"><rect height="7.692307692307698e-2" width="9.351732014024228e-2" x="-0.75" y="-0.2692307692307693"/></g><g stroke-opacity="0.0" fill-opacity="0.3" stroke="#000000" stroke-width="0.0" fill="#3400cb"><rect height="7.692307692307698e-2" width="9.351732014024228e-2" x="-0.75" y="-0.34615384615384626"/></g><g stroke-opacity="0.0" fill-opacity="0.3" stroke="#000000" stroke-width="0.0" fill="#3300cc"><rect height="7.692307692307687e-2" width="9.351732014024228e-2" x="-0.75" y="-0.42307692307692313"/></g><g stroke-opacity="0.0" fill-opacity="0.3" stroke="#000000" stroke-width="0.0" fill="#ff0000"><rect height="7.692307692307687e-2" width="9.351732014024228e-2" x="-0.75" y="-0.5"/></g><g stroke-opacity="0.0" fill-opacity="0.3" stroke="#000000" stroke-width="0.0" fill="#002dd2"><rect height="7.692307692307693e-2" width="9.351732014024239e-2" x="-0.6564826798597577" y="0.4230769230769231"/></g><g stroke-opacity="0.0" fill-opacity="0.3" stroke="#000000" stroke-width="0.0" fill="#0024db"><rect height="7.692307692307693e-2" width="9.351732014024239e-2" x="-0.6564826798597577" y="0.34615384615384615"/></g><g stroke-opacity="0.0" fill-opacity="0.3" stroke="#000000" stroke-width="0.0" fill="#002ed1"><rect height="7.692307692307693e-2" width="9.351732014024239e-2" x="-0.6564826798597577" y="0.2692307692307692"/></g><g stroke-opacity="0.0" fill-opacity="0.3" stroke="#000000" stroke-width="0.0" fill="#0007f8"><rect height="7.692307692307693e-2" width="9.351732014024239e-2" x="-0.6564826798597577" y="0.1923076923076923"/></g><g stroke-opacity="0.0" fill-opacity="0.3" stroke="#000000" stroke-width="0.0" fill="#000bf4"><rect height="7.692307692307693e-2" width="9.351732014024239e-2" x="-0.6564826798597577" y="0.11538461538461536"/></g><g stroke-opacity="0.0" fill-opacity="0.3" stroke="#000000" stroke-width="0.0" fill="#0007f8"><rect height="7.692307692307693e-2" width="9.351732014024239e-2" x="-0.6564826798597577" y="3.8461538461538436e-2"/></g><g stroke-opacity="0.0" fill-opacity="0.3" stroke="#000000" stroke-width="0.0" fill="#0500fa"><rect height="7.692307692307698e-2" width="9.351732014024239e-2" x="-0.6564826798597577" y="-3.846153846153855e-2"/></g><g stroke-opacity="0.0" fill-opacity="0.3" stroke="#000000" stroke-width="0.0" fill="#0000ff"><rect height="7.692307692307687e-2" width="9.351732014024239e-2" x="-0.6564826798597577" y="-0.11538461538461542"/></g><g stroke-opacity="0.0" fill-opacity="0.3" stroke="#000000" stroke-width="0.0" fill="#0a00f5"><rect height="7.692307692307687e-2" width="9.351732014024239e-2" x="-0.6564826798597577" y="-0.1923076923076923"/></g><g stroke-opacity="0.0" fill-opacity="0.3" stroke="#000000" stroke-width="0.0" fill="#0700f8"><rect height="7.692307692307698e-2" width="9.351732014024239e-2" x="-0.6564826798597577" y="-0.2692307692307693"/></g><g stroke-opacity="0.0" fill-opacity="0.3" stroke="#000000" stroke-width="0.0" fill="#2200dd"><rect height="7.692307692307698e-2" width="9.351732014024239e-2" x="-0.6564826798597577" y="-0.34615384615384626"/></g><g stroke-opacity="0.0" fill-opacity="0.3" stroke="#000000" stroke-width="0.0" fill="#e5001a"><rect height="7.692307692307687e-2" width="9.351732014024239e-2" x="-0.6564826798597577" y="-0.42307692307692313"/></g><g stroke-opacity="0.0" fill-opacity="0.3" stroke="#000000" stroke-width="0.0" fill="#3600c9"><rect height="7.692307692307687e-2" width="9.351732014024239e-2" x="-0.6564826798597577" y="-0.5"/></g><g stroke-opacity="0.0" fill-opacity="0.3" stroke="#000000" stroke-width="0.0" fill="#005ca3"><rect height="7.692307692307693e-2" width="9.351732014024228e-2" x="-0.5629653597195153" y="0.4230769230769231"/></g><g stroke-opacity="0.0" fill-opacity="0.3" stroke="#000000" stroke-width="0.0" fill="#0059a6"><rect height="7.692307692307693e-2" width="9.351732014024228e-2" x="-0.5629653597195153" y="0.34615384615384615"/></g><g stroke-opacity="0.0" fill-opacity="0.3" stroke="#000000" stroke-width="0.0" fill="#00639c"><rect height="7.692307692307693e-2" width="9.351732014024228e-2" x="-0.5629653597195153" y="0.2692307692307692"/></g><g stroke-opacity="0.0" fill-opacity="0.3" stroke="#000000" stroke-width="0.0" fill="#003ec1"><rect height="7.692307692307693e-2" width="9.351732014024228e-2" x="-0.5629653597195153" y="0.1923076923076923"/></g><g stroke-opacity="0.0" fill-opacity="0.3" stroke="#000000" stroke-width="0.0" fill="#0035ca"><rect height="7.692307692307693e-2" width="9.351732014024228e-2" x="-0.5629653597195153" y="0.11538461538461536"/></g><g stroke-opacity="0.0" fill-opacity="0.3" stroke="#000000" stroke-width="0.0" fill="#0039c6"><rect height="7.692307692307693e-2" width="9.351732014024228e-2" x="-0.5629653597195153" y="3.8461538461538436e-2"/></g><g stroke-opacity="0.0" fill-opacity="0.3" stroke="#000000" stroke-width="0.0" fill="#002dd2"><rect height="7.692307692307698e-2" width="9.351732014024228e-2" x="-0.5629653597195153" y="-3.846153846153855e-2"/></g><g stroke-opacity="0.0" fill-opacity="0.3" stroke="#000000" stroke-width="0.0" fill="#001de2"><rect height="7.692307692307687e-2" width="9.351732014024228e-2" x="-0.5629653597195153" y="-0.11538461538461542"/></g><g stroke-opacity="0.0" fill-opacity="0.3" stroke="#000000" stroke-width="0.0" fill="#0016e9"><rect height="7.692307692307687e-2" width="9.351732014024228e-2" x="-0.5629653597195153" y="-0.1923076923076923"/></g><g stroke-opacity="0.0" fill-opacity="0.3" stroke="#000000" stroke-width="0.0" fill="#000ef1"><rect height="7.692307692307698e-2" width="9.351732014024228e-2" x="-0.5629653597195153" y="-0.2692307692307693"/></g><g stroke-opacity="0.0" fill-opacity="0.3" stroke="#000000" stroke-width="0.0" fill="#bc0043"><rect height="7.692307692307698e-2" width="9.351732014024228e-2" x="-0.5629653597195153" y="-0.34615384615384626"/></g><g stroke-opacity="0.0" fill-opacity="0.3" stroke="#000000" stroke-width="0.0" fill="#2000df"><rect height="7.692307692307687e-2" width="9.351732014024228e-2" x="-0.5629653597195153" y="-0.42307692307692313"/></g><g stroke-opacity="0.0" fill-opacity="0.3" stroke="#000000" stroke-width="0.0" fill="#3000cf"><rect height="7.692307692307687e-2" width="9.351732014024228e-2" x="-0.5629653597195153" y="-0.5"/></g><g stroke-opacity="0.0" fill-opacity="0.3" stroke="#000000" stroke-width="0.0" fill="#008679"><rect height="7.692307692307693e-2" width="9.351732014024233e-2" x="-0.46944803957927306" y="0.4230769230769231"/></g><g stroke-opacity="0.0" fill-opacity="0.3" stroke="#000000" stroke-width="0.0" fill="#008679"><rect height="7.692307692307693e-2" width="9.351732014024233e-2" x="-0.46944803957927306" y="0.34615384615384615"/></g><g stroke-opacity="0.0" fill-opacity="0.3" stroke="#000000" stroke-width="0.0" fill="#008080"><rect height="7.692307692307693e-2" width="9.351732014024233e-2" x="-0.46944803957927306" y="0.2692307692307692"/></g><g stroke-opacity="0.0" fill-opacity="0.3" stroke="#000000" stroke-width="0.0" fill="#00619e"><rect height="7.692307692307693e-2" width="9.351732014024233e-2" x="-0.46944803957927306" y="0.1923076923076923"/></g><g stroke-opacity="0.0" fill-opacity="0.3" stroke="#000000" stroke-width="0.0" fill="#005fa0"><rect height="7.692307692307693e-2" width="9.351732014024233e-2" x="-0.46944803957927306" y="0.11538461538461536"/></g><g stroke-opacity="0.0" fill-opacity="0.3" stroke="#000000" stroke-width="0.0" fill="#0045ba"><rect height="7.692307692307693e-2" width="9.351732014024233e-2" x="-0.46944803957927306" y="3.8461538461538436e-2"/></g><g stroke-opacity="0.0" fill-opacity="0.3" stroke="#000000" stroke-width="0.0" fill="#003fc0"><rect height="7.692307692307698e-2" width="9.351732014024233e-2" x="-0.46944803957927306" y="-3.846153846153855e-2"/></g><g stroke-opacity="0.0" fill-opacity="0.3" stroke="#000000" stroke-width="0.0" fill="#0025da"><rect height="7.692307692307687e-2" width="9.351732014024233e-2" x="-0.46944803957927306" y="-0.11538461538461542"/></g><g stroke-opacity="0.0" fill-opacity="0.3" stroke="#000000" stroke-width="0.0" fill="#0021de"><rect height="7.692307692307687e-2" width="9.351732014024233e-2" x="-0.46944803957927306" y="-0.1923076923076923"/></g><g stroke-opacity="0.0" fill-opacity="0.3" stroke="#000000" stroke-width="0.0" fill="#a0005f"><rect height="7.692307692307698e-2" width="9.351732014024233e-2" x="-0.46944803957927306" y="-0.2692307692307693"/></g><g stroke-opacity="0.0" fill-opacity="0.3" stroke="#000000" stroke-width="0.0" fill="#0014eb"><rect height="7.692307692307698e-2" width="9.351732014024233e-2" x="-0.46944803957927306" y="-0.34615384615384626"/></g><g stroke-opacity="0.0" fill-opacity="0.3" stroke="#000000" stroke-width="0.0" fill="#0500fa"><rect height="7.692307692307687e-2" width="9.351732014024233e-2" x="-0.46944803957927306" y="-0.42307692307692313"/></g><g stroke-opacity="0.0" fill-opacity="0.3" stroke="#000000" stroke-width="0.0" fill="#2000df"><rect height="7.692307692307687e-2" width="9.351732014024233e-2" x="-0.46944803957927306" y="-0.5"/></g><g stroke-opacity="0.0" fill-opacity="0.3" stroke="#000000" stroke-width="0.0" fill="#009c63"><rect height="7.692307692307693e-2" width="9.351732014024233e-2" x="-0.3759307194390307" y="0.4230769230769231"/></g><g stroke-opacity="0.0" fill-opacity="0.3" stroke="#000000" stroke-width="0.0" fill="#00906f"><rect height="7.692307692307693e-2" width="9.351732014024233e-2" x="-0.3759307194390307" y="0.34615384615384615"/></g><g stroke-opacity="0.0" fill-opacity="0.3" stroke="#000000" stroke-width="0.0" fill="#009768"><rect height="7.692307692307693e-2" width="9.351732014024233e-2" x="-0.3759307194390307" y="0.2692307692307692"/></g><g stroke-opacity="0.0" fill-opacity="0.3" stroke="#000000" stroke-width="0.0" fill="#00748b"><rect height="7.692307692307693e-2" width="9.351732014024233e-2" x="-0.3759307194390307" y="0.1923076923076923"/></g><g stroke-opacity="0.0" fill-opacity="0.3" stroke="#000000" stroke-width="0.0" fill="#00758a"><rect height="7.692307692307693e-2" width="9.351732014024233e-2" x="-0.3759307194390307" y="0.11538461538461536"/></g><g stroke-opacity="0.0" fill-opacity="0.3" stroke="#000000" stroke-width="0.0" fill="#005aa5"><rect height="7.692307692307693e-2" width="9.351732014024233e-2" x="-0.3759307194390307" y="3.8461538461538436e-2"/></g><g stroke-opacity="0.0" fill-opacity="0.3" stroke="#000000" stroke-width="0.0" fill="#0046b9"><rect height="7.692307692307698e-2" width="9.351732014024233e-2" x="-0.3759307194390307" y="-3.846153846153855e-2"/></g><g stroke-opacity="0.0" fill-opacity="0.3" stroke="#000000" stroke-width="0.0" fill="#0047b8"><rect height="7.692307692307687e-2" width="9.351732014024233e-2" x="-0.3759307194390307" y="-0.11538461538461542"/></g><g stroke-opacity="0.0" fill-opacity="0.3" stroke="#000000" stroke-width="0.0" fill="#880077"><rect height="7.692307692307687e-2" width="9.351732014024233e-2" x="-0.3759307194390307" y="-0.1923076923076923"/></g><g stroke-opacity="0.0" fill-opacity="0.3" stroke="#000000" stroke-width="0.0" fill="#0026d9"><rect height="7.692307692307698e-2" width="9.351732014024233e-2" x="-0.3759307194390307" y="-0.2692307692307693"/></g><g stroke-opacity="0.0" fill-opacity="0.3" stroke="#000000" stroke-width="0.0" fill="#001ae5"><rect height="7.692307692307698e-2" width="9.351732014024233e-2" x="-0.3759307194390307" y="-0.34615384615384626"/></g><g stroke-opacity="0.0" fill-opacity="0.3" stroke="#000000" stroke-width="0.0" fill="#0700f8"><rect height="7.692307692307687e-2" width="9.351732014024233e-2" x="-0.3759307194390307" y="-0.42307692307692313"/></g><g stroke-opacity="0.0" fill-opacity="0.3" stroke="#000000" stroke-width="0.0" fill="#2b00d4"><rect height="7.692307692307687e-2" width="9.351732014024233e-2" x="-0.3759307194390307" y="-0.5"/></g><g stroke-opacity="0.0" fill-opacity="0.3" stroke="#000000" stroke-width="0.0" fill="#00ac53"><rect height="7.692307692307693e-2" width="9.351732014024228e-2" x="-0.2824133992987884" y="0.4230769230769231"/></g><g stroke-opacity="0.0" fill-opacity="0.3" stroke="#000000" stroke-width="0.0" fill="#009b64"><rect height="7.692307692307693e-2" width="9.351732014024228e-2" x="-0.2824133992987884" y="0.34615384615384615"/></g><g stroke-opacity="0.0" fill-opacity="0.3" stroke="#000000" stroke-width="0.0" fill="#00aa55"><rect height="7.692307692307693e-2" width="9.351732014024228e-2" x="-0.2824133992987884" y="0.2692307692307692"/></g><g stroke-opacity="0.0" fill-opacity="0.3" stroke="#000000" stroke-width="0.0" fill="#00807f"><rect height="7.692307692307693e-2" width="9.351732014024228e-2" x="-0.2824133992987884" y="0.1923076923076923"/></g><g stroke-opacity="0.0" fill-opacity="0.3" stroke="#000000" stroke-width="0.0" fill="#00758a"><rect height="7.692307692307693e-2" width="9.351732014024228e-2" x="-0.2824133992987884" y="0.11538461538461536"/></g><g stroke-opacity="0.0" fill-opacity="0.3" stroke="#000000" stroke-width="0.0" fill="#006a95"><rect height="7.692307692307693e-2" width="9.351732014024228e-2" x="-0.2824133992987884" y="3.8461538461538436e-2"/></g><g stroke-opacity="0.0" fill-opacity="0.3" stroke="#000000" stroke-width="0.0" fill="#0046b9"><rect height="7.692307692307698e-2" width="9.351732014024228e-2" x="-0.2824133992987884" y="-3.846153846153855e-2"/></g><g stroke-opacity="0.0" fill-opacity="0.3" stroke="#000000" stroke-width="0.0" fill="#6d0092"><rect height="7.692307692307687e-2" width="9.351732014024228e-2" x="-0.2824133992987884" y="-0.11538461538461542"/></g><g stroke-opacity="0.0" fill-opacity="0.3" stroke="#000000" stroke-width="0.0" fill="#004fb0"><rect height="7.692307692307687e-2" width="9.351732014024228e-2" x="-0.2824133992987884" y="-0.1923076923076923"/></g><g stroke-opacity="0.0" fill-opacity="0.3" stroke="#000000" stroke-width="0.0" fill="#002bd4"><rect height="7.692307692307698e-2" width="9.351732014024228e-2" x="-0.2824133992987884" y="-0.2692307692307693"/></g><g stroke-opacity="0.0" fill-opacity="0.3" stroke="#000000" stroke-width="0.0" fill="#0021de"><rect height="7.692307692307698e-2" width="9.351732014024228e-2" x="-0.2824133992987884" y="-0.34615384615384626"/></g><g stroke-opacity="0.0" fill-opacity="0.3" stroke="#000000" stroke-width="0.0" fill="#0001fe"><rect height="7.692307692307687e-2" width="9.351732014024228e-2" x="-0.2824133992987884" y="-0.42307692307692313"/></g><g stroke-opacity="0.0" fill-opacity="0.3" stroke="#000000" stroke-width="0.0" fill="#1f00e0"><rect height="7.692307692307687e-2" width="9.351732014024228e-2" x="-0.2824133992987884" y="-0.5"/></g><g stroke-opacity="0.0" fill-opacity="0.3" stroke="#000000" stroke-width="0.0" fill="#00c738"><rect height="7.692307692307693e-2" width="9.351732014024239e-2" x="-0.18889607915854612" y="0.4230769230769231"/></g><g stroke-opacity="0.0" fill-opacity="0.3" stroke="#000000" stroke-width="0.0" fill="#00ba45"><rect height="7.692307692307693e-2" width="9.351732014024239e-2" x="-0.18889607915854612" y="0.34615384615384615"/></g><g stroke-opacity="0.0" fill-opacity="0.3" stroke="#000000" stroke-width="0.0" fill="#00b24d"><rect height="7.692307692307693e-2" width="9.351732014024239e-2" x="-0.18889607915854612" y="0.2692307692307692"/></g><g stroke-opacity="0.0" fill-opacity="0.3" stroke="#000000" stroke-width="0.0" fill="#009768"><rect height="7.692307692307693e-2" width="9.351732014024239e-2" x="-0.18889607915854612" y="0.1923076923076923"/></g><g stroke-opacity="0.0" fill-opacity="0.3" stroke="#000000" stroke-width="0.0" fill="#008c73"><rect height="7.692307692307693e-2" width="9.351732014024239e-2" x="-0.18889607915854612" y="0.11538461538461536"/></g><g stroke-opacity="0.0" fill-opacity="0.3" stroke="#000000" stroke-width="0.0" fill="#006b94"><rect height="7.692307692307693e-2" width="9.351732014024239e-2" x="-0.18889607915854612" y="3.8461538461538436e-2"/></g><g stroke-opacity="0.0" fill-opacity="0.3" stroke="#000000" stroke-width="0.0" fill="#5400ab"><rect height="7.692307692307698e-2" width="9.351732014024239e-2" x="-0.18889607915854612" y="-3.846153846153855e-2"/></g><g stroke-opacity="0.0" fill-opacity="0.3" stroke="#000000" stroke-width="0.0" fill="#004cb3"><rect height="7.692307692307687e-2" width="9.351732014024239e-2" x="-0.18889607915854612" y="-0.11538461538461542"/></g><g stroke-opacity="0.0" fill-opacity="0.3" stroke="#000000" stroke-width="0.0" fill="#004db2"><rect height="7.692307692307687e-2" width="9.351732014024239e-2" x="-0.18889607915854612" y="-0.1923076923076923"/></g><g stroke-opacity="0.0" fill-opacity="0.3" stroke="#000000" stroke-width="0.0" fill="#0040bf"><rect height="7.692307692307698e-2" width="9.351732014024239e-2" x="-0.18889607915854612" y="-0.2692307692307693"/></g><g stroke-opacity="0.0" fill-opacity="0.3" stroke="#000000" stroke-width="0.0" fill="#002fd0"><rect height="7.692307692307698e-2" width="9.351732014024239e-2" x="-0.18889607915854612" y="-0.34615384615384626"/></g><g stroke-opacity="0.0" fill-opacity="0.3" stroke="#000000" stroke-width="0.0" fill="#0300fc"><rect height="7.692307692307687e-2" width="9.351732014024239e-2" x="-0.18889607915854612" y="-0.42307692307692313"/></g><g stroke-opacity="0.0" fill-opacity="0.3" stroke="#000000" stroke-width="0.0" fill="#2c00d3"><rect height="7.692307692307687e-2" width="9.351732014024239e-2" x="-0.18889607915854612" y="-0.5"/></g><g stroke-opacity="0.0" fill-opacity="0.3" stroke="#000000" stroke-width="0.0" fill="#00d629"><rect height="7.692307692307693e-2" width="9.351732014024228e-2" x="-9.537875901830373e-2" y="0.4230769230769231"/></g><g stroke-opacity="0.0" fill-opacity="0.3" stroke="#000000" stroke-width="0.0" fill="#00b946"><rect height="7.692307692307693e-2" width="9.351732014024228e-2" x="-9.537875901830373e-2" y="0.34615384615384615"/></g><g stroke-opacity="0.0" fill-opacity="0.3" stroke="#000000" stroke-width="0.0" fill="#00a857"><rect height="7.692307692307693e-2" width="9.351732014024228e-2" x="-9.537875901830373e-2" y="0.2692307692307692"/></g><g stroke-opacity="0.0" fill-opacity="0.3" stroke="#000000" stroke-width="0.0" fill="#00906f"><rect height="7.692307692307693e-2" width="9.351732014024228e-2" x="-9.537875901830373e-2" y="0.1923076923076923"/></g><g stroke-opacity="0.0" fill-opacity="0.3" stroke="#000000" stroke-width="0.0" fill="#00837c"><rect height="7.692307692307693e-2" width="9.351732014024228e-2" x="-9.537875901830373e-2" y="0.11538461538461536"/></g><g stroke-opacity="0.0" fill-opacity="0.3" stroke="#000000" stroke-width="0.0" fill="#4300bc"><rect height="7.692307692307693e-2" width="9.351732014024228e-2" x="-9.537875901830373e-2" y="3.8461538461538436e-2"/></g><g stroke-opacity="0.0" fill-opacity="0.3" stroke="#000000" stroke-width="0.0" fill="#00748b"><rect height="7.692307692307698e-2" width="9.351732014024228e-2" x="-9.537875901830373e-2" y="-3.846153846153855e-2"/></g><g stroke-opacity="0.0" fill-opacity="0.3" stroke="#000000" stroke-width="0.0" fill="#006f90"><rect height="7.692307692307687e-2" width="9.351732014024228e-2" x="-9.537875901830373e-2" y="-0.11538461538461542"/></g><g stroke-opacity="0.0" fill-opacity="0.3" stroke="#000000" stroke-width="0.0" fill="#00609f"><rect height="7.692307692307687e-2" width="9.351732014024228e-2" x="-9.537875901830373e-2" y="-0.1923076923076923"/></g><g stroke-opacity="0.0" fill-opacity="0.3" stroke="#000000" stroke-width="0.0" fill="#004ab5"><rect height="7.692307692307698e-2" width="9.351732014024228e-2" x="-9.537875901830373e-2" y="-0.2692307692307693"/></g><g stroke-opacity="0.0" fill-opacity="0.3" stroke="#000000" stroke-width="0.0" fill="#003fc0"><rect height="7.692307692307698e-2" width="9.351732014024228e-2" x="-9.537875901830373e-2" y="-0.34615384615384626"/></g><g stroke-opacity="0.0" fill-opacity="0.3" stroke="#000000" stroke-width="0.0" fill="#000bf4"><rect height="7.692307692307687e-2" width="9.351732014024228e-2" x="-9.537875901830373e-2" y="-0.42307692307692313"/></g><g stroke-opacity="0.0" fill-opacity="0.3" stroke="#000000" stroke-width="0.0" fill="#1000ef"><rect height="7.692307692307687e-2" width="9.351732014024228e-2" x="-9.537875901830373e-2" y="-0.5"/></g><g stroke-opacity="0.0" fill-opacity="0.3" stroke="#000000" stroke-width="0.0" fill="#00d926"><rect height="7.692307692307693e-2" width="9.351732014024228e-2" x="-1.86143887806145e-3" y="0.4230769230769231"/></g><g stroke-opacity="0.0" fill-opacity="0.3" stroke="#000000" stroke-width="0.0" fill="#00cc33"><rect height="7.692307692307693e-2" width="9.351732014024228e-2" x="-1.86143887806145e-3" y="0.34615384615384615"/></g><g stroke-opacity="0.0" fill-opacity="0.3" stroke="#000000" stroke-width="0.0" fill="#00b44b"><rect height="7.692307692307693e-2" width="9.351732014024228e-2" x="-1.86143887806145e-3" y="0.2692307692307692"/></g><g stroke-opacity="0.0" fill-opacity="0.3" stroke="#000000" stroke-width="0.0" fill="#009b64"><rect height="7.692307692307693e-2" width="9.351732014024228e-2" x="-1.86143887806145e-3" y="0.1923076923076923"/></g><g stroke-opacity="0.0" fill-opacity="0.3" stroke="#000000" stroke-width="0.0" fill="#2f00d0"><rect height="7.692307692307693e-2" width="9.351732014024228e-2" x="-1.86143887806145e-3" y="0.11538461538461536"/></g><g stroke-opacity="0.0" fill-opacity="0.3" stroke="#000000" stroke-width="0.0" fill="#008a75"><rect height="7.692307692307693e-2" width="9.351732014024228e-2" x="-1.86143887806145e-3" y="3.8461538461538436e-2"/></g><g stroke-opacity="0.0" fill-opacity="0.3" stroke="#000000" stroke-width="0.0" fill="#00956a"><rect height="7.692307692307698e-2" width="9.351732014024228e-2" x="-1.86143887806145e-3" y="-3.846153846153855e-2"/></g><g stroke-opacity="0.0" fill-opacity="0.3" stroke="#000000" stroke-width="0.0" fill="#007d82"><rect height="7.692307692307687e-2" width="9.351732014024228e-2" x="-1.86143887806145e-3" y="-0.11538461538461542"/></g><g stroke-opacity="0.0" fill-opacity="0.3" stroke="#000000" stroke-width="0.0" fill="#007c83"><rect height="7.692307692307687e-2" width="9.351732014024228e-2" x="-1.86143887806145e-3" y="-0.1923076923076923"/></g><g stroke-opacity="0.0" fill-opacity="0.3" stroke="#000000" stroke-width="0.0" fill="#006699"><rect height="7.692307692307698e-2" width="9.351732014024228e-2" x="-1.86143887806145e-3" y="-0.2692307692307693"/></g><g stroke-opacity="0.0" fill-opacity="0.3" stroke="#000000" stroke-width="0.0" fill="#003cc3"><rect height="7.692307692307698e-2" width="9.351732014024228e-2" x="-1.86143887806145e-3" y="-0.34615384615384626"/></g><g stroke-opacity="0.0" fill-opacity="0.3" stroke="#000000" stroke-width="0.0" fill="#000ff0"><rect height="7.692307692307687e-2" width="9.351732014024228e-2" x="-1.86143887806145e-3" y="-0.42307692307692313"/></g><g stroke-opacity="0.0" fill-opacity="0.3" stroke="#000000" stroke-width="0.0" fill="#0c00f3"><rect height="7.692307692307687e-2" width="9.351732014024228e-2" x="-1.86143887806145e-3" y="-0.5"/></g><g stroke-opacity="0.0" fill-opacity="0.3" stroke="#000000" stroke-width="0.0" fill="#00db24"><rect height="7.692307692307693e-2" width="9.351732014024239e-2" x="9.165588126218083e-2" y="0.4230769230769231"/></g><g stroke-opacity="0.0" fill-opacity="0.3" stroke="#000000" stroke-width="0.0" fill="#00d12e"><rect height="7.692307692307693e-2" width="9.351732014024239e-2" x="9.165588126218083e-2" y="0.34615384615384615"/></g><g stroke-opacity="0.0" fill-opacity="0.3" stroke="#000000" stroke-width="0.0" fill="#00bd42"><rect height="7.692307692307693e-2" width="9.351732014024239e-2" x="9.165588126218083e-2" y="0.2692307692307692"/></g><g stroke-opacity="0.0" fill-opacity="0.3" stroke="#000000" stroke-width="0.0" fill="#0a00f5"><rect height="7.692307692307693e-2" width="9.351732014024239e-2" x="9.165588126218083e-2" y="0.1923076923076923"/></g><g stroke-opacity="0.0" fill-opacity="0.3" stroke="#000000" stroke-width="0.0" fill="#009c63"><rect height="7.692307692307693e-2" width="9.351732014024239e-2" x="9.165588126218083e-2" y="0.11538461538461536"/></g><g stroke-opacity="0.0" fill-opacity="0.3" stroke="#000000" stroke-width="0.0" fill="#00916e"><rect height="7.692307692307693e-2" width="9.351732014024239e-2" x="9.165588126218083e-2" y="3.8461538461538436e-2"/></g><g stroke-opacity="0.0" fill-opacity="0.3" stroke="#000000" stroke-width="0.0" fill="#009e61"><rect height="7.692307692307698e-2" width="9.351732014024239e-2" x="9.165588126218083e-2" y="-3.846153846153855e-2"/></g><g stroke-opacity="0.0" fill-opacity="0.3" stroke="#000000" stroke-width="0.0" fill="#008679"><rect height="7.692307692307687e-2" width="9.351732014024239e-2" x="9.165588126218083e-2" y="-0.11538461538461542"/></g><g stroke-opacity="0.0" fill-opacity="0.3" stroke="#000000" stroke-width="0.0" fill="#007986"><rect height="7.692307692307687e-2" width="9.351732014024239e-2" x="9.165588126218083e-2" y="-0.1923076923076923"/></g><g stroke-opacity="0.0" fill-opacity="0.3" stroke="#000000" stroke-width="0.0" fill="#006798"><rect height="7.692307692307698e-2" width="9.351732014024239e-2" x="9.165588126218083e-2" y="-0.2692307692307693"/></g><g stroke-opacity="0.0" fill-opacity="0.3" stroke="#000000" stroke-width="0.0" fill="#0046b9"><rect height="7.692307692307698e-2" width="9.351732014024239e-2" x="9.165588126218083e-2" y="-0.34615384615384626"/></g><g stroke-opacity="0.0" fill-opacity="0.3" stroke="#000000" stroke-width="0.0" fill="#000df2"><rect height="7.692307692307687e-2" width="9.351732014024239e-2" x="9.165588126218083e-2" y="-0.42307692307692313"/></g><g stroke-opacity="0.0" fill-opacity="0.3" stroke="#000000" stroke-width="0.0" fill="#0f00f0"><rect height="7.692307692307687e-2" width="9.351732014024239e-2" x="9.165588126218083e-2" y="-0.5"/></g><g stroke-opacity="0.0" fill-opacity="0.3" stroke="#000000" stroke-width="0.0" fill="#00fc03"><rect height="7.692307692307693e-2" width="9.351732014024239e-2" x="0.18517320140242322" y="0.4230769230769231"/></g><g stroke-opacity="0.0" fill-opacity="0.3" stroke="#000000" stroke-width="0.0" fill="#00ea15"><rect height="7.692307692307693e-2" width="9.351732014024239e-2" x="0.18517320140242322" y="0.34615384615384615"/></g><g stroke-opacity="0.0" fill-opacity="0.3" stroke="#000000" stroke-width="0.0" fill="#0020df"><rect height="7.692307692307693e-2" width="9.351732014024239e-2" x="0.18517320140242322" y="0.2692307692307692"/></g><g stroke-opacity="0.0" fill-opacity="0.3" stroke="#000000" stroke-width="0.0" fill="#00c13e"><rect height="7.692307692307693e-2" width="9.351732014024239e-2" x="0.18517320140242322" y="0.1923076923076923"/></g><g stroke-opacity="0.0" fill-opacity="0.3" stroke="#000000" stroke-width="0.0" fill="#00b946"><rect height="7.692307692307693e-2" width="9.351732014024239e-2" x="0.18517320140242322" y="0.11538461538461536"/></g><g stroke-opacity="0.0" fill-opacity="0.3" stroke="#000000" stroke-width="0.0" fill="#00ac53"><rect height="7.692307692307693e-2" width="9.351732014024239e-2" x="0.18517320140242322" y="3.8461538461538436e-2"/></g><g stroke-opacity="0.0" fill-opacity="0.3" stroke="#000000" stroke-width="0.0" fill="#00b649"><rect height="7.692307692307698e-2" width="9.351732014024239e-2" x="0.18517320140242322" y="-3.846153846153855e-2"/></g><g stroke-opacity="0.0" fill-opacity="0.3" stroke="#000000" stroke-width="0.0" fill="#00b04f"><rect height="7.692307692307687e-2" width="9.351732014024239e-2" x="0.18517320140242322" y="-0.11538461538461542"/></g><g stroke-opacity="0.0" fill-opacity="0.3" stroke="#000000" stroke-width="0.0" fill="#009c63"><rect height="7.692307692307687e-2" width="9.351732014024239e-2" x="0.18517320140242322" y="-0.1923076923076923"/></g><g stroke-opacity="0.0" fill-opacity="0.3" stroke="#000000" stroke-width="0.0" fill="#00857a"><rect height="7.692307692307698e-2" width="9.351732014024239e-2" x="0.18517320140242322" y="-0.2692307692307693"/></g><g stroke-opacity="0.0" fill-opacity="0.3" stroke="#000000" stroke-width="0.0" fill="#006a95"><rect height="7.692307692307698e-2" width="9.351732014024239e-2" x="0.18517320140242322" y="-0.34615384615384626"/></g><g stroke-opacity="0.0" fill-opacity="0.3" stroke="#000000" stroke-width="0.0" fill="#0031ce"><rect height="7.692307692307687e-2" width="9.351732014024239e-2" x="0.18517320140242322" y="-0.42307692307692313"/></g><g stroke-opacity="0.0" fill-opacity="0.3" stroke="#000000" stroke-width="0.0" fill="#000df2"><rect height="7.692307692307687e-2" width="9.351732014024239e-2" x="0.18517320140242322" y="-0.5"/></g><g stroke-opacity="0.0" fill-opacity="0.3" stroke="#000000" stroke-width="0.0" fill="#00f906"><rect height="7.692307692307693e-2" width="9.351732014024217e-2" x="0.2786905215426656" y="0.4230769230769231"/></g><g stroke-opacity="0.0" fill-opacity="0.3" stroke="#000000" stroke-width="0.0" fill="#002fd0"><rect height="7.692307692307693e-2" width="9.351732014024217e-2" x="0.2786905215426656" y="0.34615384615384615"/></g><g stroke-opacity="0.0" fill-opacity="0.3" stroke="#000000" stroke-width="0.0" fill="#00ee11"><rect height="7.692307692307693e-2" width="9.351732014024217e-2" x="0.2786905215426656" y="0.2692307692307692"/></g><g stroke-opacity="0.0" fill-opacity="0.3" stroke="#000000" stroke-width="0.0" fill="#00d32c"><rect height="7.692307692307693e-2" width="9.351732014024217e-2" x="0.2786905215426656" y="0.1923076923076923"/></g><g stroke-opacity="0.0" fill-opacity="0.3" stroke="#000000" stroke-width="0.0" fill="#00ce31"><rect height="7.692307692307693e-2" width="9.351732014024217e-2" x="0.2786905215426656" y="0.11538461538461536"/></g><g stroke-opacity="0.0" fill-opacity="0.3" stroke="#000000" stroke-width="0.0" fill="#00bd42"><rect height="7.692307692307693e-2" width="9.351732014024217e-2" x="0.2786905215426656" y="3.8461538461538436e-2"/></g><g stroke-opacity="0.0" fill-opacity="0.3" stroke="#000000" stroke-width="0.0" fill="#00bd42"><rect height="7.692307692307698e-2" width="9.351732014024217e-2" x="0.2786905215426656" y="-3.846153846153855e-2"/></g><g stroke-opacity="0.0" fill-opacity="0.3" stroke="#000000" stroke-width="0.0" fill="#00a05f"><rect height="7.692307692307687e-2" width="9.351732014024217e-2" x="0.2786905215426656" y="-0.11538461538461542"/></g><g stroke-opacity="0.0" fill-opacity="0.3" stroke="#000000" stroke-width="0.0" fill="#00936c"><rect height="7.692307692307687e-2" width="9.351732014024217e-2" x="0.2786905215426656" y="-0.1923076923076923"/></g><g stroke-opacity="0.0" fill-opacity="0.3" stroke="#000000" stroke-width="0.0" fill="#008778"><rect height="7.692307692307698e-2" width="9.351732014024217e-2" x="0.2786905215426656" y="-0.2692307692307693"/></g><g stroke-opacity="0.0" fill-opacity="0.3" stroke="#000000" stroke-width="0.0" fill="#005da2"><rect height="7.692307692307698e-2" width="9.351732014024217e-2" x="0.2786905215426656" y="-0.34615384615384626"/></g><g stroke-opacity="0.0" fill-opacity="0.3" stroke="#000000" stroke-width="0.0" fill="#0027d8"><rect height="7.692307692307687e-2" width="9.351732014024217e-2" x="0.2786905215426656" y="-0.42307692307692313"/></g><g stroke-opacity="0.0" fill-opacity="0.3" stroke="#000000" stroke-width="0.0" fill="#000cf3"><rect height="7.692307692307687e-2" width="9.351732014024217e-2" x="0.2786905215426656" y="-0.5"/></g><g stroke-opacity="0.0" fill-opacity="0.3" stroke="#000000" stroke-width="0.0" fill="#005aa5"><rect height="7.692307692307693e-2" width="9.351732014024217e-2" x="0.37220784168290777" y="0.4230769230769231"/></g><g stroke-opacity="0.0" fill-opacity="0.3" stroke="#000000" stroke-width="0.0" fill="#00fb04"><rect height="7.692307692307693e-2" width="9.351732014024217e-2" x="0.37220784168290777" y="0.34615384615384615"/></g><g stroke-opacity="0.0" fill-opacity="0.3" stroke="#000000" stroke-width="0.0" fill="#00ff00"><rect height="7.692307692307693e-2" width="9.351732014024217e-2" x="0.37220784168290777" y="0.2692307692307692"/></g><g stroke-opacity="0.0" fill-opacity="0.3" stroke="#000000" stroke-width="0.0" fill="#00dc23"><rect height="7.692307692307693e-2" width="9.351732014024217e-2" x="0.37220784168290777" y="0.1923076923076923"/></g><g stroke-opacity="0.0" fill-opacity="0.3" stroke="#000000" stroke-width="0.0" fill="#00db24"><rect height="7.692307692307693e-2" width="9.351732014024217e-2" x="0.37220784168290777" y="0.11538461538461536"/></g><g stroke-opacity="0.0" fill-opacity="0.3" stroke="#000000" stroke-width="0.0" fill="#00d926"><rect height="7.692307692307693e-2" width="9.351732014024217e-2" x="0.37220784168290777" y="3.8461538461538436e-2"/></g><g stroke-opacity="0.0" fill-opacity="0.3" stroke="#000000" stroke-width="0.0" fill="#00ca35"><rect height="7.692307692307698e-2" width="9.351732014024217e-2" x="0.37220784168290777" y="-3.846153846153855e-2"/></g><g stroke-opacity="0.0" fill-opacity="0.3" stroke="#000000" stroke-width="0.0" fill="#00ac53"><rect height="7.692307692307687e-2" width="9.351732014024217e-2" x="0.37220784168290777" y="-0.11538461538461542"/></g><g stroke-opacity="0.0" fill-opacity="0.3" stroke="#000000" stroke-width="0.0" fill="#009c63"><rect height="7.692307692307687e-2" width="9.351732014024217e-2" x="0.37220784168290777" y="-0.1923076923076923"/></g><g stroke-opacity="0.0" fill-opacity="0.3" stroke="#000000" stroke-width="0.0" fill="#008877"><rect height="7.692307692307698e-2" width="9.351732014024217e-2" x="0.37220784168290777" y="-0.2692307692307693"/></g><g stroke-opacity="0.0" fill-opacity="0.3" stroke="#000000" stroke-width="0.0" fill="#00609f"><rect height="7.692307692307698e-2" width="9.351732014024217e-2" x="0.37220784168290777" y="-0.34615384615384626"/></g><g stroke-opacity="0.0" fill-opacity="0.3" stroke="#000000" stroke-width="0.0" fill="#002fd0"><rect height="7.692307692307687e-2" width="9.351732014024217e-2" x="0.37220784168290777" y="-0.42307692307692313"/></g><g stroke-opacity="0.0" fill-opacity="0.3" stroke="#000000" stroke-width="0.0" fill="#0019e6"><rect height="7.692307692307687e-2" width="9.351732014024217e-2" x="0.37220784168290777" y="-0.5"/></g><g fill-opacity="1.0" font-size="3.4999999999999996e-2" stroke="none" stroke-width="0.0" fill="#0d0d0d" text-anchor="start"><text x="0.6691542767387604" y="-3.359999999999996e-2">0.4</text></g><g fill-opacity="1.0" font-size="3.4999999999999996e-2" stroke="none" stroke-width="0.0" fill="#0d0d0d" text-anchor="start"><text x="0.6691542767387604" y="-0.15860000000000007">0.6</text></g><g fill-opacity="1.0" font-size="3.4999999999999996e-2" stroke="none" stroke-width="0.0" fill="#0d0d0d" text-anchor="start"><text x="0.6691542767387604" y="-0.28359999999999996">0.8</text></g><g stroke-opacity="0.4" fill-opacity="1.0" stroke="#0d0d0d" stroke-width="2.0e-3" fill="#0d0d0d"><g transform="rotate(-90.0, 0.617217282100514, -4.3749999999999956e-2)"><polyline points="0.617217282100514,-3.324999999999996e-2
0.617217282100514,-5.424999999999995e-2"/></g><g transform="rotate(-90.0, 0.617217282100514, -0.16875000000000007)"><polyline points="0.617217282100514,-0.15825000000000006
0.617217282100514,-0.17925000000000008"/></g><g transform="rotate(-90.0, 0.617217282100514, -0.29374999999999996)"><polyline points="0.617217282100514,-0.28324999999999995
0.617217282100514,-0.30424999999999996"/></g></g><g stroke-opacity="0.0" fill-opacity="0.3" stroke="#000000" stroke-width="0.0" fill="#00fc03"><rect height="3.4999999999999476e-3" width="4.255038066381034e-2" x="0.5661568253039413" y="-3.4999999999999476e-3"/></g><g stroke-opacity="0.0" fill-opacity="0.3" stroke="#000000" stroke-width="0.0" fill="#00f708"><rect height="3.5000000000000586e-3" width="4.255038066381034e-2" x="0.5661568253039413" y="-7.000000000000006e-3"/></g><g stroke-opacity="0.0" fill-opacity="0.3" stroke="#000000" stroke-width="0.0" fill="#00f20d"><rect height="3.4999999999999476e-3" width="4.255038066381034e-2" x="0.5661568253039413" y="-1.0499999999999954e-2"/></g><g stroke-opacity="0.0" fill-opacity="0.3" stroke="#000000" stroke-width="0.0" fill="#00ed12"><rect height="3.5000000000000586e-3" width="4.255038066381034e-2" x="0.5661568253039413" y="-1.4000000000000012e-2"/></g><g stroke-opacity="0.0" fill-opacity="0.3" stroke="#000000" stroke-width="0.0" fill="#00e817"><rect height="3.4999999999999476e-3" width="4.255038066381034e-2" x="0.5661568253039413" y="-1.749999999999996e-2"/></g><g stroke-opacity="0.0" fill-opacity="0.3" stroke="#000000" stroke-width="0.0" fill="#00e31c"><rect height="3.5000000000000586e-3" width="4.255038066381034e-2" x="0.5661568253039413" y="-2.100000000000002e-2"/></g><g stroke-opacity="0.0" fill-opacity="0.3" stroke="#000000" stroke-width="0.0" fill="#00de21"><rect height="3.4999999999999476e-3" width="4.255038066381034e-2" x="0.5661568253039413" y="-2.4499999999999966e-2"/></g><g stroke-opacity="0.0" fill-opacity="0.3" stroke="#000000" stroke-width="0.0" fill="#00d926"><rect height="3.5000000000000586e-3" width="4.255038066381034e-2" x="0.5661568253039413" y="-2.8000000000000025e-2"/></g><g stroke-opacity="0.0" fill-opacity="0.3" stroke="#000000" stroke-width="0.0" fill="#00d42b"><rect height="3.4999999999999476e-3" width="4.255038066381034e-2" x="0.5661568253039413" y="-3.149999999999997e-2"/></g><g stroke-opacity="0.0" fill-opacity="0.3" stroke="#000000" stroke-width="0.0" fill="#00cf30"><rect height="3.5000000000000586e-3" width="4.255038066381034e-2" x="0.5661568253039413" y="-3.500000000000003e-2"/></g><g stroke-opacity="0.0" fill-opacity="0.3" stroke="#000000" stroke-width="0.0" fill="#00c936"><rect height="3.4999999999999476e-3" width="4.255038066381034e-2" x="0.5661568253039413" y="-3.849999999999998e-2"/></g><g stroke-opacity="0.0" fill-opacity="0.3" stroke="#000000" stroke-width="0.0" fill="#00c43b"><rect height="3.5000000000000586e-3" width="4.255038066381034e-2" x="0.5661568253039413" y="-4.200000000000004e-2"/></g><g stroke-opacity="0.0" fill-opacity="0.3" stroke="#000000" stroke-width="0.0" fill="#00bf40"><rect height="3.4999999999999476e-3" width="4.255038066381034e-2" x="0.5661568253039413" y="-4.5499999999999985e-2"/></g><g stroke-opacity="0.0" fill-opacity="0.3" stroke="#000000" stroke-width="0.0" fill="#00ba45"><rect height="3.5000000000000586e-3" width="4.255038066381034e-2" x="0.5661568253039413" y="-4.9000000000000044e-2"/></g><g stroke-opacity="0.0" fill-opacity="0.3" stroke="#000000" stroke-width="0.0" fill="#00b54a"><rect height="3.4999999999999476e-3" width="4.255038066381034e-2" x="0.5661568253039413" y="-5.249999999999999e-2"/></g><g stroke-opacity="0.0" fill-opacity="0.3" stroke="#000000" stroke-width="0.0" fill="#00b04f"><rect height="3.5000000000000586e-3" width="4.255038066381034e-2" x="0.5661568253039413" y="-5.600000000000005e-2"/></g><g stroke-opacity="0.0" fill-opacity="0.3" stroke="#000000" stroke-width="0.0" fill="#00ab54"><rect height="3.4999999999999476e-3" width="4.255038066381034e-2" x="0.5661568253039413" y="-5.95e-2"/></g><g stroke-opacity="0.0" fill-opacity="0.3" stroke="#000000" stroke-width="0.0" fill="#00a659"><rect height="3.4999999999999476e-3" width="4.255038066381034e-2" x="0.5661568253039413" y="-6.299999999999994e-2"/></g><g stroke-opacity="0.0" fill-opacity="0.3" stroke="#000000" stroke-width="0.0" fill="#00a15e"><rect height="3.5000000000000586e-3" width="4.255038066381034e-2" x="0.5661568253039413" y="-6.65e-2"/></g><g stroke-opacity="0.0" fill-opacity="0.3" stroke="#000000" stroke-width="0.0" fill="#009c63"><rect height="3.5000000000000586e-3" width="4.255038066381034e-2" x="0.5661568253039413" y="-7.000000000000006e-2"/></g><g stroke-opacity="0.0" fill-opacity="0.3" stroke="#000000" stroke-width="0.0" fill="#009669"><rect height="3.4999999999999476e-3" width="4.255038066381034e-2" x="0.5661568253039413" y="-7.350000000000001e-2"/></g><g stroke-opacity="0.0" fill-opacity="0.3" stroke="#000000" stroke-width="0.0" fill="#00916e"><rect height="3.4999999999999476e-3" width="4.255038066381034e-2" x="0.5661568253039413" y="-7.699999999999996e-2"/></g><g stroke-opacity="0.0" fill-opacity="0.3" stroke="#000000" stroke-width="0.0" fill="#008c73"><rect height="3.5000000000000586e-3" width="4.255038066381034e-2" x="0.5661568253039413" y="-8.050000000000002e-2"/></g><g stroke-opacity="0.0" fill-opacity="0.3" stroke="#000000" stroke-width="0.0" fill="#008778"><rect height="3.4999999999999476e-3" width="4.255038066381034e-2" x="0.5661568253039413" y="-8.399999999999996e-2"/></g><g stroke-opacity="0.0" fill-opacity="0.3" stroke="#000000" stroke-width="0.0" fill="#00827d"><rect height="3.5000000000000586e-3" width="4.255038066381034e-2" x="0.5661568253039413" y="-8.750000000000002e-2"/></g><g stroke-opacity="0.0" fill-opacity="0.3" stroke="#000000" stroke-width="0.0" fill="#007d82"><rect height="3.4999999999999476e-3" width="4.255038066381034e-2" x="0.5661568253039413" y="-9.099999999999997e-2"/></g><g stroke-opacity="0.0" fill-opacity="0.3" stroke="#000000" stroke-width="0.0" fill="#007887"><rect height="3.5000000000000586e-3" width="4.255038066381034e-2" x="0.5661568253039413" y="-9.450000000000003e-2"/></g><g stroke-opacity="0.0" fill-opacity="0.3" stroke="#000000" stroke-width="0.0" fill="#00738c"><rect height="3.4999999999999476e-3" width="4.255038066381034e-2" x="0.5661568253039413" y="-9.799999999999998e-2"/></g><g stroke-opacity="0.0" fill-opacity="0.3" stroke="#000000" stroke-width="0.0" fill="#006e91"><rect height="3.5000000000000586e-3" width="4.255038066381034e-2" x="0.5661568253039413" y="-0.10150000000000003"/></g><g stroke-opacity="0.0" fill-opacity="0.3" stroke="#000000" stroke-width="0.0" fill="#006996"><rect height="3.4999999999999476e-3" width="4.255038066381034e-2" x="0.5661568253039413" y="-0.10499999999999998"/></g><g stroke-opacity="0.0" fill-opacity="0.3" stroke="#000000" stroke-width="0.0" fill="#00639c"><rect height="3.5000000000000586e-3" width="4.255038066381034e-2" x="0.5661568253039413" y="-0.10850000000000004"/></g><g stroke-opacity="0.0" fill-opacity="0.3" stroke="#000000" stroke-width="0.0" fill="#005ea1"><rect height="3.4999999999999476e-3" width="4.255038066381034e-2" x="0.5661568253039413" y="-0.11199999999999999"/></g><g stroke-opacity="0.0" fill-opacity="0.3" stroke="#000000" stroke-width="0.0" fill="#0059a6"><rect height="3.4999999999999476e-3" width="4.255038066381034e-2" x="0.5661568253039413" y="-0.11549999999999994"/></g><g stroke-opacity="0.0" fill-opacity="0.3" stroke="#000000" stroke-width="0.0" fill="#0054ab"><rect height="3.5000000000000586e-3" width="4.255038066381034e-2" x="0.5661568253039413" y="-0.119"/></g><g stroke-opacity="0.0" fill-opacity="0.3" stroke="#000000" stroke-width="0.0" fill="#004fb0"><rect height="3.4999999999999476e-3" width="4.255038066381034e-2" x="0.5661568253039413" y="-0.12249999999999994"/></g><g stroke-opacity="0.0" fill-opacity="0.3" stroke="#000000" stroke-width="0.0" fill="#004ab5"><rect height="3.5000000000000586e-3" width="4.255038066381034e-2" x="0.5661568253039413" y="-0.126"/></g><g stroke-opacity="0.0" fill-opacity="0.3" stroke="#000000" stroke-width="0.0" fill="#0045ba"><rect height="3.4999999999999476e-3" width="4.255038066381034e-2" x="0.5661568253039413" y="-0.12949999999999995"/></g><g stroke-opacity="0.0" fill-opacity="0.3" stroke="#000000" stroke-width="0.0" fill="#0040bf"><rect height="3.5000000000000586e-3" width="4.255038066381034e-2" x="0.5661568253039413" y="-0.133"/></g><g stroke-opacity="0.0" fill-opacity="0.3" stroke="#000000" stroke-width="0.0" fill="#003bc4"><rect height="3.4999999999999476e-3" width="4.255038066381034e-2" x="0.5661568253039413" y="-0.13649999999999995"/></g><g stroke-opacity="0.0" fill-opacity="0.3" stroke="#000000" stroke-width="0.0" fill="#0036c9"><rect height="3.5000000000000586e-3" width="4.255038066381034e-2" x="0.5661568253039413" y="-0.14"/></g><g stroke-opacity="0.0" fill-opacity="0.3" stroke="#000000" stroke-width="0.0" fill="#0030cf"><rect height="3.5000000000000586e-3" width="4.255038066381034e-2" x="0.5661568253039413" y="-0.14350000000000007"/></g><g stroke-opacity="0.0" fill-opacity="0.3" stroke="#000000" stroke-width="0.0" fill="#002bd4"><rect height="3.4999999999999476e-3" width="4.255038066381034e-2" x="0.5661568253039413" y="-0.14700000000000002"/></g><g stroke-opacity="0.0" fill-opacity="0.3" stroke="#000000" stroke-width="0.0" fill="#0026d9"><rect height="3.5000000000000586e-3" width="4.255038066381034e-2" x="0.5661568253039413" y="-0.15050000000000008"/></g><g stroke-opacity="0.0" fill-opacity="0.3" stroke="#000000" stroke-width="0.0" fill="#0021de"><rect height="3.4999999999999476e-3" width="4.255038066381034e-2" x="0.5661568253039413" y="-0.15400000000000003"/></g><g stroke-opacity="0.0" fill-opacity="0.3" stroke="#000000" stroke-width="0.0" fill="#001ce3"><rect height="3.4999999999999476e-3" width="4.255038066381034e-2" x="0.5661568253039413" y="-0.15749999999999997"/></g><g stroke-opacity="0.0" fill-opacity="0.3" stroke="#000000" stroke-width="0.0" fill="#0017e8"><rect height="3.5000000000000586e-3" width="4.255038066381034e-2" x="0.5661568253039413" y="-0.16100000000000003"/></g><g stroke-opacity="0.0" fill-opacity="0.3" stroke="#000000" stroke-width="0.0" fill="#0012ed"><rect height="3.4999999999999476e-3" width="4.255038066381034e-2" x="0.5661568253039413" y="-0.16449999999999998"/></g><g stroke-opacity="0.0" fill-opacity="0.3" stroke="#000000" stroke-width="0.0" fill="#000df2"><rect height="3.4999999999999476e-3" width="4.255038066381034e-2" x="0.5661568253039413" y="-0.16799999999999993"/></g><g stroke-opacity="0.0" fill-opacity="0.3" stroke="#000000" stroke-width="0.0" fill="#0008f7"><rect height="3.5000000000000586e-3" width="4.255038066381034e-2" x="0.5661568253039413" y="-0.17149999999999999"/></g><g stroke-opacity="0.0" fill-opacity="0.3" stroke="#000000" stroke-width="0.0" fill="#0003fc"><rect height="3.5000000000000586e-3" width="4.255038066381034e-2" x="0.5661568253039413" y="-0.17500000000000004"/></g><g stroke-opacity="0.0" fill-opacity="0.3" stroke="#000000" stroke-width="0.0" fill="#0300fc"><rect height="3.4999999999999476e-3" width="4.255038066381034e-2" x="0.5661568253039413" y="-0.1785"/></g><g stroke-opacity="0.0" fill-opacity="0.3" stroke="#000000" stroke-width="0.0" fill="#0800f7"><rect height="3.4999999999999476e-3" width="4.255038066381034e-2" x="0.5661568253039413" y="-0.18199999999999994"/></g><g stroke-opacity="0.0" fill-opacity="0.3" stroke="#000000" stroke-width="0.0" fill="#0d00f2"><rect height="3.5000000000000586e-3" width="4.255038066381034e-2" x="0.5661568253039413" y="-0.1855"/></g><g stroke-opacity="0.0" fill-opacity="0.3" stroke="#000000" stroke-width="0.0" fill="#1200ed"><rect height="3.5000000000000586e-3" width="4.255038066381034e-2" x="0.5661568253039413" y="-0.18900000000000006"/></g><g stroke-opacity="0.0" fill-opacity="0.3" stroke="#000000" stroke-width="0.0" fill="#1700e8"><rect height="3.4999999999999476e-3" width="4.255038066381034e-2" x="0.5661568253039413" y="-0.1925"/></g><g stroke-opacity="0.0" fill-opacity="0.3" stroke="#000000" stroke-width="0.0" fill="#1c00e3"><rect height="3.4999999999999476e-3" width="4.255038066381034e-2" x="0.5661568253039413" y="-0.19599999999999995"/></g><g stroke-opacity="0.0" fill-opacity="0.3" stroke="#000000" stroke-width="0.0" fill="#2100de"><rect height="3.5000000000000586e-3" width="4.255038066381034e-2" x="0.5661568253039413" y="-0.1995"/></g><g stroke-opacity="0.0" fill-opacity="0.3" stroke="#000000" stroke-width="0.0" fill="#2600d9"><rect height="3.5000000000000586e-3" width="4.255038066381034e-2" x="0.5661568253039413" y="-0.20300000000000007"/></g><g stroke-opacity="0.0" fill-opacity="0.3" stroke="#000000" stroke-width="0.0" fill="#2b00d4"><rect height="3.4999999999999476e-3" width="4.255038066381034e-2" x="0.5661568253039413" y="-0.20650000000000002"/></g><g stroke-opacity="0.0" fill-opacity="0.3" stroke="#000000" stroke-width="0.0" fill="#3000cf"><rect height="3.5000000000000586e-3" width="4.255038066381034e-2" x="0.5661568253039413" y="-0.21000000000000008"/></g><g stroke-opacity="0.0" fill-opacity="0.3" stroke="#000000" stroke-width="0.0" fill="#3600c9"><rect height="3.4999999999999476e-3" width="4.255038066381034e-2" x="0.5661568253039413" y="-0.21350000000000002"/></g><g stroke-opacity="0.0" fill-opacity="0.3" stroke="#000000" stroke-width="0.0" fill="#3b00c4"><rect height="3.4999999999999476e-3" width="4.255038066381034e-2" x="0.5661568253039413" y="-0.21699999999999997"/></g><g stroke-opacity="0.0" fill-opacity="0.3" stroke="#000000" stroke-width="0.0" fill="#4000bf"><rect height="3.4999999999999476e-3" width="4.255038066381034e-2" x="0.5661568253039413" y="-0.22049999999999992"/></g><g stroke-opacity="0.0" fill-opacity="0.3" stroke="#000000" stroke-width="0.0" fill="#4500ba"><rect height="3.5000000000000586e-3" width="4.255038066381034e-2" x="0.5661568253039413" y="-0.22399999999999998"/></g><g stroke-opacity="0.0" fill-opacity="0.3" stroke="#000000" stroke-width="0.0" fill="#4a00b5"><rect height="3.5000000000000586e-3" width="4.255038066381034e-2" x="0.5661568253039413" y="-0.22750000000000004"/></g><g stroke-opacity="0.0" fill-opacity="0.3" stroke="#000000" stroke-width="0.0" fill="#4f00b0"><rect height="3.4999999999999476e-3" width="4.255038066381034e-2" x="0.5661568253039413" y="-0.23099999999999998"/></g><g stroke-opacity="0.0" fill-opacity="0.3" stroke="#000000" stroke-width="0.0" fill="#5400ab"><rect height="3.4999999999999476e-3" width="4.255038066381034e-2" x="0.5661568253039413" y="-0.23449999999999993"/></g><g stroke-opacity="0.0" fill-opacity="0.3" stroke="#000000" stroke-width="0.0" fill="#5900a6"><rect height="3.5000000000000586e-3" width="4.255038066381034e-2" x="0.5661568253039413" y="-0.238"/></g><g stroke-opacity="0.0" fill-opacity="0.3" stroke="#000000" stroke-width="0.0" fill="#5e00a1"><rect height="3.5000000000000586e-3" width="4.255038066381034e-2" x="0.5661568253039413" y="-0.24150000000000005"/></g><g stroke-opacity="0.0" fill-opacity="0.3" stroke="#000000" stroke-width="0.0" fill="#63009c"><rect height="3.4999999999999476e-3" width="4.255038066381034e-2" x="0.5661568253039413" y="-0.245"/></g><g stroke-opacity="0.0" fill-opacity="0.3" stroke="#000000" stroke-width="0.0" fill="#690096"><rect height="3.4999999999999476e-3" width="4.255038066381034e-2" x="0.5661568253039413" y="-0.24849999999999994"/></g><g stroke-opacity="0.0" fill-opacity="0.3" stroke="#000000" stroke-width="0.0" fill="#6e0091"><rect height="3.5000000000000586e-3" width="4.255038066381034e-2" x="0.5661568253039413" y="-0.252"/></g><g stroke-opacity="0.0" fill-opacity="0.3" stroke="#000000" stroke-width="0.0" fill="#73008c"><rect height="3.5000000000000586e-3" width="4.255038066381034e-2" x="0.5661568253039413" y="-0.25550000000000006"/></g><g stroke-opacity="0.0" fill-opacity="0.3" stroke="#000000" stroke-width="0.0" fill="#780087"><rect height="3.4999999999999476e-3" width="4.255038066381034e-2" x="0.5661568253039413" y="-0.259"/></g><g stroke-opacity="0.0" fill-opacity="0.3" stroke="#000000" stroke-width="0.0" fill="#7d0082"><rect height="3.4999999999999476e-3" width="4.255038066381034e-2" x="0.5661568253039413" y="-0.26249999999999996"/></g><g stroke-opacity="0.0" fill-opacity="0.3" stroke="#000000" stroke-width="0.0" fill="#82007d"><rect height="3.5000000000000586e-3" width="4.255038066381034e-2" x="0.5661568253039413" y="-0.266"/></g><g stroke-opacity="0.0" fill-opacity="0.3" stroke="#000000" stroke-width="0.0" fill="#870078"><rect height="3.5000000000000586e-3" width="4.255038066381034e-2" x="0.5661568253039413" y="-0.2695000000000001"/></g><g stroke-opacity="0.0" fill-opacity="0.3" stroke="#000000" stroke-width="0.0" fill="#8c0073"><rect height="3.4999999999999476e-3" width="4.255038066381034e-2" x="0.5661568253039413" y="-0.273"/></g><g stroke-opacity="0.0" fill-opacity="0.3" stroke="#000000" stroke-width="0.0" fill="#91006e"><rect height="3.4999999999999476e-3" width="4.255038066381034e-2" x="0.5661568253039413" y="-0.27649999999999997"/></g><g stroke-opacity="0.0" fill-opacity="0.3" stroke="#000000" stroke-width="0.0" fill="#960069"><rect height="3.5000000000000586e-3" width="4.255038066381034e-2" x="0.5661568253039413" y="-0.28"/></g><g stroke-opacity="0.0" fill-opacity="0.3" stroke="#000000" stroke-width="0.0" fill="#9c0063"><rect height="3.4999999999999476e-3" width="4.255038066381034e-2" x="0.5661568253039413" y="-0.2835"/></g><g stroke-opacity="0.0" fill-opacity="0.3" stroke="#000000" stroke-width="0.0" fill="#a1005e"><rect height="3.5000000000000586e-3" width="4.255038066381034e-2" x="0.5661568253039413" y="-0.28700000000000003"/></g><g stroke-opacity="0.0" fill-opacity="0.3" stroke="#000000" stroke-width="0.0" fill="#a60059"><rect height="3.4999999999999476e-3" width="4.255038066381034e-2" x="0.5661568253039413" y="-0.2905"/></g><g stroke-opacity="0.0" fill-opacity="0.3" stroke="#000000" stroke-width="0.0" fill="#ab0054"><rect height="3.4999999999999476e-3" width="4.255038066381034e-2" x="0.5661568253039413" y="-0.29399999999999993"/></g><g stroke-opacity="0.0" fill-opacity="0.3" stroke="#000000" stroke-width="0.0" fill="#b0004f"><rect height="3.5000000000000586e-3" width="4.255038066381034e-2" x="0.5661568253039413" y="-0.2975"/></g><g stroke-opacity="0.0" fill-opacity="0.3" stroke="#000000" stroke-width="0.0" fill="#b5004a"><rect height="3.4999999999999476e-3" width="4.255038066381034e-2" x="0.5661568253039413" y="-0.30099999999999993"/></g><g stroke-opacity="0.0" fill-opacity="0.3" stroke="#000000" stroke-width="0.0" fill="#ba0045"><rect height="3.5000000000000586e-3" width="4.255038066381034e-2" x="0.5661568253039413" y="-0.3045"/></g><g stroke-opacity="0.0" fill-opacity="0.3" stroke="#000000" stroke-width="0.0" fill="#bf0040"><rect height="3.5000000000000586e-3" width="4.255038066381034e-2" x="0.5661568253039413" y="-0.30800000000000005"/></g><g stroke-opacity="0.0" fill-opacity="0.3" stroke="#000000" stroke-width="0.0" fill="#c4003b"><rect height="3.4999999999998366e-3" width="4.255038066381034e-2" x="0.5661568253039413" y="-0.3114999999999999"/></g><g stroke-opacity="0.0" fill-opacity="0.3" stroke="#000000" stroke-width="0.0" fill="#c90036"><rect height="3.5000000000000586e-3" width="4.255038066381034e-2" x="0.5661568253039413" y="-0.31499999999999995"/></g><g stroke-opacity="0.0" fill-opacity="0.3" stroke="#000000" stroke-width="0.0" fill="#cf0030"><rect height="3.5000000000000586e-3" width="4.255038066381034e-2" x="0.5661568253039413" y="-0.3185"/></g><g stroke-opacity="0.0" fill-opacity="0.3" stroke="#000000" stroke-width="0.0" fill="#d4002b"><rect height="3.5000000000000586e-3" width="4.255038066381034e-2" x="0.5661568253039413" y="-0.32200000000000006"/></g><g stroke-opacity="0.0" fill-opacity="0.3" stroke="#000000" stroke-width="0.0" fill="#d90026"><rect height="3.4999999999998366e-3" width="4.255038066381034e-2" x="0.5661568253039413" y="-0.3254999999999999"/></g><g stroke-opacity="0.0" fill-opacity="0.3" stroke="#000000" stroke-width="0.0" fill="#de0021"><rect height="3.5000000000000586e-3" width="4.255038066381034e-2" x="0.5661568253039413" y="-0.32899999999999996"/></g><g stroke-opacity="0.0" fill-opacity="0.3" stroke="#000000" stroke-width="0.0" fill="#e3001c"><rect height="3.5000000000000586e-3" width="4.255038066381034e-2" x="0.5661568253039413" y="-0.3325"/></g><g stroke-opacity="0.0" fill-opacity="0.3" stroke="#000000" stroke-width="0.0" fill="#e80017"><rect height="3.5000000000000586e-3" width="4.255038066381034e-2" x="0.5661568253039413" y="-0.3360000000000001"/></g><g stroke-opacity="0.0" fill-opacity="0.3" stroke="#000000" stroke-width="0.0" fill="#ed0012"><rect height="3.4999999999999476e-3" width="4.255038066381034e-2" x="0.5661568253039413" y="-0.3395"/></g><g stroke-opacity="0.0" fill-opacity="0.3" stroke="#000000" stroke-width="0.0" fill="#f2000d"><rect height="3.4999999999999476e-3" width="4.255038066381034e-2" x="0.5661568253039413" y="-0.34299999999999997"/></g><g stroke-opacity="0.0" fill-opacity="0.3" stroke="#000000" stroke-width="0.0" fill="#f70008"><rect height="3.5000000000000586e-3" width="4.255038066381034e-2" x="0.5661568253039413" y="-0.34650000000000003"/></g><g stroke-opacity="0.0" fill-opacity="0.3" stroke="#000000" stroke-width="0.0" fill="#fc0003"><rect height="3.4999999999999476e-3" width="4.255038066381034e-2" x="0.5661568253039413" y="-0.35"/></g><g fill-opacity="1.0" font-size="8.399999999999999e-2" stroke="none" stroke-width="0.0" fill="#0d0d0d" text-anchor="start"><text x="0.5661568253039413" y="-0.385"></text></g><g></g></svg>