<svg xmlns="http://www.w3.org/2000/svg" xmlns:xlink="http://www.w3.org/1999/xlink" width="689" height="600" viewBox="-2.8504 -2.4728 5.7000 4.9592"><style>svg {
  color-scheme: light dark;
}
{
  .canvas g, .title g, .axisbar g, .ticktext g, .tickglyph g, .ticklines g, .legendContent g text {
    fill: rgb(5%, 5%, 5%);
  }
  .ticklines g, .tickglyph g, .legendBorder g {
    stroke: rgb(5%, 5%, 5%);
  }
  .legendBorder g {
    fill: rgb(94%, 94%, 94%);
  }
}
@media (prefers-color-scheme:dark) {
  .canvas g, .title g, .axisbar g, .ticktext g, .tickglyph g, .ticklines g, .legendContent g text {
    fill: rgb(94%, 94%, 94%);
  }
  .ticklines g, .tickglyph g, .legendBorder g {
    stroke: rgb(94%, 94%, 94%);
  }
  .legendBorder g {
    fill: rgb(5%, 5%, 5%);
  }
}
svg { font-family: system-ui,-apple-system,"Segoe UI",Roboto,"Helvetica Neue",Arial,"Noto Sans","Liberation Sans",sans-serif,"Apple Color Emoji","Segoe UI Emoji","Segoe UI Symbol","Noto Color Emoji";
}

ticktext { font-family: SFMono-Regular,Menlo,Monaco,Consolas,"Liberation Mono","Courier New",monospace;
}


{
  .scatter g {
    fill: rgb(5%, 5%, 5%);
  }
}
@media (prefers-color-scheme:dark) {
  .scatter g {
    fill: rgb(94%, 94%, 94%);
  }
}
</style><g class="chart"><g class="scatter"><g stroke-width="0.0" stroke="none" fill="rgb(5%, 5%, 5%)" fill-opacity="0.6" font-size="3.0" text-anchor="middle"><text x="-0.0093" y="-0.0074">22p</text><text x="-0.1504" y="0.0817">32o</text><text x="-0.1487" y="0.0779">42o</text><text x="-0.1451" y="0.0741">52o</text><text x="-0.1469" y="0.0826">62o</text><text x="-0.1433" y="0.0864">72o</text><text x="-0.1344" y="0.0855">82o</text><text x="-0.1147" y="0.0845">92o</text><text x="-0.0915" y="0.0769">T2o</text><text x="-0.0647" y="0.0731">J2o</text><text x="-0.0361" y="0.0646">Q2o</text><text x="-0.0022" y="0.0542">K2o</text><text x="0.0442" y="0.0277">A2o</text><text x="-0.1397" y="0.0362">32s</text><text x="0.0299" y="-0.0122">33p</text><text x="-0.1415" y="0.0656">43o</text><text x="-0.1361" y="0.0589">53o</text><text x="-0.1379" y="0.0694">63o</text><text x="-0.1326" y="0.0788">73o</text><text x="-0.1290" y="0.0836">83o</text><text x="-0.1076" y="0.0807">93o</text><text x="-0.0826" y="0.0750">T3o</text><text x="-0.0558" y="0.0713">J3o</text><text x="-0.0236" y="0.0618">Q3o</text><text x="0.0085" y="0.0504">K3o</text><text x="0.0532" y="0.0201">A3o</text><text x="-0.1308" y="0.0295">42s</text><text x="-0.1183" y="0.0125">43s</text><text x="0.0657" y="-0.0150">44p</text><text x="-0.1219" y="0.0513">54o</text><text x="-0.1236" y="0.0561">64o</text><text x="-0.1165" y="0.0665">74o</text><text x="-0.1111" y="0.0760">84o</text><text x="-0.1004" y="0.0798">94o</text><text x="-0.0719" y="0.0722">T4o</text><text x="-0.0451" y="0.0675">J4o</text><text x="-0.0183" y="0.0599">Q4o</text><text x="0.0174" y="0.0476">K4o</text><text x="0.0621" y="0.0144">A4o</text><text x="-0.1254" y="0.0220">52s</text><text x="-0.1094" y="0.0040">53s</text><text x="-0.0897" y="-0.0103">54s</text><text x="0.1032" y="-0.0197">55p</text><text x="-0.1058" y="0.0438">65o</text><text x="-0.0986" y="0.0532">75o</text><text x="-0.0951" y="0.0608">85o</text><text x="-0.0808" y="0.0684">95o</text><text x="-0.0665" y="0.0703">T5o</text><text x="-0.0379" y="0.0637">J5o</text><text x="-0.0076" y="0.0570">Q5o</text><text x="0.0264" y="0.0447">K5o</text><text x="0.0710" y="0.0068">A5o</text><text x="-0.1272" y="0.0352">62s</text><text x="-0.1129" y="0.0182">63s</text><text x="-0.0933" y="-0.0017">64s</text><text x="-0.0754" y="-0.0178">65s</text><text x="0.1210" y="-0.0292">66p</text><text x="-0.0844" y="0.0428">76o</text><text x="-0.0736" y="0.0457">86o</text><text x="-0.0611" y="0.0551">96o</text><text x="-0.0486" y="0.0580">T6o</text><text x="-0.0308" y="0.0627">J6o</text><text x="0.0067" y="0.0523">Q6o</text><text x="0.0407" y="0.0381">K6o</text><text x="0.0764" y="0.0191">A6o</text><text x="-0.1201" y="0.0466">72s</text><text x="-0.1022" y="0.0305">73s</text><text x="-0.0879" y="0.0087">74s</text><text x="-0.0683" y="-0.0093">75s</text><text x="-0.0540" y="-0.0226">76s</text><text x="0.1353" y="-0.0378">77p</text><text x="-0.0576" y="0.0333">87o</text><text x="-0.0415" y="0.0400">97o</text><text x="-0.0272" y="0.0409">T7o</text><text x="-0.0111" y="0.0485">J7o</text><text x="0.0139" y="0.0495">Q7o</text><text x="0.0478" y="0.0324">K7o</text><text x="0.0871" y="0.0106">A7o</text><text x="-0.1040" y="0.0419">82s</text><text x="-0.0969" y="0.0390">83s</text><text x="-0.0790" y="0.0258">84s</text><text x="-0.0629" y="0.0049">85s</text><text x="-0.0468" y="-0.0160">86s</text><text x="-0.0290" y="-0.0273">87s</text><text x="0.1389" y="-0.0463">88p</text><text x="-0.0254" y="0.0239">98o</text><text x="-0.0129" y="0.0172">T8o</text><text x="0.0103" y="0.0286">J8o</text><text x="0.0317" y="0.0267">Q8o</text><text x="0.0585" y="0.0248">K8o</text><text x="0.0960" y="0.0030">A8o</text><text x="-0.0861" y="0.0371">92s</text><text x="-0.0772" y="0.0343">93s</text><text x="-0.0701" y="0.0314">94s</text><text x="-0.0522" y="0.0134">95s</text><text x="-0.0326" y="-0.0065">96s</text><text x="-0.0147" y="-0.0245">97s</text><text x="0.0032" y="-0.0311">98s</text><text x="0.1407" y="-0.0558">99p</text><text x="0.0121" y="-0.0112">T9o</text><text x="0.0282" y="-0.0046">J9o</text><text x="0.0514" y="0.0002">Q9o</text><text x="0.0817" y="-0.0055">K9o</text><text x="0.1067" y="-0.0131">A9o</text><text x="-0.0594" y="0.0229">T2s</text><text x="-0.0504" y="0.0210">T3s</text><text x="-0.0433" y="0.0153">T4s</text><text x="-0.0397" y="0.0096">T5s</text><text x="-0.0201" y="-0.0027">T6s</text><text x="0.0014" y="-0.0254">T7s</text><text x="0.0210" y="-0.0387">T8s</text><text x="0.0389" y="-0.0520">T9s</text><text x="0.1425" y="-0.0652">TTp</text><text x="0.0496" y="-0.0349">JTo</text><text x="0.0692" y="-0.0340">QTo</text><text x="0.0978" y="-0.0359">KTo</text><text x="0.1175" y="-0.0415">ATo</text><text x="-0.0343" y="0.0163">J2s</text><text x="-0.0218" y="0.0115">J3s</text><text x="-0.0165" y="0.0077">J4s</text><text x="-0.0058" y="0.0058">J5s</text><text x="-0.0004" y="0.0011">J6s</text><text x="0.0192" y="-0.0188">J7s</text><text x="0.0353" y="-0.0321">J8s</text><text x="0.0567" y="-0.0501">J9s</text><text x="0.0746" y="-0.0586">JTs</text><text x="0.1443" y="-0.0690">JJp</text><text x="0.0835" y="-0.0434">QJo</text><text x="0.1050" y="-0.0472">KJo</text><text x="0.1246" y="-0.0529">AJo</text><text x="-0.0040" y="0.0021">Q2s</text><text x="0.0049" y="-0.0008">Q3s</text><text x="0.0157" y="-0.0036">Q4s</text><text x="0.0228" y="-0.0084">Q5s</text><text x="0.0335" y="-0.0141">Q6s</text><text x="0.0425" y="-0.0207">Q7s</text><text x="0.0603" y="-0.0330">Q8s</text><text x="0.0782" y="-0.0491">Q9s</text><text x="0.0907" y="-0.0596">QTs</text><text x="0.1014" y="-0.0615">QJs</text><text x="0.1460" y="-0.0709">QQp</text><text x="0.1103" y="-0.0567">KQo</text><text x="0.1264" y="-0.0577">AQo</text><text x="0.0246" y="-0.0169">K2s</text><text x="0.0371" y="-0.0216">K3s</text><text x="0.0460" y="-0.0235">K4s</text><text x="0.0550" y="-0.0264">K5s</text><text x="0.0639" y="-0.0283">K6s</text><text x="0.0728" y="-0.0302">K7s</text><text x="0.0853" y="-0.0368">K8s</text><text x="0.0996" y="-0.0539">K9s</text><text x="0.1139" y="-0.0605">KTs</text><text x="0.1157" y="-0.0643">KJs</text><text x="0.1228" y="-0.0671">KQs</text><text x="0.1478" y="-0.0719">KKp</text><text x="0.1300" y="-0.0624">AKo</text><text x="0.0675" y="-0.0396">A2s</text><text x="0.0800" y="-0.0425">A3s</text><text x="0.0889" y="-0.0444">A4s</text><text x="0.0925" y="-0.0482">A5s</text><text x="0.0942" y="-0.0406">A6s</text><text x="0.1085" y="-0.0453">A7s</text><text x="0.1121" y="-0.0510">A8s</text><text x="0.1192" y="-0.0548">A9s</text><text x="0.1282" y="-0.0633">ATs</text><text x="0.1318" y="-0.0662">AJs</text><text x="0.1335" y="-0.0681">AQs</text><text x="0.1371" y="-0.0700">AKs</text><text x="0.1496" y="-0.0728">AAp</text></g></g></g><g class="hud"><g class="frame"><g stroke-width="0" stroke="rgb(0%, 0%, 0%)" stroke-opacity="0" fill="rgb(100%, 100%, 100%)" fill-opacity="0.02"><rect width="1.4149" height="0.9455" x="-0.7079" y="-0.4659"/></g></g><g class="title"><g stroke-width="0.0" stroke="none" fill="rgb(5%, 5%, 5%)" fill-opacity="1.0" font-size="0.0800" text-anchor="middle"><text x="-0.0004" y="-0.4830">Heads Up</text></g></g><g class="title"><g stroke-width="0.0" stroke="none" fill="rgb(5%, 5%, 5%)" fill-opacity="1.0" font-size="0.0800" text-anchor="middle"><text x="0.7285" y="0.0068" transform="rotate(-90.0, 0.7285, 0.0068)">Full Table</text></g></g><g class="axis"><g class="axisbar"><g stroke-width="0" stroke="rgb(0%, 0%, 0%)" stroke-opacity="0" fill="rgb(5%, 5%, 5%)" fill-opacity="0.4"><rect width="0.0008" height="0.1599" x="-0.1533" y="-0.0732"/></g></g><g class="ticks"><g class="ticklines"><g stroke-width="0.0050" stroke="rgb(5%, 5%, 5%)" stroke-opacity="0.05" fill="none"><polyline points="-0.1504,0.0864 0.1496,0.0864"/><polyline points="-0.1504,0.0063 0.1496,0.0063"/><polyline points="-0.1504,-0.0728 0.1496,-0.0728"/></g></g><g class="tickglyph"><g stroke-width="0.0008" stroke="rgb(5%, 5%, 5%)" stroke-opacity="0.4" fill="rgb(5%, 5%, 5%)" fill-opacity="0.4"><polyline points="-0.1591,0.0864
-0.1529,0.0864"/><polyline points="-0.1591,0.0063
-0.1529,0.0063"/><polyline points="-0.1591,-0.0728
-0.1529,-0.0728"/></g></g><g class="ticktext"><g stroke-width="0.0" stroke="none" fill="rgb(5%, 5%, 5%)" fill-opacity="1.0" font-size="0.0400" text-anchor="end"><text x="-0.7120" y="0.0882">worst</text><text x="-0.7120" y="0.0081">median</text><text x="-0.7120" y="-0.0710">best</text></g></g></g></g><g class="axis"><g class="axisbar"><g stroke-width="0" stroke="rgb(0%, 0%, 0%)" stroke-opacity="0" fill="rgb(5%, 5%, 5%)" fill-opacity="0.4"><rect width="0.3009" height="0.0007" x="-0.1508" y="0.0881"/></g></g><g class="ticks"><g class="ticklines"><g stroke-width="0.0050" stroke="rgb(5%, 5%, 5%)" stroke-opacity="0.05" fill="none"><polyline points="-0.1504,0.0864 -0.1504,-0.0728"/><polyline points="0.0005,0.0864 0.0005,-0.0728"/><polyline points="0.1496,0.0864 0.1496,-0.0728"/></g></g><g class="tickglyph"><g stroke-width="0.0007" stroke="rgb(5%, 5%, 5%)" stroke-opacity="0.4" fill="rgb(5%, 5%, 5%)" fill-opacity="0.4"><polyline points="-0.1504,0.0933
-0.1504,0.0884"/><polyline points="0.0005,0.0933
0.0005,0.0884"/><polyline points="0.1496,0.0933
0.1496,0.0884"/></g></g><g class="ticktext"><g stroke-width="0.0" stroke="none" fill="rgb(5%, 5%, 5%)" fill-opacity="1.0" font-size="0.0400" text-anchor="middle"><text x="-0.1504" y="0.4882">worst</text><text x="0.0005" y="0.4882">median</text><text x="0.1496" y="0.4882">best</text></g></g></g></g><g class="frame"><g stroke-width="0" stroke="rgb(0%, 0%, 0%)" stroke-opacity="0" fill="rgb(0%, 0%, 0%)" fill-opacity="0"><rect width="1.5000" height="1.0" x="-0.75" y="-0.5"/></g></g></g></svg>