<svg xmlns="http://www.w3.org/2000/svg" height="300.0" viewBox="-0.87 -0.5519572449482505 1.665 1.0982072449482505" width="454.83218426913345" xmlns:xlink="http://www.w3.org/1999/xlink"><g stroke-opacity="5.0e-2" stroke="#0d0d0d" stroke-width="5.0e-3" fill="none"><polyline points="-0.6606317749509414,0.48570724494825046
0.75,0.48570724494825046"/></g><g stroke-opacity="5.0e-2" stroke="#0d0d0d" stroke-width="5.0e-3" fill="none"><polyline points="-0.6606317749509414,0.3761842177317781
0.75,0.3761842177317781"/></g><g stroke-opacity="5.0e-2" stroke="#0d0d0d" stroke-width="5.0e-3" fill="none"><polyline points="-0.6606317749509414,0.2666611905153059
0.75,0.2666611905153059"/></g><g stroke-opacity="5.0e-2" stroke="#0d0d0d" stroke-width="5.0e-3" fill="none"><polyline points="-0.6606317749509414,0.15713816329883357
0.75,0.15713816329883357"/></g><g stroke-opacity="5.0e-2" stroke="#0d0d0d" stroke-width="5.0e-3" fill="none"><polyline points="-0.6606317749509414,4.761513608236129e-2
0.75,4.761513608236129e-2"/></g><g stroke-opacity="5.0e-2" stroke="#0d0d0d" stroke-width="5.0e-3" fill="none"><polyline points="-0.6606317749509414,-6.190789113411099e-2
0.75,-6.190789113411099e-2"/></g><g stroke-opacity="5.0e-2" stroke="#0d0d0d" stroke-width="5.0e-3" fill="none"><polyline points="-0.6606317749509414,-0.17143091835058333
0.75,-0.17143091835058333"/></g><g stroke-opacity="5.0e-2" stroke="#0d0d0d" stroke-width="5.0e-3" fill="none"><polyline points="-0.6606317749509414,-0.28095394556705566
0.75,-0.28095394556705566"/></g><g stroke-opacity="5.0e-2" stroke="#0d0d0d" stroke-width="5.0e-3" fill="none"><polyline points="-0.6606317749509414,-0.3904769727835279
0.75,-0.3904769727835279"/></g><g stroke-opacity="5.0e-2" stroke="#0d0d0d" stroke-width="5.0e-3" fill="none"><polyline points="-0.6606317749509414,-0.5
0.75,-0.5"/></g><g fill-opacity="1.0" font-size="5.0e-2" stroke="none" stroke-width="0.0" fill="#0d0d0d" text-anchor="end"><text x="-0.75" y="0.5">0</text></g><g fill-opacity="1.0" font-size="5.0e-2" stroke="none" stroke-width="0.0" fill="#0d0d0d" text-anchor="end"><text x="-0.75" y="0.3904769727835278">0.05</text></g><g fill-opacity="1.0" font-size="5.0e-2" stroke="none" stroke-width="0.0" fill="#0d0d0d" text-anchor="end"><text x="-0.75" y="0.2809539455670555">0.1</text></g><g fill-opacity="1.0" font-size="5.0e-2" stroke="none" stroke-width="0.0" fill="#0d0d0d" text-anchor="end"><text x="-0.75" y="0.17143091835058322">0.15</text></g><g fill-opacity="1.0" font-size="5.0e-2" stroke="none" stroke-width="0.0" fill="#0d0d0d" text-anchor="end"><text x="-0.75" y="6.190789113411094e-2">0.2</text></g><g fill-opacity="1.0" font-size="5.0e-2" stroke="none" stroke-width="0.0" fill="#0d0d0d" text-anchor="end"><text x="-0.75" y="-4.761513608236134e-2">0.25</text></g><g fill-opacity="1.0" font-size="5.0e-2" stroke="none" stroke-width="0.0" fill="#0d0d0d" text-anchor="end"><text x="-0.75" y="-0.15713816329883368">0.3</text></g><g fill-opacity="1.0" font-size="5.0e-2" stroke="none" stroke-width="0.0" fill="#0d0d0d" text-anchor="end"><text x="-0.75" y="-0.266661190515306">0.35</text></g><g fill-opacity="1.0" font-size="5.0e-2" stroke="none" stroke-width="0.0" fill="#0d0d0d" text-anchor="end"><text x="-0.75" y="-0.3761842177317781">0.4</text></g><g fill-opacity="1.0" font-size="5.0e-2" stroke="none" stroke-width="0.0" fill="#0d0d0d" text-anchor="end"><text x="-0.75" y="-0.48570724494825046">0.45</text></g><g stroke-opacity="0.4" fill-opacity="0.4" stroke="#0d0d0d" stroke-width="2.0e-3" fill="#0d0d0d"><g transform="rotate(-90.0, -0.7208187306821815, 0.48570724494825046)"><polyline points="-0.7208187306821815,0.5007072449482505
-0.7208187306821815,0.47070724494825045"/></g><g transform="rotate(-90.0, -0.7208187306821815, 0.3761842177317781)"><polyline points="-0.7208187306821815,0.39118421773177814
-0.7208187306821815,0.3611842177317781"/></g><g transform="rotate(-90.0, -0.7208187306821815, 0.2666611905153059)"><polyline points="-0.7208187306821815,0.2816611905153059
-0.7208187306821815,0.2516611905153059"/></g><g transform="rotate(-90.0, -0.7208187306821815, 0.15713816329883357)"><polyline points="-0.7208187306821815,0.17213816329883358
-0.7208187306821815,0.14213816329883355"/></g><g transform="rotate(-90.0, -0.7208187306821815, 4.761513608236129e-2)"><polyline points="-0.7208187306821815,6.261513608236129e-2
-0.7208187306821815,3.261513608236129e-2"/></g><g transform="rotate(-90.0, -0.7208187306821815, -6.190789113411099e-2)"><polyline points="-0.7208187306821815,-4.690789113411099e-2
-0.7208187306821815,-7.690789113411099e-2"/></g><g transform="rotate(-90.0, -0.7208187306821815, -0.17143091835058333)"><polyline points="-0.7208187306821815,-0.15643091835058331
-0.7208187306821815,-0.18643091835058334"/></g><g transform="rotate(-90.0, -0.7208187306821815, -0.28095394556705566)"><polyline points="-0.7208187306821815,-0.26595394556705565
-0.7208187306821815,-0.2959539455670557"/></g><g transform="rotate(-90.0, -0.7208187306821815, -0.3904769727835279)"><polyline points="-0.7208187306821815,-0.3754769727835279
-0.7208187306821815,-0.4054769727835279"/></g><g transform="rotate(-90.0, -0.7208187306821815, -0.5)"><polyline points="-0.7208187306821815,-0.485
-0.7208187306821815,-0.515"/></g></g><g stroke-opacity="0.0" fill-opacity="0.4" stroke="#000000" stroke-width="0.0" fill="#0d0d0d"><rect height="0.9857072449482505" width="3.761684733202486e-3" x="-0.7090634658909237" y="-0.5"/></g><g fill-opacity="0.1" font-size="5.0e-2" stroke="none" stroke-width="0.0" fill="#0d0d0d" text-anchor="middle"><text x="-6.90396656251957e-2" y="0.16618772073018834">22</text><text x="-0.5682312052042899" y="0.3024984288660977">32o</text><text x="-0.5554118953905374" y="0.2983839268872947">42o</text><text x="-0.5279963417294431" y="0.30411719659296466">52o</text><text x="-0.49677307228208545" y="0.29274592483069567">62o</text><text x="-0.4539997316163965" y="0.29455609708607905">72o</text><text x="-0.3962493755247394" y="0.27918332329372253">82o</text><text x="-0.33875286715216624" y="0.2646410991244243">92o</text><text x="-0.25904468335972497" y="0.2500488942085788">T2o</text><text x="-0.21715980971083093" y="0.22895441147453632">J2o</text><text x="-0.12628232627868452" y="0.18617784627313133">Q2o</text><text x="-2.626632495950665e-2" y="0.16762890469149722">K2o</text><text x="7.286120934287654e-2" y="0.13537089625474724">A2o</text><text x="-0.6606317749509414" y="0.38176180827733314">32s</text><text x="-1.3066243567127933e-2" y="0.16212319949793252">33</text><text x="-0.5386579459309797" y="0.2922271681430545">43o</text><text x="-0.5314232859370798" y="0.30112660948869263">53o</text><text x="-0.4878884021141381" y="0.28828068839568755">63o</text><text x="-0.45387280775685446" y="0.2934495668190428">73o</text><text x="-0.3912993450025972" y="0.2777734316259041">83o</text><text x="-0.33202590259643466" y="0.2659479869928367">93o</text><text x="-0.2480023075795621" y="0.24621732671675167">T3o</text><text x="-0.20941745427876235" y="0.23448315127303138">J3o</text><text x="-0.11765150382982159" y="0.1988316674533202">Q3o</text><text x="-2.791633513355407e-2" y="0.1869301651624637">K3o</text><text x="7.971509775815e-2" y="0.134999734884736">A3o</text><text x="-0.6518740286425362" y="0.37126367842648444">42s</text><text x="-0.6280123430486207" y="0.37313339296253706">43s</text><text x="4.722258971537152e-2" y="0.15580519851917912">44</text><text x="-0.49486921438895404" y="0.30302770324127315">54o</text><text x="-0.4670728891492331" y="0.2857686126127066">64o</text><text x="-0.4292495790056863" y="0.28779391938583654">74o</text><text x="-0.38216082711556587" y="0.28149330301457787">84o</text><text x="-0.3313912832987242" y="0.2666446751381859">94o</text><text x="-0.24749461214139368" y="0.25431464227258543">T4o</text><text x="-0.1977404592008889" y="0.22661661638168956">J4o</text><text x="-0.10775144278553728" y="0.1835975359057337">Q4o</text><text x="-1.5477796898427876e-2" y="0.18094290634129645">K4o</text><text x="8.199972722990778e-2" y="0.14416316149518077">A4o</text><text x="-0.6192545967402157" y="0.37996102370999696">52s</text><text x="-0.6159545763921208" y="0.382258834205606">53s</text><text x="-0.5846043830852212" y="0.37827523832123805">54s</text><text x="0.1293423268391125" y="0.13865789091680336">55</text><text x="-0.46377286880113844" y="0.27829549138896936">65o</text><text x="-0.40234172078276026" y="0.28239991029542527">75o</text><text x="-0.3486529281964502" y="0.2690685240381313">85o</text><text x="-0.3061334352498456" y="0.2524414508150339">95o</text><text x="-0.2124636269077731" y="0.23955163358810472">T5o</text><text x="-0.17743264167415218" y="0.221267372655577">J5o</text><text x="-8.097050842215359e-2" y="0.18267484786295363">Q5o</text><text x="8.130040976403352e-3" y="0.1724540025016451">K5o</text><text x="0.10179984931847597" y="0.1250809470786473">A5o</text><text x="-0.5851120785233896" y="0.3702934434822064">62s</text><text x="-0.5772427992317792" y="0.3705811587362433">63s</text><text x="-0.5594734588958846" y="0.3655065918085467">64s</text><text x="-0.5575696010027531" y="0.3511335198701717">65s</text><text x="0.18937731240252742" y="9.674186378638489e-2">66</text><text x="-0.40018401517054447" y="0.27850488898624265">76o</text><text x="-0.3407836489048398" y="0.2665577521007125">86o</text><text x="-0.2867140847399037" y="0.24899364853365175">96o</text><text x="-0.2256637083001517" y="0.2340554899286622">T6o</text><text x="-0.15242864134435763" y="0.20926895117793765">J6o</text><text x="-5.837806142365898e-2" y="0.17308593298407654">Q6o</text><text x="2.8945553941308377e-2" y="0.15971412751435765">K6o</text><text x="0.13594236753530176" y="0.12343419013371398">A6o</text><text x="-0.5409425754027376" y="0.36845284816370744">72s</text><text x="-0.5394194890882322" y="0.3668421642793255">73s</text><text x="-0.5102270013935486" y="0.36273687614249467">74s</text><text x="-0.4853499249232961" y="0.35573652931957517">75s</text><text x="-0.48509607720421194" y="0.3541731315675788">76s</text><text x="0.2626123793583217" y="9.567097196471269e-2">77</text><text x="-0.30054878542999297" y="0.2620429695343446">87o</text><text x="-0.25142925178719877" y="0.24469486971540522">97o</text><text x="-0.1822557483367523" y="0.22064196140095593">T7o</text><text x="-0.11739765611073738" y="0.20043800518582838">J7o</text><text x="-3.0581736183938224e-2" y="0.1616507727892646">Q7o</text><text x="6.613424478714502e-2" y="0.15742196701618422">K7o</text><text x="0.15980405312921753" y="0.10429895266432171">A7o</text><text x="-0.47786141721031206" y="0.3594637022433967">82s</text><text x="-0.4759575593171805" y="0.3589908409195415">83s</text><text x="-0.46504210739655943" y="0.3559081153955477">84s</text><text x="-0.43610346742095984" y="0.3449923203496393">85s</text><text x="-0.4250610916407968" y="0.34274927136763844">86s</text><text x="-0.38025696922243424" y="0.341292006644397">87s</text><text x="0.3391474666622103" y="5.255323384122457e-2">88</text><text x="-0.20357895673982573" y="0.23384470156278936">98o</text><text x="-0.14595552450771054" y="0.2133139147267618">T8o</text><text x="-8.274744245574295e-2" y="0.2058563527267323">J8o</text><text x="-3.0392586633016805e-3" y="0.15790265141341214">Q8o</text><text x="8.199972722990778e-2" y="0.14902824390256636">K8o</text><text x="0.18544267275672266" y="8.778314092919004e-2">A8o</text><text x="-0.4249341677812547" y="0.3459802006705244">92s</text><text x="-0.42036490883773886" y="0.3437458439922708">93s</text><text x="-0.4135110204224653" y="0.3423299546348668">94s</text><text x="-0.3811454362392289" y="0.3272018691929979">95s</text><text x="-0.36426456292012915" y="0.32685235165931736">96s</text><text x="-0.32237968927123484" y="0.32427247590710706">97s</text><text x="-0.27630632825745116" y="0.3089044828818116">98s</text><text x="0.40476710204547794" y="3.040524389300464e-2">99</text><text x="-0.13440545328937903" y="0.20730535976141357">T9o</text><text x="-6.853197018702728e-2" y="0.19395789274218722">J9o</text><text x="5.464639926018977e-3" y="0.14881310938481956">Q9o</text><text x="0.10548064124519685" y="0.13119120199783912">K9o</text><text x="0.19953122116589594" y="7.01125566412244e-2">A9o</text><text x="-0.33976825802850297" y="0.33346893327179183">T2s</text><text x="-0.3317720548773505" y="0.3282135664261506">T3s</text><text x="-0.3241566233048243" y="0.327724276648213">T4s</text><text x="-0.28709485631853005" y="0.3162834664559653">T5s</text><text x="-0.30118340472770344" y="0.31331365395764943">T6s</text><text x="-0.252825414242162" y="0.3051481038173991">T7s</text><text x="-0.2166521142726623" y="0.29518846218369804">T8s</text><text x="-0.19647122060546784" y="0.283338679100138">T9s</text><text x="0.4780021690012717" y="-3.904278612673562e-2">TT</text><text x="-3.312021337478044e-2" y="0.1662568245449797">JTo</text><text x="3.897253884513452e-2" y="0.11417558279723544">QTo</text><text x="0.13035771771544935" y="0.10048390054961431">KTo</text><text x="0.24585842989876383" y="3.4574072770228614e-2">ATo</text><text x="-0.29699491736281425" y="0.3138399729495508">J2s</text><text x="-0.288364094913951" y="0.3161386526755346">J3s</text><text x="-0.2804948156223406" y="0.30813095477133595">J4s</text><text x="-0.24660614512459889" y="0.3044610641292094">J5s</text><text x="-0.22210984023297287" y="0.29777572639409344">J6s</text><text x="-0.18301729149400492" y="0.2921726673985586">J7s</text><text x="-0.1509055550298526" y="0.28731714652529505">J8s</text><text x="-0.12564770698097405" y="0.2747858868279437">J9s</text><text x="-9.404366595499014e-2" y="0.2379335612455376">JTs</text><text x="0.5386717738623972" y="-0.1134158754497181">JJ</text><text x="6.638809250622901e-2" y="9.647240237021742e-2">QJo</text><text x="0.16272330189868578" y="8.023126743350179e-2">KJo</text><text x="0.26388161795374265" y="1.8194295588742748e-2">AJo</text><text x="-0.19114041850469965" y="0.2791316040864258">Q2s</text><text x="-0.1866980834207259" y="0.2910500563695898">Q3s</text><text x="-0.17730571781461002" y="0.2742826024409727">Q4s</text><text x="-0.14519398135045813" y="0.2696361314728326">Q5s</text><text x="-0.12450539224509516" y="0.25949960145787315">Q6s</text><text x="-8.84590161351374e-2" y="0.25306903514559176">Q7s</text><text x="-6.865889404656955e-2" y="0.23946079901394496">Q8s</text><text x="-5.330110704197499e-2" y="0.22263162972872186">Q9s</text><text x="-2.0047055841943662e-2" y="0.1866433191388014">QTs</text><text x="1.0160822729077146e-2" y="0.1799684990912197">QJs</text><text x="0.6046721808242914" y="-0.2175136012822887">QQ</text><text x="0.17973109907732776" y="2.3563096998286737e-2">KQo</text><text x="0.2756855368911584" y="-4.3861799324260486e-2">AQo</text><text x="-8.528591964658505e-2" y="0.266418675240755">K2s</text><text x="-9.061672174735325e-2" y="0.2780168161308296">K3s</text><text x="-8.071666070306915e-2" y="0.26527563729797987">K4s</text><text x="-4.9874162834337876e-2" y="0.2604375010322111">K5s</text><text x="-2.918557372897501e-2" y="0.24309765890183171">K6s</text><text x="9.906975009992824e-3" y="0.2468931533331073">K7s</text><text x="2.7422467626803337e-2" y="0.23020914552046484">K8s</text><text x="5.0141838484839996e-2" y="0.21209916527807127">K9s</text><text x="8.199972722990778e-2" y="0.18468277002858896">KTs</text><text x="0.1059883366833656" y="0.1651359519767603">KJs</text><text x="0.12350382930017567" y="0.10339842999609727">KQs</text><text x="0.6666110242808378" y="-0.3165489294124091">KK</text><text x="0.3147780856301261" y="-5.558989015535776e-2">AKo</text><text x="1.155698518404047e-2" y="0.23339400561348966">A2s</text><text x="1.0414670448161356e-2" y="0.23822518803626064">A3s</text><text x="2.0949350790155807e-2" y="0.23148952186244764">A4s</text><text x="4.9507219187129525e-2" y="0.2164048979393155">A5s</text><text x="7.831893530318679e-2" y="0.21008515849981263">A6s</text><text x="0.10446525036886023" y="0.195403857470557">A7s</text><text x="0.1304846415749915" y="0.17395950951068423">A8s</text><text x="0.1502847636635598" y="0.15738415549488333">A9s</text><text x="0.20321201309261694" y="0.11880336531231889">ATs</text><text x="0.2145082365918639" y="0.10654895548932025">AJs</text><text x="0.22364675447889582" y="3.1149305093777058e-2">AQs</text><text x="0.2750509175934479" y="1.7364615196059197e-2">AKs</text><text x="0.75" y="-0.46560976945402777">AA</text></g><g></g></svg>