<svg width="450.9186694866371" xmlns:xlink="http://www.w3.org/1999/xlink" xmlns="http://www.w3.org/2000/svg" viewBox="-0.845 -0.5531722096956032 1.6524999999999999 1.0994222096956032" height="300.0"><g stroke-opacity="5.0e-2" fill="none" stroke="#0d0d0d" stroke-width="5.0e-3"><polyline points="-0.6945949676731749,0.40191657271702363
0.75,0.40191657271702363"/></g><g stroke-opacity="5.0e-2" fill="none" stroke="#0d0d0d" stroke-width="5.0e-3"><polyline points="-0.6945949676731749,0.2515971439308531
0.75,0.2515971439308531"/></g><g stroke-opacity="5.0e-2" fill="none" stroke="#0d0d0d" stroke-width="5.0e-3"><polyline points="-0.6945949676731749,0.10127771514468248
0.75,0.10127771514468248"/></g><g stroke-opacity="5.0e-2" fill="none" stroke="#0d0d0d" stroke-width="5.0e-3"><polyline points="-0.6945949676731749,-4.904171364148813e-2
0.75,-4.904171364148813e-2"/></g><g stroke-opacity="5.0e-2" fill="none" stroke="#0d0d0d" stroke-width="5.0e-3"><polyline points="-0.6945949676731749,-0.1993611424276588
0.75,-0.1993611424276588"/></g><g stroke-opacity="5.0e-2" fill="none" stroke="#0d0d0d" stroke-width="5.0e-3"><polyline points="-0.6945949676731749,-0.34968057121382934
0.75,-0.34968057121382934"/></g><g stroke-opacity="5.0e-2" fill="none" stroke="#0d0d0d" stroke-width="5.0e-3"><polyline points="-0.6945949676731749,-0.5
0.75,-0.5"/></g><g fill="#0d0d0d" stroke="none" stroke-width="0.0" font-size="5.0e-2" fill-opacity="1.0" text-anchor="end"><text x="-0.75" y="0.41499436302142045">0</text></g><g fill="#0d0d0d" stroke="none" stroke-width="0.0" font-size="5.0e-2" fill-opacity="1.0" text-anchor="end"><text x="-0.75" y="0.26467493423524996">0.5</text></g><g fill="#0d0d0d" stroke="none" stroke-width="0.0" font-size="5.0e-2" fill-opacity="1.0" text-anchor="end"><text x="-0.75" y="0.1143555054490793">1</text></g><g fill="#0d0d0d" stroke="none" stroke-width="0.0" font-size="5.0e-2" fill-opacity="1.0" text-anchor="end"><text x="-0.75" y="-3.596392333709142e-2">1.5</text></g><g fill="#0d0d0d" stroke="none" stroke-width="0.0" font-size="5.0e-2" fill-opacity="1.0" text-anchor="end"><text x="-0.75" y="-0.18628335212326197">2</text></g><g fill="#0d0d0d" stroke="none" stroke-width="0.0" font-size="5.0e-2" fill-opacity="1.0" text-anchor="end"><text x="-0.75" y="-0.3366027809094324">2.5</text></g><g fill="#0d0d0d" stroke="none" stroke-width="0.0" font-size="5.0e-2" fill-opacity="1.0" text-anchor="end"><text x="-0.75" y="-0.4869222096956032">3</text></g><g stroke-opacity="0.4" fill="#0d0d0d" stroke="#0d0d0d" stroke-width="2.0e-3" fill-opacity="0.4"><g transform="rotate(-90.0, -0.7201161454354009, 0.40191657271702363)"><polyline points="-0.7201161454354009,0.41691657271702365
-0.7201161454354009,0.3869165727170236"/></g><g transform="rotate(-90.0, -0.7201161454354009, 0.2515971439308531)"><polyline points="-0.7201161454354009,0.2665971439308531
-0.7201161454354009,0.23659714393085307"/></g><g transform="rotate(-90.0, -0.7201161454354009, 0.10127771514468248)"><polyline points="-0.7201161454354009,0.11627771514468248
-0.7201161454354009,8.627771514468248e-2"/></g><g transform="rotate(-90.0, -0.7201161454354009, -4.904171364148813e-2)"><polyline points="-0.7201161454354009,-3.404171364148813e-2
-0.7201161454354009,-6.404171364148813e-2"/></g><g transform="rotate(-90.0, -0.7201161454354009, -0.1993611424276588)"><polyline points="-0.7201161454354009,-0.18436114242765878
-0.7201161454354009,-0.2143611424276588"/></g><g transform="rotate(-90.0, -0.7201161454354009, -0.34968057121382934)"><polyline points="-0.7201161454354009,-0.3346805712138293
-0.7201161454354009,-0.36468057121382935"/></g><g transform="rotate(-90.0, -0.7201161454354009, -0.5)"><polyline points="-0.7201161454354009,-0.485
-0.7201161454354009,-0.515"/></g></g><g stroke-opacity="0.0" fill="#0d0d0d" stroke="#000000" stroke-width="0.0" fill-opacity="0.4"><rect width="3.8522532471284565e-3" x="-0.7080778540381245" y="-0.5" height="0.9019165727170236"/></g><g stroke-opacity="5.0e-2" fill="none" stroke="#0d0d0d" stroke-width="5.0e-3"><polyline points="-0.6945949676731749,0.40191657271702363
-0.6945949676731749,-0.5"/></g><g stroke-opacity="5.0e-2" fill="none" stroke="#0d0d0d" stroke-width="5.0e-3"><polyline points="-0.5742120537004103,0.40191657271702363
-0.5742120537004103,-0.5"/></g><g stroke-opacity="5.0e-2" fill="none" stroke="#0d0d0d" stroke-width="5.0e-3"><polyline points="-0.4538291397276459,0.40191657271702363
-0.4538291397276459,-0.5"/></g><g stroke-opacity="5.0e-2" fill="none" stroke="#0d0d0d" stroke-width="5.0e-3"><polyline points="-0.33344622575488114,0.40191657271702363
-0.33344622575488114,-0.5"/></g><g stroke-opacity="5.0e-2" fill="none" stroke="#0d0d0d" stroke-width="5.0e-3"><polyline points="-0.21306331178211668,0.40191657271702363
-0.21306331178211668,-0.5"/></g><g stroke-opacity="5.0e-2" fill="none" stroke="#0d0d0d" stroke-width="5.0e-3"><polyline points="-9.2680397809352e-2,0.40191657271702363
-9.2680397809352e-2,-0.5"/></g><g stroke-opacity="5.0e-2" fill="none" stroke="#0d0d0d" stroke-width="5.0e-3"><polyline points="2.770251616341257e-2,0.40191657271702363
2.770251616341257e-2,-0.5"/></g><g stroke-opacity="5.0e-2" fill="none" stroke="#0d0d0d" stroke-width="5.0e-3"><polyline points="0.14808543013617737,0.40191657271702363
0.14808543013617737,-0.5"/></g><g stroke-opacity="5.0e-2" fill="none" stroke="#0d0d0d" stroke-width="5.0e-3"><polyline points="0.2684683441089417,0.40191657271702363
0.2684683441089417,-0.5"/></g><g stroke-opacity="5.0e-2" fill="none" stroke="#0d0d0d" stroke-width="5.0e-3"><polyline points="0.3888512580817065,0.40191657271702363
0.3888512580817065,-0.5"/></g><g stroke-opacity="5.0e-2" fill="none" stroke="#0d0d0d" stroke-width="5.0e-3"><polyline points="0.5092341720544709,0.40191657271702363
0.5092341720544709,-0.5"/></g><g stroke-opacity="5.0e-2" fill="none" stroke="#0d0d0d" stroke-width="5.0e-3"><polyline points="0.6296170860272354,0.40191657271702363
0.6296170860272354,-0.5"/></g><g stroke-opacity="5.0e-2" fill="none" stroke="#0d0d0d" stroke-width="5.0e-3"><polyline points="0.75,0.40191657271702363
0.75,-0.5"/></g><g fill="#0d0d0d" stroke="none" stroke-width="0.0" font-size="5.0e-2" fill-opacity="1.0" text-anchor="middle"><text x="-0.6945949676731749" y="0.5">0.3</text></g><g fill="#0d0d0d" stroke="none" stroke-width="0.0" font-size="5.0e-2" fill-opacity="1.0" text-anchor="middle"><text x="-0.5742120537004103" y="0.5">0.35</text></g><g fill="#0d0d0d" stroke="none" stroke-width="0.0" font-size="5.0e-2" fill-opacity="1.0" text-anchor="middle"><text x="-0.4538291397276459" y="0.5">0.4</text></g><g fill="#0d0d0d" stroke="none" stroke-width="0.0" font-size="5.0e-2" fill-opacity="1.0" text-anchor="middle"><text x="-0.33344622575488114" y="0.5">0.45</text></g><g fill="#0d0d0d" stroke="none" stroke-width="0.0" font-size="5.0e-2" fill-opacity="1.0" text-anchor="middle"><text x="-0.21306331178211668" y="0.5">0.5</text></g><g fill="#0d0d0d" stroke="none" stroke-width="0.0" font-size="5.0e-2" fill-opacity="1.0" text-anchor="middle"><text x="-9.2680397809352e-2" y="0.5">0.55</text></g><g fill="#0d0d0d" stroke="none" stroke-width="0.0" font-size="5.0e-2" fill-opacity="1.0" text-anchor="middle"><text x="2.770251616341257e-2" y="0.5">0.6</text></g><g fill="#0d0d0d" stroke="none" stroke-width="0.0" font-size="5.0e-2" fill-opacity="1.0" text-anchor="middle"><text x="0.14808543013617737" y="0.5">0.65</text></g><g fill="#0d0d0d" stroke="none" stroke-width="0.0" font-size="5.0e-2" fill-opacity="1.0" text-anchor="middle"><text x="0.2684683441089417" y="0.5">0.7</text></g><g fill="#0d0d0d" stroke="none" stroke-width="0.0" font-size="5.0e-2" fill-opacity="1.0" text-anchor="middle"><text x="0.3888512580817065" y="0.5">0.75</text></g><g fill="#0d0d0d" stroke="none" stroke-width="0.0" font-size="5.0e-2" fill-opacity="1.0" text-anchor="middle"><text x="0.5092341720544709" y="0.5">0.8</text></g><g fill="#0d0d0d" stroke="none" stroke-width="0.0" font-size="5.0e-2" fill-opacity="1.0" text-anchor="middle"><text x="0.6296170860272354" y="0.5">0.85</text></g><g fill="#0d0d0d" stroke="none" stroke-width="0.0" font-size="5.0e-2" fill-opacity="1.0" text-anchor="middle"><text x="0.75" y="0.5">0.9</text></g><g stroke-opacity="0.4" fill="#0d0d0d" stroke="#0d0d0d" stroke-width="2.0e-3" fill-opacity="0.4"><polyline points="-0.6945949676731749,0.44081736189402476
-0.6945949676731749,0.41081736189402474"/><polyline points="-0.5742120537004103,0.44081736189402476
-0.5742120537004103,0.41081736189402474"/><polyline points="-0.4538291397276459,0.44081736189402476
-0.4538291397276459,0.41081736189402474"/><polyline points="-0.33344622575488114,0.44081736189402476
-0.33344622575488114,0.41081736189402474"/><polyline points="-0.21306331178211668,0.44081736189402476
-0.21306331178211668,0.41081736189402474"/><polyline points="-9.2680397809352e-2,0.44081736189402476
-9.2680397809352e-2,0.41081736189402474"/><polyline points="2.770251616341257e-2,0.44081736189402476
2.770251616341257e-2,0.41081736189402474"/><polyline points="0.14808543013617737,0.44081736189402476
0.14808543013617737,0.41081736189402474"/><polyline points="0.2684683441089417,0.44081736189402476
0.2684683441089417,0.41081736189402474"/><polyline points="0.3888512580817065,0.44081736189402476
0.3888512580817065,0.41081736189402474"/><polyline points="0.5092341720544709,0.44081736189402476
0.5092341720544709,0.41081736189402474"/><polyline points="0.6296170860272354,0.44081736189402476
0.6296170860272354,0.41081736189402474"/><polyline points="0.75,0.44081736189402476
0.75,0.41081736189402474"/></g><g stroke-opacity="0.0" fill="#0d0d0d" stroke="#000000" stroke-width="0.0" fill-opacity="0.4"><rect width="1.4445949676731749" x="-0.6945949676731749" y="0.41093573844419395" height="3.6076662908680612e-3"/></g><g fill="#0d0d0d" stroke="none" stroke-width="0.0" font-size="4.0e-2" fill-opacity="0.4" text-anchor="middle"><text x="-0.22281432781391064" y="0.10781159964925474">22p</text><text x="-0.6446360583744775" y="0.26588083009729013">32o</text><text x="-0.6288658966440455" y="0.23581026347655437">42o</text><text x="-0.6053912284193563" y="0.23644494550920714">52o</text><text x="-0.6074377379568934" y="0.2521382938744833">62o</text><text x="-0.5823980918505582" y="0.27950979164056966">72o</text><text x="-0.5230493152619854" y="0.26913441062257304">82o</text><text x="-0.4786280200060351" y="0.26095035283310375">92o</text><text x="-0.40784286659004976" y="0.24071401728673425">T2o</text><text x="-0.3580043402053252" y="0.2278667167731429">J2o</text><text x="-0.2810796581767287" y="0.20020126101298596">Q2o</text><text x="-0.19332051389058336" y="0.18739404568040413">K2o</text><text x="-9.713456562634426e-2" y="0.1509432544156331">A2o</text><text x="-0.548811258852157" y="0.17270950770387078">32s</text><text x="-0.14396351916174965" y="0.10949517725165986">33p</text><text x="-0.5698782687973909" y="0.2173309950311078">43o</text><text x="-0.5589234236258693" y="0.21397720155330074">53o</text><text x="-0.5614514648192974" y="0.22775982295711722">63o</text><text x="-0.5432736448094098" y="0.2573627291327405">73o</text><text x="-0.5100479605529268" y="0.26886717608250865">83o</text><text x="-0.4683954723183502" y="0.2580642198004093">93o</text><text x="-0.38749815412865246" y="0.23446072904922954">T3o</text><text x="-0.34175264681900197" y="0.2309799991648921">J3o</text><text x="-0.2688006009515067" y="0.2078976157668378">Q3o</text><text x="-0.18344911494481675" y="0.1985110025470791">K3o</text><text x="-8.341091343344909e-2" y="0.14845129232953352">A3o</text><text x="-0.5318372679819972" y="0.14532464821078123">42s</text><text x="-0.48079491245754497" y="0.12616393168817075">43s</text><text x="-6.342734971397013e-2" y="0.10074324606455393">44p</text><text x="-0.4990931153814052" y="0.19403482400100208">54o</text><text x="-0.5107702580367635" y="0.204557184016034">64o</text><text x="-0.4830821878230275" y="0.22968391164558016">74o</text><text x="-0.4685158552323231" y="0.23775439475552207">84o</text><text x="-0.45346799098572743" y="0.2544765961000459">94o</text><text x="-0.37232990696808416" y="0.23208902250615882">T4o</text><text x="-0.3268251654863791" y="0.2173309950311077">J4o</text><text x="-0.2566419266402573" y="0.1877414505824877">Q4o</text><text x="-0.1702069944078125" y="0.18208275919662603">K4o</text><text x="-7.101147329425439e-2" y="0.13004551338260462">A4o</text><text x="-0.5158263404236195" y="0.15219257589043383">52s</text><text x="-0.4756184471567162" y="0.12589001628460483">53s</text><text x="-0.4089263128158046" y="0.10775815274124184">54s</text><text x="1.3015800658735088e-2" y="9.593302434339646e-2">55p</text><text x="-0.47959108331781736" y="0.16884796859994156">65o</text><text x="-0.45202339601805436" y="0.19359388700989588">75o</text><text x="-0.42758566448158297" y="0.20203849847592792">85o</text><text x="-0.40278678420319364" y="0.21948223307862536">95o</text><text x="-0.3442806880124301" y="0.21721073948807867">T5o</text><text x="-0.30046130732634363" y="0.21543362979665115">J5o</text><text x="-0.2288334735125488" y="0.18339888930644271">Q5o</text><text x="-0.14372275333380413" y="0.17782704914610203">K5o</text><text x="-4.09157448010633e-2" y="0.11677731846841205">A5o</text><text x="-0.5242531444017131" y="0.16038999540690635">62s</text><text x="-0.47826687126411693" y="0.13489582028477187">63s</text><text x="-0.4195200092454079" y="0.11225437387782378">64s</text><text x="-0.3879796857845436" y="7.842916196918465e-2">65s</text><text x="8.09117641393744e-2" y="5.905465781452268e-2">66p</text><text x="-0.42240919918075426" y="0.18414714601862275">76o</text><text x="-0.3876185370426252" y="0.1824368449622112">86o</text><text x="-0.35848587186121617" y="0.1929391623867383">96o</text><text x="-0.3206856368737681" y="0.19408159004551323">T6o</text><text x="-0.2810796581767287" y="0.20954778905173482">J6o</text><text x="-0.20872952687909707" y="0.17280972065639477">Q6o</text><text x="-0.11555315146417744" y="0.16520689799156524">K6o</text><text x="-3.573927950023437e-2" y="0.13484237337675892">A6o</text><text x="-0.504389963596207" y="0.18396676270407947">72s</text><text x="-0.46538589946903125" y="0.15997578186980654">73s</text><text x="-0.40098104049360206" y="0.13396718025804827">74s</text><text x="-0.3729318215379479" y="9.489080963714558e-2">75s</text><text x="-0.3410303493351654" y="9.175080379139011e-2">76s</text><text x="0.1606052531893445" y="5.2868178212034045e-2">77p</text><text x="-0.321769083099523" y="0.17095578103469855">87o</text><text x="-0.3108142379280015" y="0.1639141509040043">97o</text><text x="-0.2662725597580785" y="0.17054156749759886">T7o</text><text x="-0.23232457801775896" y="0.18877364399348606">J7o</text><text x="-0.18224528580508892" y="0.15920080170361994">Q7o</text><text x="-8.5577805884959e-2" y="0.16310242598855884">K7o</text><text x="-7.32891180266193e-3" y="0.1272395507119296">A7o</text><text x="-0.44395774078187916" y="0.1809470124013527">82s</text><text x="-0.4317990664706299" y="0.1668437095494591">83s</text><text x="-0.3871370053867342" y="0.14110902334126685">84s</text><text x="-0.3500590678831228" y="0.10457138085097523">85s</text><text x="-0.31021232335813775" y="9.033446072904944e-2">86s</text><text x="-0.2495393347158643" y="7.761743705373936e-2">87s</text><text x="0.2362057231642407" y="1.9544031066015377e-2">88p</text><text x="-0.24628899603859966" y="0.1488688462983841">98o</text><text x="-0.20499765654594126" y="0.13547371497766086">T8o</text><text x="-0.17345733308507694" y="0.15563656102551238">J8o</text><text x="-0.11952578762527855" y="0.12447367322226399">Q8o</text><text x="-6.378849845588841e-2" y="0.14302643116622826">K8o</text><text x="2.8184047819303615e-2" y="0.10859326067894298">A8o</text><text x="-0.4026664012892208" y="0.16514677022005086">92s</text><text x="-0.3932765339993452" y="0.1582521190863918">93s</text><text x="-0.3714872265702749" y="0.1522994697064594">94s</text><text x="-0.3307978016474804" y="0.11814689548624163">95s</text><text x="-0.2881822501011217" y="9.491753309115208e-2">96s</text><text x="-0.24376095484517157" y="6.55651592968392e-2">97s</text><text x="-0.1832083491168709" y="4.913691594638642e-2">98s</text><text x="0.3072316424081718" y="5.100004175539907e-3">99p</text><text x="-0.18080069083741557" y="8.982337467117651e-2">T9o</text><text x="-0.12963795239899079" y="0.12188483861539101">J9o</text><text x="-8.810584707838687e-2" y="9.691511127813285e-2">Q9o</text><text x="-1.8283756974183385e-2" y="0.11761242640611308">K9o</text><text x="4.672301657110922e-2" y="9.562570462232245e-2">A9o</text><text x="-0.33501120363652714" y="0.14931980458474248">T2s</text><text x="-0.31177730123978353" y="0.13737442064386812">T3s</text><text x="-0.29191412043427745" y="0.13420101048060457">T4s</text><text x="-0.2736159175104171" y="0.11298926886300054">T5s</text><text x="-0.24917818597394603" y="9.75030272662743e-2">T6s</text><text x="-0.20439574197607746" y="7.068938160257238e-2">T7s</text><text x="-0.1440839020757223" y="3.5234038999541195e-2">T8s</text><text x="-0.12422072127021633" y="3.265272036413469e-4">T9s</text><text x="0.38933278973759733" y="-6.675936364775137e-2">TTp</text><text x="-8.280899886358539e-2" y="5.3583030606706106e-2">JTo</text><text x="-3.670234281201645e-2" y="2.4307486742661588e-2">QTo</text><text x="2.5294857883957134e-2" y="4.904004342561291e-2">KTo</text><text x="0.10438643236406342" y="2.047267109273887e-2">ATo</text><text x="-0.29335871540195063" y="0.12869597895527995">J2s</text><text x="-0.2733751516824716" y="0.12452712013027684">J3s</text><text x="-0.2464093789525723" y="0.11567497599064691">J4s</text><text x="-0.2337691729854321" y="0.11109190362854399">J5s</text><text x="-0.21462828966376257" y="0.10604785168483027">J6s</text><text x="-0.17369809891302268" y="8.14388909766589e-2">J7s</text><text x="-0.11314549318472211" y="5.3419349450916864e-2">J8s</text><text x="-7.75121506487837e-2" y="2.2453547120965645e-2">J9s</text><text x="-3.441506744653389e-2" y="-3.8572800534468765e-2">JTs</text><text x="0.44109744274588625" y="-0.12199674307904285">JJp</text><text x="-1.852452280212924e-2" y="2.57906384400185e-2">QJo</text><text x="3.8055446765070444e-2" y="3.7275042799281954e-2">KJo</text><text x="0.11618395793339453" y="2.0719863042298337e-2">AJo</text><text x="-0.21655441628732675" y="0.10455801912397178">Q2s</text><text x="-0.20114540329881303" y="0.10840619650089778">Q3s</text><text x="-0.18092107375138855" y="8.8450457221596e-2">Q4s</text><text x="-0.1652712949349291" y="8.346653304939672e-2">Q5s</text><text x="-0.14637117744120498" y="7.367906801954172e-2">Q6s</text><text x="-0.1265079966356989" y="5.642239759488937e-2">Q7s</text><text x="-6.57146250794527e-2" y="2.632510752014733e-2">Q8s</text><text x="-3.6822725725989214e-2" y="2.1804668253374015e-3">Q9s</text><text x="1.2654651916816917e-2" y="-6.18355672470664e-2">QTs</text><text x="2.890634530314007e-2" y="-6.135454507495075e-2">QJs</text><text x="0.49551051986157546" y="-0.21572925800659726">QQp</text><text x="4.5278421603436314e-2" y="-1.5497097999916387e-2">KQo</text><text x="0.1184712332988771" y="-4.3957576516764574e-2">AQo</text><text x="-0.12999910114090918" y="9.04279928180719e-2">K2s</text><text x="-0.11868310722746922" y="9.598647125140941e-2">K3s</text><text x="-0.10110720178744559" y="7.625788133116235e-2">K4s</text><text x="-8.353129634742196e-2" y="7.276378971982139e-2">K5s</text><text x="-6.210313766026998e-2" y="5.737776107561943e-2">K6s</text><text x="-3.465583327447952e-2" y="5.179924005177705e-2">K7s</text><text x="-9.134655512253564e-3" y="4.0421729508539284e-2">K8s</text><text x="2.8665579475194658e-2" y="2.0679777861288717e-2">K9s</text><text x="7.22441943333354e-2" y="-3.885339680153643e-2">KTs</text><text x="8.572708069828505e-2" y="-4.584826088771943e-2">KJs</text><text x="9.054239725719548e-2" y="-9.37834565117538e-2">KQs</text><text x="0.5542573818802854" y="-0.3086867927679653">KKp</text><text x="0.1600033386194808" y="-5.8655476220301206e-2">AKo</text><text x="-4.09157448010633e-2" y="5.4758862582989176e-2">A2s</text><text x="-2.1293329823502738e-2" y="4.263977619107295e-2">A3s</text><text x="-1.0579250479926583e-2" y="2.5964340891060533e-2">A4s</text><text x="1.3136183572707738e-2" y="1.0705248653388622e-2">A5s</text><text x="1.5423458938190526e-2" y="2.7394045680404433e-2">A6s</text><text x="3.661085179739698e-2" y="1.464027725583572e-2">A7s</text><text x="7.585568175251822e-2" y="3.269447576099649e-3">A8s</text><text x="9.114431182705962e-2" y="-3.023925842414843e-3">A9s</text><text x="0.1513357688134418" y="-6.905089982880264e-2">ATs</text><text x="0.16036448736139897" y="-6.329867635391839e-2">AJs</text><text x="0.16445750643647306" y="-0.1220234665330493">AQs</text><text x="0.19395132035980045" y="-0.13350787089231286">AKs</text><text x="0.6374419754354652" y="-0.43567664620652224">AAp</text></g><g></g></svg>