<svg xmlns="http://www.w3.org/2000/svg" height="300.0" viewBox="-0.845 -0.5531722096956032 1.6524999999999999 1.0994222096956032" width="450.9186694866371" xmlns:xlink="http://www.w3.org/1999/xlink"><g stroke-opacity="5.0e-2" stroke="#0d0d0d" stroke-width="5.0e-3" fill="none"><polyline points="-0.6835501710703205,0.40191657271702363
0.7499999999999998,0.40191657271702363"/></g><g stroke-opacity="5.0e-2" stroke="#0d0d0d" stroke-width="5.0e-3" fill="none"><polyline points="-0.6835501710703205,0.27307134804316313
0.7499999999999998,0.27307134804316313"/></g><g stroke-opacity="5.0e-2" stroke="#0d0d0d" stroke-width="5.0e-3" fill="none"><polyline points="-0.6835501710703205,0.14422612336930263
0.7499999999999998,0.14422612336930263"/></g><g stroke-opacity="5.0e-2" stroke="#0d0d0d" stroke-width="5.0e-3" fill="none"><polyline points="-0.6835501710703205,1.538089869544218e-2
0.7499999999999998,1.538089869544218e-2"/></g><g stroke-opacity="5.0e-2" stroke="#0d0d0d" stroke-width="5.0e-3" fill="none"><polyline points="-0.6835501710703205,-0.11346432597841838
0.7499999999999998,-0.11346432597841838"/></g><g stroke-opacity="5.0e-2" stroke="#0d0d0d" stroke-width="5.0e-3" fill="none"><polyline points="-0.6835501710703205,-0.24230955065227888
0.7499999999999998,-0.24230955065227888"/></g><g stroke-opacity="5.0e-2" stroke="#0d0d0d" stroke-width="5.0e-3" fill="none"><polyline points="-0.6835501710703205,-0.3711547753261394
0.7499999999999998,-0.3711547753261394"/></g><g stroke-opacity="5.0e-2" stroke="#0d0d0d" stroke-width="5.0e-3" fill="none"><polyline points="-0.6835501710703205,-0.5
0.7499999999999998,-0.5"/></g><g fill-opacity="1.0" font-size="5.0e-2" stroke="none" stroke-width="0.0" fill="#0d0d0d" text-anchor="end"><text x="-0.75" y="0.41499436302142045">0</text></g><g fill-opacity="1.0" font-size="5.0e-2" stroke="none" stroke-width="0.0" fill="#0d0d0d" text-anchor="end"><text x="-0.75" y="0.28614913834756">0.5</text></g><g fill-opacity="1.0" font-size="5.0e-2" stroke="none" stroke-width="0.0" fill="#0d0d0d" text-anchor="end"><text x="-0.75" y="0.1573039136736995">1</text></g><g fill-opacity="1.0" font-size="5.0e-2" stroke="none" stroke-width="0.0" fill="#0d0d0d" text-anchor="end"><text x="-0.75" y="2.8458688999838944e-2">1.5</text></g><g fill-opacity="1.0" font-size="5.0e-2" stroke="none" stroke-width="0.0" fill="#0d0d0d" text-anchor="end"><text x="-0.75" y="-0.10038653567402145">2</text></g><g fill-opacity="1.0" font-size="5.0e-2" stroke="none" stroke-width="0.0" fill="#0d0d0d" text-anchor="end"><text x="-0.75" y="-0.22923176034788195">2.5</text></g><g fill-opacity="1.0" font-size="5.0e-2" stroke="none" stroke-width="0.0" fill="#0d0d0d" text-anchor="end"><text x="-0.75" y="-0.3580769850217427">3</text></g><g fill-opacity="1.0" font-size="5.0e-2" stroke="none" stroke-width="0.0" fill="#0d0d0d" text-anchor="end"><text x="-0.75" y="-0.4869222096956032">3.5</text></g><g stroke-opacity="0.4" fill-opacity="0.4" stroke="#0d0d0d" stroke-width="2.0e-3" fill="#0d0d0d"><g transform="rotate(-90.0, -0.7203446254611253, 0.40191657271702363)"><polyline points="-0.7203446254611253,0.41691657271702365
-0.7203446254611253,0.3869165727170236"/></g><g transform="rotate(-90.0, -0.7203446254611253, 0.27307134804316313)"><polyline points="-0.7203446254611253,0.28807134804316314
-0.7203446254611253,0.2580713480431631"/></g><g transform="rotate(-90.0, -0.7203446254611253, 0.14422612336930263)"><polyline points="-0.7203446254611253,0.15922612336930264
-0.7203446254611253,0.12922612336930261"/></g><g transform="rotate(-90.0, -0.7203446254611253, 1.538089869544218e-2)"><polyline points="-0.7203446254611253,3.038089869544218e-2
-0.7203446254611253,3.808986954421806e-4"/></g><g transform="rotate(-90.0, -0.7203446254611253, -0.11346432597841838)"><polyline points="-0.7203446254611253,-9.846432597841838e-2
-0.7203446254611253,-0.1284643259784184"/></g><g transform="rotate(-90.0, -0.7203446254611253, -0.24230955065227888)"><polyline points="-0.7203446254611253,-0.22730955065227887
-0.7203446254611253,-0.2573095506522789"/></g><g transform="rotate(-90.0, -0.7203446254611253, -0.3711547753261394)"><polyline points="-0.7203446254611253,-0.3561547753261394
-0.7203446254611253,-0.3861547753261394"/></g><g transform="rotate(-90.0, -0.7203446254611253, -0.5)"><polyline points="-0.7203446254611253,-0.485
-0.7203446254611253,-0.515"/></g></g><g stroke-opacity="0.0" fill-opacity="0.4" stroke="#000000" stroke-width="0.0" fill="#0d0d0d"><rect height="0.9019165727170236" width="3.8228004561875473e-3" x="-0.7083983740355393" y="-0.5"/></g><g stroke-opacity="5.0e-2" stroke="#0d0d0d" stroke-width="5.0e-3" fill="none"><polyline points="-0.6835501710703205,0.40191657271702363
-0.6835501710703205,-0.5"/></g><g stroke-opacity="5.0e-2" stroke="#0d0d0d" stroke-width="5.0e-3" fill="none"><polyline points="-0.4446251425586004,0.40191657271702363
-0.4446251425586004,-0.5"/></g><g stroke-opacity="5.0e-2" stroke="#0d0d0d" stroke-width="5.0e-3" fill="none"><polyline points="-0.2057001140468805,0.40191657271702363
-0.2057001140468805,-0.5"/></g><g stroke-opacity="5.0e-2" stroke="#0d0d0d" stroke-width="5.0e-3" fill="none"><polyline points="3.322491446483988e-2,0.40191657271702363
3.322491446483988e-2,-0.5"/></g><g stroke-opacity="5.0e-2" stroke="#0d0d0d" stroke-width="5.0e-3" fill="none"><polyline points="0.2721499429765599,0.40191657271702363
0.2721499429765599,-0.5"/></g><g stroke-opacity="5.0e-2" stroke="#0d0d0d" stroke-width="5.0e-3" fill="none"><polyline points="0.5110749714882799,0.40191657271702363
0.5110749714882799,-0.5"/></g><g stroke-opacity="5.0e-2" stroke="#0d0d0d" stroke-width="5.0e-3" fill="none"><polyline points="0.7499999999999998,0.40191657271702363
0.7499999999999998,-0.5"/></g><g fill-opacity="1.0" font-size="5.0e-2" stroke="none" stroke-width="0.0" fill="#0d0d0d" text-anchor="middle"><text x="-0.6835501710703205" y="0.5">0.3</text></g><g fill-opacity="1.0" font-size="5.0e-2" stroke="none" stroke-width="0.0" fill="#0d0d0d" text-anchor="middle"><text x="-0.4446251425586004" y="0.5">0.4</text></g><g fill-opacity="1.0" font-size="5.0e-2" stroke="none" stroke-width="0.0" fill="#0d0d0d" text-anchor="middle"><text x="-0.2057001140468805" y="0.5">0.5</text></g><g fill-opacity="1.0" font-size="5.0e-2" stroke="none" stroke-width="0.0" fill="#0d0d0d" text-anchor="middle"><text x="3.322491446483988e-2" y="0.5">0.6</text></g><g fill-opacity="1.0" font-size="5.0e-2" stroke="none" stroke-width="0.0" fill="#0d0d0d" text-anchor="middle"><text x="0.2721499429765599" y="0.5">0.7</text></g><g fill-opacity="1.0" font-size="5.0e-2" stroke="none" stroke-width="0.0" fill="#0d0d0d" text-anchor="middle"><text x="0.5110749714882799" y="0.5">0.8</text></g><g fill-opacity="1.0" font-size="5.0e-2" stroke="none" stroke-width="0.0" fill="#0d0d0d" text-anchor="middle"><text x="0.7499999999999998" y="0.5">0.9</text></g><g stroke-opacity="0.4" fill-opacity="0.4" stroke="#0d0d0d" stroke-width="2.0e-3" fill="#0d0d0d"><polyline points="-0.6835501710703205,0.44081736189402476
-0.6835501710703205,0.41081736189402474"/><polyline points="-0.4446251425586004,0.44081736189402476
-0.4446251425586004,0.41081736189402474"/><polyline points="-0.2057001140468805,0.44081736189402476
-0.2057001140468805,0.41081736189402474"/><polyline points="3.322491446483988e-2,0.44081736189402476
3.322491446483988e-2,0.41081736189402474"/><polyline points="0.2721499429765599,0.44081736189402476
0.2721499429765599,0.41081736189402474"/><polyline points="0.5110749714882799,0.44081736189402476
0.5110749714882799,0.41081736189402474"/><polyline points="0.7499999999999998,0.44081736189402476
0.7499999999999998,0.41081736189402474"/></g><g stroke-opacity="0.0" fill-opacity="0.4" stroke="#000000" stroke-width="0.0" fill="#0d0d0d"><rect height="3.6076662908680612e-3" width="1.4335501710703202" x="-0.6835501710703205" y="0.41093573844419395"/></g><g fill-opacity="0.4" font-size="4.0e-2" stroke="none" stroke-width="0.0" fill="#0d0d0d" text-anchor="middle"><text x="-0.1095327900709131" y="0.10120490736693027">22</text><text x="-0.6663475690174766" y="0.30408967014088606">32o</text><text x="-0.6581046555338222" y="0.29420949108692707">42o</text><text x="-0.6274027893700663" y="0.3023948850490967">52o</text><text x="-0.5952673730352399" y="0.29329636702482575">62o</text><text x="-0.5536944180742007" y="0.291564114559766">72o</text><text x="-0.4943215484890382" y="0.28310409620443444">82o</text><text x="-0.44450568004434465" y="0.27041427318766664">92o</text><text x="-0.3643463329786624" y="0.25863945578231295">T2o</text><text x="-0.32408746567443764" y="0.24016591379129637">J2o</text><text x="-0.22445572878505038" y="0.20750058159302803">Q2o</text><text x="-0.12482399189566296" y="0.1955359731265674">K2o</text><text x="-3.367409351844186e-2" y="0.1644552326755579">A2o</text><text x="-0.5793788586392106" y="0.22949196634685443">32s</text><text x="-5.684982128407878e-2" y="9.737963580772407e-2">33</text><text x="-0.6356457028537207" y="0.29596914872675867">43o</text><text x="-0.6242967639994139" y="0.30455743966132115">53o</text><text x="-0.5878606971513767" y="0.2935671465128704">63o</text><text x="-0.5522608679031302" y="0.2900482402656666">73o</text><text x="-0.4925296107752003" y="0.2826590688887355">83o</text><text x="-0.4402050295311335" y="0.26831143731449747">93o</text><text x="-0.35682019458054326" y="0.2536934352846738">T3o</text><text x="-0.3159640147050391" y="0.24232928646843938">J3o</text><text x="-0.22027454078609543" y="0.21871747872392094">Q3o</text><text x="-0.12984141749440914" y="0.20645141333496952">K3o</text><text x="-3.474925614674462e-2" y="0.16900203749293774">A3o</text><text x="-0.5673131446993687" y="0.22561965605483075">42s</text><text x="-0.5515440928175952" y="0.2198253022366406">43s</text><text x="-1.0512701254505874e-4" y="9.143353094714024e-2">44</text><text x="-0.5947895229782164" y="0.30080832994603335">54o</text><text x="-0.5711359451555562" y="0.2887912835182927">64o</text><text x="-0.5247844896242826" y="0.2861846014617798">74o</text><text x="-0.48225583454919635" y="0.2797578016550476">84o</text><text x="-0.43375405376131715" y="0.26697889136864816">94o</text><text x="-0.34965244372519166" y="0.253232946542014">T4o</text><text x="-0.30855733882117575" y="0.23479294521265853">J4o</text><text x="-0.21143431473116148" y="0.20293700644481766">Q4o</text><text x="-0.12052334138245202" y="0.1944602177586554">K4o</text><text x="-2.4833867463508352e-2" y="0.16266285243898376">A4o</text><text x="-0.541509241620103" y="0.23101544864469659">52s</text><text x="-0.5447347295050111" y="0.2282008962923764">53s</text><text x="-0.5103295253993234" y="0.22999008607576815">54s</text><text x="7.718711971099634e-2" y="7.529556429862444e-2">55</text><text x="-0.5693440074417184" y="0.27526425286386635">65o</text><text x="-0.5013698368301339" y="0.279596315640123">75o</text><text x="-0.4550183812988603" y="0.26948454240771846">85o</text><text x="-0.4032911126260728" y="0.252741289525957">95o</text><text x="-0.31476938956248046" y="0.24246557608387215">T5o</text><text x="-0.2766608475148612" y="0.2313390751264805">J5o</text><text x="-0.18121029862442906" y="0.19856404042263276">Q5o</text><text x="-9.149395041827812e-2" y="0.18990686842192717">K5o</text><text x="2.0451982440603533e-3" y="0.14846615384222084">A5o</text><text x="-0.5121214631131612" y="0.2203135233800398">62s</text><text x="-0.5037590871152512" y="0.21611112389337545">63s</text><text x="-0.48416723477729007" y="0.21374691627872489">64s</text><text x="-0.48106120940663766" y="0.20671368494786113">65s</text><text x="0.1336928889540182" y="3.5846837795621866e-2">66</text><text x="-0.5011309118016223" y="0.2781249440775935">76o</text><text x="-0.4446251425586004" y="0.26737352588536356">86o</text><text x="-0.3874025982300435" y="0.25241234562220227">96o</text><text x="-0.3280297286448809" y="0.23967057548310566">T6o</text><text x="-0.25360458226348015" y="0.22504725603131137">J6o</text><text x="-0.16173790880072403" y="0.18902417637479646">Q6o</text><text x="-7.202156059457288e-2" y="0.17358770039394938">K6o</text><text x="2.9163188980140697e-2" y="0.14251841285179984">A6o</text><text x="-0.47186259580893664" y="0.22201714357294972">72s</text><text x="-0.47174313329468076" y="0.22097574693161748">73s</text><text x="-0.44856740552904384" y="0.21565300753897948">74s</text><text x="-0.4232413525068014" y="0.2105765056868294">75s</text><text x="-0.4212104897644519" y="0.20691075678674314">76s</text><text x="0.20262275967964927" y="3.483898181595069e-2">77</text><text x="-0.4024548750262818" y="0.26600204004939065">87o</text><text x="-0.34797996852560964" y="0.2499843289439037">97o</text><text x="-0.2825145107133982" y="0.23198567363811368">T7o</text><text x="-0.21681012787267528" y="0.2197740095662466">J7o</text><text x="-0.12781055475205938" y="0.18297213210725854">Q7o</text><text x="-3.522710620376801e-2" y="0.17715978086085993">K7o</text><text x="5.377246691684767e-2" y="0.12870129637725064">A7o</text><text x="-0.4175071518225203" y="0.20754925645568256">82s</text><text x="-0.4128481137665417" y="0.2062223551577715">83s</text><text x="-0.4042468127401198" y="0.20972326397676694">84s</text><text x="-0.37270870897657266" y="0.19802984403081036">85s</text><text x="-0.36530203309270937" y="0.19566686351353768">86s</text><text x="-0.32743241607360174" y="0.19141783432651532">87s</text><text x="0.2746586557759332" y="-5.740719436966857e-3">88</text><text x="-0.30461507585073255" y="0.23552094118368883">98o</text><text x="-0.2484676941504782" y="0.22261228580120518">T8o</text><text x="-0.18658611176594286" y="0.215204298931147">J8o</text><text x="-0.10917440252814536" y="0.17016491677467677">Q8o</text><text x="-1.8741279236459296e-2" y="0.16145784281393888">K8o</text><text x="7.826228233929888e-2" y="0.10851922580381279">A8o</text><text x="-0.3633906328646157" y="0.19386303036810365">92s</text><text x="-0.3570591196090549" y="0.1950929909731649">93s</text><text x="-0.3564618070377757" y="0.19574867000539414">94s</text><text x="-0.33268876670085956" y="0.18238148923605513">95s</text><text x="-0.31441100201971295" y="0.1791366347365702">96s</text><text x="-0.28120042305658394" y="0.17509089468181105">97s</text><text x="-0.23616305518212466" y="0.16487939933583362">98s</text><text x="0.3364207756462121" y="-2.6585013561982396e-2">99</text><text x="-0.22947315438379645" y="0.2114600157988788">T9o</text><text x="-0.16281307142902657" y="0.2034106660326664">J9o</text><text x="-9.471943830318641e-2" y="0.1543263618863554">Q9o</text><text x="2.642510815339616e-3" y="0.14441386926811317">K9o</text><text x="9.689843456321334e-2" y="9.291954587171214e-2">A9o</text><text x="-0.2883681739119355" y="0.18012976554770727">T2s</text><text x="-0.27797493517167565" y="0.17652373538667626">T3s</text><text x="-0.2774970851146522" y="0.18414441913556095">T4s</text><text x="-0.244525431180035" y="0.1702504045586667">T5s</text><text x="-0.2569495326626442" y="0.1650777800785853">T6s</text><text x="-0.21609335278714026" y="0.15245381128776192">T7s</text><text x="-0.1819270737099643" y="0.14555711499180657">T8s</text><text x="-0.17105598491268081" y="0.13990224124223155">T9s</text><text x="0.4053506463718437" y="-9.194512829558732e-2">TT</text><text x="-0.13306690537931753" y="0.16872757671275956">JTo</text><text x="-6.342025956815112e-2" y="0.12045642909550153">QTo</text><text x="3.262760189356029e-2" y="0.11861128367167989">KTo</text><text x="0.146714303007907" y="5.660973446124051e-2">ATo</text><text x="-0.2489455442075017" y="0.1602769661039914">J2s</text><text x="-0.24165833083789412" y="0.16548026801851895">J3s</text><text x="-0.2306677795263551" y="0.15807678050551305">J4s</text><text x="-0.21155377724541735" y="0.15304240899666893">J5s</text><text x="-0.18801966193701303" y="0.14175024989326818">J6s</text><text x="-0.15504800800239582" y="0.13343911935311514">J7s</text><text x="-0.1224347416105458" y="0.1385385270229852">J8s</text><text x="-0.1090549400138896" y="0.12734044538521916">J9s</text><text x="-7.572489853650466e-2" y="0.10126994352795615">JTs</text><text x="0.4624537281861447" y="-0.16194039885777667">JJ</text><text x="-3.498818117525637e-2" y="0.11417450858584705">QJo</text><text x="5.520601708791806e-2" y="0.10021504881546767">KJo</text><text x="0.15734646677667818" y="4.507665523932247e-2">AJo</text><text x="-0.16341038400030583" y="0.12001835533161032">Q2s</text><text x="-0.15528693303090746" y="0.13192733538360857">Q3s</text><text x="-0.14596885691895034" y="0.11758992962085252">Q4s</text><text x="-0.12076226641096399" y="0.11672155370979659">Q5s</text><text x="-9.949793887342073e-2" y="0.1076970705606557">Q6s</text><text x="-7.33356482513875e-2" y="9.693501752448436e-2">Q7s</text><text x="-4.741228265786579e-2" y="9.34075215956357e-2">Q8s</text><text x="-3.940829420272318e-2" y="8.485301674220985e-2">Q9s</text><text x="-7.87019043917625e-3" y="5.2254356834804616e-2">QTs</text><text x="1.7933712640089805e-2" y="3.559323767086703e-2">QJs</text><text x="0.5245742355991923" y="-0.25991062640764684">QQ</text><text x="7.169184405522633e-2" y="4.211157894198658e-2">KQo</text><text x="0.1659477678031005" y="-2.5884749991691436e-2">AQo</text><text x="-6.927392276668809e-2" y="0.10256125900190982">K2s</text><text x="-7.082693545201435e-2" y="0.12072639051862777">K3s</text><text x="-5.911960905494007e-2" y="0.1150915593595575">K4s</text><text x="-3.6899581403350146e-2" y="0.10710233736485963">K5s</text><text x="-1.7307729065389243e-2" y="9.511236888592356e-2">K6s</text><text x="1.7694787611578056e-2" y="9.295513169566966e-2">K7s</text><text x="3.262760189356029e-2" y="8.505548780955458e-2">K8s</text><text x="5.472816703089456e-2" y="6.826838664815799e-2">K9s</text><text x="7.81428198250429e-2" y="3.93686072700406e-2">KTs</text><text x="0.10860576096028751" y="2.0308103699954283e-2">KJs</text><text x="0.12461373787057273" y="-3.3024411568460366e-2">KQs</text><text x="0.5828719425560516" y="-0.35311644387179897">KK</text><text x="0.21433008607672388" y="-3.885803250274178e-2">AKo</text><text x="2.4026300867138528e-2" y="7.220205180907402e-2">A2s</text><text x="3.0477276636954986e-2" y="7.185273808884723e-2">A3s</text><text x="3.262760189356029e-2" y="8.047677846035095e-2">A4s</text><text x="5.126375411747475e-2" y="6.251779930311119e-2">A5s</text><text x="8.339917045230094e-2" y="6.096797531489134e-2">A6s</text><text x="0.10585812313240273" y="4.2959094197619174e-2">A7s</text><text x="0.12998955101208642" y="2.7415451712440086e-2">A8s</text><text x="0.14324989009448674" y="1.0785009982948568e-2">A9s</text><text x="0.18685370779787558" y="-2.2661574212548552e-2">ATs</text><text x="0.20381738482220801" y="-3.8077189537972234e-2">AJs</text><text x="0.21492739864800303" y="-9.648048020410716e-2">AQs</text><text x="0.2517218530388079" y="-0.10751822111783482">AKs</text><text x="0.6613588144221516" y="-0.4934031244966983">AA</text></g><g></g></svg>