<svg xmlns="http://www.w3.org/2000/svg" width="456.0365991500783" xmlns:xlink="http://www.w3.org/1999/xlink" viewBox="-0.7227045843548223 -0.48705995110154543 1.467852066017902 0.965614647214867" height="300.0"><style>svg {
  color-scheme: light dark;
}
{
  .canvas g, .title g, .axisbar g, .ticktext g, .tickglyph g, .ticklines g, .legendContent g text {
    fill: #0d0d0d;
  }
  .ticklines g, .tickglyph g, .legendBorder g {
    stroke: #0d0d0d;
  }
}
@media (prefers-color-scheme:dark) {
  .canvas g, .title g, .axisbar g, .ticktext g, .tickglyph g, .ticklines g, .legendContent g text {
    fill: #f0f0f0;
  }
  .ticklines g, .tickglyph g, .legendBorder g {
    stroke: #f0f0f0;
  }
}</style><g class="chart"><g><g fill="rgb(5%, 5%, 5%)" stroke="none" stroke-width="0.0" font-size="2.8493276284344526e-4" fill-opacity="0.4" text-anchor="middle"><text x="7.713429875278566e-3" y="-5.976559792848851e-2">22p</text><text x="-0.562152095811612" y="0.3157927990285003">32o</text><text x="-0.5550287767405258" y="0.27823695933280146">42o</text><text x="-0.5407821385983536" y="0.28240983041010137">52o</text><text x="-0.5479054576694397" y="0.294928443642001">62o</text><text x="-0.5336588195272673" y="0.32831141226039995">72o</text><text x="-0.47667226695857834" y="0.3241385411831001">82o</text><text x="-0.4125623953188031" y="0.31161992795120047">92o</text><text x="-0.31283592832359725" y="0.2907555725647011">T2o</text><text x="-0.22023278039947752" y="0.2573726039463021">J2o</text><text x="-9.913635619101335e-2" y="0.20729815101870355">Q2o</text><text x="5.757666337288159e-2" y="0.17391518240030454">K2o</text><text x="0.22141300200786274" y="6.959340546780768e-2">A2o</text><text x="-0.5051655432429228" y="0.1363593427046057">32s</text><text x="0.1430564922259152" y="-4.7246984696588834e-2">33p</text><text x="-0.5265355004561812" y="0.24485399071440245">43o</text><text x="-0.5122888623140089" y="0.22816250640520294">53o</text><text x="-0.5194121813850952" y="0.2531997328690022">63o</text><text x="-0.49804222417183674" y="0.3032741857966007">73o</text><text x="-0.45530230974531993" y="0.31996567010580024">83o</text><text x="-0.3840691190344586" y="0.3074470568739006">93o</text><text x="-0.2629726948259944" y="0.27406408825550155">T3o</text><text x="-0.19886282318621917" y="0.26571834610090184">J3o</text><text x="-7.064307990666874e-2" y="0.2198167642506032">Q3o</text><text x="6.469998244396769e-2" y="0.2031252799414037">K3o</text><text x="0.24990627829220724" y="5.7074792235908e-2">A3o</text><text x="-0.49091890510075054" y="5.2901921158608145e-2">42s</text><text x="-0.42680903346097543" y="2.8274682310096e-3">43s</text><text x="0.2926461927187237" y="-8.06299533149879e-2">44p</text><text x="-0.4410556716031476" y="0.19477953778680393">54o</text><text x="-0.46242562881640603" y="0.21564389317330335">64o</text><text x="-0.4339323525320615" y="0.2615454750236019">74o</text><text x="-0.3911924381055447" y="0.2865827014874012">84o</text><text x="-0.3698224808922863" y="0.2991013147193008">94o</text><text x="-0.24160273761273593" y="0.26989121717820175">T4o</text><text x="-0.17036954690187456" y="0.24068111963710256">J4o</text><text x="-5.639644176449654e-2" y="0.1780880534776044">Q4o</text><text x="0.1145632159415707" y="0.15305082701380518">K4o</text><text x="0.27127623550546565" y="1.5346081462909278e-2">A4o</text><text x="-0.46954894788749213" y="7.376627654510753e-2">52s</text><text x="-0.3983157571766309" y="-1.3454028462902556e-3">53s</text><text x="-0.31995924739468334" y="-6.393846900578848e-2">54s</text><text x="0.4066192978561023" y="-9.732143762418738e-2">55p</text><text x="-0.4196857143898892" y="0.12384072947270602">65o</text><text x="-0.3626991618212002" y="0.19060666670950407">75o</text><text x="-0.3413292046079418" y="0.21147102209600346">85o</text><text x="-0.30571260925251115" y="0.24902686179170236">95o</text><text x="-0.20598614225730527" y="0.2365082485598027">T5o</text><text x="-0.12762963247535786" y="0.23233537748250285">J5o</text><text x="5.901108041924674e-4" y="0.16139656916840492">Q5o</text><text x="0.1501798112970013" y="0.14470508485920547">K5o</text><text x="0.30689283086089625" y="-2.63826293100895e-2">A5o</text><text x="-0.48379558602966444" y="9.880350300890678e-2">62s</text><text x="-0.405439076247717" y="3.203756577210881e-2">63s</text><text x="-0.32708256646576955" y="-3.890124254198912e-2">64s</text><text x="-0.27721933296816664" y="-0.143223019474486">65s</text><text x="0.4992224457802217" y="-0.17243311701558506">66p</text><text x="-0.3342058855368557" y="0.16974231132300469">76o</text><text x="-0.27009601389708043" y="0.15722369809110504">86o</text><text x="-0.22735609947056368" y="0.18643379563220416">96o</text><text x="-0.15612290875970242" y="0.19895240886410379">T6o</text><text x="-9.201303711992714e-2" y="0.22398963532790306">J6o</text><text x="2.9083387088537083e-2" y="0.14053221378190556">Q6o</text><text x="0.20004304479460422" y="0.11549498731810626">K6o</text><text x="0.33538610714524075" y="2.7864694694808956e-2">A6o</text><text x="-0.44817899067423383" y="0.16556944024570483">72s</text><text x="-0.3769457999633724" y="9.463063193160692e-2">73s</text><text x="-0.2914659711103389" y="1.9518952540209134e-2">74s</text><text x="-0.24872605668382208" y="-0.10984005085608706">75s</text><text x="-0.19173950411513302" y="-0.11401292193338697">76s</text><text x="0.5704556364910833" y="-0.19747034347938452">77p</text><text x="-0.16324622783078852" y="0.1321864716273058">87o</text><text x="-0.14187627061753016" y="0.10714924516350655">97o</text><text x="-6.351976083558264e-2" y="0.12801360055000593">T7o</text><text x="-6.533208266893631e-3" y="0.1822609245549043">J7o</text><text x="7.89466205861401e-2" y="9.045776085430707e-2">Q7o</text><text x="0.23565964015003504" y="0.10297637408620669">K7o</text><text x="0.39237265971392987" y="7.000339308309456e-3">A7o</text><text x="-0.35557584275011406" y="0.14887795593650532">82s</text><text x="-0.348452523679028" y="0.11966785839540611">83s</text><text x="-0.2558493757549082" y="4.455617900400838e-2">84s</text><text x="-0.21310946132839143" y="-7.228421116038819e-2">85s</text><text x="-0.13475295154644407" y="-0.12235866408798668">86s</text><text x="-4.927312269341044e-2" y="-0.1473958905517858">87s</text><text x="0.5918255937043413" y="-0.26840915179348235">88p</text><text x="-2.7903165480152037e-2" y="6.124766331320791e-2">98o</text><text x="3.620670615962329e-2" y="3.621043684940867e-2">T8o</text><text x="0.10743989687048461" y="8.21120186997073e-2">J8o</text><text x="0.18579640665243213" y="-9.691145000889967e-3">Q8o</text><text x="0.28552287364763795" y="4.8729050081308234e-2">K8o</text><text x="0.4351125741404467" y="-5.14198557738888e-2">A8o</text><text x="-0.298589290181425" y="0.1113221162408064">92s</text><text x="-0.28434265203925274" y="8.628488977700716e-2">93s</text><text x="-0.23447941854164983" y="7.793914762240745e-2">94s</text><text x="-0.17749286597296077" y="-1.8036887155489734e-2">95s</text><text x="-0.10625967526209945" y="-0.1056671797787872">96s</text><text x="-2.077984640906594e-2" y="-0.16826024593828526">97s</text><text x="7.1823301515054e-2" y="-0.20581608563398424">98s</text><text x="0.5989489127754277" y="-0.28092776502538186">99p</text><text x="9.31932587283123e-2" y="-0.12653153516528648">T9o</text><text x="0.1644264494391735" y="-1.3864016078189878e-2">J9o</text><text x="0.22853632107894883" y="-8.897569546958767e-2">Q9o</text><text x="0.37100270250067147" y="-2.2209758232789645e-2">K9o</text><text x="0.4778524885669633" y="-0.10149430870148723">A9o</text><text x="-0.18461618504404692" y="6.542053439050777e-2">T2s</text><text x="-0.1489995896886162" y="4.038330792670852e-2">T3s</text><text x="-0.11338299433318555" y="2.36918236175091e-2">T4s</text><text x="-8.488971804884105e-2" y="-3.472837146468921e-2">T5s</text><text x="-4.214980362232423e-2" y="-8.480282439228781e-2">T6s</text><text x="4.333002523070939e-2" y="-0.16408737486098535">T7s</text><text x="0.135933173154829" y="-0.22668044102048357">T8s</text><text x="0.17867308758134604" y="-0.2934463782572816">T9s</text><text x="0.6060722318465137" y="-0.33934796010758017">TTp</text><text x="0.25702959736329345" y="-0.1891246013247847">JTo</text><text x="0.32826278807415454" y="-0.2475447964069829">QTo</text><text x="0.4279892550693605" y="-0.20998895671128404">KTo</text><text x="0.5277157220645665" y="-0.26423628071618244">ATo</text><text x="-0.1205063134042717" y="1.1173210385609422e-2">J2s</text><text x="-7.776639897775484e-2" y="-5.518273923590111e-3">J3s</text><text x="-3.5026484551238135e-2" y="-3.0555500387389356e-2">J4s</text><text x="-1.3656527337979618e-2" y="-4.307411361928898e-2">J5s</text><text x="2.1960068017450984e-2" y="-6.811134008308833e-2">J6s</text><text x="0.1003165777993984" y="-0.1390501483971861">J7s</text><text x="0.20716636386569032" y="-0.1932974724020845">J8s</text><text x="0.26415291643437944" y="-0.2517176674842828">J9s</text><text x="0.34963274528741306" y="-0.3059649914891811">JTs</text><text x="0.6131955509175999" y="-0.3518665733394799">JJp</text><text x="0.36387938342958526" y="-0.2433719253296831">QJo</text><text x="0.4636058504247911" y="-0.22250756994318377">KJo</text><text x="0.5348390411356525" y="-0.2558905385615826">AJo</text><text x="1.4836748946364775e-2" y="-7.645708223768805e-2">Q2s</text><text x="5.045334430179549e-2" y="-5.5592726851188656e-2">Q3s</text><text x="8.60699396572262e-2" y="-0.1307044062425864">Q4s</text><text x="0.1216865350126568" y="-0.1348772773198863">Q5s</text><text x="0.1288098540837429" y="-0.15574163270638564">Q6s</text><text x="0.1715497685102596" y="-0.18077885917018488">Q7s</text><text x="0.27839955457655163" y="-0.23502618317508328">Q8s</text><text x="0.32113946900306845" y="-0.2892735071799817">Q9s</text><text x="0.3994959787850161" y="-0.33100221795298046">QTs</text><text x="0.4493592122826189" y="-0.32682934687568055">QJs</text><text x="0.6203188699886861" y="-0.3643851865713795">QQp</text><text x="0.4707291694958773" y="-0.3017921204118813">KQo</text><text x="0.5419623602067387" y="-0.3143107336437809">AQo</text><text x="0.1573031303680874" y="-0.11818579301068677">K2s</text><text x="0.19291972572351823" y="-9.314856654688752e-2">K3s</text><text x="0.21428968293677642" y="-0.15156876162908584">K4s</text><text x="0.24278295922112114" y="-0.15991450378368555">K5s</text><text x="0.29976951178981015" y="-0.17660598809288508">K6s</text><text x="0.34250942621632696" y="-0.20164321455668432">K7s</text><text x="0.38524934064284366" y="-0.21833469886588386">K8s</text><text x="0.44223589321153267" y="-0.2600634096388825">K9s</text><text x="0.4849758076380495" y="-0.3101378625664811">KTs</text><text x="0.5063457648513081" y="-0.31848360472108084">KJs</text><text x="0.5134690839223941" y="-0.3476937022621799">KQs</text><text x="0.6274421890597721" y="-0.3685580576486793">KKp</text><text x="0.5562089983489109" y="-0.32265647579838075">AKo</text><text x="0.31401614993198235" y="-0.1849517302474848">A2s</text><text x="0.35675606435849916" y="-0.21416182778858395">A3s</text><text x="0.37812602157175756" y="-0.2391990542523832">A4s</text><text x="0.4137426169271883" y="-0.27675489394808206">A5s</text><text x="0.4208659359982745" y="-0.23085331209778348">A6s</text><text x="0.4564825313537051" y="-0.27258202287078215">A7s</text><text x="0.4920991267091357" y="-0.2851006361026819">A8s</text><text x="0.5205924029934801" y="-0.2976192493345814">A9s</text><text x="0.5490856792778247" y="-0.34352083118487997">ATs</text><text x="0.5633323174199971" y="-0.33517508903028026">AJs</text><text x="0.5775789555621693" y="-0.3560394444167798">AQs</text><text x="0.5847022746332555" y="-0.3602123154940796">AKs</text><text x="0.6345655081308583" y="-0.37273092872597935">AAp</text></g></g></g><g class="hud"><g class="frame"><g fill="rgb(100%, 100%, 100%)" stroke="rgb(0%, 0%, 0%)" stroke-width="0.0" fill-opacity="2.0e-2" stroke-opacity="0.0"><rect x="-0.5623444254265313" width="1.197102263172309" y="-0.37293122653768973" height="0.7013177504774811"/></g></g><g class="axis"><g class="ticks"><g class="tickglyph"><g fill="rgb(5%, 5%, 5%)" stroke="rgb(5%, 5%, 5%)" stroke-width="4.0e-3" fill-opacity="0.4" stroke-opacity="0.4"><g transform="rotate(-90.0, -0.5862787775053807, 0.32831141226039995)"><polyline points="-0.5862787775053807,0.34331141226039996
-0.5862787775053807,0.31331141226039994"/></g><g transform="rotate(-90.0, -0.5862787775053807, -2.4296193771439545e-2)"><polyline points="-0.5862787775053807,-9.296193771439545e-3
-0.5862787775053807,-3.9296193771439544e-2"/></g><g transform="rotate(-90.0, -0.5862787775053807, -0.37273092872597935)"><polyline points="-0.5862787775053807,-0.35773092872597934
-0.5862787775053807,-0.38773092872597936"/></g></g></g><g class="ticktext"><g fill="rgb(5%, 5%, 5%)" stroke="none" stroke-width="0.0" font-size="3.989058679808234e-2" fill-opacity="1.0" text-anchor="end"><text x="-0.615" y="0.3379507444489627">worst</text><text x="-0.615" y="-1.4656861582876823e-2">median</text><text x="-0.615" y="-0.3630915965374165">best</text></g></g><g class="ticklines"><g fill="none" stroke="rgb(5%, 5%, 5%)" stroke-width="5.0e-3" stroke-opacity="5.0e-2"><polyline points="-0.562152095811612,0.32831141226039995
0.6345655081308583,0.32831141226039995"/><polyline points="-0.562152095811612,-2.4296193771439545e-2
0.6345655081308583,-2.4296193771439545e-2"/><polyline points="-0.562152095811612,-0.37273092872597935
0.6345655081308583,-0.37273092872597935"/></g></g></g><g class="axisbar"><g fill="rgb(5%, 5%, 5%)" stroke="rgb(0%, 0%, 0%)" stroke-width="0.0" fill-opacity="0.4" stroke-opacity="0.0"><rect x="-0.5735137897299943" width="3.1912469438466484e-3" y="-0.3741330134079519" height="0.7038465103503246"/></g></g></g><g class="axis"><g class="ticks"><g class="tickglyph"><g fill="rgb(5%, 5%, 5%)" stroke="rgb(5%, 5%, 5%)" stroke-width="4.0e-3" fill-opacity="0.4" stroke-opacity="0.4"><polyline points="-0.562152095811612,0.3644177941693828
-0.562152095811612,0.3344177941693828"/><polyline points="3.9768365695166286e-2,0.3644177941693828
3.9768365695166286e-2,0.3344177941693828"/><polyline points="0.6345655081308583,0.3644177941693828
0.6345655081308583,0.3344177941693828"/></g></g><g class="ticktext"><g fill="rgb(5%, 5%, 5%)" stroke="none" stroke-width="0.0" font-size="3.989058679808234e-2" fill-opacity="1.0" text-anchor="end"><text x="-0.562152095811612" y="0.39393398282201786" transform="rotate(-45.0, -0.562152095811612, 0.39393398282201786)">worst</text><text x="3.9768365695166286e-2" y="0.39393398282201786" transform="rotate(-45.0, 3.9768365695166286e-2, 0.39393398282201786)">median</text><text x="0.6345655081308583" y="0.39393398282201786" transform="rotate(-45.0, 0.6345655081308583, 0.39393398282201786)">best</text></g></g><g class="ticklines"><g fill="none" stroke="rgb(5%, 5%, 5%)" stroke-width="5.0e-3" stroke-opacity="5.0e-2"><polyline points="-0.562152095811612,0.32831141226039995
-0.562152095811612,-0.37273092872597935"/><polyline points="3.9768365695166286e-2,0.32831141226039995
3.9768365695166286e-2,-0.37273092872597935"/><polyline points="0.6345655081308583,0.32831141226039995
0.6345655081308583,-0.37273092872597935"/></g></g></g><g class="axisbar"><g fill="rgb(5%, 5%, 5%)" stroke="rgb(0%, 0%, 0%)" stroke-width="0.0" fill-opacity="0.4" stroke-opacity="0.0"><rect x="-0.5637477192835352" width="1.199908850886317" y="0.3353969473496552" height="2.804169363945508e-3"/></g></g></g><g class="title"><g fill="rgb(5%, 5%, 5%)" stroke="none" stroke-width="0.0" font-size="6.382493887693175e-2" fill-opacity="1.0" text-anchor="middle"><text x="-3.983850244741671e-2" y="-0.43600000000000005">Heads Up</text></g></g><g class="title"><g fill="rgb(5%, 5%, 5%)" stroke="none" stroke-width="0.0" font-size="6.382493887693175e-2" fill-opacity="1.0" text-anchor="middle"><text x="0.726" y="3.857873081335017e-2" transform="rotate(-90.0, 0.726, 3.857873081335017e-2)">Full Table</text></g></g></g></svg>