<svg xmlns="http://www.w3.org/2000/svg" height="300.0" viewBox="-0.87 -0.5519572449482505 1.6424999999999996 1.0982072449482505" width="448.6858034006315" xmlns:xlink="http://www.w3.org/1999/xlink"><g stroke-opacity="5.0e-2" stroke="#0d0d0d" stroke-width="5.0e-3" fill="none"><polyline points="-0.6945949676731749,0.48570724494825046
0.7499999999999998,0.48570724494825046"/></g><g stroke-opacity="5.0e-2" stroke="#0d0d0d" stroke-width="5.0e-3" fill="none"><polyline points="-0.6945949676731749,0.3624938393297191
0.7499999999999998,0.3624938393297191"/></g><g stroke-opacity="5.0e-2" stroke="#0d0d0d" stroke-width="5.0e-3" fill="none"><polyline points="-0.6945949676731749,0.23928043371118773
0.7499999999999998,0.23928043371118773"/></g><g stroke-opacity="5.0e-2" stroke="#0d0d0d" stroke-width="5.0e-3" fill="none"><polyline points="-0.6945949676731749,0.11606702809265645
0.7499999999999998,0.11606702809265645"/></g><g stroke-opacity="5.0e-2" stroke="#0d0d0d" stroke-width="5.0e-3" fill="none"><polyline points="-0.6945949676731749,-7.14637752587477e-3
0.7499999999999998,-7.14637752587477e-3"/></g><g stroke-opacity="5.0e-2" stroke="#0d0d0d" stroke-width="5.0e-3" fill="none"><polyline points="-0.6945949676731749,-0.1303597831444061
0.7499999999999998,-0.1303597831444061"/></g><g stroke-opacity="5.0e-2" stroke="#0d0d0d" stroke-width="5.0e-3" fill="none"><polyline points="-0.6945949676731749,-0.25357318876293755
0.7499999999999998,-0.25357318876293755"/></g><g stroke-opacity="5.0e-2" stroke="#0d0d0d" stroke-width="5.0e-3" fill="none"><polyline points="-0.6945949676731749,-0.3767865943814689
0.7499999999999998,-0.3767865943814689"/></g><g stroke-opacity="5.0e-2" stroke="#0d0d0d" stroke-width="5.0e-3" fill="none"><polyline points="-0.6945949676731749,-0.5
0.7499999999999998,-0.5"/></g><g fill-opacity="1.0" font-size="5.0e-2" stroke="none" stroke-width="0.0" fill="#0d0d0d" text-anchor="end"><text x="-0.75" y="0.5">0.05</text></g><g fill-opacity="1.0" font-size="5.0e-2" stroke="none" stroke-width="0.0" fill="#0d0d0d" text-anchor="end"><text x="-0.75" y="0.3767865943814687">0.1</text></g><g fill-opacity="1.0" font-size="5.0e-2" stroke="none" stroke-width="0.0" fill="#0d0d0d" text-anchor="end"><text x="-0.75" y="0.2535731887629374">0.15</text></g><g fill-opacity="1.0" font-size="5.0e-2" stroke="none" stroke-width="0.0" fill="#0d0d0d" text-anchor="end"><text x="-0.75" y="0.1303597831444061">0.2</text></g><g fill-opacity="1.0" font-size="5.0e-2" stroke="none" stroke-width="0.0" fill="#0d0d0d" text-anchor="end"><text x="-0.75" y="7.14637752587477e-3">0.25</text></g><g fill-opacity="1.0" font-size="5.0e-2" stroke="none" stroke-width="0.0" fill="#0d0d0d" text-anchor="end"><text x="-0.75" y="-0.11606702809265657">0.3</text></g><g fill-opacity="1.0" font-size="5.0e-2" stroke="none" stroke-width="0.0" fill="#0d0d0d" text-anchor="end"><text x="-0.75" y="-0.2392804337111878">0.35</text></g><g fill-opacity="1.0" font-size="5.0e-2" stroke="none" stroke-width="0.0" fill="#0d0d0d" text-anchor="end"><text x="-0.75" y="-0.3624938393297191">0.4</text></g><g fill-opacity="1.0" font-size="5.0e-2" stroke="none" stroke-width="0.0" fill="#0d0d0d" text-anchor="end"><text x="-0.75" y="-0.48570724494825046">0.45</text></g><g stroke-opacity="0.4" fill-opacity="0.4" stroke="#0d0d0d" stroke-width="2.0e-3" fill="#0d0d0d"><g transform="rotate(-90.0, -0.7201161454354009, 0.48570724494825046)"><polyline points="-0.7201161454354009,0.5007072449482505
-0.7201161454354009,0.47070724494825045"/></g><g transform="rotate(-90.0, -0.7201161454354009, 0.3624938393297191)"><polyline points="-0.7201161454354009,0.37749383932971914
-0.7201161454354009,0.3474938393297191"/></g><g transform="rotate(-90.0, -0.7201161454354009, 0.23928043371118773)"><polyline points="-0.7201161454354009,0.25428043371118775
-0.7201161454354009,0.22428043371118772"/></g><g transform="rotate(-90.0, -0.7201161454354009, 0.11606702809265645)"><polyline points="-0.7201161454354009,0.13106702809265647
-0.7201161454354009,0.10106702809265646"/></g><g transform="rotate(-90.0, -0.7201161454354009, -7.14637752587477e-3)"><polyline points="-0.7201161454354009,7.85362247412523e-3
-0.7201161454354009,-2.214637752587477e-2"/></g><g transform="rotate(-90.0, -0.7201161454354009, -0.1303597831444061)"><polyline points="-0.7201161454354009,-0.1153597831444061
-0.7201161454354009,-0.14535978314440612"/></g><g transform="rotate(-90.0, -0.7201161454354009, -0.25357318876293755)"><polyline points="-0.7201161454354009,-0.23857318876293754
-0.7201161454354009,-0.26857318876293756"/></g><g transform="rotate(-90.0, -0.7201161454354009, -0.3767865943814689)"><polyline points="-0.7201161454354009,-0.3617865943814689
-0.7201161454354009,-0.3917865943814689"/></g><g transform="rotate(-90.0, -0.7201161454354009, -0.5)"><polyline points="-0.7201161454354009,-0.485
-0.7201161454354009,-0.515"/></g></g><g stroke-opacity="0.0" fill-opacity="0.4" stroke="#000000" stroke-width="0.0" fill="#0d0d0d"><rect height="0.9857072449482505" width="3.8522532471284565e-3" x="-0.7080778540381245" y="-0.5"/></g><g fill-opacity="0.1" font-size="5.0e-2" stroke="none" stroke-width="0.0" fill="#0d0d0d" text-anchor="middle"><text x="2.770251616341235e-2" y="0.23188762937407592">22</text><text x="2.770251616341235e-2" y="0.4142434696895022">32o</text><text x="2.770251616341235e-2" y="0.40438639724001973">42o</text><text x="2.770251616341235e-2" y="0.4142434696895022">52o</text><text x="2.770251616341235e-2" y="0.3969935929029078">62o</text><text x="2.770251616341235e-2" y="0.4314933464760966">72o</text><text x="2.770251616341235e-2" y="0.4142434696895022">82o</text><text x="2.770251616341235e-2" y="0.3748151798915722">92o</text><text x="2.770251616341235e-2" y="0.3748151798915722">T2o</text><text x="2.770251616341235e-2" y="0.330458353868901">J2o</text><text x="2.770251616341235e-2" y="0.31567274519467725">Q2o</text><text x="2.770251616341235e-2" y="0.26885165105963527">K2o</text><text x="2.770251616341235e-2" y="0.2737801872843766">A2o</text><text x="2.770251616341235e-2" y="0.40685066535239034">32s</text><text x="2.770251616341235e-2" y="0.2023164120256284">33</text><text x="2.770251616341235e-2" y="0.39945786101527847">43o</text><text x="2.770251616341235e-2" y="0.39452932479053726">53o</text><text x="2.770251616341235e-2" y="0.36002957121734847">63o</text><text x="2.770251616341235e-2" y="0.37727944800394286">73o</text><text x="2.770251616341235e-2" y="0.4142434696895022">83o</text><text x="2.770251616341235e-2" y="0.3624938393297191">93o</text><text x="2.770251616341235e-2" y="0.3575653031049778">T3o</text><text x="2.770251616341235e-2" y="0.33538689009364225">J3o</text><text x="2.770251616341235e-2" y="0.2984228684080828">Q3o</text><text x="2.770251616341235e-2" y="0.2565303104977821">K3o</text><text x="2.770251616341235e-2" y="0.25406604238541153">A3o</text><text x="2.770251616341235e-2" y="0.3920650566781666">42s</text><text x="2.770251616341235e-2" y="0.3797437161163135">43s</text><text x="2.770251616341235e-2" y="0.2614588467225234">44</text><text x="2.770251616341235e-2" y="0.3403154263183835">54o</text><text x="2.770251616341235e-2" y="0.30335140463282406">64o</text><text x="2.770251616341235e-2" y="0.369886643666831">74o</text><text x="2.770251616341235e-2" y="0.3920650566781666">84o</text><text x="2.770251616341235e-2" y="0.3452439625431247">94o</text><text x="2.770251616341235e-2" y="0.3822079842286842">T4o</text><text x="2.770251616341235e-2" y="0.32799408575653033">J4o</text><text x="2.770251616341235e-2" y="0.3058156727451947">Q4o</text><text x="2.770251616341235e-2" y="0.263923114834894">K4o</text><text x="2.770251616341235e-2" y="0.263923114834894">A4o</text><text x="2.770251616341235e-2" y="0.40192212912764913">52s</text><text x="2.770251616341235e-2" y="0.3723509117792016">53s</text><text x="2.770251616341235e-2" y="0.31567274519467725">54s</text><text x="2.770251616341235e-2" y="0.2220305569245934">55</text><text x="2.770251616341235e-2" y="0.22449482503696405">65o</text><text x="2.770251616341235e-2" y="0.2984228684080828">75o</text><text x="2.770251616341235e-2" y="0.3403154263183835">85o</text><text x="2.770251616341235e-2" y="0.32060128141941846">95o</text><text x="2.770251616341235e-2" y="0.3452439625431247">T5o</text><text x="2.770251616341235e-2" y="0.28117299162148846">J5o</text><text x="2.770251616341235e-2" y="0.2787087235091178">Q5o</text><text x="2.770251616341235e-2" y="0.22942336126170526">K5o</text><text x="2.770251616341235e-2" y="0.23188762937407592">A5o</text><text x="2.770251616341235e-2" y="0.3871365204534254">62s</text><text x="2.770251616341235e-2" y="0.3526367668802366">63s</text><text x="2.770251616341235e-2" y="0.29349433218334153">64s</text><text x="2.770251616341235e-2" y="0.2023164120256284">65s</text><text x="2.770251616341235e-2" y="0.13331690487925085">66</text><text x="2.770251616341235e-2" y="0.28117299162148846">76o</text><text x="2.770251616341235e-2" y="0.3132084770823066">86o</text><text x="2.770251616341235e-2" y="0.2614588467225234">96o</text><text x="2.770251616341235e-2" y="0.3132084770823066">T6o</text><text x="2.770251616341235e-2" y="0.26885165105963527">J6o</text><text x="2.770251616341235e-2" y="0.26638738294726466">Q6o</text><text x="2.770251616341235e-2" y="0.21710202069985213">K6o</text><text x="2.770251616341235e-2" y="0.2023164120256284">A6o</text><text x="2.770251616341235e-2" y="0.42163627402661413">72s</text><text x="2.770251616341235e-2" y="0.37727944800394286">73s</text><text x="2.770251616341235e-2" y="0.3624938393297191">74s</text><text x="2.770251616341235e-2" y="0.28363725973385906">75s</text><text x="2.770251616341235e-2" y="0.2589945786101528">76s</text><text x="2.770251616341235e-2" y="0.12345983242976832">77</text><text x="2.770251616341235e-2" y="0.21710202069985213">87o</text><text x="2.770251616341235e-2" y="0.23435189748644653">97o</text><text x="2.770251616341235e-2" y="0.26638738294726466">T7o</text><text x="2.770251616341235e-2" y="0.26885165105963527">J7o</text><text x="2.770251616341235e-2" y="0.2417447018235585">Q7o</text><text x="2.770251616341235e-2" y="0.21217348447511086">K7o</text><text x="2.770251616341235e-2" y="0.19738787580088712">A7o</text><text x="2.770251616341235e-2" y="0.40685066535239034">82s</text><text x="2.770251616341235e-2" y="0.41177920157713166">83s</text><text x="2.770251616341235e-2" y="0.3846722523410548">84s</text><text x="2.770251616341235e-2" y="0.32060128141941846">85s</text><text x="2.770251616341235e-2" y="0.29349433218334153">86s</text><text x="2.770251616341235e-2" y="0.19492360768851646">87s</text><text x="2.770251616341235e-2" y="0.12592410054213893">88</text><text x="2.770251616341235e-2" y="0.24420896993592905">98o</text><text x="2.770251616341235e-2" y="0.251601774273041">T8o</text><text x="2.770251616341235e-2" y="0.23681616559881719">J8o</text><text x="2.770251616341235e-2" y="0.2565303104977821">Q8o</text><text x="2.770251616341235e-2" y="0.17767373090192212">K8o</text><text x="2.770251616341235e-2" y="0.20724494825036965">A8o</text><text x="2.770251616341235e-2" y="0.369886643666831">92s</text><text x="2.770251616341235e-2" y="0.35510103499260726">93s</text><text x="2.770251616341235e-2" y="0.33785115820601286">94s</text><text x="2.770251616341235e-2" y="0.30335140463282406">95s</text><text x="2.770251616341235e-2" y="0.24420896993592905">96s</text><text x="2.770251616341235e-2" y="0.20970921636274026">97s</text><text x="2.770251616341235e-2" y="0.22449482503696405">98s</text><text x="2.770251616341235e-2" y="4.460325283390831e-2">99</text><text x="2.770251616341235e-2" y="0.17520946278955152">T9o</text><text x="2.770251616341235e-2" y="0.18260226712666333">J9o</text><text x="2.770251616341235e-2" y="0.16288812222769838">Q9o</text><text x="2.770251616341235e-2" y="0.14317397732873333">K9o</text><text x="2.770251616341235e-2" y="0.17028092656481025">A9o</text><text x="2.770251616341235e-2" y="0.36495810744208973">T2s</text><text x="2.770251616341235e-2" y="0.3452439625431247">T3s</text><text x="2.770251616341235e-2" y="0.3674223755544604">T4s</text><text x="2.770251616341235e-2" y="0.330458353868901">T5s</text><text x="2.770251616341235e-2" y="0.2910300640709709">T6s</text><text x="2.770251616341235e-2" y="0.251601774273041">T7s</text><text x="2.770251616341235e-2" y="0.24420896993592905">T8s</text><text x="2.770251616341235e-2" y="0.16288812222769838">T9s</text><text x="2.770251616341235e-2" y="-3.918186298669302e-2">TT</text><text x="2.770251616341235e-2" y="0.10374568753080327">JTo</text><text x="2.770251616341235e-2" y="9.881715130606206e-2">QTo</text><text x="2.770251616341235e-2" y="6.185312962050277e-2">KTo</text><text x="2.770251616341235e-2" y="9.63528831936914e-2">ATo</text><text x="2.770251616341235e-2" y="0.3181370133070478">J2s</text><text x="2.770251616341235e-2" y="0.32060128141941846">J3s</text><text x="2.770251616341235e-2" y="0.31567274519467725">J4s</text><text x="2.770251616341235e-2" y="0.26885165105963527">J5s</text><text x="2.770251616341235e-2" y="0.263923114834894">J6s</text><text x="2.770251616341235e-2" y="0.2614588467225234">J7s</text><text x="2.770251616341235e-2" y="0.22942336126170526">J8s</text><text x="2.770251616341235e-2" y="0.185066535239034">J9s</text><text x="2.770251616341235e-2" y="7.417447018235584e-2">JTs</text><text x="2.770251616341235e-2" y="-0.11310990635781171">JJ</text><text x="2.770251616341235e-2" y="0.10374568753080327">QJo</text><text x="2.770251616341235e-2" y="7.417447018235584e-2">KJo</text><text x="2.770251616341235e-2" y="8.403154263183837e-2">AJo</text><text x="2.770251616341235e-2" y="0.3082799408575654">Q2s</text><text x="2.770251616341235e-2" y="0.2910300640709709">Q3s</text><text x="2.770251616341235e-2" y="0.2959586002957122">Q4s</text><text x="2.770251616341235e-2" y="0.26885165105963527">Q5s</text><text x="2.770251616341235e-2" y="0.2565303104977821">Q6s</text><text x="2.770251616341235e-2" y="0.23681616559881719">Q7s</text><text x="2.770251616341235e-2" y="0.2565303104977821">Q8s</text><text x="2.770251616341235e-2" y="0.16042385411532772">Q9s</text><text x="2.770251616341235e-2" y="6.924593395761458e-2">QTs</text><text x="2.770251616341235e-2" y="7.910300640709711e-2">QJs</text><text x="2.770251616341235e-2" y="-0.19689502217841315">QQ</text><text x="2.770251616341235e-2" y="4.460325283390831e-2">KQo</text><text x="2.770251616341235e-2" y="4.460325283390831e-2">AQo</text><text x="2.770251616341235e-2" y="0.26885165105963527">K2s</text><text x="2.770251616341235e-2" y="0.24667323804829971">K3s</text><text x="2.770251616341235e-2" y="0.2614588467225234">K4s</text><text x="2.770251616341235e-2" y="0.2195662888122228">K5s</text><text x="2.770251616341235e-2" y="0.19985214391325773">K6s</text><text x="2.770251616341235e-2" y="0.2023164120256284">K7s</text><text x="2.770251616341235e-2" y="0.17274519467718086">K8s</text><text x="2.770251616341235e-2" y="0.12592410054213893">K9s</text><text x="2.770251616341235e-2" y="3.72104484967965e-2">KTs</text><text x="2.770251616341235e-2" y="4.953178905864958e-2">KJs</text><text x="2.770251616341235e-2" y="2.4889107934943366e-2">KQs</text><text x="2.770251616341235e-2" y="-0.33242976835879756">KK</text><text x="2.770251616341235e-2" y="2.7106949236076483e-3">AKo</text><text x="2.770251616341235e-2" y="0.27624445539674714">A2s</text><text x="2.770251616341235e-2" y="0.251601774273041">A3s</text><text x="2.770251616341235e-2" y="0.2614588467225234">A4s</text><text x="2.770251616341235e-2" y="0.22695909314933466">A5s</text><text x="2.770251616341235e-2" y="0.18999507146377526">A6s</text><text x="2.770251616341235e-2" y="0.20724494825036965">A7s</text><text x="2.770251616341235e-2" y="0.2023164120256284">A8s</text><text x="2.770251616341235e-2" y="0.16781665845243965">A9s</text><text x="2.770251616341235e-2" y="9.14243469689503e-2">ATs</text><text x="2.770251616341235e-2" y="5.69245933957615e-2">AJs</text><text x="2.770251616341235e-2" y="2.2424839822572706e-2">AQs</text><text x="2.770251616341235e-2" y="-2.2178413011335607e-3">AKs</text><text x="2.770251616341235e-2" y="-0.45317890586495824">AA</text></g><g></g></svg>