<svg height="300" viewBox="-0.75 -0.5 1.5 1.0" width="450" xmlns="http://www.w3.org/2000/svg" xmlns:xlink="http://www.w3.org/1999/xlink"><style>svg {
  color-scheme: light dark;
}
{
  .canvas g, .title g, .axisbar g, .ticktext g, .tickglyph g, .ticklines g, .legendContent g text {
    fill: rgb(5%, 5%, 5%);
  }
  .ticklines g, .tickglyph g, .legendBorder g {
    stroke: rgb(5%, 5%, 5%);
  }
  .legendBorder g {
    fill: rgb(94%, 94%, 94%);
  }
}
@media (prefers-color-scheme:dark) {
  .canvas g, .title g, .axisbar g, .ticktext g, .tickglyph g, .ticklines g, .legendContent g text {
    fill: rgb(94%, 94%, 94%);
  }
  .ticklines g, .tickglyph g, .legendBorder g {
    stroke: rgb(94%, 94%, 94%);
  }
  .legendBorder g {
    fill: rgb(5%, 5%, 5%);
  }
}</style><g class="chart"><g fill="rgb(5%, 5%, 5%)" fill-opacity="0.4" font-size="0.0003" stroke="none" stroke-width="0.0" text-anchor="middle"><text x="-0.0034" y="-0.0532">22p</text><text x="-0.5615" y="0.3204">32o</text><text x="-0.5545" y="0.2830">42o</text><text x="-0.5406" y="0.2872">52o</text><text x="-0.5476" y="0.2996">62o</text><text x="-0.5336" y="0.3329">72o</text><text x="-0.4778" y="0.3287">82o</text><text x="-0.4150" y="0.3163">92o</text><text x="-0.3174" y="0.2955">T2o</text><text x="-0.2267" y="0.2623">J2o</text><text x="-0.1081" y="0.2125">Q2o</text><text x="0.0454" y="0.1793">K2o</text><text x="0.2058" y="0.0755">A2o</text><text x="-0.5057" y="0.1419">32s</text><text x="0.1291" y="-0.0407">33p</text><text x="-0.5266" y="0.2498">43o</text><text x="-0.5127" y="0.2332">53o</text><text x="-0.5197" y="0.2581">63o</text><text x="-0.4987" y="0.3079">73o</text><text x="-0.4569" y="0.3246">83o</text><text x="-0.3871" y="0.3121">93o</text><text x="-0.2685" y="0.2789">T3o</text><text x="-0.2057" y="0.2706">J3o</text><text x="-0.0802" y="0.2249">Q3o</text><text x="0.0524" y="0.2083">K3o</text><text x="0.2337" y="0.0630">A3o</text><text x="-0.4918" y="0.0589">42s</text><text x="-0.4290" y="0.0091">43s</text><text x="0.2756" y="-0.0740">44p</text><text x="-0.4429" y="0.2000">54o</text><text x="-0.4639" y="0.2208">64o</text><text x="-0.4359" y="0.2664">74o</text><text x="-0.3941" y="0.2913">84o</text><text x="-0.3732" y="0.3038">94o</text><text x="-0.2476" y="0.2747">T4o</text><text x="-0.1778" y="0.2457">J4o</text><text x="-0.0662" y="0.1834">Q4o</text><text x="0.1012" y="0.1585">K4o</text><text x="0.2547" y="0.0215">A4o</text><text x="-0.4708" y="0.0796">52s</text><text x="-0.4011" y="0.0049">53s</text><text x="-0.3243" y="-0.0573">54s</text><text x="0.3872" y="-0.0906">55p</text><text x="-0.4220" y="0.1295">65o</text><text x="-0.3662" y="0.1959">75o</text><text x="-0.3453" y="0.2166">85o</text><text x="-0.3104" y="0.2540">95o</text><text x="-0.2127" y="0.2415">T5o</text><text x="-0.1360" y="0.2374">J5o</text><text x="-0.0104" y="0.1668">Q5o</text><text x="0.1361" y="0.1502">K5o</text><text x="0.2896" y="-0.0200">A5o</text><text x="-0.4848" y="0.1045">62s</text><text x="-0.4080" y="0.0381">63s</text><text x="-0.3313" y="-0.0324">64s</text><text x="-0.2825" y="-0.1362">65s</text><text x="0.4779" y="-0.1653">66p</text><text x="-0.3383" y="0.1751">76o</text><text x="-0.2755" y="0.1627">86o</text><text x="-0.2336" y="0.1917">96o</text><text x="-0.1639" y="0.2042">T6o</text><text x="-0.1011" y="0.2291">J6o</text><text x="0.0175" y="0.1461">Q6o</text><text x="0.1849" y="0.1211">K6o</text><text x="0.3175" y="0.0340">A6o</text><text x="-0.4499" y="0.1710">72s</text><text x="-0.3801" y="0.1004">73s</text><text x="-0.2964" y="0.0257">74s</text><text x="-0.2546" y="-0.1030">75s</text><text x="-0.1988" y="-0.1072">76s</text><text x="0.5477" y="-0.1902">77p</text><text x="-0.1709" y="0.1378">87o</text><text x="-0.1499" y="0.1128">97o</text><text x="-0.0732" y="0.1336">T7o</text><text x="-0.0174" y="0.1876">J7o</text><text x="0.0663" y="0.0962">Q7o</text><text x="0.2198" y="0.1087">K7o</text><text x="0.3733" y="0.0132">A7o</text><text x="-0.3592" y="0.1544">82s</text><text x="-0.3522" y="0.1253">83s</text><text x="-0.2615" y="0.0506">84s</text><text x="-0.2197" y="-0.0657">85s</text><text x="-0.1430" y="-0.1155">86s</text><text x="-0.0592" y="-0.1404">87s</text><text x="0.5686" y="-0.2608">88p</text><text x="-0.0383" y="0.0672">98o</text><text x="0.0245" y="0.0423">T8o</text><text x="0.0942" y="0.0879">J8o</text><text x="0.1710" y="-0.0034">Q8o</text><text x="0.2686" y="0.0547">K8o</text><text x="0.4151" y="-0.0449">A8o</text><text x="-0.3034" y="0.1170">92s</text><text x="-0.2895" y="0.0921">93s</text><text x="-0.2406" y="0.0838">94s</text><text x="-0.1848" y="-0.0117">95s</text><text x="-0.1151" y="-0.0989">96s</text><text x="-0.0313" y="-0.1611">97s</text><text x="0.0593" y="-0.1985">98s</text><text x="0.5756" y="-0.2732">99p</text><text x="0.0803" y="-0.1196">T9o</text><text x="0.1500" y="-0.0075">J9o</text><text x="0.2128" y="-0.0823">Q9o</text><text x="0.3523" y="-0.0158">K9o</text><text x="0.4570" y="-0.0947">A9o</text><text x="-0.1918" y="0.0713">T2s</text><text x="-0.1569" y="0.0464">T3s</text><text x="-0.1220" y="0.0298">T4s</text><text x="-0.0941" y="-0.0283">T5s</text><text x="-0.0523" y="-0.0781">T6s</text><text x="0.0314" y="-0.1570">T7s</text><text x="0.1221" y="-0.2192">T8s</text><text x="0.1640" y="-0.2857">T9s</text><text x="0.5825" y="-0.3313">TTp</text><text x="0.2407" y="-0.1819">JTo</text><text x="0.3105" y="-0.2400">QTo</text><text x="0.4081" y="-0.2026">KTo</text><text x="0.5058" y="-0.2566">ATo</text><text x="-0.1290" y="0.0174">J2s</text><text x="-0.0871" y="0.0008">J3s</text><text x="-0.0453" y="-0.0241">J4s</text><text x="-0.0244" y="-0.0366">J5s</text><text x="0.0105" y="-0.0615">J6s</text><text x="0.0873" y="-0.1321">J7s</text><text x="0.1919" y="-0.1860">J8s</text><text x="0.2477" y="-0.2442">J9s</text><text x="0.3314" y="-0.2981">JTs</text><text x="0.5895" y="-0.3438">JJp</text><text x="0.3454" y="-0.2358">QJo</text><text x="0.4430" y="-0.2151">KJo</text><text x="0.5128" y="-0.2483">AJo</text><text x="0.0035" y="-0.0698">Q2s</text><text x="0.0384" y="-0.0490">Q3s</text><text x="0.0733" y="-0.1238">Q4s</text><text x="0.1082" y="-0.1279">Q5s</text><text x="0.1152" y="-0.1487">Q6s</text><text x="0.1570" y="-0.1736">Q7s</text><text x="0.2617" y="-0.2275">Q8s</text><text x="0.3035" y="-0.2815">Q9s</text><text x="0.3802" y="-0.3230">QTs</text><text x="0.4291" y="-0.3189">QJs</text><text x="0.5965" y="-0.3562">QQp</text><text x="0.4500" y="-0.2940">KQo</text><text x="0.5198" y="-0.3064">AQo</text><text x="0.1431" y="-0.1113">K2s</text><text x="0.1779" y="-0.0864">K3s</text><text x="0.1989" y="-0.1445">K4s</text><text x="0.2268" y="-0.1528">K5s</text><text x="0.2826" y="-0.1694">K6s</text><text x="0.3244" y="-0.1943">K7s</text><text x="0.3663" y="-0.2109">K8s</text><text x="0.4221" y="-0.2525">K9s</text><text x="0.4640" y="-0.3023">KTs</text><text x="0.4849" y="-0.3106">KJs</text><text x="0.4919" y="-0.3396">KQs</text><text x="0.6035" y="-0.3604">KKp</text><text x="0.5337" y="-0.3147">AKo</text><text x="0.2965" y="-0.1777">A2s</text><text x="0.3384" y="-0.2068">A3s</text><text x="0.3593" y="-0.2317">A4s</text><text x="0.3942" y="-0.2691">A5s</text><text x="0.4012" y="-0.2234">A6s</text><text x="0.4361" y="-0.2649">A7s</text><text x="0.4709" y="-0.2774">A8s</text><text x="0.4988" y="-0.2898">A9s</text><text x="0.5267" y="-0.3355">ATs</text><text x="0.5407" y="-0.3272">AJs</text><text x="0.5546" y="-0.3479">AQs</text><text x="0.5616" y="-0.3521">AKs</text><text x="0.6105" y="-0.3645">AAp</text></g></g><g class="hud"><g class="frame"><g fill="rgb(100%, 100%, 100%)" fill-opacity="0.02" stroke="rgb(0%, 0%, 0%)" stroke-opacity="0" stroke-width="0"><rect height="0.6977" width="1.1723" x="-0.5617" y="-0.3647"/></g></g><g class="axis"><g class="ticks"><g class="tickglyph"><g fill="rgb(5%, 5%, 5%)" fill-opacity="0.4" stroke="rgb(5%, 5%, 5%)" stroke-opacity="0.4" stroke-width="0.0040"><g transform="rotate(-90.0, -0.5851, 0.3329)"><polyline points="-0.5851,0.3479
-0.5851,0.3179"/></g><g transform="rotate(-90.0, -0.5851, -0.0179)"><polyline points="-0.5851,-0.0029
-0.5851,-0.0329"/></g><g transform="rotate(-90.0, -0.5851, -0.3645)"><polyline points="-0.5851,-0.3495
-0.5851,-0.3795"/></g></g></g><g class="ticktext"><g fill="rgb(5%, 5%, 5%)" fill-opacity="1.0" font-size="0.0391" stroke="none" stroke-width="0.0" text-anchor="end"><text x="-0.6133" y="0.3424">worst</text><text x="-0.6133" y="-0.0083">median</text><text x="-0.6133" y="-0.3549">best</text></g></g><g class="ticklines"><g fill="none" stroke="rgb(5%, 5%, 5%)" stroke-opacity="0.05" stroke-width="0.0050"><polyline points="-0.5615,0.3329 0.6105,0.3329"/><polyline points="-0.5615,-0.0179 0.6105,-0.0179"/><polyline points="-0.5615,-0.3645 0.6105,-0.3645"/></g></g></g><g class="axisbar"><g fill="rgb(5%, 5%, 5%)" fill-opacity="0.4" stroke="rgb(0%, 0%, 0%)" stroke-opacity="0" stroke-width="0"><rect height="0.7002" width="0.0031" x="-0.5726" y="-0.3659"/></g></g></g><g class="axis"><g class="ticks"><g class="tickglyph"><g fill="rgb(5%, 5%, 5%)" fill-opacity="0.4" stroke="rgb(5%, 5%, 5%)" stroke-opacity="0.4" stroke-width="0.0040"><polyline points="-0.5615,0.3689
-0.5615,0.3389"/><polyline points="0.0280,0.3689
0.0280,0.3389"/><polyline points="0.6105,0.3689
0.6105,0.3389"/></g></g><g class="ticktext"><g fill="rgb(5%, 5%, 5%)" fill-opacity="1.0" font-size="0.0391" stroke="none" stroke-width="0.0" text-anchor="end"><text transform="rotate(-45.0, -0.5615, 0.3981)" x="-0.5615" y="0.3981">worst</text><text transform="rotate(-45.0, 0.0280, 0.3981)" x="0.0280" y="0.3981">median</text><text transform="rotate(-45.0, 0.6105, 0.3981)" x="0.6105" y="0.3981">best</text></g></g><g class="ticklines"><g fill="none" stroke="rgb(5%, 5%, 5%)" stroke-opacity="0.05" stroke-width="0.0050"><polyline points="-0.5615,0.3329 -0.5615,-0.3645"/><polyline points="0.0280,0.3329 0.0280,-0.3645"/><polyline points="0.6105,0.3329 0.6105,-0.3645"/></g></g></g><g class="axisbar"><g fill="rgb(5%, 5%, 5%)" fill-opacity="0.4" stroke="rgb(0%, 0%, 0%)" stroke-opacity="0" stroke-width="0"><rect height="0.0028" width="1.1751" x="-0.5631" y="0.3399"/></g></g></g><g class="title"><g fill="rgb(5%, 5%, 5%)" fill-opacity="1.0" font-size="0.0625" stroke="none" stroke-width="0.0" text-anchor="middle"><text x="-0.0500" y="-0.4275">Heads Up</text></g></g><g class="title"><g fill="rgb(5%, 5%, 5%)" fill-opacity="1.0" font-size="0.0625" stroke="none" stroke-width="0.0" text-anchor="middle"><text transform="rotate(-90.0, 0.7000, 0.0446)" x="0.7000" y="0.0446">Full Table</text></g></g><g class="frame"><g fill="rgb(100%, 100%, 100%)" fill-opacity="0.02" stroke="rgb(0%, 0%, 0%)" stroke-opacity="0" stroke-width="0"><rect height="1.0" width="1.5" x="-0.75" y="-0.5"/></g></g></g></svg>