<svg height="600" viewBox="-0.75 -0.5 1.5 1.0" width="900" xmlns="http://www.w3.org/2000/svg" xmlns:xlink="http://www.w3.org/1999/xlink"><style>svg {
  color-scheme: light dark;
}
{
  .canvas g, .title g, .axisbar g, .ticktext g, .tickglyph g, .ticklines g, .legendContent g text {
    fill: rgb(5%, 5%, 5%);
  }
  .ticklines g, .tickglyph g, .legendBorder g {
    stroke: rgb(5%, 5%, 5%);
  }
  .legendBorder g {
    fill: rgb(94%, 94%, 94%);
  }
}
@media (prefers-color-scheme:dark) {
  .canvas g, .title g, .axisbar g, .ticktext g, .tickglyph g, .ticklines g, .legendContent g text {
    fill: rgb(94%, 94%, 94%);
  }
  .ticklines g, .tickglyph g, .legendBorder g {
    stroke: rgb(94%, 94%, 94%);
  }
  .legendBorder g {
    fill: rgb(5%, 5%, 5%);
  }
}
{
  .scatter g {
    fill: rgb(5%, 5%, 5%);
  }
}
@media (prefers-color-scheme:dark) {
  .scatter g {
    fill: rgb(94%, 94%, 94%);
  }
}
</style><g class="chart"><g class="scatter"><g fill="rgb(5%, 5%, 5%)" fill-opacity="0.6" font-size="0.0207" stroke="none" stroke-width="0.0" text-anchor="middle"><text x="-0.0063" y="-0.0824">22p</text><text x="-0.5502" y="0.3070">32o</text><text x="-0.5433" y="0.2904">42o</text><text x="-0.5296" y="0.2739">52o</text><text x="-0.5364" y="0.3111">62o</text><text x="-0.5227" y="0.3277">72o</text><text x="-0.4882" y="0.3236">82o</text><text x="-0.4125" y="0.3194">92o</text><text x="-0.3230" y="0.2863">T2o</text><text x="-0.2197" y="0.2697">J2o</text><text x="-0.1096" y="0.2324">Q2o</text><text x="0.0213" y="0.1869">K2o</text><text x="0.2003" y="0.0709">A2o</text><text x="-0.5089" y="0.1082">32s</text><text x="0.1452" y="-0.1031">33p</text><text x="-0.5158" y="0.2366">43o</text><text x="-0.4951" y="0.2076">53o</text><text x="-0.5020" y="0.2531">63o</text><text x="-0.4814" y="0.2946">73o</text><text x="-0.4676" y="0.3153">83o</text><text x="-0.3850" y="0.3028">93o</text><text x="-0.2886" y="0.2780">T3o</text><text x="-0.1853" y="0.2614">J3o</text><text x="-0.0614" y="0.2200">Q3o</text><text x="0.0626" y="0.1703">K3o</text><text x="0.2347" y="0.0377">A3o</text><text x="-0.4745" y="0.0792">42s</text><text x="-0.4263" y="0.0046">43s</text><text x="0.2829" y="-0.1155">44p</text><text x="-0.4400" y="0.1744">54o</text><text x="-0.4469" y="0.1952">64o</text><text x="-0.4194" y="0.2407">74o</text><text x="-0.3987" y="0.2821">84o</text><text x="-0.3574" y="0.2987">94o</text><text x="-0.2473" y="0.2656">T4o</text><text x="-0.1440" y="0.2449">J4o</text><text x="-0.0407" y="0.2117">Q4o</text><text x="0.0970" y="0.1579">K4o</text><text x="0.2691" y="0.0129">A4o</text><text x="-0.4538" y="0.0460">52s</text><text x="-0.3919" y="-0.0327">53s</text><text x="-0.3161" y="-0.0948">54s</text><text x="0.4275" y="-0.1362">55p</text><text x="-0.3781" y="0.1413">65o</text><text x="-0.3505" y="0.1827">75o</text><text x="-0.3368" y="0.2159">85o</text><text x="-0.2817" y="0.2490">95o</text><text x="-0.2266" y="0.2573">T5o</text><text x="-0.1164" y="0.2283">J5o</text><text x="0.0006" y="0.1993">Q5o</text><text x="0.1314" y="0.1454">K5o</text><text x="0.3036" y="-0.0202">A5o</text><text x="-0.4607" y="0.1040">62s</text><text x="-0.4056" y="0.0295">63s</text><text x="-0.3299" y="-0.0575">64s</text><text x="-0.2610" y="-0.1279">65s</text><text x="0.4963" y="-0.1776">66p</text><text x="-0.2955" y="0.1372">76o</text><text x="-0.2541" y="0.1496">86o</text><text x="-0.2060" y="0.1910">96o</text><text x="-0.1578" y="0.2034">T6o</text><text x="-0.0889" y="0.2241">J6o</text><text x="0.0557" y="0.1786">Q6o</text><text x="0.1865" y="0.1164">K6o</text><text x="0.3242" y="0.0336">A6o</text><text x="-0.4332" y="0.1537">72s</text><text x="-0.3643" y="0.0833">73s</text><text x="-0.3092" y="-0.0120">74s</text><text x="-0.2335" y="-0.0907">75s</text><text x="-0.1784" y="-0.1486">76s</text><text x="0.5514" y="-0.2149">77p</text><text x="-0.1922" y="0.0957">87o</text><text x="-0.1302" y="0.1247">97o</text><text x="-0.0751" y="0.1289">T7o</text><text x="-0.0132" y="0.1620">J7o</text><text x="0.0832" y="0.1662">Q7o</text><text x="0.2140" y="0.0916">K7o</text><text x="0.3655" y="-0.0037">A7o</text><text x="-0.3712" y="0.1330">82s</text><text x="-0.3437" y="0.1206">83s</text><text x="-0.2748" y="0.0626">84s</text><text x="-0.2128" y="-0.0285">85s</text><text x="-0.1509" y="-0.1197">86s</text><text x="-0.0820" y="-0.1694">87s</text><text x="0.5652" y="-0.2522">88p</text><text x="-0.0682" y="0.0543">98o</text><text x="-0.0200" y="0.0253">T8o</text><text x="0.0695" y="0.0750">J8o</text><text x="0.1521" y="0.0667">Q8o</text><text x="0.2554" y="0.0585">K8o</text><text x="0.3999" y="-0.0368">A8o</text><text x="-0.3023" y="0.1123">92s</text><text x="-0.2679" y="0.0999">93s</text><text x="-0.2404" y="0.0875">94s</text><text x="-0.1715" y="0.0088">95s</text><text x="-0.0958" y="-0.0782">96s</text><text x="-0.0269" y="-0.1569">97s</text><text x="0.0419" y="-0.1859">98s</text><text x="0.5721" y="-0.2936">99p</text><text x="0.0763" y="-0.0989">T9o</text><text x="0.1383" y="-0.0699">J9o</text><text x="0.2278" y="-0.0492">Q9o</text><text x="0.3449" y="-0.0741">K9o</text><text x="0.4413" y="-0.1072">A9o</text><text x="-0.1991" y="0.0502">T2s</text><text x="-0.1646" y="0.0419">T3s</text><text x="-0.1371" y="0.0170">T4s</text><text x="-0.1233" y="-0.0078">T5s</text><text x="-0.0476" y="-0.0617">T6s</text><text x="0.0350" y="-0.1611">T7s</text><text x="0.1108" y="-0.2191">T8s</text><text x="0.1796" y="-0.2771">T9s</text><text x="0.5790" y="-0.3350">TTp</text><text x="0.2209" y="-0.2025">JTo</text><text x="0.2967" y="-0.1984">QTo</text><text x="0.4068" y="-0.2066">KTo</text><text x="0.4826" y="-0.2315">ATo</text><text x="-0.1027" y="0.0212">J2s</text><text x="-0.0545" y="0.0005">J3s</text><text x="-0.0338" y="-0.0161">J4s</text><text x="0.0075" y="-0.0244">J5s</text><text x="0.0281" y="-0.0451">J6s</text><text x="0.1039" y="-0.1321">J7s</text><text x="0.1659" y="-0.1901">J8s</text><text x="0.2485" y="-0.2688">J9s</text><text x="0.3173" y="-0.3060">JTs</text><text x="0.5858" y="-0.3516">JJp</text><text x="0.3518" y="-0.2398">QJo</text><text x="0.4344" y="-0.2563">KJo</text><text x="0.5101" y="-0.2812">AJo</text><text x="0.0144" y="-0.0410">Q2s</text><text x="0.0488" y="-0.0534">Q3s</text><text x="0.0901" y="-0.0658">Q4s</text><text x="0.1177" y="-0.0865">Q5s</text><text x="0.1590" y="-0.1114">Q6s</text><text x="0.1934" y="-0.1404">Q7s</text><text x="0.2622" y="-0.1942">Q8s</text><text x="0.3311" y="-0.2646">Q9s</text><text x="0.3793" y="-0.3102">QTs</text><text x="0.4206" y="-0.3185">QJs</text><text x="0.5927" y="-0.3599">QQp</text><text x="0.4550" y="-0.2978">KQo</text><text x="0.5170" y="-0.3019">AQo</text><text x="0.1245" y="-0.1238">K2s</text><text x="0.1727" y="-0.1445">K3s</text><text x="0.2072" y="-0.1528">K4s</text><text x="0.2416" y="-0.1652">K5s</text><text x="0.2760" y="-0.1735">K6s</text><text x="0.3104" y="-0.1818">K7s</text><text x="0.3586" y="-0.2108">K8s</text><text x="0.4137" y="-0.2853">K9s</text><text x="0.4688" y="-0.3143">KTs</text><text x="0.4757" y="-0.3309">KJs</text><text x="0.5032" y="-0.3433">KQs</text><text x="0.5996" y="-0.3640">KKp</text><text x="0.5308" y="-0.3226">AKo</text><text x="0.2898" y="-0.2232">A2s</text><text x="0.3380" y="-0.2356">A3s</text><text x="0.3724" y="-0.2439">A4s</text><text x="0.3862" y="-0.2605">A5s</text><text x="0.3931" y="-0.2273">A6s</text><text x="0.4481" y="-0.2481">A7s</text><text x="0.4619" y="-0.2729">A8s</text><text x="0.4895" y="-0.2895">A9s</text><text x="0.5239" y="-0.3268">ATs</text><text x="0.5377" y="-0.3392">AJs</text><text x="0.5445" y="-0.3475">AQs</text><text x="0.5583" y="-0.3558">AKs</text><text x="0.6065" y="-0.3682">AAp</text></g></g></g><g class="hud"><g class="frame"><g fill="rgb(100%, 100%, 100%)" fill-opacity="0.02" stroke="rgb(0%, 0%, 0%)" stroke-opacity="0" stroke-width="0"><rect height="0.7164" width="1.1846" x="-0.5642" y="-0.3831"/></g></g><g class="title"><g fill="rgb(5%, 5%, 5%)" fill-opacity="1.0" font-size="0.0617" stroke="none" stroke-width="0.0" text-anchor="middle"><text x="0.0281" y="-0.4276">Heads Up</text></g></g><g class="title"><g fill="rgb(5%, 5%, 5%)" fill-opacity="1.0" font-size="0.0617" stroke="none" stroke-width="0.0" text-anchor="middle"><text transform="rotate(-90.0, 0.7006, -0.0249)" x="0.7006" y="-0.0249">Full Table</text></g></g><g class="axis"><g class="ticks"><g class="tickglyph"><g fill="rgb(5%, 5%, 5%)" fill-opacity="0.4" stroke="rgb(5%, 5%, 5%)" stroke-opacity="0.4" stroke-width="0.0040"><g transform="rotate(-90.0, -0.5873, 0.3277)"><polyline points="-0.5873,0.3427
-0.5873,0.3127"/></g><g transform="rotate(-90.0, -0.5873, -0.0223)"><polyline points="-0.5873,-0.0073
-0.5873,-0.0373"/></g><g transform="rotate(-90.0, -0.5873, -0.3682)"><polyline points="-0.5873,-0.3532
-0.5873,-0.3832"/></g></g></g><g class="ticktext"><g fill="rgb(5%, 5%, 5%)" fill-opacity="1.0" font-size="0.0386" stroke="none" stroke-width="0.0" text-anchor="end"><text x="-0.6150" y="0.3373">worst</text><text x="-0.6150" y="-0.0127">median</text><text x="-0.6150" y="-0.3586">best</text></g></g><g class="ticklines"><g fill="none" stroke="rgb(5%, 5%, 5%)" stroke-opacity="0.05" stroke-width="0.0050"><polyline points="-0.5502,0.3277 0.6065,0.3277"/><polyline points="-0.5502,-0.0223 0.6065,-0.0223"/><polyline points="-0.5502,-0.3682 0.6065,-0.3682"/></g></g></g><g class="axisbar"><g fill="rgb(5%, 5%, 5%)" fill-opacity="0.4" stroke="rgb(0%, 0%, 0%)" stroke-opacity="0" stroke-width="0"><rect height="0.6987" width="0.0031" x="-0.5750" y="-0.3696"/></g></g></g><g class="axis"><g class="ticks"><g class="tickglyph"><g fill="rgb(5%, 5%, 5%)" fill-opacity="0.4" stroke="rgb(5%, 5%, 5%)" stroke-opacity="0.4" stroke-width="0.0040"><polyline points="-0.5502,0.3692
-0.5502,0.3392"/><polyline points="0.0316,0.3692
0.0316,0.3392"/><polyline points="0.6065,0.3692
0.6065,0.3392"/></g></g><g class="ticktext"><g fill="rgb(5%, 5%, 5%)" fill-opacity="1.0" font-size="0.0386" stroke="none" stroke-width="0.0" text-anchor="end"><text transform="rotate(-45.0, -0.5502, 0.3984)" x="-0.5502" y="0.3984">worst</text><text transform="rotate(-45.0, 0.0316, 0.3984)" x="0.0316" y="0.3984">median</text><text transform="rotate(-45.0, 0.6065, 0.3984)" x="0.6065" y="0.3984">best</text></g></g><g class="ticklines"><g fill="none" stroke="rgb(5%, 5%, 5%)" stroke-opacity="0.05" stroke-width="0.0050"><polyline points="-0.5502,0.3277 -0.5502,-0.3682"/><polyline points="0.0316,0.3277 0.0316,-0.3682"/><polyline points="0.6065,0.3277 0.6065,-0.3682"/></g></g></g><g class="axisbar"><g fill="rgb(5%, 5%, 5%)" fill-opacity="0.4" stroke="rgb(0%, 0%, 0%)" stroke-opacity="0" stroke-width="0"><rect height="0.0028" width="1.1598" x="-0.5518" y="0.3402"/></g></g></g><g class="frame"><g fill="rgb(100%, 100%, 100%)" fill-opacity="0.02" stroke="rgb(0%, 0%, 0%)" stroke-opacity="0" stroke-width="0"><rect height="1.0" width="1.5" x="-0.75" y="-0.5"/></g></g></g></svg>