<svg xmlns="http://www.w3.org/2000/svg" height="300.0" viewBox="-0.87 -0.5519572449482505 1.665 1.0982072449482505" width="454.83218426913345" xmlns:xlink="http://www.w3.org/1999/xlink"><g stroke-opacity="5.0e-2" stroke="#0d0d0d" stroke-width="5.0e-3" fill="none"><polyline points="-0.6606317749509414,0.48570724494825046
0.75,0.48570724494825046"/></g><g stroke-opacity="5.0e-2" stroke="#0d0d0d" stroke-width="5.0e-3" fill="none"><polyline points="-0.6606317749509414,0.3448919242413575
0.75,0.3448919242413575"/></g><g stroke-opacity="5.0e-2" stroke="#0d0d0d" stroke-width="5.0e-3" fill="none"><polyline points="-0.6606317749509414,0.20407660353446455
0.75,0.20407660353446455"/></g><g stroke-opacity="5.0e-2" stroke="#0d0d0d" stroke-width="5.0e-3" fill="none"><polyline points="-0.6606317749509414,6.32612828275716e-2
0.75,6.32612828275716e-2"/></g><g stroke-opacity="5.0e-2" stroke="#0d0d0d" stroke-width="5.0e-3" fill="none"><polyline points="-0.6606317749509414,-7.755403787932125e-2
0.75,-7.755403787932125e-2"/></g><g stroke-opacity="5.0e-2" stroke="#0d0d0d" stroke-width="5.0e-3" fill="none"><polyline points="-0.6606317749509414,-0.2183693585862141
0.75,-0.2183693585862141"/></g><g stroke-opacity="5.0e-2" stroke="#0d0d0d" stroke-width="5.0e-3" fill="none"><polyline points="-0.6606317749509414,-0.35918467929310716
0.75,-0.35918467929310716"/></g><g stroke-opacity="5.0e-2" stroke="#0d0d0d" stroke-width="5.0e-3" fill="none"><polyline points="-0.6606317749509414,-0.5
0.75,-0.5"/></g><g fill-opacity="1.0" font-size="5.0e-2" stroke="none" stroke-width="0.0" fill="#0d0d0d" text-anchor="end"><text x="-0.75" y="0.5">0.05</text></g><g fill-opacity="1.0" font-size="5.0e-2" stroke="none" stroke-width="0.0" fill="#0d0d0d" text-anchor="end"><text x="-0.75" y="0.3591846792931071">0.1</text></g><g fill-opacity="1.0" font-size="5.0e-2" stroke="none" stroke-width="0.0" fill="#0d0d0d" text-anchor="end"><text x="-0.75" y="0.21836935858621415">0.15</text></g><g fill-opacity="1.0" font-size="5.0e-2" stroke="none" stroke-width="0.0" fill="#0d0d0d" text-anchor="end"><text x="-0.75" y="7.755403787932125e-2">0.2</text></g><g fill-opacity="1.0" font-size="5.0e-2" stroke="none" stroke-width="0.0" fill="#0d0d0d" text-anchor="end"><text x="-0.75" y="-6.326128282757171e-2">0.25</text></g><g fill-opacity="1.0" font-size="5.0e-2" stroke="none" stroke-width="0.0" fill="#0d0d0d" text-anchor="end"><text x="-0.75" y="-0.20407660353446455">0.3</text></g><g fill-opacity="1.0" font-size="5.0e-2" stroke="none" stroke-width="0.0" fill="#0d0d0d" text-anchor="end"><text x="-0.75" y="-0.3448919242413576">0.35</text></g><g fill-opacity="1.0" font-size="5.0e-2" stroke="none" stroke-width="0.0" fill="#0d0d0d" text-anchor="end"><text x="-0.75" y="-0.48570724494825046">0.4</text></g><g stroke-opacity="0.4" fill-opacity="0.4" stroke="#0d0d0d" stroke-width="2.0e-3" fill="#0d0d0d"><g transform="rotate(-90.0, -0.7208187306821815, 0.48570724494825046)"><polyline points="-0.7208187306821815,0.5007072449482505
-0.7208187306821815,0.47070724494825045"/></g><g transform="rotate(-90.0, -0.7208187306821815, 0.3448919242413575)"><polyline points="-0.7208187306821815,0.3598919242413575
-0.7208187306821815,0.3298919242413575"/></g><g transform="rotate(-90.0, -0.7208187306821815, 0.20407660353446455)"><polyline points="-0.7208187306821815,0.21907660353446456
-0.7208187306821815,0.18907660353446454"/></g><g transform="rotate(-90.0, -0.7208187306821815, 6.32612828275716e-2)"><polyline points="-0.7208187306821815,7.82612828275716e-2
-0.7208187306821815,4.82612828275716e-2"/></g><g transform="rotate(-90.0, -0.7208187306821815, -7.755403787932125e-2)"><polyline points="-0.7208187306821815,-6.255403787932125e-2
-0.7208187306821815,-9.255403787932125e-2"/></g><g transform="rotate(-90.0, -0.7208187306821815, -0.2183693585862141)"><polyline points="-0.7208187306821815,-0.20336935858621408
-0.7208187306821815,-0.2333693585862141"/></g><g transform="rotate(-90.0, -0.7208187306821815, -0.35918467929310716)"><polyline points="-0.7208187306821815,-0.34418467929310714
-0.7208187306821815,-0.37418467929310717"/></g><g transform="rotate(-90.0, -0.7208187306821815, -0.5)"><polyline points="-0.7208187306821815,-0.485
-0.7208187306821815,-0.515"/></g></g><g stroke-opacity="0.0" fill-opacity="0.4" stroke="#000000" stroke-width="0.0" fill="#0d0d0d"><rect height="0.9857072449482505" width="3.761684733202486e-3" x="-0.7090634658909237" y="-0.5"/></g><g fill-opacity="0.1" font-size="5.0e-2" stroke="none" stroke-width="0.0" fill="#0d0d0d" text-anchor="middle"><text x="-0.20469543340429797" y="0.1843624586354996">22</text><text x="-0.6505558337012918" y="0.4434626487361825">32o</text><text x="-0.6606317749509414" y="0.3984017461099768">42o</text><text x="-0.5649103330792704" y="0.4012180525241147">52o</text><text x="-0.5598723624544456" y="0.39276913328170104">62o</text><text x="-0.5548343918296208" y="0.4293811166654932">72o</text><text x="-0.5145306268310225" y="0.4181158910089418">82o</text><text x="-0.4314041115214135" y="0.4068506653523904">92o</text><text x="-0.3860623758979903" y="0.395585439695839">T2o</text><text x="-0.3306446990249178" y="0.375871294796874">J2o</text><text x="-0.21980934527877238" y="0.3167288600999789">Q2o</text><text x="-8.63031237209152e-2" y="0.3617897627261847">K2o</text><text x="-2.3328490910605515e-2" y="0.294198408786876">A2o</text><text x="-0.6429988777640546" y="0.4321974230796311">32s</text><text x="-8.63031237209152e-2" y="0.20970921636274037">33</text><text x="-0.6127710540151059" y="0.3617897627261847">43o</text><text x="-0.5397204799551465" y="0.3617897627261847">53o</text><text x="-0.5246065680806722" y="0.3336266985848061">63o</text><text x="-0.47926483245724893" y="0.4040343589382525">73o</text><text x="-0.47926483245724893" y="0.3899528268675632">83o</text><text x="-0.3986573024600525" y="0.3843202140392875">93o</text><text x="-0.36087252277386633" y="0.3843202140392875">T3o</text><text x="-0.32812571371250526" y="0.33925931141308174">J3o</text><text x="-0.21225238934153512" y="0.2885657959586003">Q3o</text><text x="-6.363225590920363e-2" y="0.3646060691403225">K3o</text><text x="1.1937303463168125e-2" y="0.31391255368584103">A3o</text><text x="-0.6530748190137042" y="0.375871294796874">42s</text><text x="-0.6026951127654564" y="0.33925931141308174">43s</text><text x="-4.3480373409904405e-2" y="0.18717876504963743">44</text><text x="-0.48934077370689844" y="0.32799408575653033">54o</text><text x="-0.46666990589518687" y="0.3082799408575654">64o</text><text x="-0.4314041115214135" y="0.3589734563120468">74o</text><text x="-0.45911294995794977" y="0.395585439695839">84o</text><text x="-0.4414800527710631" y="0.395585439695839">94o</text><text x="-0.3860623758979903" y="0.3730549883827361">T4o</text><text x="-0.32308774308768046" y="0.3702386819685982">J4o</text><text x="-0.24751818371530854" y="0.24632119974653244">Q4o</text><text x="-9.134109434574e-2" y="0.3617897627261847">K4o</text><text x="9.418318150755556e-3" y="0.2547701189889461">A4o</text><text x="-0.5598723624544456" y="0.3843202140392875">52s</text><text x="-0.5346825093303218" y="0.3505245370696332">53s</text><text x="-0.47926483245724893" y="0.3054636344434275">54s</text><text x="7.239295096106568e-2" y="0.21815813560515396">55</text><text x="-0.3860623758979903" y="0.2435048933323946">65o</text><text x="-0.3558345521490416" y="0.29701471520101397">75o</text><text x="-0.3911003465228152" y="0.3082799408575654">85o</text><text x="-0.32560672840009286" y="0.3730549883827361">95o</text><text x="-0.2903409340263192" y="0.3730549883827361">T5o</text><text x="-0.2399612277780715" y="0.3448919242413575">J5o</text><text x="-0.14927775653122521" y="0.23787228050411885">Q5o</text><text x="9.418318150755556e-3" y="0.32799408575653033">K5o</text><text x="8.750686283553988e-2" y="0.2547701189889461">A5o</text><text x="-0.5548343918296208" y="0.375871294796874">62s</text><text x="-0.5195685974558473" y="0.3167288600999789">63s</text><text x="-0.45407497933312496" y="0.2913821023727382">64s</text><text x="-0.38354339058557796" y="0.22379074843342955">65s</text><text x="0.1756713487699738" y="0.14775047525170737">66</text><text x="-0.3382016549621548" y="0.29701471520101397">76o</text><text x="-0.36842947871110354" y="0.29701471520101397">86o</text><text x="-0.30041687527596883" y="0.32799408575653033">96o</text><text x="-0.29789788996355643" y="0.33925931141308174">T6o</text><text x="-0.23744224246565904" y="0.3336266985848061">J6o</text><text x="-0.12156891809468884" y="0.2688516510596354">Q6o</text><text x="1.8613622135185137e-3" y="0.32799408575653033">K6o</text><text x="7.743092158589027e-2" y="0.2801168767161868">A6o</text><text x="-0.5472774358923838" y="0.4040343589382525">72s</text><text x="-0.46666990589518687" y="0.39276913328170104">73s</text><text x="-0.421328170271764" y="0.34770823065549533">74s</text><text x="-0.35331556683662924" y="0.2773005703020489">75s</text><text x="-0.31804977246285565" y="0.27166795747377326">76s</text><text x="0.23108902564304645" y="0.1646483137365346">77</text><text x="-0.27522702215184514" y="0.3167288600999789">87o</text><text x="-0.26263209558978295" y="0.2885657959586003">97o</text><text x="-0.21980934527877238" y="0.3167288600999789">T7o</text><text x="-0.15935369778087471" y="0.3026473280292896">J7o</text><text x="-0.129125874031926" y="0.24068858691825673">Q7o</text><text x="1.4456288775580584e-2" y="0.3336266985848061">K7o</text><text x="9.002584814795234e-2" y="0.2519538125748082">A7o</text><text x="-0.5069736708937853" y="0.4040343589382525">82s</text><text x="-0.4691888912075992" y="0.3786876012110118">83s</text><text x="-0.44903700870830004" y="0.3786876012110118">84s</text><text x="-0.37346744933592835" y="0.2801168767161868">85s</text><text x="-0.3432396255869796" y="0.2773005703020489">86s</text><text x="-0.25255615434013345" y="0.28574948954446244">87s</text><text x="0.2764307612664698" y="9.7056959797226e-2">88</text><text x="-0.16439166840569952" y="0.3054636344434275">98o</text><text x="-0.16942963903052433" y="0.3026473280292896">T8o</text><text x="-0.13164485934433845" y="0.2829331831303247">J8o</text><text x="-8.63031237209152e-2" y="0.21815813560515396">Q8o</text><text x="5.224106846176646e-2" y="0.3589734563120468">K8o</text><text x="0.1655954075203243" y="0.2519538125748082">A8o</text><text x="-0.4314041115214135" y="0.3984017461099768">92s</text><text x="-0.38354339058557796" y="0.38150390762514963">93s</text><text x="-0.4263661408965887" y="0.375871294796874">94s</text><text x="-0.31049281652561855" y="0.336443004998944">95s</text><text x="-0.2802649927766698" y="0.2913821023727382">96s</text><text x="-0.24751818371530854" y="0.24913750616067032">97s</text><text x="-0.14927775653122521" y="0.27166795747377326">98s</text><text x="0.34696235001401643" y="8.297542772653665e-2">99</text><text x="-0.17446760965534902" y="0.2547701189889461">T9o</text><text x="-7.370819715885324e-2" y="0.22379074843342955">J9o</text><text x="-4.599935872231686e-2" y="0.2125255227768782">Q9o</text><text x="4.216512721211685e-2" y="0.3167288600999789">K9o</text><text x="0.13032961314655078" y="0.2519538125748082">A9o</text><text x="-0.3860623758979903" y="0.3899528268675632">T2s</text><text x="-0.35331556683662924" y="0.3730549883827361">T3s</text><text x="-0.37346744933592835" y="0.3646060691403225">T4s</text><text x="-0.27522702215184514" y="0.3448919242413575">T5s</text><text x="-0.2802649927766698" y="0.32517777934239256">T6s</text><text x="-0.20469543340429797" y="0.2801168767161868">T7s</text><text x="-0.14927775653122521" y="0.2660353446454975">T8s</text><text x="-0.15179674184363756" y="0.22942336126170526">T9s</text><text x="0.42001292407397606" y="-1.2778990354150532e-2">TT</text><text x="-6.111327059679128e-2" y="0.1702809265648103">JTo</text><text x="-2.5847476223017973e-2" y="0.136485249595156">QTo</text><text x="6.483599502382842e-2" y="0.21815813560515396">KTo</text><text x="0.16307642220791174" y="0.1505667816658453">ATo</text><text x="-0.32560672840009286" y="0.375871294796874">J2s</text><text x="-0.32560672840009286" y="0.33925931141308174">J3s</text><text x="-0.30797383121320604" y="0.3617897627261847">J4s</text><text x="-0.22232833059118473" y="0.3336266985848061">J5s</text><text x="-0.21729035996635993" y="0.3195451665141168">J6s</text><text x="-0.14675877121881276" y="0.27166795747377326">J7s</text><text x="-0.129125874031926" y="0.27166795747377326">J8s</text><text x="-5.859428528437882e-2" y="0.2068929099486025">J9s</text><text x="-4.599935872231686e-2" y="0.14211786242343172">JTs</text><text x="0.488025527509111" y="-4.3758360909666894e-2">JJ</text><text x="-1.0733564348543556e-2" y="9.424065338308807e-2">QJo</text><text x="5.979802439900361e-2" y="0.1646483137365346">KJo</text><text x="0.1328485984589629" y="9.424065338308807e-2">AJo</text><text x="-0.20973340402912277" y="0.3195451665141168">Q2s</text><text x="-0.2021764480918855" y="0.2885657959586003">Q3s</text><text x="-0.22988528652842188" y="0.23787228050411885">Q4s</text><text x="-0.12660688871951375" y="0.22379074843342955">Q5s</text><text x="-0.1014170355953895" y="0.2435048933323946">Q6s</text><text x="-0.11401196215745157" y="0.21815813560515396">Q7s</text><text x="-7.874616778367804e-2" y="0.19562768429205107">Q8s</text><text x="-3.5923417472667474e-2" y="0.18717876504963743">Q9s</text><text x="-1.5771534973368362e-2" y="9.987326621136383e-2">QTs</text><text x="6.899332838343097e-3" y="8.015912131239877e-2">QJs</text><text x="0.5635950868814827" y="-0.19583890727311115">QQ</text><text x="0.1328485984589629" y="0.1111384918679153">KQo</text><text x="0.17819033408238638" y="2.3832993029641758e-2">AQo</text><text x="-7.874616778367804e-2" y="0.3674223755544604">K2s</text><text x="-5.6075299971966475e-2" y="0.3702386819685982">K3s</text><text x="-8.378413840850285e-2" y="0.3617897627261847">K4s</text><text x="2.4532230025229973e-2" y="0.32236147292825457">K5s</text><text x="1.4456288775580584e-2" y="0.32517777934239256">K6s</text><text x="2.4532230025229973e-2" y="0.32517777934239256">K7s</text><text x="5.979802439900361e-2" y="0.3420756178272196">K8s</text><text x="4.4684112524528974e-2" y="0.3054636344434275">K9s</text><text x="7.239295096106568e-2" y="0.20126029712032673">KTs</text><text x="6.483599502382842e-2" y="0.14775047525170737">KJs</text><text x="0.13788656908378794" y="9.424065338308807e-2">KQs</text><text x="0.6769494259400402" y="-0.2606139547982821">KK</text><text x="0.19330424595686058" y="6.32612828275716e-2">AKo</text><text x="-1.829052028578082e-2" y="0.29983102161515174">A2s</text><text x="1.9494259400405167e-2" y="0.31109624727170315">A3s</text><text x="9.418318150755556e-3" y="0.2547701189889461">A4s</text><text x="9.758280408518949e-2" y="0.26321903823135967">A5s</text><text x="9.002584814795234e-2" y="0.2829331831303247">A6s</text><text x="9.506381877277725e-2" y="0.24068858691825673">A7s</text><text x="0.17315236345756135" y="0.24068858691825673">A8s</text><text x="0.13032961314655078" y="0.2435048933323946">A9s</text><text x="0.17315236345756135" y="0.136485249595156">ATs</text><text x="0.1404055543962004" y="6.32612828275716e-2">AJs</text><text x="0.18826627533203566" y="2.3832993029641758e-2">AQs</text><text x="0.18574729001962342" y="6.32612828275716e-2">AKs</text><text x="0.75" y="-0.4493064845455187">AA</text></g><g></g></svg>