<svg xmlns="http://www.w3.org/2000/svg" xmlns:xlink="http://www.w3.org/1999/xlink" width="973" height="600" viewBox="-2.8471 -2.3361 5.7017 3.5154"><style>svg {
  color-scheme: light dark;
}
{
  .canvas g, .title g, .axisbar g, .ticktext g, .tickglyph g, .ticklines g, .legendContent g text {
    fill: rgb(5%, 5%, 5%);
  }
  .ticklines g, .tickglyph g, .legendBorder g {
    stroke: rgb(5%, 5%, 5%);
  }
  .legendBorder g {
    fill: rgb(94%, 94%, 94%);
  }
}
@media (prefers-color-scheme:dark) {
  .canvas g, .title g, .axisbar g, .ticktext g, .tickglyph g, .ticklines g, .legendContent g text {
    fill: rgb(94%, 94%, 94%);
  }
  .ticklines g, .tickglyph g, .legendBorder g {
    stroke: rgb(94%, 94%, 94%);
  }
  .legendBorder g {
    fill: rgb(5%, 5%, 5%);
  }
}
svg { font-family: system-ui,-apple-system,"Segoe UI",Roboto,"Helvetica Neue",Arial,"Noto Sans","Liberation Sans",sans-serif,"Apple Color Emoji","Segoe UI Emoji","Segoe UI Symbol","Noto Color Emoji";
}

ticktext { font-family: SFMono-Regular,Menlo,Monaco,Consolas,"Liberation Mono","Courier New",monospace;
}


{
  .scatter g {
    fill: rgb(5%, 5%, 5%);
  }
}
@media (prefers-color-scheme:dark) {
  .scatter g {
    fill: rgb(94%, 94%, 94%);
  }
}
</style><g class="chart"><g class="scatter"><g stroke-width="0.0" stroke="none" fill="rgb(5%, 5%, 5%)" fill-opacity="0.6" font-size="3.0" text-anchor="middle"><text x="-0.0052" y="0.1524">22p</text><text x="-0.1471" y="0.2729">32o</text><text x="-0.1453" y="0.2678">42o</text><text x="-0.1417" y="0.2626">52o</text><text x="-0.1435" y="0.2742">62o</text><text x="-0.1399" y="0.2793">72o</text><text x="-0.1310" y="0.2780">82o</text><text x="-0.1112" y="0.2767">92o</text><text x="-0.0879" y="0.2665">T2o</text><text x="-0.0609" y="0.2614">J2o</text><text x="-0.0322" y="0.2498">Q2o</text><text x="0.0019" y="0.2357">K2o</text><text x="0.0486" y="0.1998">A2o</text><text x="-0.1363" y="0.2114">32s</text><text x="0.0343" y="0.1460">33p</text><text x="-0.1381" y="0.2511">43o</text><text x="-0.1328" y="0.2421">53o</text><text x="-0.1345" y="0.2562">63o</text><text x="-0.1292" y="0.2690">73o</text><text x="-0.1256" y="0.2755">83o</text><text x="-0.1040" y="0.2716">93o</text><text x="-0.0789" y="0.2639">T3o</text><text x="-0.0519" y="0.2588">J3o</text><text x="-0.0196" y="0.2460">Q3o</text><text x="0.0127" y="0.2306">K3o</text><text x="0.0576" y="0.1896">A3o</text><text x="-0.1274" y="0.2024">42s</text><text x="-0.1148" y="0.1793">43s</text><text x="0.0702" y="0.1421">44p</text><text x="-0.1184" y="0.2319">54o</text><text x="-0.1202" y="0.2383">64o</text><text x="-0.1130" y="0.2524">74o</text><text x="-0.1076" y="0.2652">84o</text><text x="-0.0968" y="0.2703">94o</text><text x="-0.0681" y="0.2601">T4o</text><text x="-0.0412" y="0.2537">J4o</text><text x="-0.0142" y="0.2434">Q4o</text><text x="0.0217" y="0.2267">K4o</text><text x="0.0666" y="0.1819">A4o</text><text x="-0.1220" y="0.1921">52s</text><text x="-0.1058" y="0.1678">53s</text><text x="-0.0861" y="0.1485">54s</text><text x="0.1079" y="0.1357">55p</text><text x="-0.1022" y="0.2216">65o</text><text x="-0.0950" y="0.2344">75o</text><text x="-0.0914" y="0.2447">85o</text><text x="-0.0771" y="0.2549">95o</text><text x="-0.0627" y="0.2575">T5o</text><text x="-0.0340" y="0.2485">J5o</text><text x="-0.0034" y="0.2396">Q5o</text><text x="0.0307" y="0.2229">K5o</text><text x="0.0756" y="0.1716">A5o</text><text x="-0.1238" y="0.2101">62s</text><text x="-0.1094" y="0.1870">63s</text><text x="-0.0896" y="0.1601">64s</text><text x="-0.0717" y="0.1383">65s</text><text x="0.1259" y="0.1229">66p</text><text x="-0.0807" y="0.2203">76o</text><text x="-0.0699" y="0.2242">86o</text><text x="-0.0573" y="0.2370">96o</text><text x="-0.0448" y="0.2408">T6o</text><text x="-0.0268" y="0.2473">J6o</text><text x="0.0109" y="0.2332">Q6o</text><text x="0.0450" y="0.2139">K6o</text><text x="0.0810" y="0.1883">A6o</text><text x="-0.1166" y="0.2255">72s</text><text x="-0.0986" y="0.2037">73s</text><text x="-0.0843" y="0.1742">74s</text><text x="-0.0645" y="0.1498">75s</text><text x="-0.0501" y="0.1319">76s</text><text x="0.1402" y="0.1114">77p</text><text x="-0.0537" y="0.2075">87o</text><text x="-0.0376" y="0.2165">97o</text><text x="-0.0232" y="0.2178">T7o</text><text x="-0.0070" y="0.2280">J7o</text><text x="0.0181" y="0.2293">Q7o</text><text x="0.0522" y="0.2062">K7o</text><text x="0.0917" y="0.1767">A7o</text><text x="-0.1004" y="0.2190">82s</text><text x="-0.0932" y="0.2152">83s</text><text x="-0.0753" y="0.1973">84s</text><text x="-0.0591" y="0.1691">85s</text><text x="-0.0430" y="0.1409">86s</text><text x="-0.0250" y="0.1255">87s</text><text x="0.1438" y="0.0998">88p</text><text x="-0.0214" y="0.1947">98o</text><text x="-0.0088" y="0.1857">T8o</text><text x="0.0145" y="0.2011">J8o</text><text x="0.0361" y="0.1985">Q8o</text><text x="0.0630" y="0.1960">K8o</text><text x="0.1007" y="0.1665">A8o</text><text x="-0.0825" y="0.2126">92s</text><text x="-0.0735" y="0.2088">93s</text><text x="-0.0663" y="0.2049">94s</text><text x="-0.0483" y="0.1806">95s</text><text x="-0.0286" y="0.1537">96s</text><text x="-0.0106" y="0.1293">97s</text><text x="0.0073" y="0.1203">98s</text><text x="0.1456" y="0.0870">99p</text><text x="0.0163" y="0.1473">T9o</text><text x="0.0325" y="0.1562">J9o</text><text x="0.0558" y="0.1626">Q9o</text><text x="0.0863" y="0.1550">K9o</text><text x="0.1115" y="0.1447">A9o</text><text x="-0.0555" y="0.1934">T2s</text><text x="-0.0465" y="0.1908">T3s</text><text x="-0.0394" y="0.1832">T4s</text><text x="-0.0358" y="0.1755">T5s</text><text x="-0.0160" y="0.1588">T6s</text><text x="0.0055" y="0.1280">T7s</text><text x="0.0253" y="0.1101">T8s</text><text x="0.0432" y="0.0921">T9s</text><text x="0.1474" y="0.0742">TTp</text><text x="0.0540" y="0.1152">JTo</text><text x="0.0738" y="0.1165">QTo</text><text x="0.1025" y="0.1139">KTo</text><text x="0.1223" y="0.1062">ATo</text><text x="-0.0304" y="0.1844">J2s</text><text x="-0.0178" y="0.1780">J3s</text><text x="-0.0124" y="0.1729">J4s</text><text x="-0.0017" y="0.1703">J5s</text><text x="0.0037" y="0.1639">J6s</text><text x="0.0235" y="0.1370">J7s</text><text x="0.0397" y="0.1191">J8s</text><text x="0.0612" y="0.0947">J9s</text><text x="0.0792" y="0.0832">JTs</text><text x="0.1492" y="0.0691">JJp</text><text x="0.0881" y="0.1037">QJo</text><text x="0.1097" y="0.0985">KJo</text><text x="0.1294" y="0.0909">AJo</text><text x="0.0001" y="0.1652">Q2s</text><text x="0.0091" y="0.1614">Q3s</text><text x="0.0199" y="0.1575">Q4s</text><text x="0.0271" y="0.1511">Q5s</text><text x="0.0379" y="0.1434">Q6s</text><text x="0.0468" y="0.1344">Q7s</text><text x="0.0648" y="0.1178">Q8s</text><text x="0.0828" y="0.0960">Q9s</text><text x="0.0953" y="0.0819">QTs</text><text x="0.1061" y="0.0793">QJs</text><text x="0.1510" y="0.0665">QQp</text><text x="0.1151" y="0.0857">KQo</text><text x="0.1312" y="0.0844">AQo</text><text x="0.0289" y="0.1396">K2s</text><text x="0.0415" y="0.1332">K3s</text><text x="0.0504" y="0.1306">K4s</text><text x="0.0594" y="0.1267">K5s</text><text x="0.0684" y="0.1242">K6s</text><text x="0.0774" y="0.1216">K7s</text><text x="0.0899" y="0.1126">K8s</text><text x="0.1043" y="0.0896">K9s</text><text x="0.1187" y="0.0806">KTs</text><text x="0.1205" y="0.0755">KJs</text><text x="0.1277" y="0.0716">KQs</text><text x="0.1528" y="0.0652">KKp</text><text x="0.1348" y="0.0780">AKo</text><text x="0.0720" y="0.1088">A2s</text><text x="0.0846" y="0.1050">A3s</text><text x="0.0935" y="0.1024">A4s</text><text x="0.0971" y="0.0973">A5s</text><text x="0.0989" y="0.1075">A6s</text><text x="0.1133" y="0.1011">A7s</text><text x="0.1169" y="0.0934">A8s</text><text x="0.1241" y="0.0883">A9s</text><text x="0.1330" y="0.0768">ATs</text><text x="0.1366" y="0.0729">AJs</text><text x="0.1384" y="0.0703">AQs</text><text x="0.1420" y="0.0678">AKs</text><text x="0.1546" y="0.0639">AAp</text></g></g></g><g class="hud"><g class="frame"><g stroke-width="0" stroke="rgb(0%, 0%, 0%)" stroke-opacity="0" fill="rgb(100%, 100%, 100%)" fill-opacity="0.02"><rect width="1.4228" height="0.9400" x="-0.7076" y="-0.4631"/></g></g><g class="title"><g stroke-width="0.0" stroke="none" fill="rgb(5%, 5%, 5%)" fill-opacity="1.0" font-size="0.0800" text-anchor="middle"><text x="0.0037" y="-0.4772">Heads Up</text></g></g><g class="title"><g stroke-width="0.0" stroke="none" fill="rgb(5%, 5%, 5%)" fill-opacity="1.0" font-size="0.0800" text-anchor="middle"><text x="0.7367" y="0.0069" transform="rotate(-90.0, 0.7367, 0.0069)">Full Table</text></g></g><g class="axis"><g class="axisbar"><g stroke-width="0" stroke="rgb(0%, 0%, 0%)" stroke-opacity="0" fill="rgb(5%, 5%, 5%)" fill-opacity="0.4"><rect width="0.3025" height="0.0009" x="-0.1475" y="0.2815"/></g></g><g class="ticks"><g class="ticklines"><g stroke-width="0.0050" stroke="rgb(5%, 5%, 5%)" stroke-opacity="0.05" fill="none"><polyline points="-0.1471,0.2793 -0.1471,0.0639"/><polyline points="0.0046,0.2793 0.0046,0.0639"/><polyline points="0.1546,0.2793 0.1546,0.0639"/></g></g><g class="tickglyph"><g stroke-width="0.0009" stroke="rgb(5%, 5%, 5%)" stroke-opacity="0.4" fill="rgb(5%, 5%, 5%)" fill-opacity="0.4"><polyline points="-0.1471,0.2885
-0.1471,0.2819"/><polyline points="0.0046,0.2885
0.0046,0.2819"/><polyline points="0.1546,0.2885
0.1546,0.2819"/></g></g><g class="ticktext"><g stroke-width="0.0" stroke="none" fill="rgb(5%, 5%, 5%)" fill-opacity="1.0" font-size="0.0400" text-anchor="middle"><text x="-0.1471" y="0.4886">worst</text><text x="0.0046" y="0.4886">median</text><text x="0.1546" y="0.4886">best</text></g></g></g></g><g class="axis"><g class="axisbar"><g stroke-width="0" stroke="rgb(0%, 0%, 0%)" stroke-opacity="0" fill="rgb(5%, 5%, 5%)" fill-opacity="0.4"><rect width="0.0008" height="0.2162" x="-0.1500" y="0.0635"/></g></g><g class="ticks"><g class="ticklines"><g stroke-width="0.0050" stroke="rgb(5%, 5%, 5%)" stroke-opacity="0.05" fill="none"><polyline points="-0.1471,0.2793 0.1546,0.2793"/><polyline points="-0.1471,0.1710 0.1546,0.1710"/><polyline points="-0.1471,0.0639 0.1546,0.0639"/></g></g><g class="tickglyph"><g stroke-width="0.0008" stroke="rgb(5%, 5%, 5%)" stroke-opacity="0.4" fill="rgb(5%, 5%, 5%)" fill-opacity="0.4"><polyline points="-0.1558,0.2793
-0.1496,0.2793"/><polyline points="-0.1558,0.1710
-0.1496,0.1710"/><polyline points="-0.1558,0.0639
-0.1496,0.0639"/></g></g><g class="ticktext"><g stroke-width="0.0" stroke="none" fill="rgb(5%, 5%, 5%)" fill-opacity="1.0" font-size="0.0400" text-anchor="end"><text x="-0.7118" y="0.2817">worst</text><text x="-0.7118" y="0.1734">median</text><text x="-0.7118" y="0.0663">best</text></g></g></g></g><g class="frame"><g stroke-width="0" stroke="rgb(0%, 0%, 0%)" stroke-opacity="0" fill="rgb(0%, 0%, 0%)" fill-opacity="0"><rect width="1.5000" height="1.0" x="-0.75" y="-0.5"/></g></g></g></svg>