<svg width="428.07139375837875" xmlns:xlink="http://www.w3.org/1999/xlink" xmlns="http://www.w3.org/2000/svg" viewBox="-0.8100862700653619 -0.548023135345148 1.5913104256836634 1.1152184767911857" height="300.0"><style>svg {
  color-scheme: light dark;
}
@media (prefers-color-scheme:dark) {
  svg {
    background-color: #f0f0f0;
  }
}</style><g fill="#0d0d0d" stroke="none" stroke-width="0.0" font-size="8.0e-2" fill-opacity="1.0" text-anchor="middle"><text x="0.7192241556183014" y="2.5769859917965654e-3" transform="rotate(-90.0, 0.7192241556183014, 2.5769859917965654e-3)">Full Table</text></g><g fill="#0d0d0d" stroke="none" stroke-width="0.0" font-size="8.0e-2" fill-opacity="1.0" text-anchor="middle"><text x="-3.8079783330795314e-2" y="-0.45402313534514804">Heads Up</text></g><g stroke-opacity="0.0" fill="#0d0d0d" stroke="#000000" stroke-width="0.0" fill-opacity="2.0e-2"><rect width="1.2260325174831304" x="-0.5640232126807085" y="-0.39834361395208284" height="0.7231106674424058"/></g><g stroke-opacity="5.0e-2" fill="none" stroke="#0d0d0d" stroke-width="5.0e-3"><polyline points="-0.5640232126807085,0.324767053490323
0.6620093048024218,0.324767053490323"/><polyline points="-0.5640232126807085,-3.8940395312553666e-2
0.6620093048024218,-3.8940395312553666e-2"/><polyline points="-0.5640232126807085,-0.39834361395208284
0.6620093048024218,-0.39834361395208284"/></g><g fill="#0d0d0d" stroke="none" stroke-width="0.0" font-size="5.0e-2" fill-opacity="1.0" text-anchor="end"><text x="-0.6400862700653619" y="0.33525215816823783">worst</text><text x="-0.6400862700653619" y="-2.845529063463892e-2">median</text><text x="-0.6400862700653619" y="-0.3878585092741681">best</text></g><g stroke-opacity="0.4" fill="#0d0d0d" stroke="#0d0d0d" stroke-width="4.0e-3" fill-opacity="0.4"><g transform="rotate(-90.0, -0.6138818683916891, 0.324767053490323)"><polyline points="-0.6138818683916891,0.339767053490323
-0.6138818683916891,0.30976705349032296"/></g><g transform="rotate(-90.0, -0.6138818683916891, -3.8940395312553666e-2)"><polyline points="-0.6138818683916891,-2.3940395312553667e-2
-0.6138818683916891,-5.3940395312553666e-2"/></g><g transform="rotate(-90.0, -0.6138818683916891, -0.39834361395208284)"><polyline points="-0.6138818683916891,-0.38334361395208283
-0.6138818683916891,-0.41334361395208286"/></g></g><g stroke-opacity="0.0" fill="#0d0d0d" stroke="#000000" stroke-width="0.0" fill-opacity="0.4"><rect width="3.269420046621785e-3" x="-0.5999868331935471" y="-0.39978983528696754" height="0.7260031101121753"/></g><g stroke-opacity="5.0e-2" fill="none" stroke="#0d0d0d" stroke-width="5.0e-3"><polyline points="-0.5640232126807085,0.324767053490323
-0.5640232126807085,-0.39834361395208284"/><polyline points="5.264195236289004e-2,0.324767053490323
5.264195236289004e-2,-0.39834361395208284"/><polyline points="0.6620093048024218,0.324767053490323
0.6620093048024218,-0.39834361395208284"/></g><g fill="#0d0d0d" stroke="none" stroke-width="0.0" font-size="5.0e-2" fill-opacity="1.0" text-anchor="end"><text x="-0.5640232126807085" y="0.4225677712619085" transform="rotate(-45.0, -0.5640232126807085, 0.4225677712619085)">worst</text><text x="5.264195236289004e-2" y="0.4225677712619085" transform="rotate(-45.0, 5.264195236289004e-2, 0.4225677712619085)">median</text><text x="0.6620093048024218" y="0.4225677712619085" transform="rotate(-45.0, 0.6620093048024218, 0.4225677712619085)">best</text></g><g stroke-opacity="0.4" fill="#0d0d0d" stroke="#0d0d0d" stroke-width="4.0e-3" fill-opacity="0.4"><polyline points="-0.5640232126807085,0.37736880819732815
-0.5640232126807085,0.3473688081973281"/><polyline points="5.264195236289004e-2,0.37736880819732815
5.264195236289004e-2,0.3473688081973281"/><polyline points="0.6620093048024218,0.37736880819732815
0.6620093048024218,0.3473688081973281"/></g><g stroke-opacity="0.0" fill="#0d0d0d" stroke="#000000" stroke-width="0.0" fill-opacity="0.4"><rect width="1.229301937529752" x="-0.5656579227040194" y="0.3471834841810376" height="2.8924426697696237e-3"/></g><g fill="#0d0d0d" stroke="none" stroke-width="0.0" font-size="4.0e-2" fill-opacity="0.4" text-anchor="middle"><text x="1.9801795644591724e-2" y="-7.552635170100885e-2">22p</text><text x="-0.5640232126807085" y="0.31185436300028013">32o</text><text x="-0.5567254000766422" y="0.27311629153015116">42o</text><text x="-0.5421297748685097" y="0.2774205216934988">52o</text><text x="-0.549427587472576" y="0.2903332121835418">62o</text><text x="-0.5348319622644435" y="0.324767053490323">72o</text><text x="-0.4764494614319135" y="0.3204628233269754">82o</text><text x="-0.41076914799531716" y="0.30755013283693244">92o</text><text x="-0.3085997715383897" y="0.2860289820201941">T2o</text><text x="-0.21372820768552847" y="0.25159514071341293">J2o</text><text x="-8.966539341640223e-2" y="0.19994437875324106">Q2o</text><text x="7.08864838730554e-2" y="0.16551053744645983">K2o</text><text x="0.23873617376657918" y="5.790478336276844e-2">A2o</text><text x="-0.5056407118481785" y="0.12677246597633096">32s</text><text x="0.15846023512185048" y="-6.261366121096579e-2">33p</text><text x="-0.5275341496603773" y="0.23868245022336992">43o</text><text x="-0.5129385244522447" y="0.22146552956997934">53o</text><text x="-0.520236337056311" y="0.24729091055006525">63o</text><text x="-0.49834289924411235" y="0.29894167251023707">73o</text><text x="-0.45455602361971476" y="0.3161585931636277">83o</text><text x="-0.38157789757905214" y="0.30324590267358476">93o</text><text x="-0.2575150833099259" y="0.2688120613668036">T3o</text><text x="-0.1918347698733296" y="0.2602036010401082">J3o</text><text x="-6.047414300013698e-2" y="0.21285706924328401">Q3o</text><text x="7.818429647712166e-2" y="0.19564014858989343">K3o</text><text x="0.2679274241828442" y="4.49920928727256e-2">A3o</text><text x="-0.491045086640046" y="4.0687862709377964e-2">42s</text><text x="-0.42536477320344973" y="-1.0962899250793967e-2">43s</text><text x="0.3117142998072415" y="-9.704750251774696e-2">44p</text><text x="-0.43996039841158224" y="0.1870316882631981">54o</text><text x="-0.461853836223781" y="0.20855283907993638">64o</text><text x="-0.432662585807516" y="0.2558993708767605">74o</text><text x="-0.3888757101831184" y="0.2817247518568464">84o</text><text x="-0.3669822723709196" y="0.2946374423468895">94o</text><text x="-0.23562164549772713" y="0.2645078312034559">T4o</text><text x="-0.16264351945706468" y="0.2343782200600223">J4o</text><text x="-4.587851779200458e-2" y="0.16981476760980746">Q4o</text><text x="0.12926898470558534" y="0.1439893866297216">K4o</text><text x="0.2898208619950431" y="1.949791239248988e-3">A4o</text><text x="-0.4691516488278472" y="6.2209013526116186e-2">52s</text><text x="-0.39617352278718476" y="-1.5267129414141656e-2">53s</text><text x="-0.31589758414245594" y="-7.983058186435654e-2">54s</text><text x="0.42847930147230184" y="-0.11426442317113772">55p</text><text x="-0.41806696059938336" y="0.113859775486288">65o</text><text x="-0.3596844597668535" y="0.18272745809985041">75o</text><text x="-0.33779102195465477" y="0.20424860891658875">85o</text><text x="-0.30130195893432343" y="0.2429866803867176">95o</text><text x="-0.19913258247739596" y="0.23007398989667466">T5o</text><text x="-0.11885664383266714" y="0.22576975973332702">J5o</text><text x="1.2503983040525135e-2" y="0.15259784695641687">Q5o</text><text x="0.16575804772591662" y="0.13538092630302634">K5o</text><text x="0.3263099250153745" y="-4.1092510394227566e-2">A5o</text><text x="-0.4837472740359797" y="8.803439450620199e-2">62s</text><text x="-0.403471335391251" y="1.916671189263952e-2">63s</text><text x="-0.32319539674652215" y="-5.400520088427041e-2">64s</text><text x="-0.2721107085180584" y="-0.16161095496796185">65s</text><text x="0.5233508653251631" y="-0.19174056611139523">66p</text><text x="-0.33049320935058835" y="0.16120630728311214">76o</text><text x="-0.26481289591399215" y="0.14829361679306924">86o</text><text x="-0.22102602028959473" y="0.17842322793650278">96o</text><text x="-0.14804789424893217" y="0.19133591842654574">T6o</text><text x="-8.236758081233586e-2" y="0.21716129940663165">J6o</text><text x="4.169523345679027e-2" y="0.1310766961396786">Q6o</text><text x="0.21684273595438042" y="0.10525131515959268">K6o</text><text x="0.3555011754316393" y="1.4862481729291888e-2">A6o</text><text x="-0.44725821101564855" y="0.1569020771197645">72s</text><text x="-0.3742800849749859" y="8.373016434285441e-2">73s</text><text x="-0.28670633372619103" y="6.254021402596621e-3">74s</text><text x="-0.2429194581017935" y="-0.12717711366118056">75s</text><text x="-0.18453695726926345" y="-0.13148134382452836">76s</text><text x="0.5963289913658254" y="-0.21756594709148136">77p</text><text x="-0.15534570685299842" y="0.12246823581298333">87o</text><text x="-0.13345226904079976" y="9.664285483289736e-2">97o</text><text x="-5.317633039607084e-2" y="0.1181640056496357">T7o</text><text x="5.206170436459212e-3" y="0.17411899777315515">J7o</text><text x="9.277992168525429e-2" y="7.942593417950677e-2">Q7o</text><text x="0.2533317989747119" y="9.233862466954973e-2">K7o</text><text x="0.41388367626416955" y="-6.658669087446278e-3">A7o</text><text x="-0.35238664716278734" y="0.13968515646637397">82s</text><text x="-0.34508883455872097" y="0.10955554532294032">83s</text><text x="-0.2502172707058597" y="3.207940238268253e-2">84s</text><text x="-0.20643039508146221" y="-8.843904219105181e-2">85s</text><text x="-0.1261544564367335" y="-0.14008980415122363">86s</text><text x="-3.8580705187938436e-2" y="-0.16591518513130954">87s</text><text x="0.6182224291780238" y="-0.2907378598683914">88p</text><text x="-1.6687267375739667e-2" y="4.929632303607323e-2">98o</text><text x="4.899304606085653e-2" y="2.347094205598732e-2">T8o</text><text x="0.1219711721015192" y="7.08174738528114e-2">J8o</text><text x="0.2022471107462478" y="-2.3875589740836922e-2">Q8o</text><text x="0.3044164872031754" y="3.6383632546030276e-2">K8o</text><text x="0.45767055188856665" y="-6.691789137431359e-2">A8o</text><text x="-0.29400414633025723" y="0.10094708499624494">92s</text><text x="-0.27940852112212466" y="7.512170401615903e-2">93s</text><text x="-0.22832383289366098" y="6.651324368946382e-2">94s</text><text x="-0.16994133206113093" y="-3.24840500675323e-2">95s</text><text x="-9.696320602046837e-2" y="-0.1228728834978331">96s</text><text x="-9.389454771673411e-3" y="-0.18743633594804776">97s</text><text x="8.548210908118792e-2" y="-0.22617440741817663">98s</text><text x="0.6255202417820906" y="-0.30365055035843447">99p</text><text x="0.1073755468933868" y="-0.1443940343145712">T9o</text><text x="0.18035367293404903" y="-2.817981990418461e-2">J9o</text><text x="0.24603398637064566" y="-0.10565596284444245">Q9o</text><text x="0.39199023845197045" y="-3.678828023087988e-2">K9o</text><text x="0.501457427512964" y="-0.11856865333448519">A9o</text><text x="-0.17723914466519708" y="5.3600553199420864e-2">T2s</text><text x="-0.1407500816448659" y="2.7775172219334898e-2">T3s</text><text x="-0.10426101862453463" y="1.0558251565944254e-2">T4s</text><text x="-7.50697682082696e-2" y="-4.970097072092283e-2">T5s</text><text x="-3.128289258387218e-2" y="-0.10135173268109476">T6s</text><text x="5.6290858664922894e-2" y="-0.18313210578469996">T7s</text><text x="0.15116242251778433" y="-0.24769555823491496">T8s</text><text x="0.19494929814218187" y="-0.3165632408484773">T9s</text><text x="0.632818054386157" y="-0.36390977264530155">TTp</text><text x="0.27522523678691035" y="-0.20895748676478598">JTo</text><text x="0.3482033628275729" y="-0.2692167090516532">QTo</text><text x="0.4503727392845005" y="-0.23047863758152431">KTo</text><text x="0.5525421157414283" y="-0.2864336297050438">ATo</text><text x="-0.11155883122860089" y="-2.3544389240985897e-3">J2s</text><text x="-6.777195560420335e-2" y="-1.9571359577489233e-2">J3s</text><text x="-2.3985079979805812e-2" y="-4.5396740557575144e-2">J4s</text><text x="-2.091642167607155e-3" y="-5.830943104761821e-2">J5s</text><text x="3.4397420852724236e-2" y="-8.413481202770401e-2">J6s</text><text x="0.11467335949745294" y="-0.15730672480461427">J7s</text><text x="0.22414054855844667" y="-0.21326171692813367">J8s</text><text x="0.2825230493909767" y="-0.27352093921500076">J9s</text><text x="0.3700968006397716" y="-0.3294759313385204">JTs</text><text x="0.6401158669902229" y="-0.37682246313534473">JJp</text><text x="0.3846924258479041" y="-0.2649124788883055">QJo</text><text x="0.48686180230483167" y="-0.24339132807156727">KJo</text><text x="0.5598399283454942" y="-0.27782516937834856">AJo</text><text x="2.709960824865787e-2" y="-9.274327235439928e-2">Q2s</text><text x="6.358867126898926e-2" y="-7.122212153766105e-2">Q3s</text><text x="0.10007773428932065" y="-0.148698264477919">Q4s</text><text x="0.1365667973096516" y="-0.15300249464126658">Q5s</text><text x="0.14386460991371774" y="-0.1745236454580048">Q6s</text><text x="0.1876514855381155" y="-0.20034902643809072">Q7s</text><text x="0.297118674599109" y="-0.2563040185616102">Q8s</text><text x="0.34090555022350677" y="-0.31225901068512973">Q9s</text><text x="0.42118148886823525" y="-0.3553013123186063">QTs</text><text x="0.4722661770966994" y="-0.3509970821552585">QJs</text><text x="0.6474136795942893" y="-0.3897351536253876">QQp</text><text x="0.4941596149088978" y="-0.3251717011751726">KQo</text><text x="0.5671377409495606" y="-0.33808439166521564">AQo</text><text x="0.17305586032998288" y="-0.13578557398787583">K2s</text><text x="0.20954492335031427" y="-0.10996019300778992">K3s</text><text x="0.2314383611625127" y="-0.17021941529465712">K4s</text><text x="0.26062961157877806" y="-0.17882787562135238">K5s</text><text x="0.31901211241130767" y="-0.19604479627474314">K6s</text><text x="0.36279898803570565" y="-0.22187017725482905">K7s</text><text x="0.40658586366010296" y="-0.2390870979082197">K8s</text><text x="0.4649683644926328" y="-0.282129399541696">K9s</text><text x="0.5087552401170305" y="-0.33378016150186784">KTs</text><text x="0.5306486779292294" y="-0.3423886218285632">KJs</text><text x="0.5379464905332956" y="-0.3725182329719968">KQs</text><text x="0.6547114921983552" y="-0.39403938378873526">KKp</text><text x="0.5817333661576929" y="-0.3466928519919109">AKo</text><text x="0.3336077376194402" y="-0.2046532566014384">A2s</text><text x="0.37739461324383816" y="-0.234782867744872">A3s</text><text x="0.3992880510560368" y="-0.2606082487249579">A4s</text><text x="0.435777114076368" y="-0.29934632019508667">A5s</text><text x="0.44307492668043436" y="-0.25199978839826254">A6s</text><text x="0.4795639897007655" y="-0.2950420900317392">A7s</text><text x="0.5160530527210971" y="-0.30795478052178205">A8s</text><text x="0.5452443031373617" y="-0.3208674710118251">A9s</text><text x="0.5744355535536267" y="-0.36821400280864913">ATs</text><text x="0.589031178761759" y="-0.35960554248195387">AJs</text><text x="0.6036268039698915" y="-0.3811266932986923">AQs</text><text x="0.6109246165739581" y="-0.38543092346204">AKs</text><text x="0.6620093048024218" y="-0.39834361395208284">AAp</text></g></svg>