<svg xmlns="http://www.w3.org/2000/svg" height="300.0" viewBox="-0.77 -0.52 1.54 1.04" width="444.2307692307692" xmlns:xlink="http://www.w3.org/1999/xlink"><g fill-opacity="1.0" font-size="3.0e-2" stroke="none" stroke-width="0.0" fill="#0d0d0d" text-anchor="middle"><text x="0.44437710192454283" y="0.46153846153846156">22</text><text x="0.44437710192454283" y="0.3846153846153846">32s</text><text x="0.44437710192454283" y="0.3076923076923077">42s</text><text x="0.44437710192454283" y="0.23076923076923073">52s</text><text x="0.44437710192454283" y="0.15384615384615385">62s</text><text x="0.44437710192454283" y="7.692307692307687e-2">72s</text><text x="0.44437710192454283" y="-0.0">82s</text><text x="0.44437710192454283" y="-7.692307692307698e-2">92s</text><text x="0.44437710192454283" y="-0.15384615384615385">T2s</text><text x="0.44437710192454283" y="-0.23076923076923073">J2s</text><text x="0.44437710192454283" y="-0.3076923076923077">Q2s</text><text x="0.44437710192454283" y="-0.3846153846153847">K2s</text><text x="0.44437710192454283" y="-0.46153846153846156">A2s</text><text x="0.3488269337705796" y="0.46153846153846156">32o</text><text x="0.3488269337705796" y="0.3846153846153846">33</text><text x="0.3488269337705796" y="0.3076923076923077">43s</text><text x="0.3488269337705796" y="0.23076923076923073">53s</text><text x="0.3488269337705796" y="0.15384615384615385">63s</text><text x="0.3488269337705796" y="7.692307692307687e-2">73s</text><text x="0.3488269337705796" y="-0.0">83s</text><text x="0.3488269337705796" y="-7.692307692307698e-2">93s</text><text x="0.3488269337705796" y="-0.15384615384615385">T3s</text><text x="0.3488269337705796" y="-0.23076923076923073">J3s</text><text x="0.3488269337705796" y="-0.3076923076923077">Q3s</text><text x="0.3488269337705796" y="-0.3846153846153847">K3s</text><text x="0.3488269337705796" y="-0.46153846153846156">A3s</text><text x="0.25327676561661616" y="0.46153846153846156">42o</text><text x="0.25327676561661616" y="0.3846153846153846">43o</text><text x="0.25327676561661616" y="0.3076923076923077">44</text><text x="0.25327676561661616" y="0.23076923076923073">54s</text><text x="0.25327676561661616" y="0.15384615384615385">64s</text><text x="0.25327676561661616" y="7.692307692307687e-2">74s</text><text x="0.25327676561661616" y="-0.0">84s</text><text x="0.25327676561661616" y="-7.692307692307698e-2">94s</text><text x="0.25327676561661616" y="-0.15384615384615385">T4s</text><text x="0.25327676561661616" y="-0.23076923076923073">J4s</text><text x="0.25327676561661616" y="-0.3076923076923077">Q4s</text><text x="0.25327676561661616" y="-0.3846153846153847">K4s</text><text x="0.25327676561661616" y="-0.46153846153846156">A4s</text><text x="0.1577265974626526" y="0.46153846153846156">52o</text><text x="0.1577265974626526" y="0.3846153846153846">53o</text><text x="0.1577265974626526" y="0.3076923076923077">54o</text><text x="0.1577265974626526" y="0.23076923076923073">55</text><text x="0.1577265974626526" y="0.15384615384615385">65s</text><text x="0.1577265974626526" y="7.692307692307687e-2">75s</text><text x="0.1577265974626526" y="-0.0">85s</text><text x="0.1577265974626526" y="-7.692307692307698e-2">95s</text><text x="0.1577265974626526" y="-0.15384615384615385">T5s</text><text x="0.1577265974626526" y="-0.23076923076923073">J5s</text><text x="0.1577265974626526" y="-0.3076923076923077">Q5s</text><text x="0.1577265974626526" y="-0.3846153846153847">K5s</text><text x="0.1577265974626526" y="-0.46153846153846156">A5s</text><text x="6.2176429308689274e-2" y="0.46153846153846156">62o</text><text x="6.2176429308689274e-2" y="0.3846153846153846">63o</text><text x="6.2176429308689274e-2" y="0.3076923076923077">64o</text><text x="6.2176429308689274e-2" y="0.23076923076923073">65o</text><text x="6.2176429308689274e-2" y="0.15384615384615385">66</text><text x="6.2176429308689274e-2" y="7.692307692307687e-2">76s</text><text x="6.2176429308689274e-2" y="-0.0">86s</text><text x="6.2176429308689274e-2" y="-7.692307692307698e-2">96s</text><text x="6.2176429308689274e-2" y="-0.15384615384615385">T6s</text><text x="6.2176429308689274e-2" y="-0.23076923076923073">J6s</text><text x="6.2176429308689274e-2" y="-0.3076923076923077">Q6s</text><text x="6.2176429308689274e-2" y="-0.3846153846153847">K6s</text><text x="6.2176429308689274e-2" y="-0.46153846153846156">A6s</text><text x="-3.337373884527439e-2" y="0.46153846153846156">72o</text><text x="-3.337373884527439e-2" y="0.3846153846153846">73o</text><text x="-3.337373884527439e-2" y="0.3076923076923077">74o</text><text x="-3.337373884527439e-2" y="0.23076923076923073">75o</text><text x="-3.337373884527439e-2" y="0.15384615384615385">76o</text><text x="-3.337373884527439e-2" y="7.692307692307687e-2">77</text><text x="-3.337373884527439e-2" y="-0.0">87s</text><text x="-3.337373884527439e-2" y="-7.692307692307698e-2">97s</text><text x="-3.337373884527439e-2" y="-0.15384615384615385">T7s</text><text x="-3.337373884527439e-2" y="-0.23076923076923073">J7s</text><text x="-3.337373884527439e-2" y="-0.3076923076923077">Q7s</text><text x="-3.337373884527439e-2" y="-0.3846153846153847">K7s</text><text x="-3.337373884527439e-2" y="-0.46153846153846156">A7s</text><text x="-0.12892390699923761" y="0.46153846153846156">82o</text><text x="-0.12892390699923761" y="0.3846153846153846">83o</text><text x="-0.12892390699923761" y="0.3076923076923077">84o</text><text x="-0.12892390699923761" y="0.23076923076923073">85o</text><text x="-0.12892390699923761" y="0.15384615384615385">86o</text><text x="-0.12892390699923761" y="7.692307692307687e-2">87o</text><text x="-0.12892390699923761" y="-0.0">88</text><text x="-0.12892390699923761" y="-7.692307692307698e-2">98s</text><text x="-0.12892390699923761" y="-0.15384615384615385">T8s</text><text x="-0.12892390699923761" y="-0.23076923076923073">J8s</text><text x="-0.12892390699923761" y="-0.3076923076923077">Q8s</text><text x="-0.12892390699923761" y="-0.3846153846153847">K8s</text><text x="-0.12892390699923761" y="-0.46153846153846156">A8s</text><text x="-0.22447407515320117" y="0.46153846153846156">92o</text><text x="-0.22447407515320117" y="0.3846153846153846">93o</text><text x="-0.22447407515320117" y="0.3076923076923077">94o</text><text x="-0.22447407515320117" y="0.23076923076923073">95o</text><text x="-0.22447407515320117" y="0.15384615384615385">96o</text><text x="-0.22447407515320117" y="7.692307692307687e-2">97o</text><text x="-0.22447407515320117" y="-0.0">98o</text><text x="-0.22447407515320117" y="-7.692307692307698e-2">99</text><text x="-0.22447407515320117" y="-0.15384615384615385">T9s</text><text x="-0.22447407515320117" y="-0.23076923076923073">J9s</text><text x="-0.22447407515320117" y="-0.3076923076923077">Q9s</text><text x="-0.22447407515320117" y="-0.3846153846153847">K9s</text><text x="-0.22447407515320117" y="-0.46153846153846156">A9s</text><text x="-0.3200242433071645" y="0.46153846153846156">T2o</text><text x="-0.3200242433071645" y="0.3846153846153846">T3o</text><text x="-0.3200242433071645" y="0.3076923076923077">T4o</text><text x="-0.3200242433071645" y="0.23076923076923073">T5o</text><text x="-0.3200242433071645" y="0.15384615384615385">T6o</text><text x="-0.3200242433071645" y="7.692307692307687e-2">T7o</text><text x="-0.3200242433071645" y="-0.0">T8o</text><text x="-0.3200242433071645" y="-7.692307692307698e-2">T9o</text><text x="-0.3200242433071645" y="-0.15384615384615385">TT</text><text x="-0.3200242433071645" y="-0.23076923076923073">JTs</text><text x="-0.3200242433071645" y="-0.3076923076923077">QTs</text><text x="-0.3200242433071645" y="-0.3846153846153847">KTs</text><text x="-0.3200242433071645" y="-0.46153846153846156">ATs</text><text x="-0.4155744114611279" y="0.46153846153846156">J2o</text><text x="-0.4155744114611279" y="0.3846153846153846">J3o</text><text x="-0.4155744114611279" y="0.3076923076923077">J4o</text><text x="-0.4155744114611279" y="0.23076923076923073">J5o</text><text x="-0.4155744114611279" y="0.15384615384615385">J6o</text><text x="-0.4155744114611279" y="7.692307692307687e-2">J7o</text><text x="-0.4155744114611279" y="-0.0">J8o</text><text x="-0.4155744114611279" y="-7.692307692307698e-2">J9o</text><text x="-0.4155744114611279" y="-0.15384615384615385">JTo</text><text x="-0.4155744114611279" y="-0.23076923076923073">JJ</text><text x="-0.4155744114611279" y="-0.3076923076923077">QJs</text><text x="-0.4155744114611279" y="-0.3846153846153847">KJs</text><text x="-0.4155744114611279" y="-0.46153846153846156">AJs</text><text x="-0.5111245796150914" y="0.46153846153846156">Q2o</text><text x="-0.5111245796150914" y="0.3846153846153846">Q3o</text><text x="-0.5111245796150914" y="0.3076923076923077">Q4o</text><text x="-0.5111245796150914" y="0.23076923076923073">Q5o</text><text x="-0.5111245796150914" y="0.15384615384615385">Q6o</text><text x="-0.5111245796150914" y="7.692307692307687e-2">Q7o</text><text x="-0.5111245796150914" y="-0.0">Q8o</text><text x="-0.5111245796150914" y="-7.692307692307698e-2">Q9o</text><text x="-0.5111245796150914" y="-0.15384615384615385">QTo</text><text x="-0.5111245796150914" y="-0.23076923076923073">QJo</text><text x="-0.5111245796150914" y="-0.3076923076923077">QQ</text><text x="-0.5111245796150914" y="-0.3846153846153847">KQs</text><text x="-0.5111245796150914" y="-0.46153846153846156">AQs</text><text x="-0.606674747769055" y="0.46153846153846156">K2o</text><text x="-0.606674747769055" y="0.3846153846153846">K3o</text><text x="-0.606674747769055" y="0.3076923076923077">K4o</text><text x="-0.606674747769055" y="0.23076923076923073">K5o</text><text x="-0.606674747769055" y="0.15384615384615385">K6o</text><text x="-0.606674747769055" y="7.692307692307687e-2">K7o</text><text x="-0.606674747769055" y="-0.0">K8o</text><text x="-0.606674747769055" y="-7.692307692307698e-2">K9o</text><text x="-0.606674747769055" y="-0.15384615384615385">KTo</text><text x="-0.606674747769055" y="-0.23076923076923073">KJo</text><text x="-0.606674747769055" y="-0.3076923076923077">KQo</text><text x="-0.606674747769055" y="-0.3846153846153847">KK</text><text x="-0.606674747769055" y="-0.46153846153846156">AKs</text><text x="-0.7022249159230183" y="0.46153846153846156">A2o</text><text x="-0.7022249159230183" y="0.3846153846153846">A3o</text><text x="-0.7022249159230183" y="0.3076923076923077">A4o</text><text x="-0.7022249159230183" y="0.23076923076923073">A5o</text><text x="-0.7022249159230183" y="0.15384615384615385">A6o</text><text x="-0.7022249159230183" y="7.692307692307687e-2">A7o</text><text x="-0.7022249159230183" y="-0.0">A8o</text><text x="-0.7022249159230183" y="-7.692307692307698e-2">A9o</text><text x="-0.7022249159230183" y="-0.15384615384615385">ATo</text><text x="-0.7022249159230183" y="-0.23076923076923073">AJo</text><text x="-0.7022249159230183" y="-0.3076923076923077">AQo</text><text x="-0.7022249159230183" y="-0.3846153846153847">AKo</text><text x="-0.7022249159230183" y="-0.46153846153846156">AA</text></g><g stroke-opacity="0.0" fill-opacity="0.3" stroke="#000000" stroke-width="0.0" fill="#00ff00"><rect height="7.692307692307693e-2" width="9.555016815396344e-2" x="-0.75" y="0.4230769230769231"/></g><g stroke-opacity="0.0" fill-opacity="0.3" stroke="#000000" stroke-width="0.0" fill="#00ff00"><rect height="7.692307692307693e-2" width="9.555016815396344e-2" x="-0.75" y="0.34615384615384615"/></g><g stroke-opacity="0.0" fill-opacity="0.3" stroke="#000000" stroke-width="0.0" fill="#00ff00"><rect height="7.692307692307693e-2" width="9.555016815396344e-2" x="-0.75" y="0.2692307692307692"/></g><g stroke-opacity="0.0" fill-opacity="0.3" stroke="#000000" stroke-width="0.0" fill="#00ff00"><rect height="7.692307692307693e-2" width="9.555016815396344e-2" x="-0.75" y="0.1923076923076923"/></g><g stroke-opacity="0.0" fill-opacity="0.3" stroke="#000000" stroke-width="0.0" fill="#00ff00"><rect height="7.692307692307693e-2" width="9.555016815396344e-2" x="-0.75" y="0.11538461538461536"/></g><g stroke-opacity="0.0" fill-opacity="0.3" stroke="#000000" stroke-width="0.0" fill="#00ff00"><rect height="7.692307692307693e-2" width="9.555016815396344e-2" x="-0.75" y="3.8461538461538436e-2"/></g><g stroke-opacity="0.0" fill-opacity="0.3" stroke="#000000" stroke-width="0.0" fill="#00ff00"><rect height="7.692307692307698e-2" width="9.555016815396344e-2" x="-0.75" y="-3.846153846153855e-2"/></g><g stroke-opacity="0.0" fill-opacity="0.3" stroke="#000000" stroke-width="0.0" fill="#00ff00"><rect height="7.692307692307687e-2" width="9.555016815396344e-2" x="-0.75" y="-0.11538461538461542"/></g><g stroke-opacity="0.0" fill-opacity="0.3" stroke="#000000" stroke-width="0.0" fill="#00ff00"><rect height="7.692307692307687e-2" width="9.555016815396344e-2" x="-0.75" y="-0.1923076923076923"/></g><g stroke-opacity="0.0" fill-opacity="0.3" stroke="#000000" stroke-width="0.0" fill="#00ff00"><rect height="7.692307692307698e-2" width="9.555016815396344e-2" x="-0.75" y="-0.2692307692307693"/></g><g stroke-opacity="0.0" fill-opacity="0.3" stroke="#000000" stroke-width="0.0" fill="#00ff00"><rect height="7.692307692307698e-2" width="9.555016815396344e-2" x="-0.75" y="-0.34615384615384626"/></g><g stroke-opacity="0.0" fill-opacity="0.3" stroke="#000000" stroke-width="0.0" fill="#00ff00"><rect height="7.692307692307687e-2" width="9.555016815396344e-2" x="-0.75" y="-0.42307692307692313"/></g><g stroke-opacity="0.0" fill-opacity="0.3" stroke="#000000" stroke-width="0.0" fill="#008080"><rect height="7.692307692307687e-2" width="9.555016815396344e-2" x="-0.75" y="-0.5"/></g><g stroke-opacity="0.0" fill-opacity="0.3" stroke="#000000" stroke-width="0.0" fill="#00ff00"><rect height="7.692307692307693e-2" width="9.555016815396344e-2" x="-0.6544498318460366" y="0.4230769230769231"/></g><g stroke-opacity="0.0" fill-opacity="0.3" stroke="#000000" stroke-width="0.0" fill="#00ff00"><rect height="7.692307692307693e-2" width="9.555016815396344e-2" x="-0.6544498318460366" y="0.34615384615384615"/></g><g stroke-opacity="0.0" fill-opacity="0.3" stroke="#000000" stroke-width="0.0" fill="#00ff00"><rect height="7.692307692307693e-2" width="9.555016815396344e-2" x="-0.6544498318460366" y="0.2692307692307692"/></g><g stroke-opacity="0.0" fill-opacity="0.3" stroke="#000000" stroke-width="0.0" fill="#00ff00"><rect height="7.692307692307693e-2" width="9.555016815396344e-2" x="-0.6544498318460366" y="0.1923076923076923"/></g><g stroke-opacity="0.0" fill-opacity="0.3" stroke="#000000" stroke-width="0.0" fill="#00ff00"><rect height="7.692307692307693e-2" width="9.555016815396344e-2" x="-0.6544498318460366" y="0.11538461538461536"/></g><g stroke-opacity="0.0" fill-opacity="0.3" stroke="#000000" stroke-width="0.0" fill="#00ff00"><rect height="7.692307692307693e-2" width="9.555016815396344e-2" x="-0.6544498318460366" y="3.8461538461538436e-2"/></g><g stroke-opacity="0.0" fill-opacity="0.3" stroke="#000000" stroke-width="0.0" fill="#00ff00"><rect height="7.692307692307698e-2" width="9.555016815396344e-2" x="-0.6544498318460366" y="-3.846153846153855e-2"/></g><g stroke-opacity="0.0" fill-opacity="0.3" stroke="#000000" stroke-width="0.0" fill="#00ff00"><rect height="7.692307692307687e-2" width="9.555016815396344e-2" x="-0.6544498318460366" y="-0.11538461538461542"/></g><g stroke-opacity="0.0" fill-opacity="0.3" stroke="#000000" stroke-width="0.0" fill="#00ff00"><rect height="7.692307692307687e-2" width="9.555016815396344e-2" x="-0.6544498318460366" y="-0.1923076923076923"/></g><g stroke-opacity="0.0" fill-opacity="0.3" stroke="#000000" stroke-width="0.0" fill="#00ff00"><rect height="7.692307692307698e-2" width="9.555016815396344e-2" x="-0.6544498318460366" y="-0.2692307692307693"/></g><g stroke-opacity="0.0" fill-opacity="0.3" stroke="#000000" stroke-width="0.0" fill="#00ff00"><rect height="7.692307692307698e-2" width="9.555016815396344e-2" x="-0.6544498318460366" y="-0.34615384615384626"/></g><g stroke-opacity="0.0" fill-opacity="0.3" stroke="#000000" stroke-width="0.0" fill="#008080"><rect height="7.692307692307687e-2" width="9.555016815396344e-2" x="-0.6544498318460366" y="-0.42307692307692313"/></g><g stroke-opacity="0.0" fill-opacity="0.3" stroke="#000000" stroke-width="0.0" fill="#ff0000"><rect height="7.692307692307687e-2" width="9.555016815396344e-2" x="-0.6544498318460366" y="-0.5"/></g><g stroke-opacity="0.0" fill-opacity="0.3" stroke="#000000" stroke-width="0.0" fill="#00ff00"><rect height="7.692307692307693e-2" width="9.555016815396344e-2" x="-0.5588996636920731" y="0.4230769230769231"/></g><g stroke-opacity="0.0" fill-opacity="0.3" stroke="#000000" stroke-width="0.0" fill="#00ff00"><rect height="7.692307692307693e-2" width="9.555016815396344e-2" x="-0.5588996636920731" y="0.34615384615384615"/></g><g stroke-opacity="0.0" fill-opacity="0.3" stroke="#000000" stroke-width="0.0" fill="#00ff00"><rect height="7.692307692307693e-2" width="9.555016815396344e-2" x="-0.5588996636920731" y="0.2692307692307692"/></g><g stroke-opacity="0.0" fill-opacity="0.3" stroke="#000000" stroke-width="0.0" fill="#00ff00"><rect height="7.692307692307693e-2" width="9.555016815396344e-2" x="-0.5588996636920731" y="0.1923076923076923"/></g><g stroke-opacity="0.0" fill-opacity="0.3" stroke="#000000" stroke-width="0.0" fill="#00ff00"><rect height="7.692307692307693e-2" width="9.555016815396344e-2" x="-0.5588996636920731" y="0.11538461538461536"/></g><g stroke-opacity="0.0" fill-opacity="0.3" stroke="#000000" stroke-width="0.0" fill="#00ff00"><rect height="7.692307692307693e-2" width="9.555016815396344e-2" x="-0.5588996636920731" y="3.8461538461538436e-2"/></g><g stroke-opacity="0.0" fill-opacity="0.3" stroke="#000000" stroke-width="0.0" fill="#00ff00"><rect height="7.692307692307698e-2" width="9.555016815396344e-2" x="-0.5588996636920731" y="-3.846153846153855e-2"/></g><g stroke-opacity="0.0" fill-opacity="0.3" stroke="#000000" stroke-width="0.0" fill="#00ff00"><rect height="7.692307692307687e-2" width="9.555016815396344e-2" x="-0.5588996636920731" y="-0.11538461538461542"/></g><g stroke-opacity="0.0" fill-opacity="0.3" stroke="#000000" stroke-width="0.0" fill="#00ff00"><rect height="7.692307692307687e-2" width="9.555016815396344e-2" x="-0.5588996636920731" y="-0.1923076923076923"/></g><g stroke-opacity="0.0" fill-opacity="0.3" stroke="#000000" stroke-width="0.0" fill="#00ff00"><rect height="7.692307692307698e-2" width="9.555016815396344e-2" x="-0.5588996636920731" y="-0.2692307692307693"/></g><g stroke-opacity="0.0" fill-opacity="0.3" stroke="#000000" stroke-width="0.0" fill="#008080"><rect height="7.692307692307698e-2" width="9.555016815396344e-2" x="-0.5588996636920731" y="-0.34615384615384626"/></g><g stroke-opacity="0.0" fill-opacity="0.3" stroke="#000000" stroke-width="0.0" fill="#ff0000"><rect height="7.692307692307687e-2" width="9.555016815396344e-2" x="-0.5588996636920731" y="-0.42307692307692313"/></g><g stroke-opacity="0.0" fill-opacity="0.3" stroke="#000000" stroke-width="0.0" fill="#ff0000"><rect height="7.692307692307687e-2" width="9.555016815396344e-2" x="-0.5588996636920731" y="-0.5"/></g><g stroke-opacity="0.0" fill-opacity="0.3" stroke="#000000" stroke-width="0.0" fill="#00ff00"><rect height="7.692307692307693e-2" width="9.555016815396339e-2" x="-0.46334949553810967" y="0.4230769230769231"/></g><g stroke-opacity="0.0" fill-opacity="0.3" stroke="#000000" stroke-width="0.0" fill="#00ff00"><rect height="7.692307692307693e-2" width="9.555016815396339e-2" x="-0.46334949553810967" y="0.34615384615384615"/></g><g stroke-opacity="0.0" fill-opacity="0.3" stroke="#000000" stroke-width="0.0" fill="#00ff00"><rect height="7.692307692307693e-2" width="9.555016815396339e-2" x="-0.46334949553810967" y="0.2692307692307692"/></g><g stroke-opacity="0.0" fill-opacity="0.3" stroke="#000000" stroke-width="0.0" fill="#00ff00"><rect height="7.692307692307693e-2" width="9.555016815396339e-2" x="-0.46334949553810967" y="0.1923076923076923"/></g><g stroke-opacity="0.0" fill-opacity="0.3" stroke="#000000" stroke-width="0.0" fill="#00ff00"><rect height="7.692307692307693e-2" width="9.555016815396339e-2" x="-0.46334949553810967" y="0.11538461538461536"/></g><g stroke-opacity="0.0" fill-opacity="0.3" stroke="#000000" stroke-width="0.0" fill="#00ff00"><rect height="7.692307692307693e-2" width="9.555016815396339e-2" x="-0.46334949553810967" y="3.8461538461538436e-2"/></g><g stroke-opacity="0.0" fill-opacity="0.3" stroke="#000000" stroke-width="0.0" fill="#00ff00"><rect height="7.692307692307698e-2" width="9.555016815396339e-2" x="-0.46334949553810967" y="-3.846153846153855e-2"/></g><g stroke-opacity="0.0" fill-opacity="0.3" stroke="#000000" stroke-width="0.0" fill="#00ff00"><rect height="7.692307692307687e-2" width="9.555016815396339e-2" x="-0.46334949553810967" y="-0.11538461538461542"/></g><g stroke-opacity="0.0" fill-opacity="0.3" stroke="#000000" stroke-width="0.0" fill="#00ff00"><rect height="7.692307692307687e-2" width="9.555016815396339e-2" x="-0.46334949553810967" y="-0.1923076923076923"/></g><g stroke-opacity="0.0" fill-opacity="0.3" stroke="#000000" stroke-width="0.0" fill="#008080"><rect height="7.692307692307698e-2" width="9.555016815396339e-2" x="-0.46334949553810967" y="-0.2692307692307693"/></g><g stroke-opacity="0.0" fill-opacity="0.3" stroke="#000000" stroke-width="0.0" fill="#ff0000"><rect height="7.692307692307698e-2" width="9.555016815396339e-2" x="-0.46334949553810967" y="-0.34615384615384626"/></g><g stroke-opacity="0.0" fill-opacity="0.3" stroke="#000000" stroke-width="0.0" fill="#ff0000"><rect height="7.692307692307687e-2" width="9.555016815396339e-2" x="-0.46334949553810967" y="-0.42307692307692313"/></g><g stroke-opacity="0.0" fill-opacity="0.3" stroke="#000000" stroke-width="0.0" fill="#ff0000"><rect height="7.692307692307687e-2" width="9.555016815396339e-2" x="-0.46334949553810967" y="-0.5"/></g><g stroke-opacity="0.0" fill-opacity="0.3" stroke="#000000" stroke-width="0.0" fill="#00ff00"><rect height="7.692307692307693e-2" width="9.55501681539635e-2" x="-0.3677993273841463" y="0.4230769230769231"/></g><g stroke-opacity="0.0" fill-opacity="0.3" stroke="#000000" stroke-width="0.0" fill="#00ff00"><rect height="7.692307692307693e-2" width="9.55501681539635e-2" x="-0.3677993273841463" y="0.34615384615384615"/></g><g stroke-opacity="0.0" fill-opacity="0.3" stroke="#000000" stroke-width="0.0" fill="#00ff00"><rect height="7.692307692307693e-2" width="9.55501681539635e-2" x="-0.3677993273841463" y="0.2692307692307692"/></g><g stroke-opacity="0.0" fill-opacity="0.3" stroke="#000000" stroke-width="0.0" fill="#00ff00"><rect height="7.692307692307693e-2" width="9.55501681539635e-2" x="-0.3677993273841463" y="0.1923076923076923"/></g><g stroke-opacity="0.0" fill-opacity="0.3" stroke="#000000" stroke-width="0.0" fill="#00ff00"><rect height="7.692307692307693e-2" width="9.55501681539635e-2" x="-0.3677993273841463" y="0.11538461538461536"/></g><g stroke-opacity="0.0" fill-opacity="0.3" stroke="#000000" stroke-width="0.0" fill="#00ff00"><rect height="7.692307692307693e-2" width="9.55501681539635e-2" x="-0.3677993273841463" y="3.8461538461538436e-2"/></g><g stroke-opacity="0.0" fill-opacity="0.3" stroke="#000000" stroke-width="0.0" fill="#00ff00"><rect height="7.692307692307698e-2" width="9.55501681539635e-2" x="-0.3677993273841463" y="-3.846153846153855e-2"/></g><g stroke-opacity="0.0" fill-opacity="0.3" stroke="#000000" stroke-width="0.0" fill="#00ff00"><rect height="7.692307692307687e-2" width="9.55501681539635e-2" x="-0.3677993273841463" y="-0.11538461538461542"/></g><g stroke-opacity="0.0" fill-opacity="0.3" stroke="#000000" stroke-width="0.0" fill="#008080"><rect height="7.692307692307687e-2" width="9.55501681539635e-2" x="-0.3677993273841463" y="-0.1923076923076923"/></g><g stroke-opacity="0.0" fill-opacity="0.3" stroke="#000000" stroke-width="0.0" fill="#ff0000"><rect height="7.692307692307698e-2" width="9.55501681539635e-2" x="-0.3677993273841463" y="-0.2692307692307693"/></g><g stroke-opacity="0.0" fill-opacity="0.3" stroke="#000000" stroke-width="0.0" fill="#ff0000"><rect height="7.692307692307698e-2" width="9.55501681539635e-2" x="-0.3677993273841463" y="-0.34615384615384626"/></g><g stroke-opacity="0.0" fill-opacity="0.3" stroke="#000000" stroke-width="0.0" fill="#ff0000"><rect height="7.692307692307687e-2" width="9.55501681539635e-2" x="-0.3677993273841463" y="-0.42307692307692313"/></g><g stroke-opacity="0.0" fill-opacity="0.3" stroke="#000000" stroke-width="0.0" fill="#ff0000"><rect height="7.692307692307687e-2" width="9.55501681539635e-2" x="-0.3677993273841463" y="-0.5"/></g><g stroke-opacity="0.0" fill-opacity="0.3" stroke="#000000" stroke-width="0.0" fill="#00ff00"><rect height="7.692307692307693e-2" width="9.555016815396344e-2" x="-0.2722491592301828" y="0.4230769230769231"/></g><g stroke-opacity="0.0" fill-opacity="0.3" stroke="#000000" stroke-width="0.0" fill="#00ff00"><rect height="7.692307692307693e-2" width="9.555016815396344e-2" x="-0.2722491592301828" y="0.34615384615384615"/></g><g stroke-opacity="0.0" fill-opacity="0.3" stroke="#000000" stroke-width="0.0" fill="#00ff00"><rect height="7.692307692307693e-2" width="9.555016815396344e-2" x="-0.2722491592301828" y="0.2692307692307692"/></g><g stroke-opacity="0.0" fill-opacity="0.3" stroke="#000000" stroke-width="0.0" fill="#00ff00"><rect height="7.692307692307693e-2" width="9.555016815396344e-2" x="-0.2722491592301828" y="0.1923076923076923"/></g><g stroke-opacity="0.0" fill-opacity="0.3" stroke="#000000" stroke-width="0.0" fill="#00ff00"><rect height="7.692307692307693e-2" width="9.555016815396344e-2" x="-0.2722491592301828" y="0.11538461538461536"/></g><g stroke-opacity="0.0" fill-opacity="0.3" stroke="#000000" stroke-width="0.0" fill="#00ff00"><rect height="7.692307692307693e-2" width="9.555016815396344e-2" x="-0.2722491592301828" y="3.8461538461538436e-2"/></g><g stroke-opacity="0.0" fill-opacity="0.3" stroke="#000000" stroke-width="0.0" fill="#00ff00"><rect height="7.692307692307698e-2" width="9.555016815396344e-2" x="-0.2722491592301828" y="-3.846153846153855e-2"/></g><g stroke-opacity="0.0" fill-opacity="0.3" stroke="#000000" stroke-width="0.0" fill="#008080"><rect height="7.692307692307687e-2" width="9.555016815396344e-2" x="-0.2722491592301828" y="-0.11538461538461542"/></g><g stroke-opacity="0.0" fill-opacity="0.3" stroke="#000000" stroke-width="0.0" fill="#ff0000"><rect height="7.692307692307687e-2" width="9.555016815396344e-2" x="-0.2722491592301828" y="-0.1923076923076923"/></g><g stroke-opacity="0.0" fill-opacity="0.3" stroke="#000000" stroke-width="0.0" fill="#ff0000"><rect height="7.692307692307698e-2" width="9.555016815396344e-2" x="-0.2722491592301828" y="-0.2692307692307693"/></g><g stroke-opacity="0.0" fill-opacity="0.3" stroke="#000000" stroke-width="0.0" fill="#ff0000"><rect height="7.692307692307698e-2" width="9.555016815396344e-2" x="-0.2722491592301828" y="-0.34615384615384626"/></g><g stroke-opacity="0.0" fill-opacity="0.3" stroke="#000000" stroke-width="0.0" fill="#ff0000"><rect height="7.692307692307687e-2" width="9.555016815396344e-2" x="-0.2722491592301828" y="-0.42307692307692313"/></g><g stroke-opacity="0.0" fill-opacity="0.3" stroke="#000000" stroke-width="0.0" fill="#ff0000"><rect height="7.692307692307687e-2" width="9.555016815396344e-2" x="-0.2722491592301828" y="-0.5"/></g><g stroke-opacity="0.0" fill-opacity="0.3" stroke="#000000" stroke-width="0.0" fill="#00ff00"><rect height="7.692307692307693e-2" width="9.555016815396356e-2" x="-0.17669899107621934" y="0.4230769230769231"/></g><g stroke-opacity="0.0" fill-opacity="0.3" stroke="#000000" stroke-width="0.0" fill="#00ff00"><rect height="7.692307692307693e-2" width="9.555016815396356e-2" x="-0.17669899107621934" y="0.34615384615384615"/></g><g stroke-opacity="0.0" fill-opacity="0.3" stroke="#000000" stroke-width="0.0" fill="#00ff00"><rect height="7.692307692307693e-2" width="9.555016815396356e-2" x="-0.17669899107621934" y="0.2692307692307692"/></g><g stroke-opacity="0.0" fill-opacity="0.3" stroke="#000000" stroke-width="0.0" fill="#00ff00"><rect height="7.692307692307693e-2" width="9.555016815396356e-2" x="-0.17669899107621934" y="0.1923076923076923"/></g><g stroke-opacity="0.0" fill-opacity="0.3" stroke="#000000" stroke-width="0.0" fill="#00ff00"><rect height="7.692307692307693e-2" width="9.555016815396356e-2" x="-0.17669899107621934" y="0.11538461538461536"/></g><g stroke-opacity="0.0" fill-opacity="0.3" stroke="#000000" stroke-width="0.0" fill="#00ff00"><rect height="7.692307692307693e-2" width="9.555016815396356e-2" x="-0.17669899107621934" y="3.8461538461538436e-2"/></g><g stroke-opacity="0.0" fill-opacity="0.3" stroke="#000000" stroke-width="0.0" fill="#008080"><rect height="7.692307692307698e-2" width="9.555016815396356e-2" x="-0.17669899107621934" y="-3.846153846153855e-2"/></g><g stroke-opacity="0.0" fill-opacity="0.3" stroke="#000000" stroke-width="0.0" fill="#ff0000"><rect height="7.692307692307687e-2" width="9.555016815396356e-2" x="-0.17669899107621934" y="-0.11538461538461542"/></g><g stroke-opacity="0.0" fill-opacity="0.3" stroke="#000000" stroke-width="0.0" fill="#ff0000"><rect height="7.692307692307687e-2" width="9.555016815396356e-2" x="-0.17669899107621934" y="-0.1923076923076923"/></g><g stroke-opacity="0.0" fill-opacity="0.3" stroke="#000000" stroke-width="0.0" fill="#ff0000"><rect height="7.692307692307698e-2" width="9.555016815396356e-2" x="-0.17669899107621934" y="-0.2692307692307693"/></g><g stroke-opacity="0.0" fill-opacity="0.3" stroke="#000000" stroke-width="0.0" fill="#ff0000"><rect height="7.692307692307698e-2" width="9.555016815396356e-2" x="-0.17669899107621934" y="-0.34615384615384626"/></g><g stroke-opacity="0.0" fill-opacity="0.3" stroke="#000000" stroke-width="0.0" fill="#ff0000"><rect height="7.692307692307687e-2" width="9.555016815396356e-2" x="-0.17669899107621934" y="-0.42307692307692313"/></g><g stroke-opacity="0.0" fill-opacity="0.3" stroke="#000000" stroke-width="0.0" fill="#ff0000"><rect height="7.692307692307687e-2" width="9.555016815396356e-2" x="-0.17669899107621934" y="-0.5"/></g><g stroke-opacity="0.0" fill-opacity="0.3" stroke="#000000" stroke-width="0.0" fill="#00ff00"><rect height="7.692307692307693e-2" width="9.555016815396322e-2" x="-8.114882292225578e-2" y="0.4230769230769231"/></g><g stroke-opacity="0.0" fill-opacity="0.3" stroke="#000000" stroke-width="0.0" fill="#00ff00"><rect height="7.692307692307693e-2" width="9.555016815396322e-2" x="-8.114882292225578e-2" y="0.34615384615384615"/></g><g stroke-opacity="0.0" fill-opacity="0.3" stroke="#000000" stroke-width="0.0" fill="#00ff00"><rect height="7.692307692307693e-2" width="9.555016815396322e-2" x="-8.114882292225578e-2" y="0.2692307692307692"/></g><g stroke-opacity="0.0" fill-opacity="0.3" stroke="#000000" stroke-width="0.0" fill="#00ff00"><rect height="7.692307692307693e-2" width="9.555016815396322e-2" x="-8.114882292225578e-2" y="0.1923076923076923"/></g><g stroke-opacity="0.0" fill-opacity="0.3" stroke="#000000" stroke-width="0.0" fill="#00ff00"><rect height="7.692307692307693e-2" width="9.555016815396322e-2" x="-8.114882292225578e-2" y="0.11538461538461536"/></g><g stroke-opacity="0.0" fill-opacity="0.3" stroke="#000000" stroke-width="0.0" fill="#008080"><rect height="7.692307692307693e-2" width="9.555016815396322e-2" x="-8.114882292225578e-2" y="3.8461538461538436e-2"/></g><g stroke-opacity="0.0" fill-opacity="0.3" stroke="#000000" stroke-width="0.0" fill="#ff0000"><rect height="7.692307692307698e-2" width="9.555016815396322e-2" x="-8.114882292225578e-2" y="-3.846153846153855e-2"/></g><g stroke-opacity="0.0" fill-opacity="0.3" stroke="#000000" stroke-width="0.0" fill="#ff0000"><rect height="7.692307692307687e-2" width="9.555016815396322e-2" x="-8.114882292225578e-2" y="-0.11538461538461542"/></g><g stroke-opacity="0.0" fill-opacity="0.3" stroke="#000000" stroke-width="0.0" fill="#ff0000"><rect height="7.692307692307687e-2" width="9.555016815396322e-2" x="-8.114882292225578e-2" y="-0.1923076923076923"/></g><g stroke-opacity="0.0" fill-opacity="0.3" stroke="#000000" stroke-width="0.0" fill="#ff0000"><rect height="7.692307692307698e-2" width="9.555016815396322e-2" x="-8.114882292225578e-2" y="-0.2692307692307693"/></g><g stroke-opacity="0.0" fill-opacity="0.3" stroke="#000000" stroke-width="0.0" fill="#ff0000"><rect height="7.692307692307698e-2" width="9.555016815396322e-2" x="-8.114882292225578e-2" y="-0.34615384615384626"/></g><g stroke-opacity="0.0" fill-opacity="0.3" stroke="#000000" stroke-width="0.0" fill="#ff0000"><rect height="7.692307692307687e-2" width="9.555016815396322e-2" x="-8.114882292225578e-2" y="-0.42307692307692313"/></g><g stroke-opacity="0.0" fill-opacity="0.3" stroke="#000000" stroke-width="0.0" fill="#ff0000"><rect height="7.692307692307687e-2" width="9.555016815396322e-2" x="-8.114882292225578e-2" y="-0.5"/></g><g stroke-opacity="0.0" fill-opacity="0.3" stroke="#000000" stroke-width="0.0" fill="#00ff00"><rect height="7.692307692307693e-2" width="9.555016815396356e-2" x="1.440134523170744e-2" y="0.4230769230769231"/></g><g stroke-opacity="0.0" fill-opacity="0.3" stroke="#000000" stroke-width="0.0" fill="#00ff00"><rect height="7.692307692307693e-2" width="9.555016815396356e-2" x="1.440134523170744e-2" y="0.34615384615384615"/></g><g stroke-opacity="0.0" fill-opacity="0.3" stroke="#000000" stroke-width="0.0" fill="#00ff00"><rect height="7.692307692307693e-2" width="9.555016815396356e-2" x="1.440134523170744e-2" y="0.2692307692307692"/></g><g stroke-opacity="0.0" fill-opacity="0.3" stroke="#000000" stroke-width="0.0" fill="#00ff00"><rect height="7.692307692307693e-2" width="9.555016815396356e-2" x="1.440134523170744e-2" y="0.1923076923076923"/></g><g stroke-opacity="0.0" fill-opacity="0.3" stroke="#000000" stroke-width="0.0" fill="#008080"><rect height="7.692307692307693e-2" width="9.555016815396356e-2" x="1.440134523170744e-2" y="0.11538461538461536"/></g><g stroke-opacity="0.0" fill-opacity="0.3" stroke="#000000" stroke-width="0.0" fill="#ff0000"><rect height="7.692307692307693e-2" width="9.555016815396356e-2" x="1.440134523170744e-2" y="3.8461538461538436e-2"/></g><g stroke-opacity="0.0" fill-opacity="0.3" stroke="#000000" stroke-width="0.0" fill="#ff0000"><rect height="7.692307692307698e-2" width="9.555016815396356e-2" x="1.440134523170744e-2" y="-3.846153846153855e-2"/></g><g stroke-opacity="0.0" fill-opacity="0.3" stroke="#000000" stroke-width="0.0" fill="#ff0000"><rect height="7.692307692307687e-2" width="9.555016815396356e-2" x="1.440134523170744e-2" y="-0.11538461538461542"/></g><g stroke-opacity="0.0" fill-opacity="0.3" stroke="#000000" stroke-width="0.0" fill="#ff0000"><rect height="7.692307692307687e-2" width="9.555016815396356e-2" x="1.440134523170744e-2" y="-0.1923076923076923"/></g><g stroke-opacity="0.0" fill-opacity="0.3" stroke="#000000" stroke-width="0.0" fill="#ff0000"><rect height="7.692307692307698e-2" width="9.555016815396356e-2" x="1.440134523170744e-2" y="-0.2692307692307693"/></g><g stroke-opacity="0.0" fill-opacity="0.3" stroke="#000000" stroke-width="0.0" fill="#ff0000"><rect height="7.692307692307698e-2" width="9.555016815396356e-2" x="1.440134523170744e-2" y="-0.34615384615384626"/></g><g stroke-opacity="0.0" fill-opacity="0.3" stroke="#000000" stroke-width="0.0" fill="#ff0000"><rect height="7.692307692307687e-2" width="9.555016815396356e-2" x="1.440134523170744e-2" y="-0.42307692307692313"/></g><g stroke-opacity="0.0" fill-opacity="0.3" stroke="#000000" stroke-width="0.0" fill="#ff0000"><rect height="7.692307692307687e-2" width="9.555016815396356e-2" x="1.440134523170744e-2" y="-0.5"/></g><g stroke-opacity="0.0" fill-opacity="0.3" stroke="#000000" stroke-width="0.0" fill="#00ff00"><rect height="7.692307692307693e-2" width="9.555016815396344e-2" x="0.109951513385671" y="0.4230769230769231"/></g><g stroke-opacity="0.0" fill-opacity="0.3" stroke="#000000" stroke-width="0.0" fill="#00ff00"><rect height="7.692307692307693e-2" width="9.555016815396344e-2" x="0.109951513385671" y="0.34615384615384615"/></g><g stroke-opacity="0.0" fill-opacity="0.3" stroke="#000000" stroke-width="0.0" fill="#00ff00"><rect height="7.692307692307693e-2" width="9.555016815396344e-2" x="0.109951513385671" y="0.2692307692307692"/></g><g stroke-opacity="0.0" fill-opacity="0.3" stroke="#000000" stroke-width="0.0" fill="#008080"><rect height="7.692307692307693e-2" width="9.555016815396344e-2" x="0.109951513385671" y="0.1923076923076923"/></g><g stroke-opacity="0.0" fill-opacity="0.3" stroke="#000000" stroke-width="0.0" fill="#ff0000"><rect height="7.692307692307693e-2" width="9.555016815396344e-2" x="0.109951513385671" y="0.11538461538461536"/></g><g stroke-opacity="0.0" fill-opacity="0.3" stroke="#000000" stroke-width="0.0" fill="#ff0000"><rect height="7.692307692307693e-2" width="9.555016815396344e-2" x="0.109951513385671" y="3.8461538461538436e-2"/></g><g stroke-opacity="0.0" fill-opacity="0.3" stroke="#000000" stroke-width="0.0" fill="#ff0000"><rect height="7.692307692307698e-2" width="9.555016815396344e-2" x="0.109951513385671" y="-3.846153846153855e-2"/></g><g stroke-opacity="0.0" fill-opacity="0.3" stroke="#000000" stroke-width="0.0" fill="#ff0000"><rect height="7.692307692307687e-2" width="9.555016815396344e-2" x="0.109951513385671" y="-0.11538461538461542"/></g><g stroke-opacity="0.0" fill-opacity="0.3" stroke="#000000" stroke-width="0.0" fill="#ff0000"><rect height="7.692307692307687e-2" width="9.555016815396344e-2" x="0.109951513385671" y="-0.1923076923076923"/></g><g stroke-opacity="0.0" fill-opacity="0.3" stroke="#000000" stroke-width="0.0" fill="#ff0000"><rect height="7.692307692307698e-2" width="9.555016815396344e-2" x="0.109951513385671" y="-0.2692307692307693"/></g><g stroke-opacity="0.0" fill-opacity="0.3" stroke="#000000" stroke-width="0.0" fill="#ff0000"><rect height="7.692307692307698e-2" width="9.555016815396344e-2" x="0.109951513385671" y="-0.34615384615384626"/></g><g stroke-opacity="0.0" fill-opacity="0.3" stroke="#000000" stroke-width="0.0" fill="#ff0000"><rect height="7.692307692307687e-2" width="9.555016815396344e-2" x="0.109951513385671" y="-0.42307692307692313"/></g><g stroke-opacity="0.0" fill-opacity="0.3" stroke="#000000" stroke-width="0.0" fill="#ff0000"><rect height="7.692307692307687e-2" width="9.555016815396344e-2" x="0.109951513385671" y="-0.5"/></g><g stroke-opacity="0.0" fill-opacity="0.3" stroke="#000000" stroke-width="0.0" fill="#00ff00"><rect height="7.692307692307693e-2" width="9.555016815396344e-2" x="0.20550168153963444" y="0.4230769230769231"/></g><g stroke-opacity="0.0" fill-opacity="0.3" stroke="#000000" stroke-width="0.0" fill="#00ff00"><rect height="7.692307692307693e-2" width="9.555016815396344e-2" x="0.20550168153963444" y="0.34615384615384615"/></g><g stroke-opacity="0.0" fill-opacity="0.3" stroke="#000000" stroke-width="0.0" fill="#008080"><rect height="7.692307692307693e-2" width="9.555016815396344e-2" x="0.20550168153963444" y="0.2692307692307692"/></g><g stroke-opacity="0.0" fill-opacity="0.3" stroke="#000000" stroke-width="0.0" fill="#ff0000"><rect height="7.692307692307693e-2" width="9.555016815396344e-2" x="0.20550168153963444" y="0.1923076923076923"/></g><g stroke-opacity="0.0" fill-opacity="0.3" stroke="#000000" stroke-width="0.0" fill="#ff0000"><rect height="7.692307692307693e-2" width="9.555016815396344e-2" x="0.20550168153963444" y="0.11538461538461536"/></g><g stroke-opacity="0.0" fill-opacity="0.3" stroke="#000000" stroke-width="0.0" fill="#ff0000"><rect height="7.692307692307693e-2" width="9.555016815396344e-2" x="0.20550168153963444" y="3.8461538461538436e-2"/></g><g stroke-opacity="0.0" fill-opacity="0.3" stroke="#000000" stroke-width="0.0" fill="#ff0000"><rect height="7.692307692307698e-2" width="9.555016815396344e-2" x="0.20550168153963444" y="-3.846153846153855e-2"/></g><g stroke-opacity="0.0" fill-opacity="0.3" stroke="#000000" stroke-width="0.0" fill="#ff0000"><rect height="7.692307692307687e-2" width="9.555016815396344e-2" x="0.20550168153963444" y="-0.11538461538461542"/></g><g stroke-opacity="0.0" fill-opacity="0.3" stroke="#000000" stroke-width="0.0" fill="#ff0000"><rect height="7.692307692307687e-2" width="9.555016815396344e-2" x="0.20550168153963444" y="-0.1923076923076923"/></g><g stroke-opacity="0.0" fill-opacity="0.3" stroke="#000000" stroke-width="0.0" fill="#ff0000"><rect height="7.692307692307698e-2" width="9.555016815396344e-2" x="0.20550168153963444" y="-0.2692307692307693"/></g><g stroke-opacity="0.0" fill-opacity="0.3" stroke="#000000" stroke-width="0.0" fill="#ff0000"><rect height="7.692307692307698e-2" width="9.555016815396344e-2" x="0.20550168153963444" y="-0.34615384615384626"/></g><g stroke-opacity="0.0" fill-opacity="0.3" stroke="#000000" stroke-width="0.0" fill="#ff0000"><rect height="7.692307692307687e-2" width="9.555016815396344e-2" x="0.20550168153963444" y="-0.42307692307692313"/></g><g stroke-opacity="0.0" fill-opacity="0.3" stroke="#000000" stroke-width="0.0" fill="#ff0000"><rect height="7.692307692307687e-2" width="9.555016815396344e-2" x="0.20550168153963444" y="-0.5"/></g><g stroke-opacity="0.0" fill-opacity="0.3" stroke="#000000" stroke-width="0.0" fill="#00ff00"><rect height="7.692307692307693e-2" width="9.555016815396344e-2" x="0.3010518496935979" y="0.4230769230769231"/></g><g stroke-opacity="0.0" fill-opacity="0.3" stroke="#000000" stroke-width="0.0" fill="#008080"><rect height="7.692307692307693e-2" width="9.555016815396344e-2" x="0.3010518496935979" y="0.34615384615384615"/></g><g stroke-opacity="0.0" fill-opacity="0.3" stroke="#000000" stroke-width="0.0" fill="#ff0000"><rect height="7.692307692307693e-2" width="9.555016815396344e-2" x="0.3010518496935979" y="0.2692307692307692"/></g><g stroke-opacity="0.0" fill-opacity="0.3" stroke="#000000" stroke-width="0.0" fill="#ff0000"><rect height="7.692307692307693e-2" width="9.555016815396344e-2" x="0.3010518496935979" y="0.1923076923076923"/></g><g stroke-opacity="0.0" fill-opacity="0.3" stroke="#000000" stroke-width="0.0" fill="#ff0000"><rect height="7.692307692307693e-2" width="9.555016815396344e-2" x="0.3010518496935979" y="0.11538461538461536"/></g><g stroke-opacity="0.0" fill-opacity="0.3" stroke="#000000" stroke-width="0.0" fill="#ff0000"><rect height="7.692307692307693e-2" width="9.555016815396344e-2" x="0.3010518496935979" y="3.8461538461538436e-2"/></g><g stroke-opacity="0.0" fill-opacity="0.3" stroke="#000000" stroke-width="0.0" fill="#ff0000"><rect height="7.692307692307698e-2" width="9.555016815396344e-2" x="0.3010518496935979" y="-3.846153846153855e-2"/></g><g stroke-opacity="0.0" fill-opacity="0.3" stroke="#000000" stroke-width="0.0" fill="#ff0000"><rect height="7.692307692307687e-2" width="9.555016815396344e-2" x="0.3010518496935979" y="-0.11538461538461542"/></g><g stroke-opacity="0.0" fill-opacity="0.3" stroke="#000000" stroke-width="0.0" fill="#ff0000"><rect height="7.692307692307687e-2" width="9.555016815396344e-2" x="0.3010518496935979" y="-0.1923076923076923"/></g><g stroke-opacity="0.0" fill-opacity="0.3" stroke="#000000" stroke-width="0.0" fill="#ff0000"><rect height="7.692307692307698e-2" width="9.555016815396344e-2" x="0.3010518496935979" y="-0.2692307692307693"/></g><g stroke-opacity="0.0" fill-opacity="0.3" stroke="#000000" stroke-width="0.0" fill="#ff0000"><rect height="7.692307692307698e-2" width="9.555016815396344e-2" x="0.3010518496935979" y="-0.34615384615384626"/></g><g stroke-opacity="0.0" fill-opacity="0.3" stroke="#000000" stroke-width="0.0" fill="#ff0000"><rect height="7.692307692307687e-2" width="9.555016815396344e-2" x="0.3010518496935979" y="-0.42307692307692313"/></g><g stroke-opacity="0.0" fill-opacity="0.3" stroke="#000000" stroke-width="0.0" fill="#ff0000"><rect height="7.692307692307687e-2" width="9.555016815396344e-2" x="0.3010518496935979" y="-0.5"/></g><g stroke-opacity="0.0" fill-opacity="0.3" stroke="#000000" stroke-width="0.0" fill="#008080"><rect height="7.692307692307693e-2" width="9.555016815396344e-2" x="0.39660201784756133" y="0.4230769230769231"/></g><g stroke-opacity="0.0" fill-opacity="0.3" stroke="#000000" stroke-width="0.0" fill="#ff0000"><rect height="7.692307692307693e-2" width="9.555016815396344e-2" x="0.39660201784756133" y="0.34615384615384615"/></g><g stroke-opacity="0.0" fill-opacity="0.3" stroke="#000000" stroke-width="0.0" fill="#ff0000"><rect height="7.692307692307693e-2" width="9.555016815396344e-2" x="0.39660201784756133" y="0.2692307692307692"/></g><g stroke-opacity="0.0" fill-opacity="0.3" stroke="#000000" stroke-width="0.0" fill="#ff0000"><rect height="7.692307692307693e-2" width="9.555016815396344e-2" x="0.39660201784756133" y="0.1923076923076923"/></g><g stroke-opacity="0.0" fill-opacity="0.3" stroke="#000000" stroke-width="0.0" fill="#ff0000"><rect height="7.692307692307693e-2" width="9.555016815396344e-2" x="0.39660201784756133" y="0.11538461538461536"/></g><g stroke-opacity="0.0" fill-opacity="0.3" stroke="#000000" stroke-width="0.0" fill="#ff0000"><rect height="7.692307692307693e-2" width="9.555016815396344e-2" x="0.39660201784756133" y="3.8461538461538436e-2"/></g><g stroke-opacity="0.0" fill-opacity="0.3" stroke="#000000" stroke-width="0.0" fill="#ff0000"><rect height="7.692307692307698e-2" width="9.555016815396344e-2" x="0.39660201784756133" y="-3.846153846153855e-2"/></g><g stroke-opacity="0.0" fill-opacity="0.3" stroke="#000000" stroke-width="0.0" fill="#ff0000"><rect height="7.692307692307687e-2" width="9.555016815396344e-2" x="0.39660201784756133" y="-0.11538461538461542"/></g><g stroke-opacity="0.0" fill-opacity="0.3" stroke="#000000" stroke-width="0.0" fill="#ff0000"><rect height="7.692307692307687e-2" width="9.555016815396344e-2" x="0.39660201784756133" y="-0.1923076923076923"/></g><g stroke-opacity="0.0" fill-opacity="0.3" stroke="#000000" stroke-width="0.0" fill="#ff0000"><rect height="7.692307692307698e-2" width="9.555016815396344e-2" x="0.39660201784756133" y="-0.2692307692307693"/></g><g stroke-opacity="0.0" fill-opacity="0.3" stroke="#000000" stroke-width="0.0" fill="#ff0000"><rect height="7.692307692307698e-2" width="9.555016815396344e-2" x="0.39660201784756133" y="-0.34615384615384626"/></g><g stroke-opacity="0.0" fill-opacity="0.3" stroke="#000000" stroke-width="0.0" fill="#ff0000"><rect height="7.692307692307687e-2" width="9.555016815396344e-2" x="0.39660201784756133" y="-0.42307692307692313"/></g><g stroke-opacity="0.0" fill-opacity="0.3" stroke="#000000" stroke-width="0.0" fill="#ff0000"><rect height="7.692307692307687e-2" width="9.555016815396344e-2" x="0.39660201784756133" y="-0.5"/></g><g fill-opacity="1.0" font-size="3.4999999999999996e-2" stroke="none" stroke-width="0.0" fill="#0d0d0d" text-anchor="start"><text x="0.6891345428859252" y="-3.359999999999996e-2">10</text></g><g fill-opacity="1.0" font-size="3.4999999999999996e-2" stroke="none" stroke-width="0.0" fill="#0d0d0d" text-anchor="start"><text x="0.6891345428859252" y="-0.14297499999999996">15</text></g><g fill-opacity="1.0" font-size="3.4999999999999996e-2" stroke="none" stroke-width="0.0" fill="#0d0d0d" text-anchor="start"><text x="0.6891345428859252" y="-0.25234999999999996">20</text></g><g stroke-opacity="0.4" fill-opacity="1.0" stroke="#0d0d0d" stroke-width="2.0e-3" fill="#0d0d0d"><g transform="rotate(-90.0, 0.6360685593477546, -4.3749999999999956e-2)"><polyline points="0.6360685593477546,-3.324999999999996e-2
0.6360685593477546,-5.424999999999995e-2"/></g><g transform="rotate(-90.0, 0.6360685593477546, -0.15312499999999996)"><polyline points="0.6360685593477546,-0.14262499999999995
0.6360685593477546,-0.16362499999999996"/></g><g transform="rotate(-90.0, 0.6360685593477546, -0.26249999999999996)"><polyline points="0.6360685593477546,-0.25199999999999995
0.6360685593477546,-0.27299999999999996"/></g></g><g stroke-opacity="0.0" fill-opacity="0.3" stroke="#000000" stroke-width="0.0" fill="#00fc03"><rect height="3.4999999999999476e-3" width="4.347532651005359e-2" x="0.5838981675356902" y="-3.4999999999999476e-3"/></g><g stroke-opacity="0.0" fill-opacity="0.3" stroke="#000000" stroke-width="0.0" fill="#00f708"><rect height="3.5000000000000586e-3" width="4.347532651005359e-2" x="0.5838981675356902" y="-7.000000000000006e-3"/></g><g stroke-opacity="0.0" fill-opacity="0.3" stroke="#000000" stroke-width="0.0" fill="#00f20d"><rect height="3.4999999999999476e-3" width="4.347532651005359e-2" x="0.5838981675356902" y="-1.0499999999999954e-2"/></g><g stroke-opacity="0.0" fill-opacity="0.3" stroke="#000000" stroke-width="0.0" fill="#00ed12"><rect height="3.5000000000000586e-3" width="4.347532651005359e-2" x="0.5838981675356902" y="-1.4000000000000012e-2"/></g><g stroke-opacity="0.0" fill-opacity="0.3" stroke="#000000" stroke-width="0.0" fill="#00e817"><rect height="3.5000000000000586e-3" width="4.347532651005359e-2" x="0.5838981675356902" y="-1.750000000000007e-2"/></g><g stroke-opacity="0.0" fill-opacity="0.3" stroke="#000000" stroke-width="0.0" fill="#00e31c"><rect height="3.4999999999999476e-3" width="4.347532651005359e-2" x="0.5838981675356902" y="-2.100000000000002e-2"/></g><g stroke-opacity="0.0" fill-opacity="0.3" stroke="#000000" stroke-width="0.0" fill="#00de21"><rect height="3.4999999999999476e-3" width="4.347532651005359e-2" x="0.5838981675356902" y="-2.4499999999999966e-2"/></g><g stroke-opacity="0.0" fill-opacity="0.3" stroke="#000000" stroke-width="0.0" fill="#00d926"><rect height="3.5000000000000586e-3" width="4.347532651005359e-2" x="0.5838981675356902" y="-2.8000000000000025e-2"/></g><g stroke-opacity="0.0" fill-opacity="0.3" stroke="#000000" stroke-width="0.0" fill="#00d42b"><rect height="3.4999999999999476e-3" width="4.347532651005359e-2" x="0.5838981675356902" y="-3.149999999999997e-2"/></g><g stroke-opacity="0.0" fill-opacity="0.3" stroke="#000000" stroke-width="0.0" fill="#00cf30"><rect height="3.5000000000000586e-3" width="4.347532651005359e-2" x="0.5838981675356902" y="-3.500000000000003e-2"/></g><g stroke-opacity="0.0" fill-opacity="0.3" stroke="#000000" stroke-width="0.0" fill="#00c936"><rect height="3.4999999999999476e-3" width="4.347532651005359e-2" x="0.5838981675356902" y="-3.849999999999998e-2"/></g><g stroke-opacity="0.0" fill-opacity="0.3" stroke="#000000" stroke-width="0.0" fill="#00c43b"><rect height="3.5000000000000586e-3" width="4.347532651005359e-2" x="0.5838981675356902" y="-4.200000000000004e-2"/></g><g stroke-opacity="0.0" fill-opacity="0.3" stroke="#000000" stroke-width="0.0" fill="#00bf40"><rect height="3.4999999999999476e-3" width="4.347532651005359e-2" x="0.5838981675356902" y="-4.5499999999999985e-2"/></g><g stroke-opacity="0.0" fill-opacity="0.3" stroke="#000000" stroke-width="0.0" fill="#00ba45"><rect height="3.5000000000000586e-3" width="4.347532651005359e-2" x="0.5838981675356902" y="-4.9000000000000044e-2"/></g><g stroke-opacity="0.0" fill-opacity="0.3" stroke="#000000" stroke-width="0.0" fill="#00b54a"><rect height="3.4999999999999476e-3" width="4.347532651005359e-2" x="0.5838981675356902" y="-5.249999999999999e-2"/></g><g stroke-opacity="0.0" fill-opacity="0.3" stroke="#000000" stroke-width="0.0" fill="#00b04f"><rect height="3.5000000000000586e-3" width="4.347532651005359e-2" x="0.5838981675356902" y="-5.600000000000005e-2"/></g><g stroke-opacity="0.0" fill-opacity="0.3" stroke="#000000" stroke-width="0.0" fill="#00ab54"><rect height="3.4999999999999476e-3" width="4.347532651005359e-2" x="0.5838981675356902" y="-5.95e-2"/></g><g stroke-opacity="0.0" fill-opacity="0.3" stroke="#000000" stroke-width="0.0" fill="#00a659"><rect height="3.4999999999999476e-3" width="4.347532651005359e-2" x="0.5838981675356902" y="-6.299999999999994e-2"/></g><g stroke-opacity="0.0" fill-opacity="0.3" stroke="#000000" stroke-width="0.0" fill="#00a15e"><rect height="3.5000000000000586e-3" width="4.347532651005359e-2" x="0.5838981675356902" y="-6.65e-2"/></g><g stroke-opacity="0.0" fill-opacity="0.3" stroke="#000000" stroke-width="0.0" fill="#009c63"><rect height="3.4999999999999476e-3" width="4.347532651005359e-2" x="0.5838981675356902" y="-6.999999999999995e-2"/></g><g stroke-opacity="0.0" fill-opacity="0.3" stroke="#000000" stroke-width="0.0" fill="#009669"><rect height="3.5000000000000586e-3" width="4.347532651005359e-2" x="0.5838981675356902" y="-7.350000000000001e-2"/></g><g stroke-opacity="0.0" fill-opacity="0.3" stroke="#000000" stroke-width="0.0" fill="#00916e"><rect height="3.4999999999999476e-3" width="4.347532651005359e-2" x="0.5838981675356902" y="-7.699999999999996e-2"/></g><g stroke-opacity="0.0" fill-opacity="0.3" stroke="#000000" stroke-width="0.0" fill="#008c73"><rect height="3.5000000000000586e-3" width="4.347532651005359e-2" x="0.5838981675356902" y="-8.050000000000002e-2"/></g><g stroke-opacity="0.0" fill-opacity="0.3" stroke="#000000" stroke-width="0.0" fill="#008778"><rect height="3.4999999999999476e-3" width="4.347532651005359e-2" x="0.5838981675356902" y="-8.399999999999996e-2"/></g><g stroke-opacity="0.0" fill-opacity="0.3" stroke="#000000" stroke-width="0.0" fill="#00827d"><rect height="3.5000000000000586e-3" width="4.347532651005359e-2" x="0.5838981675356902" y="-8.750000000000002e-2"/></g><g stroke-opacity="0.0" fill-opacity="0.3" stroke="#000000" stroke-width="0.0" fill="#007d82"><rect height="3.4999999999999476e-3" width="4.347532651005359e-2" x="0.5838981675356902" y="-9.099999999999997e-2"/></g><g stroke-opacity="0.0" fill-opacity="0.3" stroke="#000000" stroke-width="0.0" fill="#007887"><rect height="3.5000000000000586e-3" width="4.347532651005359e-2" x="0.5838981675356902" y="-9.450000000000003e-2"/></g><g stroke-opacity="0.0" fill-opacity="0.3" stroke="#000000" stroke-width="0.0" fill="#00738c"><rect height="3.4999999999999476e-3" width="4.347532651005359e-2" x="0.5838981675356902" y="-9.799999999999998e-2"/></g><g stroke-opacity="0.0" fill-opacity="0.3" stroke="#000000" stroke-width="0.0" fill="#006e91"><rect height="3.5000000000000586e-3" width="4.347532651005359e-2" x="0.5838981675356902" y="-0.10150000000000003"/></g><g stroke-opacity="0.0" fill-opacity="0.3" stroke="#000000" stroke-width="0.0" fill="#006996"><rect height="3.4999999999999476e-3" width="4.347532651005359e-2" x="0.5838981675356902" y="-0.10499999999999998"/></g><g stroke-opacity="0.0" fill-opacity="0.3" stroke="#000000" stroke-width="0.0" fill="#00639c"><rect height="3.5000000000000586e-3" width="4.347532651005359e-2" x="0.5838981675356902" y="-0.10850000000000004"/></g><g stroke-opacity="0.0" fill-opacity="0.3" stroke="#000000" stroke-width="0.0" fill="#005ea1"><rect height="3.4999999999999476e-3" width="4.347532651005359e-2" x="0.5838981675356902" y="-0.11199999999999999"/></g><g stroke-opacity="0.0" fill-opacity="0.3" stroke="#000000" stroke-width="0.0" fill="#0059a6"><rect height="3.5000000000000586e-3" width="4.347532651005359e-2" x="0.5838981675356902" y="-0.11550000000000005"/></g><g stroke-opacity="0.0" fill-opacity="0.3" stroke="#000000" stroke-width="0.0" fill="#0054ab"><rect height="3.4999999999999476e-3" width="4.347532651005359e-2" x="0.5838981675356902" y="-0.119"/></g><g stroke-opacity="0.0" fill-opacity="0.3" stroke="#000000" stroke-width="0.0" fill="#004fb0"><rect height="3.5000000000000586e-3" width="4.347532651005359e-2" x="0.5838981675356902" y="-0.12250000000000005"/></g><g stroke-opacity="0.0" fill-opacity="0.3" stroke="#000000" stroke-width="0.0" fill="#004ab5"><rect height="3.4999999999999476e-3" width="4.347532651005359e-2" x="0.5838981675356902" y="-0.126"/></g><g stroke-opacity="0.0" fill-opacity="0.3" stroke="#000000" stroke-width="0.0" fill="#0045ba"><rect height="3.4999999999999476e-3" width="4.347532651005359e-2" x="0.5838981675356902" y="-0.12949999999999995"/></g><g stroke-opacity="0.0" fill-opacity="0.3" stroke="#000000" stroke-width="0.0" fill="#0040bf"><rect height="3.5000000000000586e-3" width="4.347532651005359e-2" x="0.5838981675356902" y="-0.133"/></g><g stroke-opacity="0.0" fill-opacity="0.3" stroke="#000000" stroke-width="0.0" fill="#003bc4"><rect height="3.4999999999999476e-3" width="4.347532651005359e-2" x="0.5838981675356902" y="-0.13649999999999995"/></g><g stroke-opacity="0.0" fill-opacity="0.3" stroke="#000000" stroke-width="0.0" fill="#0036c9"><rect height="3.5000000000000586e-3" width="4.347532651005359e-2" x="0.5838981675356902" y="-0.14"/></g><g stroke-opacity="0.0" fill-opacity="0.3" stroke="#000000" stroke-width="0.0" fill="#0030cf"><rect height="3.4999999999999476e-3" width="4.347532651005359e-2" x="0.5838981675356902" y="-0.14349999999999996"/></g><g stroke-opacity="0.0" fill-opacity="0.3" stroke="#000000" stroke-width="0.0" fill="#002bd4"><rect height="3.5000000000000586e-3" width="4.347532651005359e-2" x="0.5838981675356902" y="-0.14700000000000002"/></g><g stroke-opacity="0.0" fill-opacity="0.3" stroke="#000000" stroke-width="0.0" fill="#0026d9"><rect height="3.4999999999999476e-3" width="4.347532651005359e-2" x="0.5838981675356902" y="-0.15049999999999997"/></g><g stroke-opacity="0.0" fill-opacity="0.3" stroke="#000000" stroke-width="0.0" fill="#0021de"><rect height="3.4999999999999476e-3" width="4.347532651005359e-2" x="0.5838981675356902" y="-0.15399999999999991"/></g><g stroke-opacity="0.0" fill-opacity="0.3" stroke="#000000" stroke-width="0.0" fill="#001ce3"><rect height="3.5000000000000586e-3" width="4.347532651005359e-2" x="0.5838981675356902" y="-0.15749999999999997"/></g><g stroke-opacity="0.0" fill-opacity="0.3" stroke="#000000" stroke-width="0.0" fill="#0017e8"><rect height="3.5000000000000586e-3" width="4.347532651005359e-2" x="0.5838981675356902" y="-0.16100000000000003"/></g><g stroke-opacity="0.0" fill-opacity="0.3" stroke="#000000" stroke-width="0.0" fill="#0012ed"><rect height="3.4999999999999476e-3" width="4.347532651005359e-2" x="0.5838981675356902" y="-0.16449999999999998"/></g><g stroke-opacity="0.0" fill-opacity="0.3" stroke="#000000" stroke-width="0.0" fill="#000df2"><rect height="3.4999999999999476e-3" width="4.347532651005359e-2" x="0.5838981675356902" y="-0.16799999999999993"/></g><g stroke-opacity="0.0" fill-opacity="0.3" stroke="#000000" stroke-width="0.0" fill="#0008f7"><rect height="3.5000000000000586e-3" width="4.347532651005359e-2" x="0.5838981675356902" y="-0.17149999999999999"/></g><g stroke-opacity="0.0" fill-opacity="0.3" stroke="#000000" stroke-width="0.0" fill="#0003fc"><rect height="3.5000000000000586e-3" width="4.347532651005359e-2" x="0.5838981675356902" y="-0.17500000000000004"/></g><g stroke-opacity="0.0" fill-opacity="0.3" stroke="#000000" stroke-width="0.0" fill="#0300fc"><rect height="3.4999999999999476e-3" width="4.347532651005359e-2" x="0.5838981675356902" y="-0.1785"/></g><g stroke-opacity="0.0" fill-opacity="0.3" stroke="#000000" stroke-width="0.0" fill="#0800f7"><rect height="3.4999999999999476e-3" width="4.347532651005359e-2" x="0.5838981675356902" y="-0.18199999999999994"/></g><g stroke-opacity="0.0" fill-opacity="0.3" stroke="#000000" stroke-width="0.0" fill="#0d00f2"><rect height="3.5000000000000586e-3" width="4.347532651005359e-2" x="0.5838981675356902" y="-0.1855"/></g><g stroke-opacity="0.0" fill-opacity="0.3" stroke="#000000" stroke-width="0.0" fill="#1200ed"><rect height="3.5000000000000586e-3" width="4.347532651005359e-2" x="0.5838981675356902" y="-0.18900000000000006"/></g><g stroke-opacity="0.0" fill-opacity="0.3" stroke="#000000" stroke-width="0.0" fill="#1700e8"><rect height="3.4999999999999476e-3" width="4.347532651005359e-2" x="0.5838981675356902" y="-0.1925"/></g><g stroke-opacity="0.0" fill-opacity="0.3" stroke="#000000" stroke-width="0.0" fill="#1c00e3"><rect height="3.4999999999999476e-3" width="4.347532651005359e-2" x="0.5838981675356902" y="-0.19599999999999995"/></g><g stroke-opacity="0.0" fill-opacity="0.3" stroke="#000000" stroke-width="0.0" fill="#2100de"><rect height="3.5000000000000586e-3" width="4.347532651005359e-2" x="0.5838981675356902" y="-0.1995"/></g><g stroke-opacity="0.0" fill-opacity="0.3" stroke="#000000" stroke-width="0.0" fill="#2600d9"><rect height="3.5000000000000586e-3" width="4.347532651005359e-2" x="0.5838981675356902" y="-0.20300000000000007"/></g><g stroke-opacity="0.0" fill-opacity="0.3" stroke="#000000" stroke-width="0.0" fill="#2b00d4"><rect height="3.4999999999998366e-3" width="4.347532651005359e-2" x="0.5838981675356902" y="-0.2064999999999999"/></g><g stroke-opacity="0.0" fill-opacity="0.3" stroke="#000000" stroke-width="0.0" fill="#3000cf"><rect height="3.5000000000000586e-3" width="4.347532651005359e-2" x="0.5838981675356902" y="-0.20999999999999996"/></g><g stroke-opacity="0.0" fill-opacity="0.3" stroke="#000000" stroke-width="0.0" fill="#3600c9"><rect height="3.4999999999999476e-3" width="4.347532651005359e-2" x="0.5838981675356902" y="-0.2134999999999999"/></g><g stroke-opacity="0.0" fill-opacity="0.3" stroke="#000000" stroke-width="0.0" fill="#3b00c4"><rect height="3.5000000000001696e-3" width="4.347532651005359e-2" x="0.5838981675356902" y="-0.21700000000000008"/></g><g stroke-opacity="0.0" fill-opacity="0.3" stroke="#000000" stroke-width="0.0" fill="#4000bf"><rect height="3.4999999999998366e-3" width="4.347532651005359e-2" x="0.5838981675356902" y="-0.22049999999999992"/></g><g stroke-opacity="0.0" fill-opacity="0.3" stroke="#000000" stroke-width="0.0" fill="#4500ba"><rect height="3.5000000000000586e-3" width="4.347532651005359e-2" x="0.5838981675356902" y="-0.22399999999999998"/></g><g stroke-opacity="0.0" fill-opacity="0.3" stroke="#000000" stroke-width="0.0" fill="#4a00b5"><rect height="3.4999999999999476e-3" width="4.347532651005359e-2" x="0.5838981675356902" y="-0.22749999999999992"/></g><g stroke-opacity="0.0" fill-opacity="0.3" stroke="#000000" stroke-width="0.0" fill="#4f00b0"><rect height="3.5000000000001696e-3" width="4.347532651005359e-2" x="0.5838981675356902" y="-0.2310000000000001"/></g><g stroke-opacity="0.0" fill-opacity="0.3" stroke="#000000" stroke-width="0.0" fill="#5400ab"><rect height="3.4999999999998366e-3" width="4.347532651005359e-2" x="0.5838981675356902" y="-0.23449999999999993"/></g><g stroke-opacity="0.0" fill-opacity="0.3" stroke="#000000" stroke-width="0.0" fill="#5900a6"><rect height="3.5000000000000586e-3" width="4.347532651005359e-2" x="0.5838981675356902" y="-0.238"/></g><g stroke-opacity="0.0" fill-opacity="0.3" stroke="#000000" stroke-width="0.0" fill="#5e00a1"><rect height="3.4999999999999476e-3" width="4.347532651005359e-2" x="0.5838981675356902" y="-0.24149999999999994"/></g><g stroke-opacity="0.0" fill-opacity="0.3" stroke="#000000" stroke-width="0.0" fill="#63009c"><rect height="3.5000000000001696e-3" width="4.347532651005359e-2" x="0.5838981675356902" y="-0.2450000000000001"/></g><g stroke-opacity="0.0" fill-opacity="0.3" stroke="#000000" stroke-width="0.0" fill="#690096"><rect height="3.4999999999998366e-3" width="4.347532651005359e-2" x="0.5838981675356902" y="-0.24849999999999994"/></g><g stroke-opacity="0.0" fill-opacity="0.3" stroke="#000000" stroke-width="0.0" fill="#6e0091"><rect height="3.5000000000000586e-3" width="4.347532651005359e-2" x="0.5838981675356902" y="-0.252"/></g><g stroke-opacity="0.0" fill-opacity="0.3" stroke="#000000" stroke-width="0.0" fill="#73008c"><rect height="3.5000000000000586e-3" width="4.347532651005359e-2" x="0.5838981675356902" y="-0.25550000000000006"/></g><g stroke-opacity="0.0" fill-opacity="0.3" stroke="#000000" stroke-width="0.0" fill="#780087"><rect height="3.4999999999999476e-3" width="4.347532651005359e-2" x="0.5838981675356902" y="-0.259"/></g><g stroke-opacity="0.0" fill-opacity="0.3" stroke="#000000" stroke-width="0.0" fill="#7d0082"><rect height="3.4999999999999476e-3" width="4.347532651005359e-2" x="0.5838981675356902" y="-0.26249999999999996"/></g><g stroke-opacity="0.0" fill-opacity="0.3" stroke="#000000" stroke-width="0.0" fill="#82007d"><rect height="3.5000000000000586e-3" width="4.347532651005359e-2" x="0.5838981675356902" y="-0.266"/></g><g stroke-opacity="0.0" fill-opacity="0.3" stroke="#000000" stroke-width="0.0" fill="#870078"><rect height="3.4999999999999476e-3" width="4.347532651005359e-2" x="0.5838981675356902" y="-0.26949999999999996"/></g><g stroke-opacity="0.0" fill-opacity="0.3" stroke="#000000" stroke-width="0.0" fill="#8c0073"><rect height="3.4999999999999476e-3" width="4.347532651005359e-2" x="0.5838981675356902" y="-0.2729999999999999"/></g><g stroke-opacity="0.0" fill-opacity="0.3" stroke="#000000" stroke-width="0.0" fill="#91006e"><rect height="3.5000000000000586e-3" width="4.347532651005359e-2" x="0.5838981675356902" y="-0.27649999999999997"/></g><g stroke-opacity="0.0" fill-opacity="0.3" stroke="#000000" stroke-width="0.0" fill="#960069"><rect height="3.5000000000000586e-3" width="4.347532651005359e-2" x="0.5838981675356902" y="-0.28"/></g><g stroke-opacity="0.0" fill-opacity="0.3" stroke="#000000" stroke-width="0.0" fill="#9c0063"><rect height="3.4999999999999476e-3" width="4.347532651005359e-2" x="0.5838981675356902" y="-0.2835"/></g><g stroke-opacity="0.0" fill-opacity="0.3" stroke="#000000" stroke-width="0.0" fill="#a1005e"><rect height="3.4999999999999476e-3" width="4.347532651005359e-2" x="0.5838981675356902" y="-0.2869999999999999"/></g><g stroke-opacity="0.0" fill-opacity="0.3" stroke="#000000" stroke-width="0.0" fill="#a60059"><rect height="3.5000000000000586e-3" width="4.347532651005359e-2" x="0.5838981675356902" y="-0.2905"/></g><g stroke-opacity="0.0" fill-opacity="0.3" stroke="#000000" stroke-width="0.0" fill="#ab0054"><rect height="3.4999999999999476e-3" width="4.347532651005359e-2" x="0.5838981675356902" y="-0.29399999999999993"/></g><g stroke-opacity="0.0" fill-opacity="0.3" stroke="#000000" stroke-width="0.0" fill="#b0004f"><rect height="3.5000000000000586e-3" width="4.347532651005359e-2" x="0.5838981675356902" y="-0.2975"/></g><g stroke-opacity="0.0" fill-opacity="0.3" stroke="#000000" stroke-width="0.0" fill="#b5004a"><rect height="3.4999999999999476e-3" width="4.347532651005359e-2" x="0.5838981675356902" y="-0.30099999999999993"/></g><g stroke-opacity="0.0" fill-opacity="0.3" stroke="#000000" stroke-width="0.0" fill="#ba0045"><rect height="3.5000000000000586e-3" width="4.347532651005359e-2" x="0.5838981675356902" y="-0.3045"/></g><g stroke-opacity="0.0" fill-opacity="0.3" stroke="#000000" stroke-width="0.0" fill="#bf0040"><rect height="3.4999999999999476e-3" width="4.347532651005359e-2" x="0.5838981675356902" y="-0.30799999999999994"/></g><g stroke-opacity="0.0" fill-opacity="0.3" stroke="#000000" stroke-width="0.0" fill="#c4003b"><rect height="3.5000000000000586e-3" width="4.347532651005359e-2" x="0.5838981675356902" y="-0.3115"/></g><g stroke-opacity="0.0" fill-opacity="0.3" stroke="#000000" stroke-width="0.0" fill="#c90036"><rect height="3.4999999999999476e-3" width="4.347532651005359e-2" x="0.5838981675356902" y="-0.31499999999999995"/></g><g stroke-opacity="0.0" fill-opacity="0.3" stroke="#000000" stroke-width="0.0" fill="#cf0030"><rect height="3.5000000000000586e-3" width="4.347532651005359e-2" x="0.5838981675356902" y="-0.3185"/></g><g stroke-opacity="0.0" fill-opacity="0.3" stroke="#000000" stroke-width="0.0" fill="#d4002b"><rect height="3.4999999999999476e-3" width="4.347532651005359e-2" x="0.5838981675356902" y="-0.32199999999999995"/></g><g stroke-opacity="0.0" fill-opacity="0.3" stroke="#000000" stroke-width="0.0" fill="#d90026"><rect height="3.5000000000000586e-3" width="4.347532651005359e-2" x="0.5838981675356902" y="-0.3255"/></g><g stroke-opacity="0.0" fill-opacity="0.3" stroke="#000000" stroke-width="0.0" fill="#de0021"><rect height="3.4999999999999476e-3" width="4.347532651005359e-2" x="0.5838981675356902" y="-0.32899999999999996"/></g><g stroke-opacity="0.0" fill-opacity="0.3" stroke="#000000" stroke-width="0.0" fill="#e3001c"><rect height="3.5000000000000586e-3" width="4.347532651005359e-2" x="0.5838981675356902" y="-0.3325"/></g><g stroke-opacity="0.0" fill-opacity="0.3" stroke="#000000" stroke-width="0.0" fill="#e80017"><rect height="3.4999999999999476e-3" width="4.347532651005359e-2" x="0.5838981675356902" y="-0.33599999999999997"/></g><g stroke-opacity="0.0" fill-opacity="0.3" stroke="#000000" stroke-width="0.0" fill="#ed0012"><rect height="3.4999999999999476e-3" width="4.347532651005359e-2" x="0.5838981675356902" y="-0.3394999999999999"/></g><g stroke-opacity="0.0" fill-opacity="0.3" stroke="#000000" stroke-width="0.0" fill="#f2000d"><rect height="3.5000000000000586e-3" width="4.347532651005359e-2" x="0.5838981675356902" y="-0.34299999999999997"/></g><g stroke-opacity="0.0" fill-opacity="0.3" stroke="#000000" stroke-width="0.0" fill="#f70008"><rect height="3.5000000000000586e-3" width="4.347532651005359e-2" x="0.5838981675356902" y="-0.34650000000000003"/></g><g stroke-opacity="0.0" fill-opacity="0.3" stroke="#000000" stroke-width="0.0" fill="#fc0003"><rect height="3.4999999999999476e-3" width="4.347532651005359e-2" x="0.5838981675356902" y="-0.35"/></g><g fill-opacity="1.0" font-size="8.399999999999999e-2" stroke="none" stroke-width="0.0" fill="#0d0d0d" text-anchor="start"><text x="0.5838981675356902" y="-0.385"></text></g><g></g></svg>