<svg xmlns="http://www.w3.org/2000/svg" height="300.0" viewBox="-0.845 -0.5519572449482505 1.6524999999999999 1.0982072449482505" width="451.41752823107686" xmlns:xlink="http://www.w3.org/1999/xlink"><g stroke-opacity="5.0e-2" stroke="#0d0d0d" stroke-width="5.0e-3" fill="none"><polyline points="-0.6717739948057857,0.48570724494825046
0.75,0.48570724494825046"/></g><g stroke-opacity="5.0e-2" stroke="#0d0d0d" stroke-width="5.0e-3" fill="none"><polyline points="-0.6717739948057857,0.3871365204534254
0.75,0.3871365204534254"/></g><g stroke-opacity="5.0e-2" stroke="#0d0d0d" stroke-width="5.0e-3" fill="none"><polyline points="-0.6717739948057857,0.2885657959586003
0.75,0.2885657959586003"/></g><g stroke-opacity="5.0e-2" stroke="#0d0d0d" stroke-width="5.0e-3" fill="none"><polyline points="-0.6717739948057857,0.18999507146377526
0.75,0.18999507146377526"/></g><g stroke-opacity="5.0e-2" stroke="#0d0d0d" stroke-width="5.0e-3" fill="none"><polyline points="-0.6717739948057857,9.142434696895019e-2
0.75,9.142434696895019e-2"/></g><g stroke-opacity="5.0e-2" stroke="#0d0d0d" stroke-width="5.0e-3" fill="none"><polyline points="-0.6717739948057857,-7.14637752587477e-3
0.75,-7.14637752587477e-3"/></g><g stroke-opacity="5.0e-2" stroke="#0d0d0d" stroke-width="5.0e-3" fill="none"><polyline points="-0.6717739948057857,-0.10571710202069995
0.75,-0.10571710202069995"/></g><g stroke-opacity="5.0e-2" stroke="#0d0d0d" stroke-width="5.0e-3" fill="none"><polyline points="-0.6717739948057857,-0.20428782651552502
0.75,-0.20428782651552502"/></g><g stroke-opacity="5.0e-2" stroke="#0d0d0d" stroke-width="5.0e-3" fill="none"><polyline points="-0.6717739948057857,-0.30285855101035
0.75,-0.30285855101035"/></g><g stroke-opacity="5.0e-2" stroke="#0d0d0d" stroke-width="5.0e-3" fill="none"><polyline points="-0.6717739948057857,-0.40142927550517504
0.75,-0.40142927550517504"/></g><g stroke-opacity="5.0e-2" stroke="#0d0d0d" stroke-width="5.0e-3" fill="none"><polyline points="-0.6717739948057857,-0.5
0.75,-0.5"/></g><g fill-opacity="1.0" font-size="5.0e-2" stroke="none" stroke-width="0.0" fill="#0d0d0d" text-anchor="end"><text x="-0.75" y="0.5">0</text></g><g fill-opacity="1.0" font-size="5.0e-2" stroke="none" stroke-width="0.0" fill="#0d0d0d" text-anchor="end"><text x="-0.75" y="0.40142927550517504">0.1</text></g><g fill-opacity="1.0" font-size="5.0e-2" stroke="none" stroke-width="0.0" fill="#0d0d0d" text-anchor="end"><text x="-0.75" y="0.3028585510103499">0.2</text></g><g fill-opacity="1.0" font-size="5.0e-2" stroke="none" stroke-width="0.0" fill="#0d0d0d" text-anchor="end"><text x="-0.75" y="0.20428782651552485">0.3</text></g><g fill-opacity="1.0" font-size="5.0e-2" stroke="none" stroke-width="0.0" fill="#0d0d0d" text-anchor="end"><text x="-0.75" y="0.10571710202069984">0.4</text></g><g fill-opacity="1.0" font-size="5.0e-2" stroke="none" stroke-width="0.0" fill="#0d0d0d" text-anchor="end"><text x="-0.75" y="7.14637752587477e-3">0.5</text></g><g fill-opacity="1.0" font-size="5.0e-2" stroke="none" stroke-width="0.0" fill="#0d0d0d" text-anchor="end"><text x="-0.75" y="-9.142434696895041e-2">0.6</text></g><g fill-opacity="1.0" font-size="5.0e-2" stroke="none" stroke-width="0.0" fill="#0d0d0d" text-anchor="end"><text x="-0.75" y="-0.18999507146377526">0.7</text></g><g fill-opacity="1.0" font-size="5.0e-2" stroke="none" stroke-width="0.0" fill="#0d0d0d" text-anchor="end"><text x="-0.75" y="-0.28856579595860044">0.8</text></g><g fill-opacity="1.0" font-size="5.0e-2" stroke="none" stroke-width="0.0" fill="#0d0d0d" text-anchor="end"><text x="-0.75" y="-0.3871365204534253">0.9</text></g><g fill-opacity="1.0" font-size="5.0e-2" stroke="none" stroke-width="0.0" fill="#0d0d0d" text-anchor="end"><text x="-0.75" y="-0.48570724494825046">1</text></g><g stroke-opacity="0.4" fill-opacity="0.4" stroke="#0d0d0d" stroke-width="2.0e-3" fill="#0d0d0d"><g transform="rotate(-90.0, -0.7205882352941176, 0.48570724494825046)"><polyline points="-0.7205882352941176,0.5007072449482505
-0.7205882352941176,0.47070724494825045"/></g><g transform="rotate(-90.0, -0.7205882352941176, 0.3871365204534254)"><polyline points="-0.7205882352941176,0.4021365204534254
-0.7205882352941176,0.3721365204534254"/></g><g transform="rotate(-90.0, -0.7205882352941176, 0.2885657959586003)"><polyline points="-0.7205882352941176,0.30356579595860034
-0.7205882352941176,0.2735657959586003"/></g><g transform="rotate(-90.0, -0.7205882352941176, 0.18999507146377526)"><polyline points="-0.7205882352941176,0.20499507146377527
-0.7205882352941176,0.17499507146377524"/></g><g transform="rotate(-90.0, -0.7205882352941176, 9.142434696895019e-2)"><polyline points="-0.7205882352941176,0.10642434696895019
-0.7205882352941176,7.642434696895019e-2"/></g><g transform="rotate(-90.0, -0.7205882352941176, -7.14637752587477e-3)"><polyline points="-0.7205882352941176,7.85362247412523e-3
-0.7205882352941176,-2.214637752587477e-2"/></g><g transform="rotate(-90.0, -0.7205882352941176, -0.10571710202069995)"><polyline points="-0.7205882352941176,-9.071710202069995e-2
-0.7205882352941176,-0.12071710202069995"/></g><g transform="rotate(-90.0, -0.7205882352941176, -0.20428782651552502)"><polyline points="-0.7205882352941176,-0.189287826515525
-0.7205882352941176,-0.21928782651552503"/></g><g transform="rotate(-90.0, -0.7205882352941176, -0.30285855101035)"><polyline points="-0.7205882352941176,-0.28785855101034996
-0.7205882352941176,-0.31785855101035"/></g><g transform="rotate(-90.0, -0.7205882352941176, -0.40142927550517504)"><polyline points="-0.7205882352941176,-0.38642927550517503
-0.7205882352941176,-0.41642927550517506"/></g><g transform="rotate(-90.0, -0.7205882352941176, -0.5)"><polyline points="-0.7205882352941176,-0.485
-0.7205882352941176,-0.515"/></g></g><g stroke-opacity="0.0" fill-opacity="0.4" stroke="#000000" stroke-width="0.0" fill="#0d0d0d"><rect height="0.9857072449482505" width="3.7913973194820816e-3" x="-0.708740118670736" y="-0.5"/></g><g stroke-opacity="5.0e-2" stroke="#0d0d0d" stroke-width="5.0e-3" fill="none"><polyline points="-0.6717739948057857,0.48570724494825046
0.75,0.48570724494825046"/></g><g stroke-opacity="5.0e-2" stroke="#0d0d0d" stroke-width="5.0e-3" fill="none"><polyline points="-0.6717739948057857,0.3871365204534254
0.75,0.3871365204534254"/></g><g stroke-opacity="5.0e-2" stroke="#0d0d0d" stroke-width="5.0e-3" fill="none"><polyline points="-0.6717739948057857,0.2885657959586003
0.75,0.2885657959586003"/></g><g stroke-opacity="5.0e-2" stroke="#0d0d0d" stroke-width="5.0e-3" fill="none"><polyline points="-0.6717739948057857,0.18999507146377526
0.75,0.18999507146377526"/></g><g stroke-opacity="5.0e-2" stroke="#0d0d0d" stroke-width="5.0e-3" fill="none"><polyline points="-0.6717739948057857,9.142434696895019e-2
0.75,9.142434696895019e-2"/></g><g stroke-opacity="5.0e-2" stroke="#0d0d0d" stroke-width="5.0e-3" fill="none"><polyline points="-0.6717739948057857,-7.14637752587477e-3
0.75,-7.14637752587477e-3"/></g><g stroke-opacity="5.0e-2" stroke="#0d0d0d" stroke-width="5.0e-3" fill="none"><polyline points="-0.6717739948057857,-0.10571710202069995
0.75,-0.10571710202069995"/></g><g stroke-opacity="5.0e-2" stroke="#0d0d0d" stroke-width="5.0e-3" fill="none"><polyline points="-0.6717739948057857,-0.20428782651552502
0.75,-0.20428782651552502"/></g><g stroke-opacity="5.0e-2" stroke="#0d0d0d" stroke-width="5.0e-3" fill="none"><polyline points="-0.6717739948057857,-0.30285855101035
0.75,-0.30285855101035"/></g><g stroke-opacity="5.0e-2" stroke="#0d0d0d" stroke-width="5.0e-3" fill="none"><polyline points="-0.6717739948057857,-0.40142927550517504
0.75,-0.40142927550517504"/></g><g stroke-opacity="5.0e-2" stroke="#0d0d0d" stroke-width="5.0e-3" fill="none"><polyline points="-0.6717739948057857,-0.5
0.75,-0.5"/></g><g fill-opacity="1.0" font-size="5.0e-2" stroke="none" stroke-width="0.0" fill="#0d0d0d" text-anchor="end"><text x="-0.75" y="0.5">0</text></g><g fill-opacity="1.0" font-size="5.0e-2" stroke="none" stroke-width="0.0" fill="#0d0d0d" text-anchor="end"><text x="-0.75" y="0.40142927550517504">0.1</text></g><g fill-opacity="1.0" font-size="5.0e-2" stroke="none" stroke-width="0.0" fill="#0d0d0d" text-anchor="end"><text x="-0.75" y="0.3028585510103499">0.2</text></g><g fill-opacity="1.0" font-size="5.0e-2" stroke="none" stroke-width="0.0" fill="#0d0d0d" text-anchor="end"><text x="-0.75" y="0.20428782651552485">0.3</text></g><g fill-opacity="1.0" font-size="5.0e-2" stroke="none" stroke-width="0.0" fill="#0d0d0d" text-anchor="end"><text x="-0.75" y="0.10571710202069984">0.4</text></g><g fill-opacity="1.0" font-size="5.0e-2" stroke="none" stroke-width="0.0" fill="#0d0d0d" text-anchor="end"><text x="-0.75" y="7.14637752587477e-3">0.5</text></g><g fill-opacity="1.0" font-size="5.0e-2" stroke="none" stroke-width="0.0" fill="#0d0d0d" text-anchor="end"><text x="-0.75" y="-9.142434696895041e-2">0.6</text></g><g fill-opacity="1.0" font-size="5.0e-2" stroke="none" stroke-width="0.0" fill="#0d0d0d" text-anchor="end"><text x="-0.75" y="-0.18999507146377526">0.7</text></g><g fill-opacity="1.0" font-size="5.0e-2" stroke="none" stroke-width="0.0" fill="#0d0d0d" text-anchor="end"><text x="-0.75" y="-0.28856579595860044">0.8</text></g><g fill-opacity="1.0" font-size="5.0e-2" stroke="none" stroke-width="0.0" fill="#0d0d0d" text-anchor="end"><text x="-0.75" y="-0.3871365204534253">0.9</text></g><g fill-opacity="1.0" font-size="5.0e-2" stroke="none" stroke-width="0.0" fill="#0d0d0d" text-anchor="end"><text x="-0.75" y="-0.48570724494825046">1</text></g><g stroke-opacity="0.4" fill-opacity="0.4" stroke="#0d0d0d" stroke-width="2.0e-3" fill="#0d0d0d"><g transform="rotate(-90.0, -0.7205882352941176, 0.48570724494825046)"><polyline points="-0.7205882352941176,0.5007072449482505
-0.7205882352941176,0.47070724494825045"/></g><g transform="rotate(-90.0, -0.7205882352941176, 0.3871365204534254)"><polyline points="-0.7205882352941176,0.4021365204534254
-0.7205882352941176,0.3721365204534254"/></g><g transform="rotate(-90.0, -0.7205882352941176, 0.2885657959586003)"><polyline points="-0.7205882352941176,0.30356579595860034
-0.7205882352941176,0.2735657959586003"/></g><g transform="rotate(-90.0, -0.7205882352941176, 0.18999507146377526)"><polyline points="-0.7205882352941176,0.20499507146377527
-0.7205882352941176,0.17499507146377524"/></g><g transform="rotate(-90.0, -0.7205882352941176, 9.142434696895019e-2)"><polyline points="-0.7205882352941176,0.10642434696895019
-0.7205882352941176,7.642434696895019e-2"/></g><g transform="rotate(-90.0, -0.7205882352941176, -7.14637752587477e-3)"><polyline points="-0.7205882352941176,7.85362247412523e-3
-0.7205882352941176,-2.214637752587477e-2"/></g><g transform="rotate(-90.0, -0.7205882352941176, -0.10571710202069995)"><polyline points="-0.7205882352941176,-9.071710202069995e-2
-0.7205882352941176,-0.12071710202069995"/></g><g transform="rotate(-90.0, -0.7205882352941176, -0.20428782651552502)"><polyline points="-0.7205882352941176,-0.189287826515525
-0.7205882352941176,-0.21928782651552503"/></g><g transform="rotate(-90.0, -0.7205882352941176, -0.30285855101035)"><polyline points="-0.7205882352941176,-0.28785855101034996
-0.7205882352941176,-0.31785855101035"/></g><g transform="rotate(-90.0, -0.7205882352941176, -0.40142927550517504)"><polyline points="-0.7205882352941176,-0.38642927550517503
-0.7205882352941176,-0.41642927550517506"/></g><g transform="rotate(-90.0, -0.7205882352941176, -0.5)"><polyline points="-0.7205882352941176,-0.485
-0.7205882352941176,-0.515"/></g></g><g stroke-opacity="0.0" fill-opacity="0.4" stroke="#000000" stroke-width="0.0" fill="#0d0d0d"><rect height="0.9857072449482505" width="3.7913973194820816e-3" x="-0.708740118670736" y="-0.5"/></g><g fill-opacity="0.1" font-size="5.0e-2" stroke="none" stroke-width="0.0" fill="#0d0d0d" text-anchor="middle"><text x="-0.6717739948057857" y="-0.4211434204041401">KK</text><text x="-0.6633110543605132" y="-0.41128634795465757">AA</text><text x="-0.6548481139152406" y="-0.3620009857072449">QQ</text><text x="-0.646385173469968" y="-0.34228684080828">JJ</text><text x="-0.6379222330246955" y="-0.30285855101035">99</text><text x="-0.629459292579423" y="-0.30285855101035">TT</text><text x="-0.6209963521341505" y="-0.26343026121241997">A5s</text><text x="-0.6125334116888779" y="-0.26343026121241997">A5o</text><text x="-0.6040704712436054" y="-0.2437161163134549">A8s</text><text x="-0.5956075307983328" y="-0.2437161163134549">A9s</text><text x="-0.5871445903530603" y="-0.2437161163134549">A9o</text><text x="-0.5786816499077878" y="-0.2437161163134549">AKo</text><text x="-0.5702187094625153" y="-0.23385904386397227">ATs</text><text x="-0.5617557690172427" y="-0.23385904386397227">AKs</text><text x="-0.5532928285719702" y="-0.23385904386397227">A8o</text><text x="-0.5448298881266977" y="-0.23385904386397227">ATo</text><text x="-0.5363669476814252" y="-0.22400197141448985">A6s</text><text x="-0.5279040072361526" y="-0.22400197141448985">A7s</text><text x="-0.5194410667908802" y="-0.22400197141448985">AQs</text><text x="-0.5109781263456076" y="-0.22400197141448985">A6o</text><text x="-0.502515185900335" y="-0.22400197141448985">A7o</text><text x="-0.49405224545506254" y="-0.22400197141448985">AQo</text><text x="-0.48558930500979003" y="-0.21414489896500744">A3s</text><text x="-0.47712636456451746" y="-0.21414489896500744">A4s</text><text x="-0.46866342411924483" y="-0.21414489896500744">77</text><text x="-0.46020048367397237" y="-0.21414489896500744">88</text><text x="-0.4517375432286997" y="-0.21414489896500744">J9s</text><text x="-0.44327460278342723" y="-0.21414489896500744">J9o</text><text x="-0.4348116623381547" y="-0.21414489896500744">KJs</text><text x="-0.42634872189288225" y="-0.21414489896500744">AJs</text><text x="-0.41788578144760974" y="-0.21414489896500744">KJo</text><text x="-0.40942284100233717" y="-0.21414489896500744">A3o</text><text x="-0.40095990055706454" y="-0.21414489896500744">A4o</text><text x="-0.3924969601117921" y="-0.21414489896500744">AJo</text><text x="-0.3840340196665195" y="-0.20428782651552502">K9s</text><text x="-0.375571079221247" y="-0.20428782651552502">JTs</text><text x="-0.36710813877597454" y="-0.20428782651552502">JTo</text><text x="-0.35864519833070196" y="-0.20428782651552502">K9o</text><text x="-0.3501822578854294" y="-0.1944307540660425">A2s</text><text x="-0.34171931744015693" y="-0.1944307540660425">QJs</text><text x="-0.3332563769948843" y="-0.1944307540660425">QJo</text><text x="-0.32479343654961185" y="-0.1944307540660425">KQs</text><text x="-0.3163304961043393" y="-0.1944307540660425">KQo</text><text x="-0.30786755565906676" y="-0.1944307540660425">A2o</text><text x="-0.29940461521379425" y="-0.17471660916707743">K5s</text><text x="-0.29094167476852156" y="-0.17471660916707743">QTs</text><text x="-0.2824787343232491" y="-0.17471660916707743">KTs</text><text x="-0.2740157938779765" y="-0.17471660916707743">QTo</text><text x="-0.265552853432704" y="-0.17471660916707743">KTo</text><text x="-0.25708991298743156" y="-0.1648595367175949">J7s</text><text x="-0.24862697254215904" y="-0.1648595367175949">K8s</text><text x="-0.24016403209688653" y="-0.1648595367175949">T9s</text><text x="-0.2317010916516139" y="-0.1648595367175949">T9o</text><text x="-0.22323815120634138" y="-0.1648595367175949">J7o</text><text x="-0.21477521076106898" y="-0.1648595367175949">K5o</text><text x="-0.20631227031579624" y="-0.1648595367175949">K8o</text><text x="-0.19784932987052373" y="-0.15500246426811237">J8s</text><text x="-0.18938638942525132" y="-0.15500246426811237">Q9s</text><text x="-0.1809234489799788" y="-0.15500246426811237">J8o</text><text x="-0.17246050853470618" y="-0.15500246426811237">Q9o</text><text x="-0.16399756808943378" y="-0.14514539181862984">K2s</text><text x="-0.15553462764416115" y="-0.14514539181862984">66</text><text x="-0.14707168719888863" y="-0.14514539181862984">K6s</text><text x="-0.1386087467536159" y="-0.14514539181862984">K2o</text><text x="-0.1301458063083435" y="-0.13528831936914743">J5s</text><text x="-0.12168286586307098" y="-0.13528831936914743">K7s</text><text x="-0.11321992541779835" y="-0.13528831936914743">98s</text><text x="-0.10475698497252595" y="-0.13528831936914743">T8s</text><text x="-9.629404452725332e-2" y="-0.13528831936914743">Q8s</text><text x="-8.78311040819808e-2" y="-0.13528831936914743">98o</text><text x="-7.936816363670829e-2" y="-0.13528831936914743">T8o</text><text x="-7.090522319143577e-2" y="-0.13528831936914743">Q8o</text><text x="-6.244228274616326e-2" y="-0.13528831936914743">K6o</text><text x="-5.3979342300890854e-2" y="-0.13528831936914743">K7o</text><text x="-4.551640185561823e-2" y="-0.1254312469196649">K4s</text><text x="-3.705346141034571e-2" y="-0.1254312469196649">T7s</text><text x="-2.8590520965073196e-2" y="-0.1254312469196649">T7o</text><text x="-2.012758051980057e-2" y="-0.1254312469196649">J5o</text><text x="-1.1664640074528054e-2" y="-0.1254312469196649">K4o</text><text x="-3.201699629255539e-3" y="-0.11557417447018237">K3s</text><text x="5.2612408160168656e-3" y="-0.11557417447018237">Q7s</text><text x="1.3724181261289492e-2" y="-0.11557417447018237">Q7o</text><text x="2.218712170656212e-2" y="-0.11557417447018237">K3o</text><text x="3.0650062151834412e-2" y="-0.10571710202069984">J2s</text><text x="3.911300259710715e-2" y="-0.10571710202069984">J4s</text><text x="4.7575943042379665e-2" y="-0.10571710202069984">J4o</text><text x="5.603888348765218e-2" y="-9.586002957121731e-2">44</text><text x="6.45018239329247e-2" y="-9.586002957121731e-2">J6s</text><text x="7.296476437819721e-2" y="-9.586002957121731e-2">Q6s</text><text x="8.142770482346995e-2" y="-9.586002957121731e-2">J2o</text><text x="8.989064526874246e-2" y="-8.600295712173478e-2">Q2s</text><text x="9.835358571401487e-2" y="-8.600295712173478e-2">J3s</text><text x="0.1068165261592875" y="-8.600295712173478e-2">Q5s</text><text x="0.11527946660455979" y="-8.600295712173478e-2">J3o</text><text x="0.12374240704983253" y="-8.600295712173478e-2">J6o</text><text x="0.13220534749510504" y="-8.600295712173478e-2">Q6o</text><text x="0.14066828794037756" y="-7.614588467225236e-2">Q4s</text><text x="0.14913122838565007" y="-7.614588467225236e-2">55</text><text x="0.1575941688309226" y="-7.614588467225236e-2">Q2o</text><text x="0.1660571092761951" y="-7.614588467225236e-2">Q4o</text><text x="0.17452004972146762" y="-7.614588467225236e-2">Q5o</text><text x="0.18298299016674013" y="-6.628881222276994e-2">95s</text><text x="0.19144593061201265" y="-5.6431739773287415e-2">Q3s</text><text x="0.19990887105728516" y="-5.6431739773287415e-2">T5s</text><text x="0.2083718115025578" y="-5.6431739773287415e-2">Q3o</text><text x="0.21683475194783042" y="-4.6574667323804886e-2">33</text><text x="0.22529769239310315" y="-4.6574667323804886e-2">97s</text><text x="0.23376063283837534" y="-4.6574667323804886e-2">95o</text><text x="0.24222357328364796" y="-4.6574667323804886e-2">97o</text><text x="0.25068651372892026" y="-4.6574667323804886e-2">T5o</text><text x="0.2591494541741932" y="-3.671759487432236e-2">93s</text><text x="0.26761239461946573" y="-3.671759487432236e-2">96s</text><text x="0.27607533506473825" y="-3.671759487432236e-2">T6s</text><text x="0.28453827551001054" y="-3.671759487432236e-2">93o</text><text x="0.2930012159552833" y="-2.6860522424839828e-2">T2s</text><text x="0.3014641564005558" y="-2.6860522424839828e-2">T3s</text><text x="0.3099270968458281" y="-2.6860522424839828e-2">T4s</text><text x="0.3183900372911008" y="-2.6860522424839828e-2">87s</text><text x="0.32685297773637334" y="-2.6860522424839828e-2">87o</text><text x="0.33531591818164586" y="-2.6860522424839828e-2">T3o</text><text x="0.34377885862691837" y="-2.6860522424839828e-2">T4o</text><text x="0.3522417990721909" y="-2.6860522424839828e-2">T6o</text><text x="0.3607047395174634" y="-1.70034499753573e-2">22</text><text x="0.3691676799627359" y="-1.70034499753573e-2">92s</text><text x="0.37763062040800843" y="-1.70034499753573e-2">96o</text><text x="0.3860935608532807" y="-1.70034499753573e-2">T2o</text><text x="0.39455650129855346" y="-7.14637752587477e-3">94s</text><text x="0.4030194417438262" y="-7.14637752587477e-3">85s</text><text x="0.4114823821890987" y="-7.14637752587477e-3">85o</text><text x="0.41994532263437123" y="-7.14637752587477e-3">92o</text><text x="0.4284082630796435" y="-7.14637752587477e-3">94o</text><text x="0.4368712035249165" y="2.7106949236076483e-3">86s</text><text x="0.4453341439701888" y="2.7106949236076483e-3">84o</text><text x="0.4537970844154613" y="2.7106949236076483e-3">86o</text><text x="0.4622600248607338" y="1.2567767373090233e-2">84s</text><text x="0.4707229653060063" y="4.213898472153771e-2">83s</text><text x="0.47918590575127906" y="4.213898472153771e-2">74s</text><text x="0.48764884619655136" y="4.213898472153771e-2">65s</text><text x="0.4961117866418241" y="4.213898472153771e-2">83o</text><text x="0.5045747270870964" y="5.199605717102018e-2">65o</text><text x="0.5130376675323691" y="5.199605717102018e-2">76s</text><text x="0.5215006079776414" y="5.199605717102018e-2">74o</text><text x="0.5299635484229139" y="6.185312962050271e-2">54s</text><text x="0.5384264888681867" y="6.185312962050271e-2">75s</text><text x="0.5468894293134592" y="6.185312962050271e-2">76o</text><text x="0.5553523697587315" y="7.171020206998524e-2">75o</text><text x="0.5638153102040042" y="8.156727451946771e-2">62s</text><text x="0.5722782506492767" y="8.156727451946771e-2">72s</text><text x="0.5807411910945495" y="8.156727451946771e-2">82s</text><text x="0.5892041315398218" y="8.156727451946771e-2">54o</text><text x="0.5976670719850943" y="9.142434696895019e-2">62o</text><text x="0.6061300124303668" y="9.142434696895019e-2">72o</text><text x="0.6145929528756395" y="9.142434696895019e-2">82o</text><text x="0.6230558933209118" y="0.10128141941843272">32s</text><text x="0.6315188337661846" y="0.10128141941843272">32o</text><text x="0.6399817742114571" y="0.10128141941843272">73s</text><text x="0.6484447146567294" y="0.10128141941843272">73o</text><text x="0.6569076551020021" y="0.11113849186791525">52s</text><text x="0.6653705955472744" y="0.11113849186791525">64s</text><text x="0.6738335359925471" y="0.11113849186791525">52o</text><text x="0.6822964764378197" y="0.12099556431739772">53s</text><text x="0.6907594168830924" y="0.12099556431739772">53o</text><text x="0.6992223573283645" y="0.12099556431739772">64o</text><text x="0.7076852977736374" y="0.14070970921636272">43s</text><text x="0.7161482382189097" y="0.14070970921636272">63s</text><text x="0.7246111786641825" y="0.14070970921636272">43o</text><text x="0.733074119109455" y="0.14070970921636272">63o</text><text x="0.7415370595547273" y="0.15056678166584525">42s</text><text x="0.75" y="0.15056678166584525">42o</text></g><g fill-opacity="0.1" font-size="5.0e-2" stroke="none" stroke-width="0.0" fill="#0d0d0d" text-anchor="middle"><text x="-0.6717739948057857" y="-7.14637752587477e-3">AA</text><text x="-0.6633110543605132" y="0.13085263676688025">QQ</text><text x="-0.6548481139152406" y="0.13085263676688025">KK</text><text x="-0.646385173469968" y="0.19985214391325778">KJs</text><text x="-0.6379222330246955" y="0.20970921636274026">AJs</text><text x="-0.629459292579423" y="0.2195662888122228">KJo</text><text x="-0.6209963521341505" y="0.2392804337111878">TT</text><text x="-0.6125334116888779" y="0.2392804337111878">QJs</text><text x="-0.6040704712436054" y="0.2392804337111878">QJo</text><text x="-0.5956075307983328" y="0.2392804337111878">AJo</text><text x="-0.5871445903530603" y="0.25899457861015285">JJ</text><text x="-0.5786816499077878" y="0.25899457861015285">AQs</text><text x="-0.5702187094625153" y="0.2688516510596354">AQo</text><text x="-0.5617557690172427" y="0.2885657959586003">AKo</text><text x="-0.5532928285719702" y="0.2984228684080828">66</text><text x="-0.5448298881266977" y="0.2984228684080828">QTs</text><text x="-0.5363669476814252" y="0.2984228684080828">AKs</text><text x="-0.5279040072361526" y="0.3082799408575654">J7s</text><text x="-0.5194410667908802" y="0.3082799408575654">99</text><text x="-0.5109781263456076" y="0.3082799408575654">JTs</text><text x="-0.502515185900335" y="0.3082799408575654">QTo</text><text x="-0.49405224545506254" y="0.3082799408575654">KQs</text><text x="-0.48558930500979003" y="0.3181370133070478">85s</text><text x="-0.47712636456451746" y="0.3181370133070478">85o</text><text x="-0.46866342411924483" y="0.3181370133070478">88</text><text x="-0.46020048367397237" y="0.3181370133070478">ATs</text><text x="-0.4517375432286997" y="0.3181370133070478">J7o</text><text x="-0.44327460278342723" y="0.3181370133070478">JTo</text><text x="-0.4348116623381547" y="0.3181370133070478">KQo</text><text x="-0.42634872189288225" y="0.32799408575653033">77</text><text x="-0.41788578144760974" y="0.32799408575653033">Q7s</text><text x="-0.40942284100233717" y="0.32799408575653033">A8s</text><text x="-0.40095990055706454" y="0.32799408575653033">KTs</text><text x="-0.3924969601117921" y="0.32799408575653033">J8o</text><text x="-0.3840340196665195" y="0.32799408575653033">Q7o</text><text x="-0.375571079221247" y="0.33785115820601286">53s</text><text x="-0.36710813877597454" y="0.33785115820601286">63s</text><text x="-0.35864519833070196" y="0.33785115820601286">Q3s</text><text x="-0.3501822578854294" y="0.33785115820601286">44</text><text x="-0.34171931744015693" y="0.33785115820601286">Q5s</text><text x="-0.3332563769948843" y="0.33785115820601286">63o</text><text x="-0.32479343654961185" y="0.33785115820601286">Q6s</text><text x="-0.3163304961043393" y="0.33785115820601286">87s</text><text x="-0.30786755565906676" y="0.33785115820601286">J8s</text><text x="-0.29940461521379425" y="0.33785115820601286">Q8s</text><text x="-0.29094167476852156" y="0.33785115820601286">Q3o</text><text x="-0.2824787343232491" y="0.33785115820601286">Q5o</text><text x="-0.2740157938779765" y="0.33785115820601286">ATo</text><text x="-0.265552853432704" y="0.34770823065549533">53o</text><text x="-0.25708991298743156" y="0.34770823065549533">J5s</text><text x="-0.24862697254215904" y="0.34770823065549533">76s</text><text x="-0.24016403209688653" y="0.34770823065549533">86s</text><text x="-0.2317010916516139" y="0.34770823065549533">A7s</text><text x="-0.22323815120634138" y="0.34770823065549533">86o</text><text x="-0.21477521076106898" y="0.34770823065549533">87o</text><text x="-0.20631227031579624" y="0.34770823065549533">J9o</text><text x="-0.19784932987052373" y="0.34770823065549533">Q6o</text><text x="-0.18938638942525132" y="0.34770823065549533">Q8o</text><text x="-0.1809234489799788" y="0.34770823065549533">KTo</text><text x="-0.17246050853470618" y="0.34770823065549533">A7o</text><text x="-0.16399756808943378" y="0.3575653031049778">83s</text><text x="-0.15553462764416115" y="0.3575653031049778">65s</text><text x="-0.14707168719888863" y="0.3575653031049778">65o</text><text x="-0.1386087467536159" y="0.3575653031049778">76o</text><text x="-0.1301458063083435" y="0.3575653031049778">K7s</text><text x="-0.12168286586307098" y="0.3575653031049778">98s</text><text x="-0.11321992541779835" y="0.3575653031049778">T8s</text><text x="-0.10475698497252595" y="0.3575653031049778">98o</text><text x="-9.629404452725332e-2" y="0.3575653031049778">K7o</text><text x="-8.78311040819808e-2" y="0.3575653031049778">A5o</text><text x="-7.936816363670829e-2" y="0.3575653031049778">A8o</text><text x="-7.090522319143577e-2" y="0.3674223755544604">22</text><text x="-6.244228274616326e-2" y="0.3674223755544604">52s</text><text x="-5.3979342300890854e-2" y="0.3674223755544604">Q2s</text><text x="-4.551640185561823e-2" y="0.3674223755544604">A3s</text><text x="-3.705346141034571e-2" y="0.3674223755544604">T5s</text><text x="-2.8590520965073196e-2" y="0.3674223755544604">A5s</text><text x="-2.012758051980057e-2" y="0.3674223755544604">J6s</text><text x="-1.1664640074528054e-2" y="0.3674223755544604">A6s</text><text x="-3.201699629255539e-3" y="0.3674223755544604">97s</text><text x="5.2612408160168656e-3" y="0.3674223755544604">T7s</text><text x="1.3724181261289492e-2" y="0.3674223755544604">83o</text><text x="2.218712170656212e-2" y="0.3674223755544604">J9s</text><text x="3.0650062151834412e-2" y="0.3674223755544604">Q9s</text><text x="3.911300259710715e-2" y="0.3674223755544604">K9s</text><text x="4.7575943042379665e-2" y="0.3674223755544604">A9s</text><text x="5.603888348765218e-2" y="0.3674223755544604">T8o</text><text x="6.45018239329247e-2" y="0.3674223755544604">J5o</text><text x="7.296476437819721e-2" y="0.3674223755544604">Q2o</text><text x="8.142770482346995e-2" y="0.3674223755544604">Q9o</text><text x="8.989064526874246e-2" y="0.3674223755544604">A3o</text><text x="9.835358571401487e-2" y="0.3674223755544604">A6o</text><text x="0.1068165261592875" y="0.37727944800394286">A2s</text><text x="0.11527946660455979" y="0.37727944800394286">73s</text><text x="0.12374240704983253" y="0.37727944800394286">J3s</text><text x="0.13220534749510504" y="0.37727944800394286">Q4s</text><text x="0.14066828794037756" y="0.37727944800394286">52o</text><text x="0.14913122838565007" y="0.37727944800394286">55</text><text x="0.1575941688309226" y="0.37727944800394286">95s</text><text x="0.1660571092761951" y="0.37727944800394286">K5s</text><text x="0.17452004972146762" y="0.37727944800394286">K8s</text><text x="0.18298299016674013" y="0.37727944800394286">T5o</text><text x="0.19144593061201265" y="0.37727944800394286">T7o</text><text x="0.19990887105728516" y="0.37727944800394286">J3o</text><text x="0.2083718115025578" y="0.37727944800394286">J6o</text><text x="0.21683475194783042" y="0.37727944800394286">Q4o</text><text x="0.22529769239310315" y="0.37727944800394286">K5o</text><text x="0.23376063283837534" y="0.37727944800394286">A2o</text><text x="0.24222357328364796" y="0.37727944800394286">A9o</text><text x="0.25068651372892026" y="0.3871365204534254">J2s</text><text x="0.2591494541741932" y="0.3871365204534254">43s</text><text x="0.26761239461946573" y="0.3871365204534254">T3s</text><text x="0.27607533506473825" y="0.3871365204534254">K3s</text><text x="0.28453827551001054" y="0.3871365204534254">43o</text><text x="0.2930012159552833" y="0.3871365204534254">T4s</text><text x="0.3014641564005558" y="0.3871365204534254">75s</text><text x="0.3099270968458281" y="0.3871365204534254">T6s</text><text x="0.3183900372911008" y="0.3871365204534254">73o</text><text x="0.32685297773637334" y="0.3871365204534254">75o</text><text x="0.33531591818164586" y="0.3871365204534254">97o</text><text x="0.34377885862691837" y="0.3871365204534254">T3o</text><text x="0.3522417990721909" y="0.3871365204534254">T4o</text><text x="0.3607047395174634" y="0.3871365204534254">T6o</text><text x="0.3691676799627359" y="0.3871365204534254">J2o</text><text x="0.37763062040800843" y="0.3871365204534254">K3o</text><text x="0.3860935608532807" y="0.3871365204534254">K9o</text><text x="0.39455650129855346" y="0.3969935929029079">72s</text><text x="0.4030194417438262" y="0.3969935929029079">93s</text><text x="0.4114823821890987" y="0.3969935929029079">64s</text><text x="0.41994532263437123" y="0.3969935929029079">J4s</text><text x="0.4284082630796435" y="0.3969935929029079">64o</text><text x="0.4368712035249165" y="0.3969935929029079">96s</text><text x="0.4453341439701888" y="0.3969935929029079">K6s</text><text x="0.4537970844154613" y="0.3969935929029079">95o</text><text x="0.4622600248607338" y="0.3969935929029079">T9o</text><text x="0.4707229653060063" y="0.3969935929029079">J4o</text><text x="0.47918590575127906" y="0.3969935929029079">K6o</text><text x="0.48764884619655136" y="0.40685066535239034">82s</text><text x="0.4961117866418241" y="0.40685066535239034">T2s</text><text x="0.5045747270870964" y="0.40685066535239034">K2s</text><text x="0.5130376675323691" y="0.40685066535239034">33</text><text x="0.5215006079776414" y="0.40685066535239034">72o</text><text x="0.5299635484229139" y="0.40685066535239034">93o</text><text x="0.5384264888681867" y="0.40685066535239034">T9s</text><text x="0.5468894293134592" y="0.40685066535239034">T2o</text><text x="0.5553523697587315" y="0.40685066535239034">K2o</text><text x="0.5638153102040042" y="0.40685066535239034">K8o</text><text x="0.5722782506492767" y="0.41670773780187287">62s</text><text x="0.5807411910945495" y="0.41670773780187287">54s</text><text x="0.5892041315398218" y="0.41670773780187287">74s</text><text x="0.5976670719850943" y="0.41670773780187287">84s</text><text x="0.6061300124303668" y="0.41670773780187287">A4s</text><text x="0.6145929528756395" y="0.41670773780187287">54o</text><text x="0.6230558933209118" y="0.41670773780187287">62o</text><text x="0.6315188337661846" y="0.41670773780187287">74o</text><text x="0.6399817742114571" y="0.41670773780187287">82o</text><text x="0.6484447146567294" y="0.41670773780187287">84o</text><text x="0.6569076551020021" y="0.41670773780187287">96o</text><text x="0.6653705955472744" y="0.41670773780187287">A4o</text><text x="0.6738335359925471" y="0.4265648102513554">92s</text><text x="0.6822964764378197" y="0.4364218827008379">32s</text><text x="0.6907594168830924" y="0.4364218827008379">32o</text><text x="0.6992223573283645" y="0.4364218827008379">92o</text><text x="0.7076852977736374" y="0.4462789551503204">42s</text><text x="0.7161482382189097" y="0.4462789551503204">42o</text><text x="0.7246111786641825" y="0.4462789551503204">94s</text><text x="0.733074119109455" y="0.4462789551503204">94o</text><text x="0.7415370595547273" y="0.4462789551503204">K4o</text><text x="0.75" y="0.4561360275998029">K4s</text></g><g></g></svg>