<svg xmlns="http://www.w3.org/2000/svg" height="300.0" viewBox="-0.845 -0.5519572449482505 1.6524999999999999 1.0982072449482505" width="451.41752823107686" xmlns:xlink="http://www.w3.org/1999/xlink"><g stroke-opacity="5.0e-2" stroke="#0d0d0d" stroke-width="5.0e-3" fill="none"><polyline points="-0.6717739948057857,0.48570724494825046
0.75,0.48570724494825046"/></g><g stroke-opacity="5.0e-2" stroke="#0d0d0d" stroke-width="5.0e-3" fill="none"><polyline points="-0.6717739948057857,0.3448919242413575
0.75,0.3448919242413575"/></g><g stroke-opacity="5.0e-2" stroke="#0d0d0d" stroke-width="5.0e-3" fill="none"><polyline points="-0.6717739948057857,0.20407660353446466
0.75,0.20407660353446466"/></g><g stroke-opacity="5.0e-2" stroke="#0d0d0d" stroke-width="5.0e-3" fill="none"><polyline points="-0.6717739948057857,6.326128282757154e-2
0.75,6.326128282757154e-2"/></g><g stroke-opacity="5.0e-2" stroke="#0d0d0d" stroke-width="5.0e-3" fill="none"><polyline points="-0.6717739948057857,-7.755403787932136e-2
0.75,-7.755403787932136e-2"/></g><g stroke-opacity="5.0e-2" stroke="#0d0d0d" stroke-width="5.0e-3" fill="none"><polyline points="-0.6717739948057857,-0.2183693585862142
0.75,-0.2183693585862142"/></g><g stroke-opacity="5.0e-2" stroke="#0d0d0d" stroke-width="5.0e-3" fill="none"><polyline points="-0.6717739948057857,-0.35918467929310727
0.75,-0.35918467929310727"/></g><g stroke-opacity="5.0e-2" stroke="#0d0d0d" stroke-width="5.0e-3" fill="none"><polyline points="-0.6717739948057857,-0.5
0.75,-0.5"/></g><g fill-opacity="1.0" font-size="5.0e-2" stroke="none" stroke-width="0.0" fill="#0d0d0d" text-anchor="end"><text x="-0.75" y="0.5">0.3</text></g><g fill-opacity="1.0" font-size="5.0e-2" stroke="none" stroke-width="0.0" fill="#0d0d0d" text-anchor="end"><text x="-0.75" y="0.3591846792931072">0.4</text></g><g fill-opacity="1.0" font-size="5.0e-2" stroke="none" stroke-width="0.0" fill="#0d0d0d" text-anchor="end"><text x="-0.75" y="0.21836935858621426">0.5</text></g><g fill-opacity="1.0" font-size="5.0e-2" stroke="none" stroke-width="0.0" fill="#0d0d0d" text-anchor="end"><text x="-0.75" y="7.755403787932119e-2">0.6</text></g><g fill-opacity="1.0" font-size="5.0e-2" stroke="none" stroke-width="0.0" fill="#0d0d0d" text-anchor="end"><text x="-0.75" y="-6.326128282757182e-2">0.7</text></g><g fill-opacity="1.0" font-size="5.0e-2" stroke="none" stroke-width="0.0" fill="#0d0d0d" text-anchor="end"><text x="-0.75" y="-0.20407660353446455">0.8</text></g><g fill-opacity="1.0" font-size="5.0e-2" stroke="none" stroke-width="0.0" fill="#0d0d0d" text-anchor="end"><text x="-0.75" y="-0.3448919242413576">0.9</text></g><g fill-opacity="1.0" font-size="5.0e-2" stroke="none" stroke-width="0.0" fill="#0d0d0d" text-anchor="end"><text x="-0.75" y="-0.48570724494825046">1</text></g><g stroke-opacity="0.4" fill-opacity="0.4" stroke="#0d0d0d" stroke-width="2.0e-3" fill="#0d0d0d"><g transform="rotate(-90.0, -0.7205882352941176, 0.48570724494825046)"><polyline points="-0.7205882352941176,0.5007072449482505
-0.7205882352941176,0.47070724494825045"/></g><g transform="rotate(-90.0, -0.7205882352941176, 0.3448919242413575)"><polyline points="-0.7205882352941176,0.3598919242413575
-0.7205882352941176,0.3298919242413575"/></g><g transform="rotate(-90.0, -0.7205882352941176, 0.20407660353446466)"><polyline points="-0.7205882352941176,0.21907660353446468
-0.7205882352941176,0.18907660353446465"/></g><g transform="rotate(-90.0, -0.7205882352941176, 6.326128282757154e-2)"><polyline points="-0.7205882352941176,7.826128282757154e-2
-0.7205882352941176,4.826128282757154e-2"/></g><g transform="rotate(-90.0, -0.7205882352941176, -7.755403787932136e-2)"><polyline points="-0.7205882352941176,-6.255403787932136e-2
-0.7205882352941176,-9.255403787932136e-2"/></g><g transform="rotate(-90.0, -0.7205882352941176, -0.2183693585862142)"><polyline points="-0.7205882352941176,-0.2033693585862142
-0.7205882352941176,-0.23336935858621422"/></g><g transform="rotate(-90.0, -0.7205882352941176, -0.35918467929310727)"><polyline points="-0.7205882352941176,-0.34418467929310725
-0.7205882352941176,-0.3741846792931073"/></g><g transform="rotate(-90.0, -0.7205882352941176, -0.5)"><polyline points="-0.7205882352941176,-0.485
-0.7205882352941176,-0.515"/></g></g><g stroke-opacity="0.0" fill-opacity="0.4" stroke="#000000" stroke-width="0.0" fill="#0d0d0d"><rect height="0.9857072449482505" width="3.7913973194820816e-3" x="-0.708740118670736" y="-0.5"/></g><g fill-opacity="0.1" font-size="5.0e-2" stroke="none" stroke-width="0.0" fill="#0d0d0d" text-anchor="middle"><text x="-0.6717739948057857" y="-0.38734774343448564">KK</text><text x="-0.6633110543605132" y="-0.37326621136379645">AA</text><text x="-0.6548481139152406" y="-0.30285855101034986">QQ</text><text x="-0.646385173469968" y="-0.2746954868689713">JJ</text><text x="-0.6379222330246955" y="-0.2183693585862142">99</text><text x="-0.629459292579423" y="-0.2183693585862142">TT</text><text x="-0.6209963521341505" y="-0.16204323030345702">A5s</text><text x="-0.6125334116888779" y="-0.16204323030345702">A5o</text><text x="-0.6040704712436054" y="-0.13388016616207843">A8s</text><text x="-0.5956075307983328" y="-0.13388016616207843">A9s</text><text x="-0.5871445903530603" y="-0.13388016616207843">A9o</text><text x="-0.5786816499077878" y="-0.13388016616207843">AKo</text><text x="-0.5702187094625153" y="-0.11979863409138913">ATs</text><text x="-0.5617557690172427" y="-0.11979863409138913">AKs</text><text x="-0.5532928285719702" y="-0.11979863409138913">A8o</text><text x="-0.5448298881266977" y="-0.11979863409138913">ATo</text><text x="-0.5363669476814252" y="-0.10571710202069973">A6s</text><text x="-0.5279040072361526" y="-0.10571710202069973">A7s</text><text x="-0.5194410667908802" y="-0.10571710202069973">AQs</text><text x="-0.5109781263456076" y="-0.10571710202069973">A6o</text><text x="-0.502515185900335" y="-0.10571710202069973">A7o</text><text x="-0.49405224545506254" y="-0.10571710202069973">AQo</text><text x="-0.48558930500979003" y="-9.163556995001054e-2">A3s</text><text x="-0.47712636456451746" y="-9.163556995001054e-2">A4s</text><text x="-0.46866342411924483" y="-9.163556995001054e-2">77</text><text x="-0.46020048367397237" y="-9.163556995001054e-2">88</text><text x="-0.4517375432286997" y="-9.163556995001054e-2">J9s</text><text x="-0.44327460278342723" y="-9.163556995001054e-2">J9o</text><text x="-0.4348116623381547" y="-9.163556995001054e-2">KJs</text><text x="-0.42634872189288225" y="-9.163556995001054e-2">AJs</text><text x="-0.41788578144760974" y="-9.163556995001054e-2">KJo</text><text x="-0.40942284100233717" y="-9.163556995001054e-2">A3o</text><text x="-0.40095990055706454" y="-9.163556995001054e-2">A4o</text><text x="-0.3924969601117921" y="-9.163556995001054e-2">AJo</text><text x="-0.3840340196665195" y="-7.755403787932136e-2">K9s</text><text x="-0.375571079221247" y="-7.755403787932136e-2">JTs</text><text x="-0.36710813877597454" y="-7.755403787932136e-2">JTo</text><text x="-0.35864519833070196" y="-7.755403787932136e-2">K9o</text><text x="-0.3501822578854294" y="-6.347250580863206e-2">A2s</text><text x="-0.34171931744015693" y="-6.347250580863206e-2">QJs</text><text x="-0.3332563769948843" y="-6.347250580863206e-2">QJo</text><text x="-0.32479343654961185" y="-6.347250580863206e-2">KQs</text><text x="-0.3163304961043393" y="-6.347250580863206e-2">KQo</text><text x="-0.30786755565906676" y="-6.347250580863206e-2">A2o</text><text x="-0.29940461521379425" y="-3.530944166725336e-2">K5s</text><text x="-0.29094167476852156" y="-3.530944166725336e-2">QTs</text><text x="-0.2824787343232491" y="-3.530944166725336e-2">KTs</text><text x="-0.2740157938779765" y="-3.530944166725336e-2">QTo</text><text x="-0.265552853432704" y="-3.530944166725336e-2">KTo</text><text x="-0.25708991298743156" y="-2.1227909596564065e-2">J7s</text><text x="-0.24862697254215904" y="-2.1227909596564065e-2">K8s</text><text x="-0.24016403209688653" y="-2.1227909596564065e-2">T9s</text><text x="-0.2317010916516139" y="-2.1227909596564065e-2">T9o</text><text x="-0.22323815120634138" y="-2.1227909596564065e-2">J7o</text><text x="-0.21477521076106898" y="-2.1227909596564065e-2">K5o</text><text x="-0.20631227031579624" y="-2.1227909596564065e-2">K8o</text><text x="-0.19784932987052373" y="-7.14637752587477e-3">J8s</text><text x="-0.18938638942525132" y="-7.14637752587477e-3">Q9s</text><text x="-0.1809234489799788" y="-7.14637752587477e-3">J8o</text><text x="-0.17246050853470618" y="-7.14637752587477e-3">Q9o</text><text x="-0.16399756808943378" y="6.935154544814581e-3">K2s</text><text x="-0.15553462764416115" y="6.935154544814581e-3">66</text><text x="-0.14707168719888863" y="6.935154544814581e-3">K6s</text><text x="-0.1386087467536159" y="6.935154544814581e-3">K2o</text><text x="-0.1301458063083435" y="2.101668661550382e-2">J5s</text><text x="-0.12168286586307098" y="2.101668661550382e-2">K7s</text><text x="-0.11321992541779835" y="2.101668661550382e-2">98s</text><text x="-0.10475698497252595" y="2.101668661550382e-2">T8s</text><text x="-9.629404452725332e-2" y="2.101668661550382e-2">Q8s</text><text x="-8.78311040819808e-2" y="2.101668661550382e-2">98o</text><text x="-7.936816363670829e-2" y="2.101668661550382e-2">T8o</text><text x="-7.090522319143577e-2" y="2.101668661550382e-2">Q8o</text><text x="-6.244228274616326e-2" y="2.101668661550382e-2">K6o</text><text x="-5.3979342300890854e-2" y="2.101668661550382e-2">K7o</text><text x="-4.551640185561823e-2" y="3.509821868619312e-2">K4s</text><text x="-3.705346141034571e-2" y="3.509821868619312e-2">T7s</text><text x="-2.8590520965073196e-2" y="3.509821868619312e-2">T7o</text><text x="-2.012758051980057e-2" y="3.509821868619312e-2">J5o</text><text x="-1.1664640074528054e-2" y="3.509821868619312e-2">K4o</text><text x="-3.201699629255539e-3" y="4.917975075688241e-2">K3s</text><text x="5.2612408160168656e-3" y="4.917975075688241e-2">Q7s</text><text x="1.3724181261289492e-2" y="4.917975075688241e-2">Q7o</text><text x="2.218712170656212e-2" y="4.917975075688241e-2">K3o</text><text x="3.0650062151834412e-2" y="6.326128282757171e-2">J2s</text><text x="3.911300259710715e-2" y="6.326128282757171e-2">J4s</text><text x="4.7575943042379665e-2" y="6.326128282757171e-2">J4o</text><text x="5.603888348765218e-2" y="7.7342814898261e-2">44</text><text x="6.45018239329247e-2" y="7.7342814898261e-2">J6s</text><text x="7.296476437819721e-2" y="7.7342814898261e-2">Q6s</text><text x="8.142770482346995e-2" y="7.7342814898261e-2">J2o</text><text x="8.989064526874246e-2" y="9.14243469689503e-2">Q2s</text><text x="9.835358571401487e-2" y="9.14243469689503e-2">J3s</text><text x="0.1068165261592875" y="9.14243469689503e-2">Q5s</text><text x="0.11527946660455979" y="9.14243469689503e-2">J3o</text><text x="0.12374240704983253" y="9.14243469689503e-2">J6o</text><text x="0.13220534749510504" y="9.14243469689503e-2">Q6o</text><text x="0.14066828794037756" y="0.10550587903963948">Q4s</text><text x="0.14913122838565007" y="0.10550587903963948">55</text><text x="0.1575941688309226" y="0.10550587903963948">Q2o</text><text x="0.1660571092761951" y="0.10550587903963948">Q4o</text><text x="0.17452004972146762" y="0.10550587903963948">Q5o</text><text x="0.18298299016674013" y="0.11958741111032878">95s</text><text x="0.19144593061201265" y="0.13366894318101807">Q3s</text><text x="0.19990887105728516" y="0.13366894318101807">T5s</text><text x="0.2083718115025578" y="0.13366894318101807">Q3o</text><text x="0.21683475194783042" y="0.14775047525170737">33</text><text x="0.22529769239310315" y="0.14775047525170737">97s</text><text x="0.23376063283837534" y="0.14775047525170737">95o</text><text x="0.24222357328364796" y="0.14775047525170737">97o</text><text x="0.25068651372892026" y="0.14775047525170737">T5o</text><text x="0.2591494541741932" y="0.16183200732239666">93s</text><text x="0.26761239461946573" y="0.16183200732239666">96s</text><text x="0.27607533506473825" y="0.16183200732239666">T6s</text><text x="0.28453827551001054" y="0.16183200732239666">93o</text><text x="0.2930012159552833" y="0.17591353939308596">T2s</text><text x="0.3014641564005558" y="0.17591353939308596">T3s</text><text x="0.3099270968458281" y="0.17591353939308596">T4s</text><text x="0.3183900372911008" y="0.17591353939308596">87s</text><text x="0.32685297773637334" y="0.17591353939308596">87o</text><text x="0.33531591818164586" y="0.17591353939308596">T3o</text><text x="0.34377885862691837" y="0.17591353939308596">T4o</text><text x="0.3522417990721909" y="0.17591353939308596">T6o</text><text x="0.3607047395174634" y="0.1899950714637753">22</text><text x="0.3691676799627359" y="0.1899950714637753">92s</text><text x="0.37763062040800843" y="0.1899950714637753">96o</text><text x="0.3860935608532807" y="0.1899950714637753">T2o</text><text x="0.39455650129855346" y="0.20407660353446466">94s</text><text x="0.4030194417438262" y="0.20407660353446466">85s</text><text x="0.4114823821890987" y="0.20407660353446466">85o</text><text x="0.41994532263437123" y="0.20407660353446466">92o</text><text x="0.4284082630796435" y="0.20407660353446466">94o</text><text x="0.4368712035249165" y="0.21815813560515396">86s</text><text x="0.4453341439701888" y="0.21815813560515396">84o</text><text x="0.4537970844154613" y="0.21815813560515396">86o</text><text x="0.4622600248607338" y="0.23223966767584325">84s</text><text x="0.4707229653060063" y="0.27448426388791103">83s</text><text x="0.47918590575127906" y="0.27448426388791103">74s</text><text x="0.48764884619655136" y="0.27448426388791103">65s</text><text x="0.4961117866418241" y="0.27448426388791103">83o</text><text x="0.5045747270870964" y="0.2885657959586003">65o</text><text x="0.5130376675323691" y="0.2885657959586003">76s</text><text x="0.5215006079776414" y="0.2885657959586003">74o</text><text x="0.5299635484229139" y="0.30264732802928973">54s</text><text x="0.5384264888681867" y="0.30264732802928973">75s</text><text x="0.5468894293134592" y="0.30264732802928973">76o</text><text x="0.5553523697587315" y="0.3167288600999789">75o</text><text x="0.5638153102040042" y="0.3308103921706682">62s</text><text x="0.5722782506492767" y="0.3308103921706682">72s</text><text x="0.5807411910945495" y="0.3308103921706682">82s</text><text x="0.5892041315398218" y="0.3308103921706682">54o</text><text x="0.5976670719850943" y="0.3448919242413575">62o</text><text x="0.6061300124303668" y="0.3448919242413575">72o</text><text x="0.6145929528756395" y="0.3448919242413575">82o</text><text x="0.6230558933209118" y="0.3589734563120468">32s</text><text x="0.6315188337661846" y="0.3589734563120468">32o</text><text x="0.6399817742114571" y="0.3589734563120468">73s</text><text x="0.6484447146567294" y="0.3589734563120468">73o</text><text x="0.6569076551020021" y="0.37305498838273615">52s</text><text x="0.6653705955472744" y="0.37305498838273615">64s</text><text x="0.6738335359925471" y="0.37305498838273615">52o</text><text x="0.6822964764378197" y="0.38713652045342545">53s</text><text x="0.6907594168830924" y="0.38713652045342545">53o</text><text x="0.6992223573283645" y="0.38713652045342545">64o</text><text x="0.7076852977736374" y="0.415299584594804">43s</text><text x="0.7161482382189097" y="0.415299584594804">63s</text><text x="0.7246111786641825" y="0.415299584594804">43o</text><text x="0.733074119109455" y="0.415299584594804">63o</text><text x="0.7415370595547273" y="0.4293811166654933">42s</text><text x="0.75" y="0.4293811166654933">42o</text></g><g></g></svg>