<svg xmlns="http://www.w3.org/2000/svg" height="300.0" viewBox="-0.77 -0.52 1.54 1.04" width="444.2307692307692" xmlns:xlink="http://www.w3.org/1999/xlink"><g stroke-opacity="0.6" fill-opacity="0.6" stroke="#3333ff" stroke-width="0.0" fill="#3333ff"><rect height="7.692307692307687e-2" width="0.11538461538461542" x="0.6346153846153846" y="0.42307692307692313"/></g><g stroke-opacity="0.6" fill-opacity="0.6" stroke="#80cc80" stroke-width="0.0" fill="#80cc80"><rect height="7.692307692307687e-2" width="0.11538461538461542" x="0.5192307692307692" y="0.42307692307692313"/></g><g stroke-opacity="0.6" fill-opacity="0.6" stroke="#80cc80" stroke-width="0.0" fill="#80cc80"><rect height="7.692307692307687e-2" width="0.1153846153846152" x="0.40384615384615397" y="0.42307692307692313"/></g><g stroke-opacity="0.6" fill-opacity="0.6" stroke="#80cc80" stroke-width="0.0" fill="#80cc80"><rect height="7.692307692307687e-2" width="0.11538461538461542" x="0.2884615384615383" y="0.42307692307692313"/></g><g stroke-opacity="0.6" fill-opacity="0.6" stroke="#80cc80" stroke-width="0.0" fill="#80cc80"><rect height="7.692307692307687e-2" width="0.1153846153846152" x="0.17307692307692313" y="0.42307692307692313"/></g><g stroke-opacity="0.6" fill-opacity="0.6" stroke="#80cc80" stroke-width="0.0" fill="#80cc80"><rect height="7.692307692307687e-2" width="0.11538461538461542" x="5.769230769230771e-2" y="0.42307692307692313"/></g><g stroke-opacity="0.6" fill-opacity="0.6" stroke="#80cc80" stroke-width="0.0" fill="#80cc80"><rect height="7.692307692307687e-2" width="0.11538461538461542" x="-5.769230769230771e-2" y="0.42307692307692313"/></g><g stroke-opacity="0.6" fill-opacity="0.6" stroke="#80cc80" stroke-width="0.0" fill="#80cc80"><rect height="7.692307692307687e-2" width="0.11538461538461553" x="-0.17307692307692335" y="0.42307692307692313"/></g><g stroke-opacity="0.6" fill-opacity="0.6" stroke="#80cc80" stroke-width="0.0" fill="#80cc80"><rect height="7.692307692307687e-2" width="0.11538461538461547" x="-0.2884615384615386" y="0.42307692307692313"/></g><g stroke-opacity="0.6" fill-opacity="0.6" stroke="#80cc80" stroke-width="0.0" fill="#80cc80"><rect height="7.692307692307687e-2" width="0.11538461538461542" x="-0.40384615384615385" y="0.42307692307692313"/></g><g stroke-opacity="0.6" fill-opacity="0.6" stroke="#80cc80" stroke-width="0.0" fill="#80cc80"><rect height="7.692307692307687e-2" width="0.11538461538461525" x="-0.5192307692307692" y="0.42307692307692313"/></g><g stroke-opacity="0.6" fill-opacity="0.6" stroke="#80cc80" stroke-width="0.0" fill="#80cc80"><rect height="7.692307692307687e-2" width="0.11538461538461531" x="-0.6346153846153847" y="0.42307692307692313"/></g><g stroke-opacity="0.6" fill-opacity="0.6" stroke="#80cc80" stroke-width="0.0" fill="#80cc80"><rect height="7.692307692307687e-2" width="0.11538461538461531" x="-0.75" y="0.42307692307692313"/></g><g stroke-opacity="0.6" fill-opacity="0.6" stroke="#cc8080" stroke-width="0.0" fill="#cc8080"><rect height="7.692307692307687e-2" width="0.11538461538461542" x="0.6346153846153846" y="0.34615384615384615"/></g><g stroke-opacity="0.6" fill-opacity="0.6" stroke="#3333ff" stroke-width="0.0" fill="#3333ff"><rect height="7.692307692307687e-2" width="0.11538461538461542" x="0.5192307692307692" y="0.34615384615384615"/></g><g stroke-opacity="0.6" fill-opacity="0.6" stroke="#80cc80" stroke-width="0.0" fill="#80cc80"><rect height="7.692307692307687e-2" width="0.1153846153846152" x="0.40384615384615397" y="0.34615384615384615"/></g><g stroke-opacity="0.6" fill-opacity="0.6" stroke="#80cc80" stroke-width="0.0" fill="#80cc80"><rect height="7.692307692307687e-2" width="0.11538461538461542" x="0.2884615384615383" y="0.34615384615384615"/></g><g stroke-opacity="0.6" fill-opacity="0.6" stroke="#80cc80" stroke-width="0.0" fill="#80cc80"><rect height="7.692307692307687e-2" width="0.1153846153846152" x="0.17307692307692313" y="0.34615384615384615"/></g><g stroke-opacity="0.6" fill-opacity="0.6" stroke="#80cc80" stroke-width="0.0" fill="#80cc80"><rect height="7.692307692307687e-2" width="0.11538461538461542" x="5.769230769230771e-2" y="0.34615384615384615"/></g><g stroke-opacity="0.6" fill-opacity="0.6" stroke="#80cc80" stroke-width="0.0" fill="#80cc80"><rect height="7.692307692307687e-2" width="0.11538461538461542" x="-5.769230769230771e-2" y="0.34615384615384615"/></g><g stroke-opacity="0.6" fill-opacity="0.6" stroke="#80cc80" stroke-width="0.0" fill="#80cc80"><rect height="7.692307692307687e-2" width="0.11538461538461553" x="-0.17307692307692335" y="0.34615384615384615"/></g><g stroke-opacity="0.6" fill-opacity="0.6" stroke="#80cc80" stroke-width="0.0" fill="#80cc80"><rect height="7.692307692307687e-2" width="0.11538461538461547" x="-0.2884615384615386" y="0.34615384615384615"/></g><g stroke-opacity="0.6" fill-opacity="0.6" stroke="#80cc80" stroke-width="0.0" fill="#80cc80"><rect height="7.692307692307687e-2" width="0.11538461538461542" x="-0.40384615384615385" y="0.34615384615384615"/></g><g stroke-opacity="0.6" fill-opacity="0.6" stroke="#80cc80" stroke-width="0.0" fill="#80cc80"><rect height="7.692307692307687e-2" width="0.11538461538461525" x="-0.5192307692307692" y="0.34615384615384615"/></g><g stroke-opacity="0.6" fill-opacity="0.6" stroke="#80cc80" stroke-width="0.0" fill="#80cc80"><rect height="7.692307692307687e-2" width="0.11538461538461531" x="-0.6346153846153847" y="0.34615384615384615"/></g><g stroke-opacity="0.6" fill-opacity="0.6" stroke="#80cc80" stroke-width="0.0" fill="#80cc80"><rect height="7.692307692307687e-2" width="0.11538461538461531" x="-0.75" y="0.34615384615384615"/></g><g stroke-opacity="0.6" fill-opacity="0.6" stroke="#cc8080" stroke-width="0.0" fill="#cc8080"><rect height="7.692307692307687e-2" width="0.11538461538461542" x="0.6346153846153846" y="0.2692307692307693"/></g><g stroke-opacity="0.6" fill-opacity="0.6" stroke="#cc8080" stroke-width="0.0" fill="#cc8080"><rect height="7.692307692307687e-2" width="0.11538461538461542" x="0.5192307692307692" y="0.2692307692307693"/></g><g stroke-opacity="0.6" fill-opacity="0.6" stroke="#3333ff" stroke-width="0.0" fill="#3333ff"><rect height="7.692307692307687e-2" width="0.1153846153846152" x="0.40384615384615397" y="0.2692307692307693"/></g><g stroke-opacity="0.6" fill-opacity="0.6" stroke="#80cc80" stroke-width="0.0" fill="#80cc80"><rect height="7.692307692307687e-2" width="0.11538461538461542" x="0.2884615384615383" y="0.2692307692307693"/></g><g stroke-opacity="0.6" fill-opacity="0.6" stroke="#80cc80" stroke-width="0.0" fill="#80cc80"><rect height="7.692307692307687e-2" width="0.1153846153846152" x="0.17307692307692313" y="0.2692307692307693"/></g><g stroke-opacity="0.6" fill-opacity="0.6" stroke="#80cc80" stroke-width="0.0" fill="#80cc80"><rect height="7.692307692307687e-2" width="0.11538461538461542" x="5.769230769230771e-2" y="0.2692307692307693"/></g><g stroke-opacity="0.6" fill-opacity="0.6" stroke="#80cc80" stroke-width="0.0" fill="#80cc80"><rect height="7.692307692307687e-2" width="0.11538461538461542" x="-5.769230769230771e-2" y="0.2692307692307693"/></g><g stroke-opacity="0.6" fill-opacity="0.6" stroke="#80cc80" stroke-width="0.0" fill="#80cc80"><rect height="7.692307692307687e-2" width="0.11538461538461553" x="-0.17307692307692335" y="0.2692307692307693"/></g><g stroke-opacity="0.6" fill-opacity="0.6" stroke="#80cc80" stroke-width="0.0" fill="#80cc80"><rect height="7.692307692307687e-2" width="0.11538461538461547" x="-0.2884615384615386" y="0.2692307692307693"/></g><g stroke-opacity="0.6" fill-opacity="0.6" stroke="#80cc80" stroke-width="0.0" fill="#80cc80"><rect height="7.692307692307687e-2" width="0.11538461538461542" x="-0.40384615384615385" y="0.2692307692307693"/></g><g stroke-opacity="0.6" fill-opacity="0.6" stroke="#80cc80" stroke-width="0.0" fill="#80cc80"><rect height="7.692307692307687e-2" width="0.11538461538461525" x="-0.5192307692307692" y="0.2692307692307693"/></g><g stroke-opacity="0.6" fill-opacity="0.6" stroke="#80cc80" stroke-width="0.0" fill="#80cc80"><rect height="7.692307692307687e-2" width="0.11538461538461531" x="-0.6346153846153847" y="0.2692307692307693"/></g><g stroke-opacity="0.6" fill-opacity="0.6" stroke="#80cc80" stroke-width="0.0" fill="#80cc80"><rect height="7.692307692307687e-2" width="0.11538461538461531" x="-0.75" y="0.2692307692307693"/></g><g stroke-opacity="0.6" fill-opacity="0.6" stroke="#cc8080" stroke-width="0.0" fill="#cc8080"><rect height="7.692307692307693e-2" width="0.11538461538461542" x="0.6346153846153846" y="0.1923076923076923"/></g><g stroke-opacity="0.6" fill-opacity="0.6" stroke="#cc8080" stroke-width="0.0" fill="#cc8080"><rect height="7.692307692307693e-2" width="0.11538461538461542" x="0.5192307692307692" y="0.1923076923076923"/></g><g stroke-opacity="0.6" fill-opacity="0.6" stroke="#cc8080" stroke-width="0.0" fill="#cc8080"><rect height="7.692307692307693e-2" width="0.1153846153846152" x="0.40384615384615397" y="0.1923076923076923"/></g><g stroke-opacity="0.6" fill-opacity="0.6" stroke="#3333ff" stroke-width="0.0" fill="#3333ff"><rect height="7.692307692307693e-2" width="0.11538461538461542" x="0.2884615384615383" y="0.1923076923076923"/></g><g stroke-opacity="0.6" fill-opacity="0.6" stroke="#80cc80" stroke-width="0.0" fill="#80cc80"><rect height="7.692307692307693e-2" width="0.1153846153846152" x="0.17307692307692313" y="0.1923076923076923"/></g><g stroke-opacity="0.6" fill-opacity="0.6" stroke="#80cc80" stroke-width="0.0" fill="#80cc80"><rect height="7.692307692307693e-2" width="0.11538461538461542" x="5.769230769230771e-2" y="0.1923076923076923"/></g><g stroke-opacity="0.6" fill-opacity="0.6" stroke="#80cc80" stroke-width="0.0" fill="#80cc80"><rect height="7.692307692307693e-2" width="0.11538461538461542" x="-5.769230769230771e-2" y="0.1923076923076923"/></g><g stroke-opacity="0.6" fill-opacity="0.6" stroke="#80cc80" stroke-width="0.0" fill="#80cc80"><rect height="7.692307692307693e-2" width="0.11538461538461553" x="-0.17307692307692335" y="0.1923076923076923"/></g><g stroke-opacity="0.6" fill-opacity="0.6" stroke="#80cc80" stroke-width="0.0" fill="#80cc80"><rect height="7.692307692307693e-2" width="0.11538461538461547" x="-0.2884615384615386" y="0.1923076923076923"/></g><g stroke-opacity="0.6" fill-opacity="0.6" stroke="#80cc80" stroke-width="0.0" fill="#80cc80"><rect height="7.692307692307693e-2" width="0.11538461538461542" x="-0.40384615384615385" y="0.1923076923076923"/></g><g stroke-opacity="0.6" fill-opacity="0.6" stroke="#80cc80" stroke-width="0.0" fill="#80cc80"><rect height="7.692307692307693e-2" width="0.11538461538461525" x="-0.5192307692307692" y="0.1923076923076923"/></g><g stroke-opacity="0.6" fill-opacity="0.6" stroke="#80cc80" stroke-width="0.0" fill="#80cc80"><rect height="7.692307692307693e-2" width="0.11538461538461531" x="-0.6346153846153847" y="0.1923076923076923"/></g><g stroke-opacity="0.6" fill-opacity="0.6" stroke="#80cc80" stroke-width="0.0" fill="#80cc80"><rect height="7.692307692307693e-2" width="0.11538461538461531" x="-0.75" y="0.1923076923076923"/></g><g stroke-opacity="0.6" fill-opacity="0.6" stroke="#cc8080" stroke-width="0.0" fill="#cc8080"><rect height="7.692307692307693e-2" width="0.11538461538461542" x="0.6346153846153846" y="0.11538461538461536"/></g><g stroke-opacity="0.6" fill-opacity="0.6" stroke="#cc8080" stroke-width="0.0" fill="#cc8080"><rect height="7.692307692307693e-2" width="0.11538461538461542" x="0.5192307692307692" y="0.11538461538461536"/></g><g stroke-opacity="0.6" fill-opacity="0.6" stroke="#cc8080" stroke-width="0.0" fill="#cc8080"><rect height="7.692307692307693e-2" width="0.1153846153846152" x="0.40384615384615397" y="0.11538461538461536"/></g><g stroke-opacity="0.6" fill-opacity="0.6" stroke="#cc8080" stroke-width="0.0" fill="#cc8080"><rect height="7.692307692307693e-2" width="0.11538461538461542" x="0.2884615384615383" y="0.11538461538461536"/></g><g stroke-opacity="0.6" fill-opacity="0.6" stroke="#3333ff" stroke-width="0.0" fill="#3333ff"><rect height="7.692307692307693e-2" width="0.1153846153846152" x="0.17307692307692313" y="0.11538461538461536"/></g><g stroke-opacity="0.6" fill-opacity="0.6" stroke="#80cc80" stroke-width="0.0" fill="#80cc80"><rect height="7.692307692307693e-2" width="0.11538461538461542" x="5.769230769230771e-2" y="0.11538461538461536"/></g><g stroke-opacity="0.6" fill-opacity="0.6" stroke="#80cc80" stroke-width="0.0" fill="#80cc80"><rect height="7.692307692307693e-2" width="0.11538461538461542" x="-5.769230769230771e-2" y="0.11538461538461536"/></g><g stroke-opacity="0.6" fill-opacity="0.6" stroke="#80cc80" stroke-width="0.0" fill="#80cc80"><rect height="7.692307692307693e-2" width="0.11538461538461553" x="-0.17307692307692335" y="0.11538461538461536"/></g><g stroke-opacity="0.6" fill-opacity="0.6" stroke="#80cc80" stroke-width="0.0" fill="#80cc80"><rect height="7.692307692307693e-2" width="0.11538461538461547" x="-0.2884615384615386" y="0.11538461538461536"/></g><g stroke-opacity="0.6" fill-opacity="0.6" stroke="#80cc80" stroke-width="0.0" fill="#80cc80"><rect height="7.692307692307693e-2" width="0.11538461538461542" x="-0.40384615384615385" y="0.11538461538461536"/></g><g stroke-opacity="0.6" fill-opacity="0.6" stroke="#80cc80" stroke-width="0.0" fill="#80cc80"><rect height="7.692307692307693e-2" width="0.11538461538461525" x="-0.5192307692307692" y="0.11538461538461536"/></g><g stroke-opacity="0.6" fill-opacity="0.6" stroke="#80cc80" stroke-width="0.0" fill="#80cc80"><rect height="7.692307692307693e-2" width="0.11538461538461531" x="-0.6346153846153847" y="0.11538461538461536"/></g><g stroke-opacity="0.6" fill-opacity="0.6" stroke="#80cc80" stroke-width="0.0" fill="#80cc80"><rect height="7.692307692307693e-2" width="0.11538461538461531" x="-0.75" y="0.11538461538461536"/></g><g stroke-opacity="0.6" fill-opacity="0.6" stroke="#cc8080" stroke-width="0.0" fill="#cc8080"><rect height="7.692307692307693e-2" width="0.11538461538461542" x="0.6346153846153846" y="3.8461538461538436e-2"/></g><g stroke-opacity="0.6" fill-opacity="0.6" stroke="#cc8080" stroke-width="0.0" fill="#cc8080"><rect height="7.692307692307693e-2" width="0.11538461538461542" x="0.5192307692307692" y="3.8461538461538436e-2"/></g><g stroke-opacity="0.6" fill-opacity="0.6" stroke="#cc8080" stroke-width="0.0" fill="#cc8080"><rect height="7.692307692307693e-2" width="0.1153846153846152" x="0.40384615384615397" y="3.8461538461538436e-2"/></g><g stroke-opacity="0.6" fill-opacity="0.6" stroke="#cc8080" stroke-width="0.0" fill="#cc8080"><rect height="7.692307692307693e-2" width="0.11538461538461542" x="0.2884615384615383" y="3.8461538461538436e-2"/></g><g stroke-opacity="0.6" fill-opacity="0.6" stroke="#cc8080" stroke-width="0.0" fill="#cc8080"><rect height="7.692307692307693e-2" width="0.1153846153846152" x="0.17307692307692313" y="3.8461538461538436e-2"/></g><g stroke-opacity="0.6" fill-opacity="0.6" stroke="#3333ff" stroke-width="0.0" fill="#3333ff"><rect height="7.692307692307693e-2" width="0.11538461538461542" x="5.769230769230771e-2" y="3.8461538461538436e-2"/></g><g stroke-opacity="0.6" fill-opacity="0.6" stroke="#80cc80" stroke-width="0.0" fill="#80cc80"><rect height="7.692307692307693e-2" width="0.11538461538461542" x="-5.769230769230771e-2" y="3.8461538461538436e-2"/></g><g stroke-opacity="0.6" fill-opacity="0.6" stroke="#80cc80" stroke-width="0.0" fill="#80cc80"><rect height="7.692307692307693e-2" width="0.11538461538461553" x="-0.17307692307692335" y="3.8461538461538436e-2"/></g><g stroke-opacity="0.6" fill-opacity="0.6" stroke="#80cc80" stroke-width="0.0" fill="#80cc80"><rect height="7.692307692307693e-2" width="0.11538461538461547" x="-0.2884615384615386" y="3.8461538461538436e-2"/></g><g stroke-opacity="0.6" fill-opacity="0.6" stroke="#80cc80" stroke-width="0.0" fill="#80cc80"><rect height="7.692307692307693e-2" width="0.11538461538461542" x="-0.40384615384615385" y="3.8461538461538436e-2"/></g><g stroke-opacity="0.6" fill-opacity="0.6" stroke="#80cc80" stroke-width="0.0" fill="#80cc80"><rect height="7.692307692307693e-2" width="0.11538461538461525" x="-0.5192307692307692" y="3.8461538461538436e-2"/></g><g stroke-opacity="0.6" fill-opacity="0.6" stroke="#80cc80" stroke-width="0.0" fill="#80cc80"><rect height="7.692307692307693e-2" width="0.11538461538461531" x="-0.6346153846153847" y="3.8461538461538436e-2"/></g><g stroke-opacity="0.6" fill-opacity="0.6" stroke="#80cc80" stroke-width="0.0" fill="#80cc80"><rect height="7.692307692307693e-2" width="0.11538461538461531" x="-0.75" y="3.8461538461538436e-2"/></g><g stroke-opacity="0.6" fill-opacity="0.6" stroke="#cc8080" stroke-width="0.0" fill="#cc8080"><rect height="7.692307692307698e-2" width="0.11538461538461542" x="0.6346153846153846" y="-3.846153846153855e-2"/></g><g stroke-opacity="0.6" fill-opacity="0.6" stroke="#cc8080" stroke-width="0.0" fill="#cc8080"><rect height="7.692307692307698e-2" width="0.11538461538461542" x="0.5192307692307692" y="-3.846153846153855e-2"/></g><g stroke-opacity="0.6" fill-opacity="0.6" stroke="#cc8080" stroke-width="0.0" fill="#cc8080"><rect height="7.692307692307698e-2" width="0.1153846153846152" x="0.40384615384615397" y="-3.846153846153855e-2"/></g><g stroke-opacity="0.6" fill-opacity="0.6" stroke="#cc8080" stroke-width="0.0" fill="#cc8080"><rect height="7.692307692307698e-2" width="0.11538461538461542" x="0.2884615384615383" y="-3.846153846153855e-2"/></g><g stroke-opacity="0.6" fill-opacity="0.6" stroke="#cc8080" stroke-width="0.0" fill="#cc8080"><rect height="7.692307692307698e-2" width="0.1153846153846152" x="0.17307692307692313" y="-3.846153846153855e-2"/></g><g stroke-opacity="0.6" fill-opacity="0.6" stroke="#cc8080" stroke-width="0.0" fill="#cc8080"><rect height="7.692307692307698e-2" width="0.11538461538461542" x="5.769230769230771e-2" y="-3.846153846153855e-2"/></g><g stroke-opacity="0.6" fill-opacity="0.6" stroke="#3333ff" stroke-width="0.0" fill="#3333ff"><rect height="7.692307692307698e-2" width="0.11538461538461542" x="-5.769230769230771e-2" y="-3.846153846153855e-2"/></g><g stroke-opacity="0.6" fill-opacity="0.6" stroke="#80cc80" stroke-width="0.0" fill="#80cc80"><rect height="7.692307692307698e-2" width="0.11538461538461553" x="-0.17307692307692335" y="-3.846153846153855e-2"/></g><g stroke-opacity="0.6" fill-opacity="0.6" stroke="#80cc80" stroke-width="0.0" fill="#80cc80"><rect height="7.692307692307698e-2" width="0.11538461538461547" x="-0.2884615384615386" y="-3.846153846153855e-2"/></g><g stroke-opacity="0.6" fill-opacity="0.6" stroke="#80cc80" stroke-width="0.0" fill="#80cc80"><rect height="7.692307692307698e-2" width="0.11538461538461542" x="-0.40384615384615385" y="-3.846153846153855e-2"/></g><g stroke-opacity="0.6" fill-opacity="0.6" stroke="#80cc80" stroke-width="0.0" fill="#80cc80"><rect height="7.692307692307698e-2" width="0.11538461538461525" x="-0.5192307692307692" y="-3.846153846153855e-2"/></g><g stroke-opacity="0.6" fill-opacity="0.6" stroke="#80cc80" stroke-width="0.0" fill="#80cc80"><rect height="7.692307692307698e-2" width="0.11538461538461531" x="-0.6346153846153847" y="-3.846153846153855e-2"/></g><g stroke-opacity="0.6" fill-opacity="0.6" stroke="#80cc80" stroke-width="0.0" fill="#80cc80"><rect height="7.692307692307698e-2" width="0.11538461538461531" x="-0.75" y="-3.846153846153855e-2"/></g><g stroke-opacity="0.6" fill-opacity="0.6" stroke="#cc8080" stroke-width="0.0" fill="#cc8080"><rect height="7.692307692307687e-2" width="0.11538461538461542" x="0.6346153846153846" y="-0.11538461538461542"/></g><g stroke-opacity="0.6" fill-opacity="0.6" stroke="#cc8080" stroke-width="0.0" fill="#cc8080"><rect height="7.692307692307687e-2" width="0.11538461538461542" x="0.5192307692307692" y="-0.11538461538461542"/></g><g stroke-opacity="0.6" fill-opacity="0.6" stroke="#cc8080" stroke-width="0.0" fill="#cc8080"><rect height="7.692307692307687e-2" width="0.1153846153846152" x="0.40384615384615397" y="-0.11538461538461542"/></g><g stroke-opacity="0.6" fill-opacity="0.6" stroke="#cc8080" stroke-width="0.0" fill="#cc8080"><rect height="7.692307692307687e-2" width="0.11538461538461542" x="0.2884615384615383" y="-0.11538461538461542"/></g><g stroke-opacity="0.6" fill-opacity="0.6" stroke="#cc8080" stroke-width="0.0" fill="#cc8080"><rect height="7.692307692307687e-2" width="0.1153846153846152" x="0.17307692307692313" y="-0.11538461538461542"/></g><g stroke-opacity="0.6" fill-opacity="0.6" stroke="#cc8080" stroke-width="0.0" fill="#cc8080"><rect height="7.692307692307687e-2" width="0.11538461538461542" x="5.769230769230771e-2" y="-0.11538461538461542"/></g><g stroke-opacity="0.6" fill-opacity="0.6" stroke="#cc8080" stroke-width="0.0" fill="#cc8080"><rect height="7.692307692307687e-2" width="0.11538461538461542" x="-5.769230769230771e-2" y="-0.11538461538461542"/></g><g stroke-opacity="0.6" fill-opacity="0.6" stroke="#3333ff" stroke-width="0.0" fill="#3333ff"><rect height="7.692307692307687e-2" width="0.11538461538461553" x="-0.17307692307692335" y="-0.11538461538461542"/></g><g stroke-opacity="0.6" fill-opacity="0.6" stroke="#80cc80" stroke-width="0.0" fill="#80cc80"><rect height="7.692307692307687e-2" width="0.11538461538461547" x="-0.2884615384615386" y="-0.11538461538461542"/></g><g stroke-opacity="0.6" fill-opacity="0.6" stroke="#80cc80" stroke-width="0.0" fill="#80cc80"><rect height="7.692307692307687e-2" width="0.11538461538461542" x="-0.40384615384615385" y="-0.11538461538461542"/></g><g stroke-opacity="0.6" fill-opacity="0.6" stroke="#80cc80" stroke-width="0.0" fill="#80cc80"><rect height="7.692307692307687e-2" width="0.11538461538461525" x="-0.5192307692307692" y="-0.11538461538461542"/></g><g stroke-opacity="0.6" fill-opacity="0.6" stroke="#80cc80" stroke-width="0.0" fill="#80cc80"><rect height="7.692307692307687e-2" width="0.11538461538461531" x="-0.6346153846153847" y="-0.11538461538461542"/></g><g stroke-opacity="0.6" fill-opacity="0.6" stroke="#80cc80" stroke-width="0.0" fill="#80cc80"><rect height="7.692307692307687e-2" width="0.11538461538461531" x="-0.75" y="-0.11538461538461542"/></g><g stroke-opacity="0.6" fill-opacity="0.6" stroke="#cc8080" stroke-width="0.0" fill="#cc8080"><rect height="7.692307692307687e-2" width="0.11538461538461542" x="0.6346153846153846" y="-0.1923076923076923"/></g><g stroke-opacity="0.6" fill-opacity="0.6" stroke="#cc8080" stroke-width="0.0" fill="#cc8080"><rect height="7.692307692307687e-2" width="0.11538461538461542" x="0.5192307692307692" y="-0.1923076923076923"/></g><g stroke-opacity="0.6" fill-opacity="0.6" stroke="#cc8080" stroke-width="0.0" fill="#cc8080"><rect height="7.692307692307687e-2" width="0.1153846153846152" x="0.40384615384615397" y="-0.1923076923076923"/></g><g stroke-opacity="0.6" fill-opacity="0.6" stroke="#cc8080" stroke-width="0.0" fill="#cc8080"><rect height="7.692307692307687e-2" width="0.11538461538461542" x="0.2884615384615383" y="-0.1923076923076923"/></g><g stroke-opacity="0.6" fill-opacity="0.6" stroke="#cc8080" stroke-width="0.0" fill="#cc8080"><rect height="7.692307692307687e-2" width="0.1153846153846152" x="0.17307692307692313" y="-0.1923076923076923"/></g><g stroke-opacity="0.6" fill-opacity="0.6" stroke="#cc8080" stroke-width="0.0" fill="#cc8080"><rect height="7.692307692307687e-2" width="0.11538461538461542" x="5.769230769230771e-2" y="-0.1923076923076923"/></g><g stroke-opacity="0.6" fill-opacity="0.6" stroke="#cc8080" stroke-width="0.0" fill="#cc8080"><rect height="7.692307692307687e-2" width="0.11538461538461542" x="-5.769230769230771e-2" y="-0.1923076923076923"/></g><g stroke-opacity="0.6" fill-opacity="0.6" stroke="#cc8080" stroke-width="0.0" fill="#cc8080"><rect height="7.692307692307687e-2" width="0.11538461538461553" x="-0.17307692307692335" y="-0.1923076923076923"/></g><g stroke-opacity="0.6" fill-opacity="0.6" stroke="#3333ff" stroke-width="0.0" fill="#3333ff"><rect height="7.692307692307687e-2" width="0.11538461538461547" x="-0.2884615384615386" y="-0.1923076923076923"/></g><g stroke-opacity="0.6" fill-opacity="0.6" stroke="#80cc80" stroke-width="0.0" fill="#80cc80"><rect height="7.692307692307687e-2" width="0.11538461538461542" x="-0.40384615384615385" y="-0.1923076923076923"/></g><g stroke-opacity="0.6" fill-opacity="0.6" stroke="#80cc80" stroke-width="0.0" fill="#80cc80"><rect height="7.692307692307687e-2" width="0.11538461538461525" x="-0.5192307692307692" y="-0.1923076923076923"/></g><g stroke-opacity="0.6" fill-opacity="0.6" stroke="#80cc80" stroke-width="0.0" fill="#80cc80"><rect height="7.692307692307687e-2" width="0.11538461538461531" x="-0.6346153846153847" y="-0.1923076923076923"/></g><g stroke-opacity="0.6" fill-opacity="0.6" stroke="#80cc80" stroke-width="0.0" fill="#80cc80"><rect height="7.692307692307687e-2" width="0.11538461538461531" x="-0.75" y="-0.1923076923076923"/></g><g stroke-opacity="0.6" fill-opacity="0.6" stroke="#cc8080" stroke-width="0.0" fill="#cc8080"><rect height="7.692307692307687e-2" width="0.11538461538461542" x="0.6346153846153846" y="-0.26923076923076916"/></g><g stroke-opacity="0.6" fill-opacity="0.6" stroke="#cc8080" stroke-width="0.0" fill="#cc8080"><rect height="7.692307692307687e-2" width="0.11538461538461542" x="0.5192307692307692" y="-0.26923076923076916"/></g><g stroke-opacity="0.6" fill-opacity="0.6" stroke="#cc8080" stroke-width="0.0" fill="#cc8080"><rect height="7.692307692307687e-2" width="0.1153846153846152" x="0.40384615384615397" y="-0.26923076923076916"/></g><g stroke-opacity="0.6" fill-opacity="0.6" stroke="#cc8080" stroke-width="0.0" fill="#cc8080"><rect height="7.692307692307687e-2" width="0.11538461538461542" x="0.2884615384615383" y="-0.26923076923076916"/></g><g stroke-opacity="0.6" fill-opacity="0.6" stroke="#cc8080" stroke-width="0.0" fill="#cc8080"><rect height="7.692307692307687e-2" width="0.1153846153846152" x="0.17307692307692313" y="-0.26923076923076916"/></g><g stroke-opacity="0.6" fill-opacity="0.6" stroke="#cc8080" stroke-width="0.0" fill="#cc8080"><rect height="7.692307692307687e-2" width="0.11538461538461542" x="5.769230769230771e-2" y="-0.26923076923076916"/></g><g stroke-opacity="0.6" fill-opacity="0.6" stroke="#cc8080" stroke-width="0.0" fill="#cc8080"><rect height="7.692307692307687e-2" width="0.11538461538461542" x="-5.769230769230771e-2" y="-0.26923076923076916"/></g><g stroke-opacity="0.6" fill-opacity="0.6" stroke="#cc8080" stroke-width="0.0" fill="#cc8080"><rect height="7.692307692307687e-2" width="0.11538461538461553" x="-0.17307692307692335" y="-0.26923076923076916"/></g><g stroke-opacity="0.6" fill-opacity="0.6" stroke="#cc8080" stroke-width="0.0" fill="#cc8080"><rect height="7.692307692307687e-2" width="0.11538461538461547" x="-0.2884615384615386" y="-0.26923076923076916"/></g><g stroke-opacity="0.6" fill-opacity="0.6" stroke="#3333ff" stroke-width="0.0" fill="#3333ff"><rect height="7.692307692307687e-2" width="0.11538461538461542" x="-0.40384615384615385" y="-0.26923076923076916"/></g><g stroke-opacity="0.6" fill-opacity="0.6" stroke="#80cc80" stroke-width="0.0" fill="#80cc80"><rect height="7.692307692307687e-2" width="0.11538461538461525" x="-0.5192307692307692" y="-0.26923076923076916"/></g><g stroke-opacity="0.6" fill-opacity="0.6" stroke="#80cc80" stroke-width="0.0" fill="#80cc80"><rect height="7.692307692307687e-2" width="0.11538461538461531" x="-0.6346153846153847" y="-0.26923076923076916"/></g><g stroke-opacity="0.6" fill-opacity="0.6" stroke="#80cc80" stroke-width="0.0" fill="#80cc80"><rect height="7.692307692307687e-2" width="0.11538461538461531" x="-0.75" y="-0.26923076923076916"/></g><g stroke-opacity="0.6" fill-opacity="0.6" stroke="#cc8080" stroke-width="0.0" fill="#cc8080"><rect height="7.692307692307687e-2" width="0.11538461538461542" x="0.6346153846153846" y="-0.34615384615384615"/></g><g stroke-opacity="0.6" fill-opacity="0.6" stroke="#cc8080" stroke-width="0.0" fill="#cc8080"><rect height="7.692307692307687e-2" width="0.11538461538461542" x="0.5192307692307692" y="-0.34615384615384615"/></g><g stroke-opacity="0.6" fill-opacity="0.6" stroke="#cc8080" stroke-width="0.0" fill="#cc8080"><rect height="7.692307692307687e-2" width="0.1153846153846152" x="0.40384615384615397" y="-0.34615384615384615"/></g><g stroke-opacity="0.6" fill-opacity="0.6" stroke="#cc8080" stroke-width="0.0" fill="#cc8080"><rect height="7.692307692307687e-2" width="0.11538461538461542" x="0.2884615384615383" y="-0.34615384615384615"/></g><g stroke-opacity="0.6" fill-opacity="0.6" stroke="#cc8080" stroke-width="0.0" fill="#cc8080"><rect height="7.692307692307687e-2" width="0.1153846153846152" x="0.17307692307692313" y="-0.34615384615384615"/></g><g stroke-opacity="0.6" fill-opacity="0.6" stroke="#cc8080" stroke-width="0.0" fill="#cc8080"><rect height="7.692307692307687e-2" width="0.11538461538461542" x="5.769230769230771e-2" y="-0.34615384615384615"/></g><g stroke-opacity="0.6" fill-opacity="0.6" stroke="#cc8080" stroke-width="0.0" fill="#cc8080"><rect height="7.692307692307687e-2" width="0.11538461538461542" x="-5.769230769230771e-2" y="-0.34615384615384615"/></g><g stroke-opacity="0.6" fill-opacity="0.6" stroke="#cc8080" stroke-width="0.0" fill="#cc8080"><rect height="7.692307692307687e-2" width="0.11538461538461553" x="-0.17307692307692335" y="-0.34615384615384615"/></g><g stroke-opacity="0.6" fill-opacity="0.6" stroke="#cc8080" stroke-width="0.0" fill="#cc8080"><rect height="7.692307692307687e-2" width="0.11538461538461547" x="-0.2884615384615386" y="-0.34615384615384615"/></g><g stroke-opacity="0.6" fill-opacity="0.6" stroke="#cc8080" stroke-width="0.0" fill="#cc8080"><rect height="7.692307692307687e-2" width="0.11538461538461542" x="-0.40384615384615385" y="-0.34615384615384615"/></g><g stroke-opacity="0.6" fill-opacity="0.6" stroke="#3333ff" stroke-width="0.0" fill="#3333ff"><rect height="7.692307692307687e-2" width="0.11538461538461525" x="-0.5192307692307692" y="-0.34615384615384615"/></g><g stroke-opacity="0.6" fill-opacity="0.6" stroke="#80cc80" stroke-width="0.0" fill="#80cc80"><rect height="7.692307692307687e-2" width="0.11538461538461531" x="-0.6346153846153847" y="-0.34615384615384615"/></g><g stroke-opacity="0.6" fill-opacity="0.6" stroke="#80cc80" stroke-width="0.0" fill="#80cc80"><rect height="7.692307692307687e-2" width="0.11538461538461531" x="-0.75" y="-0.34615384615384615"/></g><g stroke-opacity="0.6" fill-opacity="0.6" stroke="#cc8080" stroke-width="0.0" fill="#cc8080"><rect height="7.692307692307687e-2" width="0.11538461538461542" x="0.6346153846153846" y="-0.42307692307692313"/></g><g stroke-opacity="0.6" fill-opacity="0.6" stroke="#cc8080" stroke-width="0.0" fill="#cc8080"><rect height="7.692307692307687e-2" width="0.11538461538461542" x="0.5192307692307692" y="-0.42307692307692313"/></g><g stroke-opacity="0.6" fill-opacity="0.6" stroke="#cc8080" stroke-width="0.0" fill="#cc8080"><rect height="7.692307692307687e-2" width="0.1153846153846152" x="0.40384615384615397" y="-0.42307692307692313"/></g><g stroke-opacity="0.6" fill-opacity="0.6" stroke="#cc8080" stroke-width="0.0" fill="#cc8080"><rect height="7.692307692307687e-2" width="0.11538461538461542" x="0.2884615384615383" y="-0.42307692307692313"/></g><g stroke-opacity="0.6" fill-opacity="0.6" stroke="#cc8080" stroke-width="0.0" fill="#cc8080"><rect height="7.692307692307687e-2" width="0.1153846153846152" x="0.17307692307692313" y="-0.42307692307692313"/></g><g stroke-opacity="0.6" fill-opacity="0.6" stroke="#cc8080" stroke-width="0.0" fill="#cc8080"><rect height="7.692307692307687e-2" width="0.11538461538461542" x="5.769230769230771e-2" y="-0.42307692307692313"/></g><g stroke-opacity="0.6" fill-opacity="0.6" stroke="#cc8080" stroke-width="0.0" fill="#cc8080"><rect height="7.692307692307687e-2" width="0.11538461538461542" x="-5.769230769230771e-2" y="-0.42307692307692313"/></g><g stroke-opacity="0.6" fill-opacity="0.6" stroke="#cc8080" stroke-width="0.0" fill="#cc8080"><rect height="7.692307692307687e-2" width="0.11538461538461553" x="-0.17307692307692335" y="-0.42307692307692313"/></g><g stroke-opacity="0.6" fill-opacity="0.6" stroke="#cc8080" stroke-width="0.0" fill="#cc8080"><rect height="7.692307692307687e-2" width="0.11538461538461547" x="-0.2884615384615386" y="-0.42307692307692313"/></g><g stroke-opacity="0.6" fill-opacity="0.6" stroke="#cc8080" stroke-width="0.0" fill="#cc8080"><rect height="7.692307692307687e-2" width="0.11538461538461542" x="-0.40384615384615385" y="-0.42307692307692313"/></g><g stroke-opacity="0.6" fill-opacity="0.6" stroke="#cc8080" stroke-width="0.0" fill="#cc8080"><rect height="7.692307692307687e-2" width="0.11538461538461525" x="-0.5192307692307692" y="-0.42307692307692313"/></g><g stroke-opacity="0.6" fill-opacity="0.6" stroke="#3333ff" stroke-width="0.0" fill="#3333ff"><rect height="7.692307692307687e-2" width="0.11538461538461531" x="-0.6346153846153847" y="-0.42307692307692313"/></g><g stroke-opacity="0.6" fill-opacity="0.6" stroke="#80cc80" stroke-width="0.0" fill="#80cc80"><rect height="7.692307692307687e-2" width="0.11538461538461531" x="-0.75" y="-0.42307692307692313"/></g><g stroke-opacity="0.6" fill-opacity="0.6" stroke="#cc8080" stroke-width="0.0" fill="#cc8080"><rect height="7.692307692307687e-2" width="0.11538461538461542" x="0.6346153846153846" y="-0.5"/></g><g stroke-opacity="0.6" fill-opacity="0.6" stroke="#cc8080" stroke-width="0.0" fill="#cc8080"><rect height="7.692307692307687e-2" width="0.11538461538461542" x="0.5192307692307692" y="-0.5"/></g><g stroke-opacity="0.6" fill-opacity="0.6" stroke="#cc8080" stroke-width="0.0" fill="#cc8080"><rect height="7.692307692307687e-2" width="0.1153846153846152" x="0.40384615384615397" y="-0.5"/></g><g stroke-opacity="0.6" fill-opacity="0.6" stroke="#cc8080" stroke-width="0.0" fill="#cc8080"><rect height="7.692307692307687e-2" width="0.11538461538461542" x="0.2884615384615383" y="-0.5"/></g><g stroke-opacity="0.6" fill-opacity="0.6" stroke="#cc8080" stroke-width="0.0" fill="#cc8080"><rect height="7.692307692307687e-2" width="0.1153846153846152" x="0.17307692307692313" y="-0.5"/></g><g stroke-opacity="0.6" fill-opacity="0.6" stroke="#cc8080" stroke-width="0.0" fill="#cc8080"><rect height="7.692307692307687e-2" width="0.11538461538461542" x="5.769230769230771e-2" y="-0.5"/></g><g stroke-opacity="0.6" fill-opacity="0.6" stroke="#cc8080" stroke-width="0.0" fill="#cc8080"><rect height="7.692307692307687e-2" width="0.11538461538461542" x="-5.769230769230771e-2" y="-0.5"/></g><g stroke-opacity="0.6" fill-opacity="0.6" stroke="#cc8080" stroke-width="0.0" fill="#cc8080"><rect height="7.692307692307687e-2" width="0.11538461538461553" x="-0.17307692307692335" y="-0.5"/></g><g stroke-opacity="0.6" fill-opacity="0.6" stroke="#cc8080" stroke-width="0.0" fill="#cc8080"><rect height="7.692307692307687e-2" width="0.11538461538461547" x="-0.2884615384615386" y="-0.5"/></g><g stroke-opacity="0.6" fill-opacity="0.6" stroke="#cc8080" stroke-width="0.0" fill="#cc8080"><rect height="7.692307692307687e-2" width="0.11538461538461542" x="-0.40384615384615385" y="-0.5"/></g><g stroke-opacity="0.6" fill-opacity="0.6" stroke="#cc8080" stroke-width="0.0" fill="#cc8080"><rect height="7.692307692307687e-2" width="0.11538461538461525" x="-0.5192307692307692" y="-0.5"/></g><g stroke-opacity="0.6" fill-opacity="0.6" stroke="#cc8080" stroke-width="0.0" fill="#cc8080"><rect height="7.692307692307687e-2" width="0.11538461538461531" x="-0.6346153846153847" y="-0.5"/></g><g stroke-opacity="0.6" fill-opacity="0.6" stroke="#3333ff" stroke-width="0.0" fill="#3333ff"><rect height="7.692307692307687e-2" width="0.11538461538461531" x="-0.75" y="-0.5"/></g></svg>