<svg xmlns="http://www.w3.org/2000/svg" height="300.0" viewBox="-0.77 -0.52 1.54 1.04" width="444.2307692307692" xmlns:xlink="http://www.w3.org/1999/xlink"><g stroke-opacity="0.0" fill-opacity="1.0" stroke="#000000" stroke-width="0.0" fill="#7f8000"><rect height="7.692307692307693e-2" width="9.351732014024228e-2" x="-0.75" y="0.4230769230769231"/></g><g stroke-opacity="0.0" fill-opacity="1.0" stroke="#000000" stroke-width="0.0" fill="#7a8500"><rect height="7.692307692307693e-2" width="9.351732014024228e-2" x="-0.75" y="0.34615384615384615"/></g><g stroke-opacity="0.0" fill-opacity="1.0" stroke="#000000" stroke-width="0.0" fill="#7b8400"><rect height="7.692307692307693e-2" width="9.351732014024228e-2" x="-0.75" y="0.2692307692307692"/></g><g stroke-opacity="0.0" fill-opacity="1.0" stroke="#000000" stroke-width="0.0" fill="#718e00"><rect height="7.692307692307693e-2" width="9.351732014024228e-2" x="-0.75" y="0.1923076923076923"/></g><g stroke-opacity="0.0" fill-opacity="1.0" stroke="#000000" stroke-width="0.0" fill="#708f00"><rect height="7.692307692307693e-2" width="9.351732014024228e-2" x="-0.75" y="0.11538461538461536"/></g><g stroke-opacity="0.0" fill-opacity="1.0" stroke="#000000" stroke-width="0.0" fill="#6d9200"><rect height="7.692307692307693e-2" width="9.351732014024228e-2" x="-0.75" y="3.8461538461538436e-2"/></g><g stroke-opacity="0.0" fill-opacity="1.0" stroke="#000000" stroke-width="0.0" fill="#639c00"><rect height="7.692307692307698e-2" width="9.351732014024228e-2" x="-0.75" y="-3.846153846153855e-2"/></g><g stroke-opacity="0.0" fill-opacity="1.0" stroke="#000000" stroke-width="0.0" fill="#639c00"><rect height="7.692307692307687e-2" width="9.351732014024228e-2" x="-0.75" y="-0.11538461538461542"/></g><g stroke-opacity="0.0" fill-opacity="1.0" stroke="#000000" stroke-width="0.0" fill="#609f00"><rect height="7.692307692307687e-2" width="9.351732014024228e-2" x="-0.75" y="-0.1923076923076923"/></g><g stroke-opacity="0.0" fill-opacity="1.0" stroke="#000000" stroke-width="0.0" fill="#619e00"><rect height="7.692307692307698e-2" width="9.351732014024228e-2" x="-0.75" y="-0.2692307692307693"/></g><g stroke-opacity="0.0" fill-opacity="1.0" stroke="#000000" stroke-width="0.0" fill="#5ba400"><rect height="7.692307692307698e-2" width="9.351732014024228e-2" x="-0.75" y="-0.34615384615384626"/></g><g stroke-opacity="0.0" fill-opacity="1.0" stroke="#000000" stroke-width="0.0" fill="#5da200"><rect height="7.692307692307687e-2" width="9.351732014024228e-2" x="-0.75" y="-0.42307692307692313"/></g><g stroke-opacity="0.0" fill-opacity="1.0" stroke="#000000" stroke-width="0.0" fill="#00ff00"><rect height="7.692307692307687e-2" width="9.351732014024228e-2" x="-0.75" y="-0.5"/></g><g stroke-opacity="0.0" fill-opacity="1.0" stroke="#000000" stroke-width="0.0" fill="#8c7300"><rect height="7.692307692307693e-2" width="9.351732014024239e-2" x="-0.6564826798597577" y="0.4230769230769231"/></g><g stroke-opacity="0.0" fill-opacity="1.0" stroke="#000000" stroke-width="0.0" fill="#887700"><rect height="7.692307692307693e-2" width="9.351732014024239e-2" x="-0.6564826798597577" y="0.34615384615384615"/></g><g stroke-opacity="0.0" fill-opacity="1.0" stroke="#000000" stroke-width="0.0" fill="#8b7400"><rect height="7.692307692307693e-2" width="9.351732014024239e-2" x="-0.6564826798597577" y="0.2692307692307692"/></g><g stroke-opacity="0.0" fill-opacity="1.0" stroke="#000000" stroke-width="0.0" fill="#7d8200"><rect height="7.692307692307693e-2" width="9.351732014024239e-2" x="-0.6564826798597577" y="0.1923076923076923"/></g><g stroke-opacity="0.0" fill-opacity="1.0" stroke="#000000" stroke-width="0.0" fill="#817e00"><rect height="7.692307692307693e-2" width="9.351732014024239e-2" x="-0.6564826798597577" y="0.11538461538461536"/></g><g stroke-opacity="0.0" fill-opacity="1.0" stroke="#000000" stroke-width="0.0" fill="#798600"><rect height="7.692307692307693e-2" width="9.351732014024239e-2" x="-0.6564826798597577" y="3.8461538461538436e-2"/></g><g stroke-opacity="0.0" fill-opacity="1.0" stroke="#000000" stroke-width="0.0" fill="#758a00"><rect height="7.692307692307698e-2" width="9.351732014024239e-2" x="-0.6564826798597577" y="-3.846153846153855e-2"/></g><g stroke-opacity="0.0" fill-opacity="1.0" stroke="#000000" stroke-width="0.0" fill="#768900"><rect height="7.692307692307687e-2" width="9.351732014024239e-2" x="-0.6564826798597577" y="-0.11538461538461542"/></g><g stroke-opacity="0.0" fill-opacity="1.0" stroke="#000000" stroke-width="0.0" fill="#758a00"><rect height="7.692307692307687e-2" width="9.351732014024239e-2" x="-0.6564826798597577" y="-0.1923076923076923"/></g><g stroke-opacity="0.0" fill-opacity="1.0" stroke="#000000" stroke-width="0.0" fill="#728d00"><rect height="7.692307692307698e-2" width="9.351732014024239e-2" x="-0.6564826798597577" y="-0.2692307692307693"/></g><g stroke-opacity="0.0" fill-opacity="1.0" stroke="#000000" stroke-width="0.0" fill="#689700"><rect height="7.692307692307698e-2" width="9.351732014024239e-2" x="-0.6564826798597577" y="-0.34615384615384626"/></g><g stroke-opacity="0.0" fill-opacity="1.0" stroke="#000000" stroke-width="0.0" fill="#0ef100"><rect height="7.692307692307687e-2" width="9.351732014024239e-2" x="-0.6564826798597577" y="-0.42307692307692313"/></g><g stroke-opacity="0.0" fill-opacity="1.0" stroke="#000000" stroke-width="0.0" fill="#669900"><rect height="7.692307692307687e-2" width="9.351732014024239e-2" x="-0.6564826798597577" y="-0.5"/></g><g stroke-opacity="0.0" fill-opacity="1.0" stroke="#000000" stroke-width="0.0" fill="#9c6300"><rect height="7.692307692307693e-2" width="9.351732014024228e-2" x="-0.5629653597195153" y="0.4230769230769231"/></g><g stroke-opacity="0.0" fill-opacity="1.0" stroke="#000000" stroke-width="0.0" fill="#996600"><rect height="7.692307692307693e-2" width="9.351732014024228e-2" x="-0.5629653597195153" y="0.34615384615384615"/></g><g stroke-opacity="0.0" fill-opacity="1.0" stroke="#000000" stroke-width="0.0" fill="#9b6400"><rect height="7.692307692307693e-2" width="9.351732014024228e-2" x="-0.5629653597195153" y="0.2692307692307692"/></g><g stroke-opacity="0.0" fill-opacity="1.0" stroke="#000000" stroke-width="0.0" fill="#8e7100"><rect height="7.692307692307693e-2" width="9.351732014024228e-2" x="-0.5629653597195153" y="0.1923076923076923"/></g><g stroke-opacity="0.0" fill-opacity="1.0" stroke="#000000" stroke-width="0.0" fill="#8b7400"><rect height="7.692307692307693e-2" width="9.351732014024228e-2" x="-0.5629653597195153" y="0.11538461538461536"/></g><g stroke-opacity="0.0" fill-opacity="1.0" stroke="#000000" stroke-width="0.0" fill="#8a7500"><rect height="7.692307692307693e-2" width="9.351732014024228e-2" x="-0.5629653597195153" y="3.8461538461538436e-2"/></g><g stroke-opacity="0.0" fill-opacity="1.0" stroke="#000000" stroke-width="0.0" fill="#8b7400"><rect height="7.692307692307698e-2" width="9.351732014024228e-2" x="-0.5629653597195153" y="-3.846153846153855e-2"/></g><g stroke-opacity="0.0" fill-opacity="1.0" stroke="#000000" stroke-width="0.0" fill="#877800"><rect height="7.692307692307687e-2" width="9.351732014024228e-2" x="-0.5629653597195153" y="-0.11538461538461542"/></g><g stroke-opacity="0.0" fill-opacity="1.0" stroke="#000000" stroke-width="0.0" fill="#867900"><rect height="7.692307692307687e-2" width="9.351732014024228e-2" x="-0.5629653597195153" y="-0.1923076923076923"/></g><g stroke-opacity="0.0" fill-opacity="1.0" stroke="#000000" stroke-width="0.0" fill="#827d00"><rect height="7.692307692307698e-2" width="9.351732014024228e-2" x="-0.5629653597195153" y="-0.2692307692307693"/></g><g stroke-opacity="0.0" fill-opacity="1.0" stroke="#000000" stroke-width="0.0" fill="#1de200"><rect height="7.692307692307698e-2" width="9.351732014024228e-2" x="-0.5629653597195153" y="-0.34615384615384626"/></g><g stroke-opacity="0.0" fill-opacity="1.0" stroke="#000000" stroke-width="0.0" fill="#718e00"><rect height="7.692307692307687e-2" width="9.351732014024228e-2" x="-0.5629653597195153" y="-0.42307692307692313"/></g><g stroke-opacity="0.0" fill-opacity="1.0" stroke="#000000" stroke-width="0.0" fill="#669900"><rect height="7.692307692307687e-2" width="9.351732014024228e-2" x="-0.5629653597195153" y="-0.5"/></g><g stroke-opacity="0.0" fill-opacity="1.0" stroke="#000000" stroke-width="0.0" fill="#b44b00"><rect height="7.692307692307693e-2" width="9.351732014024233e-2" x="-0.46944803957927306" y="0.4230769230769231"/></g><g stroke-opacity="0.0" fill-opacity="1.0" stroke="#000000" stroke-width="0.0" fill="#b24d00"><rect height="7.692307692307693e-2" width="9.351732014024233e-2" x="-0.46944803957927306" y="0.34615384615384615"/></g><g stroke-opacity="0.0" fill-opacity="1.0" stroke="#000000" stroke-width="0.0" fill="#af5000"><rect height="7.692307692307693e-2" width="9.351732014024233e-2" x="-0.46944803957927306" y="0.2692307692307692"/></g><g stroke-opacity="0.0" fill-opacity="1.0" stroke="#000000" stroke-width="0.0" fill="#a65900"><rect height="7.692307692307693e-2" width="9.351732014024233e-2" x="-0.46944803957927306" y="0.1923076923076923"/></g><g stroke-opacity="0.0" fill-opacity="1.0" stroke="#000000" stroke-width="0.0" fill="#a25d00"><rect height="7.692307692307693e-2" width="9.351732014024233e-2" x="-0.46944803957927306" y="0.11538461538461536"/></g><g stroke-opacity="0.0" fill-opacity="1.0" stroke="#000000" stroke-width="0.0" fill="#966900"><rect height="7.692307692307693e-2" width="9.351732014024233e-2" x="-0.46944803957927306" y="3.8461538461538436e-2"/></g><g stroke-opacity="0.0" fill-opacity="1.0" stroke="#000000" stroke-width="0.0" fill="#976800"><rect height="7.692307692307698e-2" width="9.351732014024233e-2" x="-0.46944803957927306" y="-3.846153846153855e-2"/></g><g stroke-opacity="0.0" fill-opacity="1.0" stroke="#000000" stroke-width="0.0" fill="#906f00"><rect height="7.692307692307687e-2" width="9.351732014024233e-2" x="-0.46944803957927306" y="-0.11538461538461542"/></g><g stroke-opacity="0.0" fill-opacity="1.0" stroke="#000000" stroke-width="0.0" fill="#956a00"><rect height="7.692307692307687e-2" width="9.351732014024233e-2" x="-0.46944803957927306" y="-0.1923076923076923"/></g><g stroke-opacity="0.0" fill-opacity="1.0" stroke="#000000" stroke-width="0.0" fill="#2ed100"><rect height="7.692307692307698e-2" width="9.351732014024233e-2" x="-0.46944803957927306" y="-0.2692307692307693"/></g><g stroke-opacity="0.0" fill-opacity="1.0" stroke="#000000" stroke-width="0.0" fill="#8f7000"><rect height="7.692307692307698e-2" width="9.351732014024233e-2" x="-0.46944803957927306" y="-0.34615384615384626"/></g><g stroke-opacity="0.0" fill-opacity="1.0" stroke="#000000" stroke-width="0.0" fill="#7e8100"><rect height="7.692307692307687e-2" width="9.351732014024233e-2" x="-0.46944803957927306" y="-0.42307692307692313"/></g><g stroke-opacity="0.0" fill-opacity="1.0" stroke="#000000" stroke-width="0.0" fill="#6d9200"><rect height="7.692307692307687e-2" width="9.351732014024233e-2" x="-0.46944803957927306" y="-0.5"/></g><g stroke-opacity="0.0" fill-opacity="1.0" stroke="#000000" stroke-width="0.0" fill="#c13e00"><rect height="7.692307692307693e-2" width="9.351732014024233e-2" x="-0.3759307194390307" y="0.4230769230769231"/></g><g stroke-opacity="0.0" fill-opacity="1.0" stroke="#000000" stroke-width="0.0" fill="#bd4200"><rect height="7.692307692307693e-2" width="9.351732014024233e-2" x="-0.3759307194390307" y="0.34615384615384615"/></g><g stroke-opacity="0.0" fill-opacity="1.0" stroke="#000000" stroke-width="0.0" fill="#be4100"><rect height="7.692307692307693e-2" width="9.351732014024233e-2" x="-0.3759307194390307" y="0.2692307692307692"/></g><g stroke-opacity="0.0" fill-opacity="1.0" stroke="#000000" stroke-width="0.0" fill="#af5000"><rect height="7.692307692307693e-2" width="9.351732014024233e-2" x="-0.3759307194390307" y="0.1923076923076923"/></g><g stroke-opacity="0.0" fill-opacity="1.0" stroke="#000000" stroke-width="0.0" fill="#b24d00"><rect height="7.692307692307693e-2" width="9.351732014024233e-2" x="-0.3759307194390307" y="0.11538461538461536"/></g><g stroke-opacity="0.0" fill-opacity="1.0" stroke="#000000" stroke-width="0.0" fill="#a75800"><rect height="7.692307692307693e-2" width="9.351732014024233e-2" x="-0.3759307194390307" y="3.8461538461538436e-2"/></g><g stroke-opacity="0.0" fill-opacity="1.0" stroke="#000000" stroke-width="0.0" fill="#a85700"><rect height="7.692307692307698e-2" width="9.351732014024233e-2" x="-0.3759307194390307" y="-3.846153846153855e-2"/></g><g stroke-opacity="0.0" fill-opacity="1.0" stroke="#000000" stroke-width="0.0" fill="#a65900"><rect height="7.692307692307687e-2" width="9.351732014024233e-2" x="-0.3759307194390307" y="-0.11538461538461542"/></g><g stroke-opacity="0.0" fill-opacity="1.0" stroke="#000000" stroke-width="0.0" fill="#37c800"><rect height="7.692307692307687e-2" width="9.351732014024233e-2" x="-0.3759307194390307" y="-0.1923076923076923"/></g><g stroke-opacity="0.0" fill-opacity="1.0" stroke="#000000" stroke-width="0.0" fill="#a15e00"><rect height="7.692307692307698e-2" width="9.351732014024233e-2" x="-0.3759307194390307" y="-0.2692307692307693"/></g><g stroke-opacity="0.0" fill-opacity="1.0" stroke="#000000" stroke-width="0.0" fill="#936c00"><rect height="7.692307692307698e-2" width="9.351732014024233e-2" x="-0.3759307194390307" y="-0.34615384615384626"/></g><g stroke-opacity="0.0" fill-opacity="1.0" stroke="#000000" stroke-width="0.0" fill="#7d8200"><rect height="7.692307692307687e-2" width="9.351732014024233e-2" x="-0.3759307194390307" y="-0.42307692307692313"/></g><g stroke-opacity="0.0" fill-opacity="1.0" stroke="#000000" stroke-width="0.0" fill="#699600"><rect height="7.692307692307687e-2" width="9.351732014024233e-2" x="-0.3759307194390307" y="-0.5"/></g><g stroke-opacity="0.0" fill-opacity="1.0" stroke="#000000" stroke-width="0.0" fill="#c73800"><rect height="7.692307692307693e-2" width="9.351732014024228e-2" x="-0.2824133992987884" y="0.4230769230769231"/></g><g stroke-opacity="0.0" fill-opacity="1.0" stroke="#000000" stroke-width="0.0" fill="#c33c00"><rect height="7.692307692307693e-2" width="9.351732014024228e-2" x="-0.2824133992987884" y="0.34615384615384615"/></g><g stroke-opacity="0.0" fill-opacity="1.0" stroke="#000000" stroke-width="0.0" fill="#c53a00"><rect height="7.692307692307693e-2" width="9.351732014024228e-2" x="-0.2824133992987884" y="0.2692307692307692"/></g><g stroke-opacity="0.0" fill-opacity="1.0" stroke="#000000" stroke-width="0.0" fill="#bb4400"><rect height="7.692307692307693e-2" width="9.351732014024228e-2" x="-0.2824133992987884" y="0.1923076923076923"/></g><g stroke-opacity="0.0" fill-opacity="1.0" stroke="#000000" stroke-width="0.0" fill="#bd4200"><rect height="7.692307692307693e-2" width="9.351732014024228e-2" x="-0.2824133992987884" y="0.11538461538461536"/></g><g stroke-opacity="0.0" fill-opacity="1.0" stroke="#000000" stroke-width="0.0" fill="#b14e00"><rect height="7.692307692307693e-2" width="9.351732014024228e-2" x="-0.2824133992987884" y="3.8461538461538436e-2"/></g><g stroke-opacity="0.0" fill-opacity="1.0" stroke="#000000" stroke-width="0.0" fill="#ab5400"><rect height="7.692307692307698e-2" width="9.351732014024228e-2" x="-0.2824133992987884" y="-3.846153846153855e-2"/></g><g stroke-opacity="0.0" fill-opacity="1.0" stroke="#000000" stroke-width="0.0" fill="#47b800"><rect height="7.692307692307687e-2" width="9.351732014024228e-2" x="-0.2824133992987884" y="-0.11538461538461542"/></g><g stroke-opacity="0.0" fill-opacity="1.0" stroke="#000000" stroke-width="0.0" fill="#af5000"><rect height="7.692307692307687e-2" width="9.351732014024228e-2" x="-0.2824133992987884" y="-0.1923076923076923"/></g><g stroke-opacity="0.0" fill-opacity="1.0" stroke="#000000" stroke-width="0.0" fill="#9d6200"><rect height="7.692307692307698e-2" width="9.351732014024228e-2" x="-0.2824133992987884" y="-0.2692307692307693"/></g><g stroke-opacity="0.0" fill-opacity="1.0" stroke="#000000" stroke-width="0.0" fill="#926d00"><rect height="7.692307692307698e-2" width="9.351732014024228e-2" x="-0.2824133992987884" y="-0.34615384615384626"/></g><g stroke-opacity="0.0" fill-opacity="1.0" stroke="#000000" stroke-width="0.0" fill="#807f00"><rect height="7.692307692307687e-2" width="9.351732014024228e-2" x="-0.2824133992987884" y="-0.42307692307692313"/></g><g stroke-opacity="0.0" fill-opacity="1.0" stroke="#000000" stroke-width="0.0" fill="#6e9100"><rect height="7.692307692307687e-2" width="9.351732014024228e-2" x="-0.2824133992987884" y="-0.5"/></g><g stroke-opacity="0.0" fill-opacity="1.0" stroke="#000000" stroke-width="0.0" fill="#d02f00"><rect height="7.692307692307693e-2" width="9.351732014024239e-2" x="-0.18889607915854612" y="0.4230769230769231"/></g><g stroke-opacity="0.0" fill-opacity="1.0" stroke="#000000" stroke-width="0.0" fill="#d02f00"><rect height="7.692307692307693e-2" width="9.351732014024239e-2" x="-0.18889607915854612" y="0.34615384615384615"/></g><g stroke-opacity="0.0" fill-opacity="1.0" stroke="#000000" stroke-width="0.0" fill="#cc3300"><rect height="7.692307692307693e-2" width="9.351732014024239e-2" x="-0.18889607915854612" y="0.2692307692307692"/></g><g stroke-opacity="0.0" fill-opacity="1.0" stroke="#000000" stroke-width="0.0" fill="#c53a00"><rect height="7.692307692307693e-2" width="9.351732014024239e-2" x="-0.18889607915854612" y="0.1923076923076923"/></g><g stroke-opacity="0.0" fill-opacity="1.0" stroke="#000000" stroke-width="0.0" fill="#c23d00"><rect height="7.692307692307693e-2" width="9.351732014024239e-2" x="-0.18889607915854612" y="0.11538461538461536"/></g><g stroke-opacity="0.0" fill-opacity="1.0" stroke="#000000" stroke-width="0.0" fill="#b94600"><rect height="7.692307692307693e-2" width="9.351732014024239e-2" x="-0.18889607915854612" y="3.8461538461538436e-2"/></g><g stroke-opacity="0.0" fill-opacity="1.0" stroke="#000000" stroke-width="0.0" fill="#51ae00"><rect height="7.692307692307698e-2" width="9.351732014024239e-2" x="-0.18889607915854612" y="-3.846153846153855e-2"/></g><g stroke-opacity="0.0" fill-opacity="1.0" stroke="#000000" stroke-width="0.0" fill="#b54a00"><rect height="7.692307692307687e-2" width="9.351732014024239e-2" x="-0.18889607915854612" y="-0.11538461538461542"/></g><g stroke-opacity="0.0" fill-opacity="1.0" stroke="#000000" stroke-width="0.0" fill="#b54a00"><rect height="7.692307692307687e-2" width="9.351732014024239e-2" x="-0.18889607915854612" y="-0.1923076923076923"/></g><g stroke-opacity="0.0" fill-opacity="1.0" stroke="#000000" stroke-width="0.0" fill="#a55a00"><rect height="7.692307692307698e-2" width="9.351732014024239e-2" x="-0.18889607915854612" y="-0.2692307692307693"/></g><g stroke-opacity="0.0" fill-opacity="1.0" stroke="#000000" stroke-width="0.0" fill="#986700"><rect height="7.692307692307698e-2" width="9.351732014024239e-2" x="-0.18889607915854612" y="-0.34615384615384626"/></g><g stroke-opacity="0.0" fill-opacity="1.0" stroke="#000000" stroke-width="0.0" fill="#7e8100"><rect height="7.692307692307687e-2" width="9.351732014024239e-2" x="-0.18889607915854612" y="-0.42307692307692313"/></g><g stroke-opacity="0.0" fill-opacity="1.0" stroke="#000000" stroke-width="0.0" fill="#6d9200"><rect height="7.692307692307687e-2" width="9.351732014024239e-2" x="-0.18889607915854612" y="-0.5"/></g><g stroke-opacity="0.0" fill-opacity="1.0" stroke="#000000" stroke-width="0.0" fill="#da2500"><rect height="7.692307692307693e-2" width="9.351732014024228e-2" x="-9.537875901830373e-2" y="0.4230769230769231"/></g><g stroke-opacity="0.0" fill-opacity="1.0" stroke="#000000" stroke-width="0.0" fill="#d72800"><rect height="7.692307692307693e-2" width="9.351732014024228e-2" x="-9.537875901830373e-2" y="0.34615384615384615"/></g><g stroke-opacity="0.0" fill-opacity="1.0" stroke="#000000" stroke-width="0.0" fill="#d22d00"><rect height="7.692307692307693e-2" width="9.351732014024228e-2" x="-9.537875901830373e-2" y="0.2692307692307692"/></g><g stroke-opacity="0.0" fill-opacity="1.0" stroke="#000000" stroke-width="0.0" fill="#c83700"><rect height="7.692307692307693e-2" width="9.351732014024228e-2" x="-9.537875901830373e-2" y="0.1923076923076923"/></g><g stroke-opacity="0.0" fill-opacity="1.0" stroke="#000000" stroke-width="0.0" fill="#c63900"><rect height="7.692307692307693e-2" width="9.351732014024228e-2" x="-9.537875901830373e-2" y="0.11538461538461536"/></g><g stroke-opacity="0.0" fill-opacity="1.0" stroke="#000000" stroke-width="0.0" fill="#5da200"><rect height="7.692307692307693e-2" width="9.351732014024228e-2" x="-9.537875901830373e-2" y="3.8461538461538436e-2"/></g><g stroke-opacity="0.0" fill-opacity="1.0" stroke="#000000" stroke-width="0.0" fill="#c73800"><rect height="7.692307692307698e-2" width="9.351732014024228e-2" x="-9.537875901830373e-2" y="-3.846153846153855e-2"/></g><g stroke-opacity="0.0" fill-opacity="1.0" stroke="#000000" stroke-width="0.0" fill="#c13e00"><rect height="7.692307692307687e-2" width="9.351732014024228e-2" x="-9.537875901830373e-2" y="-0.11538461538461542"/></g><g stroke-opacity="0.0" fill-opacity="1.0" stroke="#000000" stroke-width="0.0" fill="#b64900"><rect height="7.692307692307687e-2" width="9.351732014024228e-2" x="-9.537875901830373e-2" y="-0.1923076923076923"/></g><g stroke-opacity="0.0" fill-opacity="1.0" stroke="#000000" stroke-width="0.0" fill="#a45b00"><rect height="7.692307692307698e-2" width="9.351732014024228e-2" x="-9.537875901830373e-2" y="-0.2692307692307693"/></g><g stroke-opacity="0.0" fill-opacity="1.0" stroke="#000000" stroke-width="0.0" fill="#9a6500"><rect height="7.692307692307698e-2" width="9.351732014024228e-2" x="-9.537875901830373e-2" y="-0.34615384615384626"/></g><g stroke-opacity="0.0" fill-opacity="1.0" stroke="#000000" stroke-width="0.0" fill="#847b00"><rect height="7.692307692307687e-2" width="9.351732014024228e-2" x="-9.537875901830373e-2" y="-0.42307692307692313"/></g><g stroke-opacity="0.0" fill-opacity="1.0" stroke="#000000" stroke-width="0.0" fill="#788700"><rect height="7.692307692307687e-2" width="9.351732014024228e-2" x="-9.537875901830373e-2" y="-0.5"/></g><g stroke-opacity="0.0" fill-opacity="1.0" stroke="#000000" stroke-width="0.0" fill="#e01f00"><rect height="7.692307692307693e-2" width="9.351732014024228e-2" x="-1.86143887806145e-3" y="0.4230769230769231"/></g><g stroke-opacity="0.0" fill-opacity="1.0" stroke="#000000" stroke-width="0.0" fill="#e01f00"><rect height="7.692307692307693e-2" width="9.351732014024228e-2" x="-1.86143887806145e-3" y="0.34615384615384615"/></g><g stroke-opacity="0.0" fill-opacity="1.0" stroke="#000000" stroke-width="0.0" fill="#db2400"><rect height="7.692307692307693e-2" width="9.351732014024228e-2" x="-1.86143887806145e-3" y="0.2692307692307692"/></g><g stroke-opacity="0.0" fill-opacity="1.0" stroke="#000000" stroke-width="0.0" fill="#d62900"><rect height="7.692307692307693e-2" width="9.351732014024228e-2" x="-1.86143887806145e-3" y="0.1923076923076923"/></g><g stroke-opacity="0.0" fill-opacity="1.0" stroke="#000000" stroke-width="0.0" fill="#669900"><rect height="7.692307692307693e-2" width="9.351732014024228e-2" x="-1.86143887806145e-3" y="0.11538461538461536"/></g><g stroke-opacity="0.0" fill-opacity="1.0" stroke="#000000" stroke-width="0.0" fill="#d82700"><rect height="7.692307692307693e-2" width="9.351732014024228e-2" x="-1.86143887806145e-3" y="3.8461538461538436e-2"/></g><g stroke-opacity="0.0" fill-opacity="1.0" stroke="#000000" stroke-width="0.0" fill="#d22d00"><rect height="7.692307692307698e-2" width="9.351732014024228e-2" x="-1.86143887806145e-3" y="-3.846153846153855e-2"/></g><g stroke-opacity="0.0" fill-opacity="1.0" stroke="#000000" stroke-width="0.0" fill="#cc3300"><rect height="7.692307692307687e-2" width="9.351732014024228e-2" x="-1.86143887806145e-3" y="-0.11538461538461542"/></g><g stroke-opacity="0.0" fill-opacity="1.0" stroke="#000000" stroke-width="0.0" fill="#c23d00"><rect height="7.692307692307687e-2" width="9.351732014024228e-2" x="-1.86143887806145e-3" y="-0.1923076923076923"/></g><g stroke-opacity="0.0" fill-opacity="1.0" stroke="#000000" stroke-width="0.0" fill="#b34c00"><rect height="7.692307692307698e-2" width="9.351732014024228e-2" x="-1.86143887806145e-3" y="-0.2692307692307693"/></g><g stroke-opacity="0.0" fill-opacity="1.0" stroke="#000000" stroke-width="0.0" fill="#9a6500"><rect height="7.692307692307698e-2" width="9.351732014024228e-2" x="-1.86143887806145e-3" y="-0.34615384615384626"/></g><g stroke-opacity="0.0" fill-opacity="1.0" stroke="#000000" stroke-width="0.0" fill="#877800"><rect height="7.692307692307687e-2" width="9.351732014024228e-2" x="-1.86143887806145e-3" y="-0.42307692307692313"/></g><g stroke-opacity="0.0" fill-opacity="1.0" stroke="#000000" stroke-width="0.0" fill="#788700"><rect height="7.692307692307687e-2" width="9.351732014024228e-2" x="-1.86143887806145e-3" y="-0.5"/></g><g stroke-opacity="0.0" fill-opacity="1.0" stroke="#000000" stroke-width="0.0" fill="#df2000"><rect height="7.692307692307693e-2" width="9.351732014024239e-2" x="9.165588126218083e-2" y="0.4230769230769231"/></g><g stroke-opacity="0.0" fill-opacity="1.0" stroke="#000000" stroke-width="0.0" fill="#e01f00"><rect height="7.692307692307693e-2" width="9.351732014024239e-2" x="9.165588126218083e-2" y="0.34615384615384615"/></g><g stroke-opacity="0.0" fill-opacity="1.0" stroke="#000000" stroke-width="0.0" fill="#dc2300"><rect height="7.692307692307693e-2" width="9.351732014024239e-2" x="9.165588126218083e-2" y="0.2692307692307692"/></g><g stroke-opacity="0.0" fill-opacity="1.0" stroke="#000000" stroke-width="0.0" fill="#798600"><rect height="7.692307692307693e-2" width="9.351732014024239e-2" x="9.165588126218083e-2" y="0.1923076923076923"/></g><g stroke-opacity="0.0" fill-opacity="1.0" stroke="#000000" stroke-width="0.0" fill="#e51a00"><rect height="7.692307692307693e-2" width="9.351732014024239e-2" x="9.165588126218083e-2" y="0.11538461538461536"/></g><g stroke-opacity="0.0" fill-opacity="1.0" stroke="#000000" stroke-width="0.0" fill="#d32c00"><rect height="7.692307692307693e-2" width="9.351732014024239e-2" x="9.165588126218083e-2" y="3.8461538461538436e-2"/></g><g stroke-opacity="0.0" fill-opacity="1.0" stroke="#000000" stroke-width="0.0" fill="#d22d00"><rect height="7.692307692307698e-2" width="9.351732014024239e-2" x="9.165588126218083e-2" y="-3.846153846153855e-2"/></g><g stroke-opacity="0.0" fill-opacity="1.0" stroke="#000000" stroke-width="0.0" fill="#c63900"><rect height="7.692307692307687e-2" width="9.351732014024239e-2" x="9.165588126218083e-2" y="-0.11538461538461542"/></g><g stroke-opacity="0.0" fill-opacity="1.0" stroke="#000000" stroke-width="0.0" fill="#b84700"><rect height="7.692307692307687e-2" width="9.351732014024239e-2" x="9.165588126218083e-2" y="-0.1923076923076923"/></g><g stroke-opacity="0.0" fill-opacity="1.0" stroke="#000000" stroke-width="0.0" fill="#b04f00"><rect height="7.692307692307698e-2" width="9.351732014024239e-2" x="9.165588126218083e-2" y="-0.2692307692307693"/></g><g stroke-opacity="0.0" fill-opacity="1.0" stroke="#000000" stroke-width="0.0" fill="#9e6100"><rect height="7.692307692307698e-2" width="9.351732014024239e-2" x="9.165588126218083e-2" y="-0.34615384615384626"/></g><g stroke-opacity="0.0" fill-opacity="1.0" stroke="#000000" stroke-width="0.0" fill="#877800"><rect height="7.692307692307687e-2" width="9.351732014024239e-2" x="9.165588126218083e-2" y="-0.42307692307692313"/></g><g stroke-opacity="0.0" fill-opacity="1.0" stroke="#000000" stroke-width="0.0" fill="#788700"><rect height="7.692307692307687e-2" width="9.351732014024239e-2" x="9.165588126218083e-2" y="-0.5"/></g><g stroke-opacity="0.0" fill-opacity="1.0" stroke="#000000" stroke-width="0.0" fill="#ee1100"><rect height="7.692307692307693e-2" width="9.351732014024239e-2" x="0.18517320140242322" y="0.4230769230769231"/></g><g stroke-opacity="0.0" fill-opacity="1.0" stroke="#000000" stroke-width="0.0" fill="#ea1500"><rect height="7.692307692307693e-2" width="9.351732014024239e-2" x="0.18517320140242322" y="0.34615384615384615"/></g><g stroke-opacity="0.0" fill-opacity="1.0" stroke="#000000" stroke-width="0.0" fill="#887700"><rect height="7.692307692307693e-2" width="9.351732014024239e-2" x="0.18517320140242322" y="0.2692307692307692"/></g><g stroke-opacity="0.0" fill-opacity="1.0" stroke="#000000" stroke-width="0.0" fill="#ed1200"><rect height="7.692307692307693e-2" width="9.351732014024239e-2" x="0.18517320140242322" y="0.1923076923076923"/></g><g stroke-opacity="0.0" fill-opacity="1.0" stroke="#000000" stroke-width="0.0" fill="#eb1400"><rect height="7.692307692307693e-2" width="9.351732014024239e-2" x="0.18517320140242322" y="0.11538461538461536"/></g><g stroke-opacity="0.0" fill-opacity="1.0" stroke="#000000" stroke-width="0.0" fill="#dd2200"><rect height="7.692307692307693e-2" width="9.351732014024239e-2" x="0.18517320140242322" y="3.8461538461538436e-2"/></g><g stroke-opacity="0.0" fill-opacity="1.0" stroke="#000000" stroke-width="0.0" fill="#db2400"><rect height="7.692307692307698e-2" width="9.351732014024239e-2" x="0.18517320140242322" y="-3.846153846153855e-2"/></g><g stroke-opacity="0.0" fill-opacity="1.0" stroke="#000000" stroke-width="0.0" fill="#d32c00"><rect height="7.692307692307687e-2" width="9.351732014024239e-2" x="0.18517320140242322" y="-0.11538461538461542"/></g><g stroke-opacity="0.0" fill-opacity="1.0" stroke="#000000" stroke-width="0.0" fill="#cd3200"><rect height="7.692307692307687e-2" width="9.351732014024239e-2" x="0.18517320140242322" y="-0.1923076923076923"/></g><g stroke-opacity="0.0" fill-opacity="1.0" stroke="#000000" stroke-width="0.0" fill="#c33c00"><rect height="7.692307692307698e-2" width="9.351732014024239e-2" x="0.18517320140242322" y="-0.2692307692307693"/></g><g stroke-opacity="0.0" fill-opacity="1.0" stroke="#000000" stroke-width="0.0" fill="#b04f00"><rect height="7.692307692307698e-2" width="9.351732014024239e-2" x="0.18517320140242322" y="-0.34615384615384626"/></g><g stroke-opacity="0.0" fill-opacity="1.0" stroke="#000000" stroke-width="0.0" fill="#996600"><rect height="7.692307692307687e-2" width="9.351732014024239e-2" x="0.18517320140242322" y="-0.42307692307692313"/></g><g stroke-opacity="0.0" fill-opacity="1.0" stroke="#000000" stroke-width="0.0" fill="#867900"><rect height="7.692307692307687e-2" width="9.351732014024239e-2" x="0.18517320140242322" y="-0.5"/></g><g stroke-opacity="0.0" fill-opacity="1.0" stroke="#000000" stroke-width="0.0" fill="#ef1000"><rect height="7.692307692307693e-2" width="9.351732014024217e-2" x="0.2786905215426656" y="0.4230769230769231"/></g><g stroke-opacity="0.0" fill-opacity="1.0" stroke="#000000" stroke-width="0.0" fill="#906f00"><rect height="7.692307692307693e-2" width="9.351732014024217e-2" x="0.2786905215426656" y="0.34615384615384615"/></g><g stroke-opacity="0.0" fill-opacity="1.0" stroke="#000000" stroke-width="0.0" fill="#f60800"><rect height="7.692307692307693e-2" width="9.351732014024217e-2" x="0.2786905215426656" y="0.2692307692307692"/></g><g stroke-opacity="0.0" fill-opacity="1.0" stroke="#000000" stroke-width="0.0" fill="#ee1100"><rect height="7.692307692307693e-2" width="9.351732014024217e-2" x="0.2786905215426656" y="0.1923076923076923"/></g><g stroke-opacity="0.0" fill-opacity="1.0" stroke="#000000" stroke-width="0.0" fill="#f00f00"><rect height="7.692307692307693e-2" width="9.351732014024217e-2" x="0.2786905215426656" y="0.11538461538461536"/></g><g stroke-opacity="0.0" fill-opacity="1.0" stroke="#000000" stroke-width="0.0" fill="#e41b00"><rect height="7.692307692307693e-2" width="9.351732014024217e-2" x="0.2786905215426656" y="3.8461538461538436e-2"/></g><g stroke-opacity="0.0" fill-opacity="1.0" stroke="#000000" stroke-width="0.0" fill="#db2400"><rect height="7.692307692307698e-2" width="9.351732014024217e-2" x="0.2786905215426656" y="-3.846153846153855e-2"/></g><g stroke-opacity="0.0" fill-opacity="1.0" stroke="#000000" stroke-width="0.0" fill="#ce3100"><rect height="7.692307692307687e-2" width="9.351732014024217e-2" x="0.2786905215426656" y="-0.11538461538461542"/></g><g stroke-opacity="0.0" fill-opacity="1.0" stroke="#000000" stroke-width="0.0" fill="#c73800"><rect height="7.692307692307687e-2" width="9.351732014024217e-2" x="0.2786905215426656" y="-0.1923076923076923"/></g><g stroke-opacity="0.0" fill-opacity="1.0" stroke="#000000" stroke-width="0.0" fill="#c13e00"><rect height="7.692307692307698e-2" width="9.351732014024217e-2" x="0.2786905215426656" y="-0.2692307692307693"/></g><g stroke-opacity="0.0" fill-opacity="1.0" stroke="#000000" stroke-width="0.0" fill="#a55a00"><rect height="7.692307692307698e-2" width="9.351732014024217e-2" x="0.2786905215426656" y="-0.34615384615384626"/></g><g stroke-opacity="0.0" fill-opacity="1.0" stroke="#000000" stroke-width="0.0" fill="#906f00"><rect height="7.692307692307687e-2" width="9.351732014024217e-2" x="0.2786905215426656" y="-0.42307692307692313"/></g><g stroke-opacity="0.0" fill-opacity="1.0" stroke="#000000" stroke-width="0.0" fill="#857a00"><rect height="7.692307692307687e-2" width="9.351732014024217e-2" x="0.2786905215426656" y="-0.5"/></g><g stroke-opacity="0.0" fill-opacity="1.0" stroke="#000000" stroke-width="0.0" fill="#a25d00"><rect height="7.692307692307693e-2" width="9.351732014024217e-2" x="0.37220784168290777" y="0.4230769230769231"/></g><g stroke-opacity="0.0" fill-opacity="1.0" stroke="#000000" stroke-width="0.0" fill="#ff0000"><rect height="7.692307692307693e-2" width="9.351732014024217e-2" x="0.37220784168290777" y="0.34615384615384615"/></g><g stroke-opacity="0.0" fill-opacity="1.0" stroke="#000000" stroke-width="0.0" fill="#fb0400"><rect height="7.692307692307693e-2" width="9.351732014024217e-2" x="0.37220784168290777" y="0.2692307692307692"/></g><g stroke-opacity="0.0" fill-opacity="1.0" stroke="#000000" stroke-width="0.0" fill="#ed1200"><rect height="7.692307692307693e-2" width="9.351732014024217e-2" x="0.37220784168290777" y="0.1923076923076923"/></g><g stroke-opacity="0.0" fill-opacity="1.0" stroke="#000000" stroke-width="0.0" fill="#ef1000"><rect height="7.692307692307693e-2" width="9.351732014024217e-2" x="0.37220784168290777" y="0.11538461538461536"/></g><g stroke-opacity="0.0" fill-opacity="1.0" stroke="#000000" stroke-width="0.0" fill="#ea1500"><rect height="7.692307692307693e-2" width="9.351732014024217e-2" x="0.37220784168290777" y="3.8461538461538436e-2"/></g><g stroke-opacity="0.0" fill-opacity="1.0" stroke="#000000" stroke-width="0.0" fill="#e11e00"><rect height="7.692307692307698e-2" width="9.351732014024217e-2" x="0.37220784168290777" y="-3.846153846153855e-2"/></g><g stroke-opacity="0.0" fill-opacity="1.0" stroke="#000000" stroke-width="0.0" fill="#d22d00"><rect height="7.692307692307687e-2" width="9.351732014024217e-2" x="0.37220784168290777" y="-0.11538461538461542"/></g><g stroke-opacity="0.0" fill-opacity="1.0" stroke="#000000" stroke-width="0.0" fill="#ca3500"><rect height="7.692307692307687e-2" width="9.351732014024217e-2" x="0.37220784168290777" y="-0.1923076923076923"/></g><g stroke-opacity="0.0" fill-opacity="1.0" stroke="#000000" stroke-width="0.0" fill="#c13e00"><rect height="7.692307692307698e-2" width="9.351732014024217e-2" x="0.37220784168290777" y="-0.2692307692307693"/></g><g stroke-opacity="0.0" fill-opacity="1.0" stroke="#000000" stroke-width="0.0" fill="#a85700"><rect height="7.692307692307698e-2" width="9.351732014024217e-2" x="0.37220784168290777" y="-0.34615384615384626"/></g><g stroke-opacity="0.0" fill-opacity="1.0" stroke="#000000" stroke-width="0.0" fill="#946b00"><rect height="7.692307692307687e-2" width="9.351732014024217e-2" x="0.37220784168290777" y="-0.42307692307692313"/></g><g stroke-opacity="0.0" fill-opacity="1.0" stroke="#000000" stroke-width="0.0" fill="#897600"><rect height="7.692307692307687e-2" width="9.351732014024217e-2" x="0.37220784168290777" y="-0.5"/></g><g fill-opacity="1.0" font-size="3.4999999999999996e-2" stroke="none" stroke-width="0.0" fill="#0d0d0d" text-anchor="start"><text x="0.6691542767387604" y="-5.635000000000001e-2">0.2</text></g><g fill-opacity="1.0" font-size="3.4999999999999996e-2" stroke="none" stroke-width="0.0" fill="#0d0d0d" text-anchor="start"><text x="0.6691542767387604" y="-0.1730166666666666">0.4</text></g><g fill-opacity="1.0" font-size="3.4999999999999996e-2" stroke="none" stroke-width="0.0" fill="#0d0d0d" text-anchor="start"><text x="0.6691542767387604" y="-0.2896833333333333">0.6</text></g><g stroke-opacity="0.4" fill-opacity="1.0" stroke="#0d0d0d" stroke-width="2.0e-3" fill="#0d0d0d"><g transform="rotate(-90.0, 0.617217282100514, -6.65e-2)"><polyline points="0.617217282100514,-5.600000000000001e-2
0.617217282100514,-7.7e-2"/></g><g transform="rotate(-90.0, 0.617217282100514, -0.1831666666666667)"><polyline points="0.617217282100514,-0.1726666666666667
0.617217282100514,-0.1936666666666667"/></g><g transform="rotate(-90.0, 0.617217282100514, -0.2998333333333334)"><polyline points="0.617217282100514,-0.2893333333333334
0.617217282100514,-0.3103333333333334"/></g></g><g stroke-opacity="0.0" fill-opacity="1.0" stroke="#000000" stroke-width="0.0" fill="#b05a2a"><rect height="3.4999999999999476e-3" width="4.255038066381034e-2" x="0.5661568253039413" y="-3.4999999999999476e-3"/></g><g stroke-opacity="0.0" fill-opacity="1.0" stroke="#000000" stroke-width="0.0" fill="#b05b2c"><rect height="3.5000000000000586e-3" width="4.255038066381034e-2" x="0.5661568253039413" y="-7.000000000000006e-3"/></g><g stroke-opacity="0.0" fill-opacity="1.0" stroke="#000000" stroke-width="0.0" fill="#b05c2d"><rect height="3.4999999999999476e-3" width="4.255038066381034e-2" x="0.5661568253039413" y="-1.0499999999999954e-2"/></g><g stroke-opacity="0.0" fill-opacity="1.0" stroke="#000000" stroke-width="0.0" fill="#b05d2f"><rect height="3.5000000000000586e-3" width="4.255038066381034e-2" x="0.5661568253039413" y="-1.4000000000000012e-2"/></g><g stroke-opacity="0.0" fill-opacity="1.0" stroke="#000000" stroke-width="0.0" fill="#af5f31"><rect height="3.4999999999999476e-3" width="4.255038066381034e-2" x="0.5661568253039413" y="-1.749999999999996e-2"/></g><g stroke-opacity="0.0" fill-opacity="1.0" stroke="#000000" stroke-width="0.0" fill="#af6033"><rect height="3.5000000000000586e-3" width="4.255038066381034e-2" x="0.5661568253039413" y="-2.100000000000002e-2"/></g><g stroke-opacity="0.0" fill-opacity="1.0" stroke="#000000" stroke-width="0.0" fill="#af6135"><rect height="3.4999999999999476e-3" width="4.255038066381034e-2" x="0.5661568253039413" y="-2.4499999999999966e-2"/></g><g stroke-opacity="0.0" fill-opacity="1.0" stroke="#000000" stroke-width="0.0" fill="#af6237"><rect height="3.5000000000000586e-3" width="4.255038066381034e-2" x="0.5661568253039413" y="-2.8000000000000025e-2"/></g><g stroke-opacity="0.0" fill-opacity="1.0" stroke="#000000" stroke-width="0.0" fill="#af6339"><rect height="3.4999999999999476e-3" width="4.255038066381034e-2" x="0.5661568253039413" y="-3.149999999999997e-2"/></g><g stroke-opacity="0.0" fill-opacity="1.0" stroke="#000000" stroke-width="0.0" fill="#af643a"><rect height="3.5000000000000586e-3" width="4.255038066381034e-2" x="0.5661568253039413" y="-3.500000000000003e-2"/></g><g stroke-opacity="0.0" fill-opacity="1.0" stroke="#000000" stroke-width="0.0" fill="#af663c"><rect height="3.4999999999999476e-3" width="4.255038066381034e-2" x="0.5661568253039413" y="-3.849999999999998e-2"/></g><g stroke-opacity="0.0" fill-opacity="1.0" stroke="#000000" stroke-width="0.0" fill="#af673e"><rect height="3.5000000000000586e-3" width="4.255038066381034e-2" x="0.5661568253039413" y="-4.200000000000004e-2"/></g><g stroke-opacity="0.0" fill-opacity="1.0" stroke="#000000" stroke-width="0.0" fill="#af6840"><rect height="3.4999999999999476e-3" width="4.255038066381034e-2" x="0.5661568253039413" y="-4.5499999999999985e-2"/></g><g stroke-opacity="0.0" fill-opacity="1.0" stroke="#000000" stroke-width="0.0" fill="#af6942"><rect height="3.5000000000000586e-3" width="4.255038066381034e-2" x="0.5661568253039413" y="-4.9000000000000044e-2"/></g><g stroke-opacity="0.0" fill-opacity="1.0" stroke="#000000" stroke-width="0.0" fill="#ae6a44"><rect height="3.4999999999999476e-3" width="4.255038066381034e-2" x="0.5661568253039413" y="-5.249999999999999e-2"/></g><g stroke-opacity="0.0" fill-opacity="1.0" stroke="#000000" stroke-width="0.0" fill="#ae6b46"><rect height="3.5000000000000586e-3" width="4.255038066381034e-2" x="0.5661568253039413" y="-5.600000000000005e-2"/></g><g stroke-opacity="0.0" fill-opacity="1.0" stroke="#000000" stroke-width="0.0" fill="#ae6d48"><rect height="3.4999999999999476e-3" width="4.255038066381034e-2" x="0.5661568253039413" y="-5.95e-2"/></g><g stroke-opacity="0.0" fill-opacity="1.0" stroke="#000000" stroke-width="0.0" fill="#ae6e49"><rect height="3.4999999999999476e-3" width="4.255038066381034e-2" x="0.5661568253039413" y="-6.299999999999994e-2"/></g><g stroke-opacity="0.0" fill-opacity="1.0" stroke="#000000" stroke-width="0.0" fill="#ae6f4b"><rect height="3.5000000000000586e-3" width="4.255038066381034e-2" x="0.5661568253039413" y="-6.65e-2"/></g><g stroke-opacity="0.0" fill-opacity="1.0" stroke="#000000" stroke-width="0.0" fill="#ae704d"><rect height="3.4999999999999476e-3" width="4.255038066381034e-2" x="0.5661568253039413" y="-6.999999999999995e-2"/></g><g stroke-opacity="0.0" fill-opacity="1.0" stroke="#000000" stroke-width="0.0" fill="#ae714f"><rect height="3.5000000000000586e-3" width="4.255038066381034e-2" x="0.5661568253039413" y="-7.350000000000001e-2"/></g><g stroke-opacity="0.0" fill-opacity="1.0" stroke="#000000" stroke-width="0.0" fill="#ae7251"><rect height="3.4999999999999476e-3" width="4.255038066381034e-2" x="0.5661568253039413" y="-7.699999999999996e-2"/></g><g stroke-opacity="0.0" fill-opacity="1.0" stroke="#000000" stroke-width="0.0" fill="#ae7453"><rect height="3.5000000000000586e-3" width="4.255038066381034e-2" x="0.5661568253039413" y="-8.050000000000002e-2"/></g><g stroke-opacity="0.0" fill-opacity="1.0" stroke="#000000" stroke-width="0.0" fill="#ae7555"><rect height="3.4999999999999476e-3" width="4.255038066381034e-2" x="0.5661568253039413" y="-8.399999999999996e-2"/></g><g stroke-opacity="0.0" fill-opacity="1.0" stroke="#000000" stroke-width="0.0" fill="#ad7656"><rect height="3.5000000000000586e-3" width="4.255038066381034e-2" x="0.5661568253039413" y="-8.750000000000002e-2"/></g><g stroke-opacity="0.0" fill-opacity="1.0" stroke="#000000" stroke-width="0.0" fill="#ad7758"><rect height="3.4999999999999476e-3" width="4.255038066381034e-2" x="0.5661568253039413" y="-9.099999999999997e-2"/></g><g stroke-opacity="0.0" fill-opacity="1.0" stroke="#000000" stroke-width="0.0" fill="#ad785a"><rect height="3.5000000000000586e-3" width="4.255038066381034e-2" x="0.5661568253039413" y="-9.450000000000003e-2"/></g><g stroke-opacity="0.0" fill-opacity="1.0" stroke="#000000" stroke-width="0.0" fill="#ad7a5c"><rect height="3.4999999999999476e-3" width="4.255038066381034e-2" x="0.5661568253039413" y="-9.799999999999998e-2"/></g><g stroke-opacity="0.0" fill-opacity="1.0" stroke="#000000" stroke-width="0.0" fill="#ad7b5e"><rect height="3.5000000000000586e-3" width="4.255038066381034e-2" x="0.5661568253039413" y="-0.10150000000000003"/></g><g stroke-opacity="0.0" fill-opacity="1.0" stroke="#000000" stroke-width="0.0" fill="#ad7c60"><rect height="3.4999999999999476e-3" width="4.255038066381034e-2" x="0.5661568253039413" y="-0.10499999999999998"/></g><g stroke-opacity="0.0" fill-opacity="1.0" stroke="#000000" stroke-width="0.0" fill="#ad7d62"><rect height="3.5000000000000586e-3" width="4.255038066381034e-2" x="0.5661568253039413" y="-0.10850000000000004"/></g><g stroke-opacity="0.0" fill-opacity="1.0" stroke="#000000" stroke-width="0.0" fill="#ad7e63"><rect height="3.4999999999999476e-3" width="4.255038066381034e-2" x="0.5661568253039413" y="-0.11199999999999999"/></g><g stroke-opacity="0.0" fill-opacity="1.0" stroke="#000000" stroke-width="0.0" fill="#ad7f65"><rect height="3.4999999999999476e-3" width="4.255038066381034e-2" x="0.5661568253039413" y="-0.11549999999999994"/></g><g stroke-opacity="0.0" fill-opacity="1.0" stroke="#000000" stroke-width="0.0" fill="#ad8167"><rect height="3.5000000000000586e-3" width="4.255038066381034e-2" x="0.5661568253039413" y="-0.119"/></g><g stroke-opacity="0.0" fill-opacity="1.0" stroke="#000000" stroke-width="0.0" fill="#ac8269"><rect height="3.4999999999999476e-3" width="4.255038066381034e-2" x="0.5661568253039413" y="-0.12249999999999994"/></g><g stroke-opacity="0.0" fill-opacity="1.0" stroke="#000000" stroke-width="0.0" fill="#ac836b"><rect height="3.5000000000000586e-3" width="4.255038066381034e-2" x="0.5661568253039413" y="-0.126"/></g><g stroke-opacity="0.0" fill-opacity="1.0" stroke="#000000" stroke-width="0.0" fill="#ac846d"><rect height="3.4999999999999476e-3" width="4.255038066381034e-2" x="0.5661568253039413" y="-0.12949999999999995"/></g><g stroke-opacity="0.0" fill-opacity="1.0" stroke="#000000" stroke-width="0.0" fill="#ac856f"><rect height="3.5000000000000586e-3" width="4.255038066381034e-2" x="0.5661568253039413" y="-0.133"/></g><g stroke-opacity="0.0" fill-opacity="1.0" stroke="#000000" stroke-width="0.0" fill="#ac8670"><rect height="3.4999999999999476e-3" width="4.255038066381034e-2" x="0.5661568253039413" y="-0.13649999999999995"/></g><g stroke-opacity="0.0" fill-opacity="1.0" stroke="#000000" stroke-width="0.0" fill="#ac8872"><rect height="3.5000000000000586e-3" width="4.255038066381034e-2" x="0.5661568253039413" y="-0.14"/></g><g stroke-opacity="0.0" fill-opacity="1.0" stroke="#000000" stroke-width="0.0" fill="#ac8974"><rect height="3.4999999999999476e-3" width="4.255038066381034e-2" x="0.5661568253039413" y="-0.14349999999999996"/></g><g stroke-opacity="0.0" fill-opacity="1.0" stroke="#000000" stroke-width="0.0" fill="#ac8a76"><rect height="3.5000000000000586e-3" width="4.255038066381034e-2" x="0.5661568253039413" y="-0.14700000000000002"/></g><g stroke-opacity="0.0" fill-opacity="1.0" stroke="#000000" stroke-width="0.0" fill="#ac8b78"><rect height="3.4999999999999476e-3" width="4.255038066381034e-2" x="0.5661568253039413" y="-0.15049999999999997"/></g><g stroke-opacity="0.0" fill-opacity="1.0" stroke="#000000" stroke-width="0.0" fill="#ac8c7a"><rect height="3.5000000000000586e-3" width="4.255038066381034e-2" x="0.5661568253039413" y="-0.15400000000000003"/></g><g stroke-opacity="0.0" fill-opacity="1.0" stroke="#000000" stroke-width="0.0" fill="#ab8d7c"><rect height="3.4999999999999476e-3" width="4.255038066381034e-2" x="0.5661568253039413" y="-0.15749999999999997"/></g><g stroke-opacity="0.0" fill-opacity="1.0" stroke="#000000" stroke-width="0.0" fill="#ab8f7d"><rect height="3.5000000000000586e-3" width="4.255038066381034e-2" x="0.5661568253039413" y="-0.16100000000000003"/></g><g stroke-opacity="0.0" fill-opacity="1.0" stroke="#000000" stroke-width="0.0" fill="#ab907f"><rect height="3.4999999999999476e-3" width="4.255038066381034e-2" x="0.5661568253039413" y="-0.16449999999999998"/></g><g stroke-opacity="0.0" fill-opacity="1.0" stroke="#000000" stroke-width="0.0" fill="#ab9181"><rect height="3.5000000000000586e-3" width="4.255038066381034e-2" x="0.5661568253039413" y="-0.16800000000000004"/></g><g stroke-opacity="0.0" fill-opacity="1.0" stroke="#000000" stroke-width="0.0" fill="#ab9283"><rect height="3.4999999999999476e-3" width="4.255038066381034e-2" x="0.5661568253039413" y="-0.17149999999999999"/></g><g stroke-opacity="0.0" fill-opacity="1.0" stroke="#000000" stroke-width="0.0" fill="#ab9385"><rect height="3.5000000000000586e-3" width="4.255038066381034e-2" x="0.5661568253039413" y="-0.17500000000000004"/></g><g stroke-opacity="0.0" fill-opacity="1.0" stroke="#000000" stroke-width="0.0" fill="#ab9487"><rect height="3.4999999999999476e-3" width="4.255038066381034e-2" x="0.5661568253039413" y="-0.1785"/></g><g stroke-opacity="0.0" fill-opacity="1.0" stroke="#000000" stroke-width="0.0" fill="#ab9689"><rect height="3.4999999999999476e-3" width="4.255038066381034e-2" x="0.5661568253039413" y="-0.18199999999999994"/></g><g stroke-opacity="0.0" fill-opacity="1.0" stroke="#000000" stroke-width="0.0" fill="#ab978b"><rect height="3.5000000000000586e-3" width="4.255038066381034e-2" x="0.5661568253039413" y="-0.1855"/></g><g stroke-opacity="0.0" fill-opacity="1.0" stroke="#000000" stroke-width="0.0" fill="#aa988c"><rect height="3.5000000000000586e-3" width="4.255038066381034e-2" x="0.5661568253039413" y="-0.18900000000000006"/></g><g stroke-opacity="0.0" fill-opacity="1.0" stroke="#000000" stroke-width="0.0" fill="#aa998e"><rect height="3.4999999999999476e-3" width="4.255038066381034e-2" x="0.5661568253039413" y="-0.1925"/></g><g stroke-opacity="0.0" fill-opacity="1.0" stroke="#000000" stroke-width="0.0" fill="#aa9a90"><rect height="3.4999999999999476e-3" width="4.255038066381034e-2" x="0.5661568253039413" y="-0.19599999999999995"/></g><g stroke-opacity="0.0" fill-opacity="1.0" stroke="#000000" stroke-width="0.0" fill="#aa9c92"><rect height="3.5000000000000586e-3" width="4.255038066381034e-2" x="0.5661568253039413" y="-0.1995"/></g><g stroke-opacity="0.0" fill-opacity="1.0" stroke="#000000" stroke-width="0.0" fill="#aa9d94"><rect height="3.4999999999999476e-3" width="4.255038066381034e-2" x="0.5661568253039413" y="-0.20299999999999996"/></g><g stroke-opacity="0.0" fill-opacity="1.0" stroke="#000000" stroke-width="0.0" fill="#aa9e96"><rect height="3.5000000000000586e-3" width="4.255038066381034e-2" x="0.5661568253039413" y="-0.20650000000000002"/></g><g stroke-opacity="0.0" fill-opacity="1.0" stroke="#000000" stroke-width="0.0" fill="#aa9f98"><rect height="3.4999999999999476e-3" width="4.255038066381034e-2" x="0.5661568253039413" y="-0.20999999999999996"/></g><g stroke-opacity="0.0" fill-opacity="1.0" stroke="#000000" stroke-width="0.0" fill="#aaa099"><rect height="3.5000000000000586e-3" width="4.255038066381034e-2" x="0.5661568253039413" y="-0.21350000000000002"/></g><g stroke-opacity="0.0" fill-opacity="1.0" stroke="#000000" stroke-width="0.0" fill="#aaa19b"><rect height="3.4999999999999476e-3" width="4.255038066381034e-2" x="0.5661568253039413" y="-0.21699999999999997"/></g><g stroke-opacity="0.0" fill-opacity="1.0" stroke="#000000" stroke-width="0.0" fill="#aaa39d"><rect height="3.4999999999999476e-3" width="4.255038066381034e-2" x="0.5661568253039413" y="-0.22049999999999992"/></g><g stroke-opacity="0.0" fill-opacity="1.0" stroke="#000000" stroke-width="0.0" fill="#a9a49f"><rect height="3.5000000000000586e-3" width="4.255038066381034e-2" x="0.5661568253039413" y="-0.22399999999999998"/></g><g stroke-opacity="0.0" fill-opacity="1.0" stroke="#000000" stroke-width="0.0" fill="#a9a5a1"><rect height="3.5000000000000586e-3" width="4.255038066381034e-2" x="0.5661568253039413" y="-0.22750000000000004"/></g><g stroke-opacity="0.0" fill-opacity="1.0" stroke="#000000" stroke-width="0.0" fill="#a9a6a3"><rect height="3.4999999999999476e-3" width="4.255038066381034e-2" x="0.5661568253039413" y="-0.23099999999999998"/></g><g stroke-opacity="0.0" fill-opacity="1.0" stroke="#000000" stroke-width="0.0" fill="#a9a7a5"><rect height="3.4999999999999476e-3" width="4.255038066381034e-2" x="0.5661568253039413" y="-0.23449999999999993"/></g><g stroke-opacity="0.0" fill-opacity="1.0" stroke="#000000" stroke-width="0.0" fill="#a9a8a6"><rect height="3.5000000000000586e-3" width="4.255038066381034e-2" x="0.5661568253039413" y="-0.238"/></g><g stroke-opacity="0.0" fill-opacity="1.0" stroke="#000000" stroke-width="0.0" fill="#a9aaa8"><rect height="3.5000000000000586e-3" width="4.255038066381034e-2" x="0.5661568253039413" y="-0.24150000000000005"/></g><g stroke-opacity="0.0" fill-opacity="1.0" stroke="#000000" stroke-width="0.0" fill="#a9abaa"><rect height="3.4999999999999476e-3" width="4.255038066381034e-2" x="0.5661568253039413" y="-0.245"/></g><g stroke-opacity="0.0" fill-opacity="1.0" stroke="#000000" stroke-width="0.0" fill="#a9acac"><rect height="3.4999999999999476e-3" width="4.255038066381034e-2" x="0.5661568253039413" y="-0.24849999999999994"/></g><g stroke-opacity="0.0" fill-opacity="1.0" stroke="#000000" stroke-width="0.0" fill="#a9adae"><rect height="3.5000000000000586e-3" width="4.255038066381034e-2" x="0.5661568253039413" y="-0.252"/></g><g stroke-opacity="0.0" fill-opacity="1.0" stroke="#000000" stroke-width="0.0" fill="#a9aeb0"><rect height="3.5000000000000586e-3" width="4.255038066381034e-2" x="0.5661568253039413" y="-0.25550000000000006"/></g><g stroke-opacity="0.0" fill-opacity="1.0" stroke="#000000" stroke-width="0.0" fill="#a8afb2"><rect height="3.4999999999999476e-3" width="4.255038066381034e-2" x="0.5661568253039413" y="-0.259"/></g><g stroke-opacity="0.0" fill-opacity="1.0" stroke="#000000" stroke-width="0.0" fill="#a8b1b3"><rect height="3.4999999999999476e-3" width="4.255038066381034e-2" x="0.5661568253039413" y="-0.26249999999999996"/></g><g stroke-opacity="0.0" fill-opacity="1.0" stroke="#000000" stroke-width="0.0" fill="#a8b2b5"><rect height="3.5000000000000586e-3" width="4.255038066381034e-2" x="0.5661568253039413" y="-0.266"/></g><g stroke-opacity="0.0" fill-opacity="1.0" stroke="#000000" stroke-width="0.0" fill="#a8b3b7"><rect height="3.4999999999999476e-3" width="4.255038066381034e-2" x="0.5661568253039413" y="-0.26949999999999996"/></g><g stroke-opacity="0.0" fill-opacity="1.0" stroke="#000000" stroke-width="0.0" fill="#a8b4b9"><rect height="3.4999999999999476e-3" width="4.255038066381034e-2" x="0.5661568253039413" y="-0.2729999999999999"/></g><g stroke-opacity="0.0" fill-opacity="1.0" stroke="#000000" stroke-width="0.0" fill="#a8b5bb"><rect height="3.5000000000000586e-3" width="4.255038066381034e-2" x="0.5661568253039413" y="-0.27649999999999997"/></g><g stroke-opacity="0.0" fill-opacity="1.0" stroke="#000000" stroke-width="0.0" fill="#a8b7bd"><rect height="3.5000000000000586e-3" width="4.255038066381034e-2" x="0.5661568253039413" y="-0.28"/></g><g stroke-opacity="0.0" fill-opacity="1.0" stroke="#000000" stroke-width="0.0" fill="#a8b8bf"><rect height="3.4999999999999476e-3" width="4.255038066381034e-2" x="0.5661568253039413" y="-0.2835"/></g><g stroke-opacity="0.0" fill-opacity="1.0" stroke="#000000" stroke-width="0.0" fill="#a8b9c1"><rect height="3.4999999999999476e-3" width="4.255038066381034e-2" x="0.5661568253039413" y="-0.2869999999999999"/></g><g stroke-opacity="0.0" fill-opacity="1.0" stroke="#000000" stroke-width="0.0" fill="#a8bac2"><rect height="3.5000000000000586e-3" width="4.255038066381034e-2" x="0.5661568253039413" y="-0.2905"/></g><g stroke-opacity="0.0" fill-opacity="1.0" stroke="#000000" stroke-width="0.0" fill="#a7bbc4"><rect height="3.5000000000000586e-3" width="4.255038066381034e-2" x="0.5661568253039413" y="-0.29400000000000004"/></g><g stroke-opacity="0.0" fill-opacity="1.0" stroke="#000000" stroke-width="0.0" fill="#a7bcc6"><rect height="3.4999999999999476e-3" width="4.255038066381034e-2" x="0.5661568253039413" y="-0.2975"/></g><g stroke-opacity="0.0" fill-opacity="1.0" stroke="#000000" stroke-width="0.0" fill="#a7bec8"><rect height="3.4999999999999476e-3" width="4.255038066381034e-2" x="0.5661568253039413" y="-0.30099999999999993"/></g><g stroke-opacity="0.0" fill-opacity="1.0" stroke="#000000" stroke-width="0.0" fill="#a7bfca"><rect height="3.5000000000000586e-3" width="4.255038066381034e-2" x="0.5661568253039413" y="-0.3045"/></g><g stroke-opacity="0.0" fill-opacity="1.0" stroke="#000000" stroke-width="0.0" fill="#a7c0cc"><rect height="3.5000000000000586e-3" width="4.255038066381034e-2" x="0.5661568253039413" y="-0.30800000000000005"/></g><g stroke-opacity="0.0" fill-opacity="1.0" stroke="#000000" stroke-width="0.0" fill="#a7c1ce"><rect height="3.4999999999999476e-3" width="4.255038066381034e-2" x="0.5661568253039413" y="-0.3115"/></g><g stroke-opacity="0.0" fill-opacity="1.0" stroke="#000000" stroke-width="0.0" fill="#a7c2cf"><rect height="3.4999999999999476e-3" width="4.255038066381034e-2" x="0.5661568253039413" y="-0.31499999999999995"/></g><g stroke-opacity="0.0" fill-opacity="1.0" stroke="#000000" stroke-width="0.0" fill="#a7c3d1"><rect height="3.5000000000000586e-3" width="4.255038066381034e-2" x="0.5661568253039413" y="-0.3185"/></g><g stroke-opacity="0.0" fill-opacity="1.0" stroke="#000000" stroke-width="0.0" fill="#a7c5d3"><rect height="3.5000000000000586e-3" width="4.255038066381034e-2" x="0.5661568253039413" y="-0.32200000000000006"/></g><g stroke-opacity="0.0" fill-opacity="1.0" stroke="#000000" stroke-width="0.0" fill="#a7c6d5"><rect height="3.4999999999999476e-3" width="4.255038066381034e-2" x="0.5661568253039413" y="-0.3255"/></g><g stroke-opacity="0.0" fill-opacity="1.0" stroke="#000000" stroke-width="0.0" fill="#a6c7d7"><rect height="3.4999999999999476e-3" width="4.255038066381034e-2" x="0.5661568253039413" y="-0.32899999999999996"/></g><g stroke-opacity="0.0" fill-opacity="1.0" stroke="#000000" stroke-width="0.0" fill="#a6c8d9"><rect height="3.5000000000000586e-3" width="4.255038066381034e-2" x="0.5661568253039413" y="-0.3325"/></g><g stroke-opacity="0.0" fill-opacity="1.0" stroke="#000000" stroke-width="0.0" fill="#a6c9db"><rect height="3.5000000000000586e-3" width="4.255038066381034e-2" x="0.5661568253039413" y="-0.3360000000000001"/></g><g stroke-opacity="0.0" fill-opacity="1.0" stroke="#000000" stroke-width="0.0" fill="#a6cadc"><rect height="3.4999999999999476e-3" width="4.255038066381034e-2" x="0.5661568253039413" y="-0.3395"/></g><g stroke-opacity="0.0" fill-opacity="1.0" stroke="#000000" stroke-width="0.0" fill="#a6ccde"><rect height="3.4999999999999476e-3" width="4.255038066381034e-2" x="0.5661568253039413" y="-0.34299999999999997"/></g><g stroke-opacity="0.0" fill-opacity="1.0" stroke="#000000" stroke-width="0.0" fill="#a6cde0"><rect height="3.5000000000000586e-3" width="4.255038066381034e-2" x="0.5661568253039413" y="-0.34650000000000003"/></g><g stroke-opacity="0.0" fill-opacity="1.0" stroke="#000000" stroke-width="0.0" fill="#a6cee2"><rect height="3.4999999999999476e-3" width="4.255038066381034e-2" x="0.5661568253039413" y="-0.35"/></g><g fill-opacity="1.0" font-size="8.399999999999999e-2" stroke="none" stroke-width="0.0" fill="#0d0d0d" text-anchor="start"><text x="0.5661568253039413" y="-0.385">win</text></g><g></g><g fill-opacity="1.0" font-size="3.0e-2" stroke="none" stroke-width="0.0" fill="#0d0d0d" text-anchor="middle"><text x="0.41896650175302885" y="0.46153846153846156">22</text><text x="0.41896650175302885" y="0.3846153846153846">32s</text><text x="0.41896650175302885" y="0.3076923076923077">42s</text><text x="0.41896650175302885" y="0.23076923076923073">52s</text><text x="0.41896650175302885" y="0.15384615384615385">62s</text><text x="0.41896650175302885" y="7.692307692307687e-2">72s</text><text x="0.41896650175302885" y="-0.0">82s</text><text x="0.41896650175302885" y="-7.692307692307698e-2">92s</text><text x="0.41896650175302885" y="-0.15384615384615385">T2s</text><text x="0.41896650175302885" y="-0.23076923076923073">J2s</text><text x="0.41896650175302885" y="-0.3076923076923077">Q2s</text><text x="0.41896650175302885" y="-0.3846153846153847">K2s</text><text x="0.41896650175302885" y="-0.46153846153846156">A2s</text><text x="0.32544918161278646" y="0.46153846153846156">32o</text><text x="0.32544918161278646" y="0.3846153846153846">33</text><text x="0.32544918161278646" y="0.3076923076923077">43s</text><text x="0.32544918161278646" y="0.23076923076923073">53s</text><text x="0.32544918161278646" y="0.15384615384615385">63s</text><text x="0.32544918161278646" y="7.692307692307687e-2">73s</text><text x="0.32544918161278646" y="-0.0">83s</text><text x="0.32544918161278646" y="-7.692307692307698e-2">93s</text><text x="0.32544918161278646" y="-0.15384615384615385">T3s</text><text x="0.32544918161278646" y="-0.23076923076923073">J3s</text><text x="0.32544918161278646" y="-0.3076923076923077">Q3s</text><text x="0.32544918161278646" y="-0.3846153846153847">K3s</text><text x="0.32544918161278646" y="-0.46153846153846156">A3s</text><text x="0.2319318614725443" y="0.46153846153846156">42o</text><text x="0.2319318614725443" y="0.3846153846153846">43o</text><text x="0.2319318614725443" y="0.3076923076923077">44</text><text x="0.2319318614725443" y="0.23076923076923073">54s</text><text x="0.2319318614725443" y="0.15384615384615385">64s</text><text x="0.2319318614725443" y="7.692307692307687e-2">74s</text><text x="0.2319318614725443" y="-0.0">84s</text><text x="0.2319318614725443" y="-7.692307692307698e-2">94s</text><text x="0.2319318614725443" y="-0.15384615384615385">T4s</text><text x="0.2319318614725443" y="-0.23076923076923073">J4s</text><text x="0.2319318614725443" y="-0.3076923076923077">Q4s</text><text x="0.2319318614725443" y="-0.3846153846153847">K4s</text><text x="0.2319318614725443" y="-0.46153846153846156">A4s</text><text x="0.1384145413323019" y="0.46153846153846156">52o</text><text x="0.1384145413323019" y="0.3846153846153846">53o</text><text x="0.1384145413323019" y="0.3076923076923077">54o</text><text x="0.1384145413323019" y="0.23076923076923073">55</text><text x="0.1384145413323019" y="0.15384615384615385">65s</text><text x="0.1384145413323019" y="7.692307692307687e-2">75s</text><text x="0.1384145413323019" y="-0.0">85s</text><text x="0.1384145413323019" y="-7.692307692307698e-2">95s</text><text x="0.1384145413323019" y="-0.15384615384615385">T5s</text><text x="0.1384145413323019" y="-0.23076923076923073">J5s</text><text x="0.1384145413323019" y="-0.3076923076923077">Q5s</text><text x="0.1384145413323019" y="-0.3846153846153847">K5s</text><text x="0.1384145413323019" y="-0.46153846153846156">A5s</text><text x="4.489722119205963e-2" y="0.46153846153846156">62o</text><text x="4.489722119205963e-2" y="0.3846153846153846">63o</text><text x="4.489722119205963e-2" y="0.3076923076923077">64o</text><text x="4.489722119205963e-2" y="0.23076923076923073">65o</text><text x="4.489722119205963e-2" y="0.15384615384615385">66</text><text x="4.489722119205963e-2" y="7.692307692307687e-2">76s</text><text x="4.489722119205963e-2" y="-0.0">86s</text><text x="4.489722119205963e-2" y="-7.692307692307698e-2">96s</text><text x="4.489722119205963e-2" y="-0.15384615384615385">T6s</text><text x="4.489722119205963e-2" y="-0.23076923076923073">J6s</text><text x="4.489722119205963e-2" y="-0.3076923076923077">Q6s</text><text x="4.489722119205963e-2" y="-0.3846153846153847">K6s</text><text x="4.489722119205963e-2" y="-0.46153846153846156">A6s</text><text x="-4.8620098948182755e-2" y="0.46153846153846156">72o</text><text x="-4.8620098948182755e-2" y="0.3846153846153846">73o</text><text x="-4.8620098948182755e-2" y="0.3076923076923077">74o</text><text x="-4.8620098948182755e-2" y="0.23076923076923073">75o</text><text x="-4.8620098948182755e-2" y="0.15384615384615385">76o</text><text x="-4.8620098948182755e-2" y="7.692307692307687e-2">77</text><text x="-4.8620098948182755e-2" y="-0.0">87s</text><text x="-4.8620098948182755e-2" y="-7.692307692307698e-2">97s</text><text x="-4.8620098948182755e-2" y="-0.15384615384615385">T7s</text><text x="-4.8620098948182755e-2" y="-0.23076923076923073">J7s</text><text x="-4.8620098948182755e-2" y="-0.3076923076923077">Q7s</text><text x="-4.8620098948182755e-2" y="-0.3846153846153847">K7s</text><text x="-4.8620098948182755e-2" y="-0.46153846153846156">A7s</text><text x="-0.14213741908842503" y="0.46153846153846156">82o</text><text x="-0.14213741908842503" y="0.3846153846153846">83o</text><text x="-0.14213741908842503" y="0.3076923076923077">84o</text><text x="-0.14213741908842503" y="0.23076923076923073">85o</text><text x="-0.14213741908842503" y="0.15384615384615385">86o</text><text x="-0.14213741908842503" y="7.692307692307687e-2">87o</text><text x="-0.14213741908842503" y="-0.0">88</text><text x="-0.14213741908842503" y="-7.692307692307698e-2">98s</text><text x="-0.14213741908842503" y="-0.15384615384615385">T8s</text><text x="-0.14213741908842503" y="-0.23076923076923073">J8s</text><text x="-0.14213741908842503" y="-0.3076923076923077">Q8s</text><text x="-0.14213741908842503" y="-0.3846153846153847">K8s</text><text x="-0.14213741908842503" y="-0.46153846153846156">A8s</text><text x="-0.23565473922866742" y="0.46153846153846156">92o</text><text x="-0.23565473922866742" y="0.3846153846153846">93o</text><text x="-0.23565473922866742" y="0.3076923076923077">94o</text><text x="-0.23565473922866742" y="0.23076923076923073">95o</text><text x="-0.23565473922866742" y="0.15384615384615385">96o</text><text x="-0.23565473922866742" y="7.692307692307687e-2">97o</text><text x="-0.23565473922866742" y="-0.0">98o</text><text x="-0.23565473922866742" y="-7.692307692307698e-2">99</text><text x="-0.23565473922866742" y="-0.15384615384615385">T9s</text><text x="-0.23565473922866742" y="-0.23076923076923073">J9s</text><text x="-0.23565473922866742" y="-0.3076923076923077">Q9s</text><text x="-0.23565473922866742" y="-0.3846153846153847">K9s</text><text x="-0.23565473922866742" y="-0.46153846153846156">A9s</text><text x="-0.3291720593689096" y="0.46153846153846156">T2o</text><text x="-0.3291720593689096" y="0.3846153846153846">T3o</text><text x="-0.3291720593689096" y="0.3076923076923077">T4o</text><text x="-0.3291720593689096" y="0.23076923076923073">T5o</text><text x="-0.3291720593689096" y="0.15384615384615385">T6o</text><text x="-0.3291720593689096" y="7.692307692307687e-2">T7o</text><text x="-0.3291720593689096" y="-0.0">T8o</text><text x="-0.3291720593689096" y="-7.692307692307698e-2">T9o</text><text x="-0.3291720593689096" y="-0.15384615384615385">TT</text><text x="-0.3291720593689096" y="-0.23076923076923073">JTs</text><text x="-0.3291720593689096" y="-0.3076923076923077">QTs</text><text x="-0.3291720593689096" y="-0.3846153846153847">KTs</text><text x="-0.3291720593689096" y="-0.46153846153846156">ATs</text><text x="-0.42268937950915186" y="0.46153846153846156">J2o</text><text x="-0.42268937950915186" y="0.3846153846153846">J3o</text><text x="-0.42268937950915186" y="0.3076923076923077">J4o</text><text x="-0.42268937950915186" y="0.23076923076923073">J5o</text><text x="-0.42268937950915186" y="0.15384615384615385">J6o</text><text x="-0.42268937950915186" y="7.692307692307687e-2">J7o</text><text x="-0.42268937950915186" y="-0.0">J8o</text><text x="-0.42268937950915186" y="-7.692307692307698e-2">J9o</text><text x="-0.42268937950915186" y="-0.15384615384615385">JTo</text><text x="-0.42268937950915186" y="-0.23076923076923073">JJ</text><text x="-0.42268937950915186" y="-0.3076923076923077">QJs</text><text x="-0.42268937950915186" y="-0.3846153846153847">KJs</text><text x="-0.42268937950915186" y="-0.46153846153846156">AJs</text><text x="-0.5162066996493943" y="0.46153846153846156">Q2o</text><text x="-0.5162066996493943" y="0.3846153846153846">Q3o</text><text x="-0.5162066996493943" y="0.3076923076923077">Q4o</text><text x="-0.5162066996493943" y="0.23076923076923073">Q5o</text><text x="-0.5162066996493943" y="0.15384615384615385">Q6o</text><text x="-0.5162066996493943" y="7.692307692307687e-2">Q7o</text><text x="-0.5162066996493943" y="-0.0">Q8o</text><text x="-0.5162066996493943" y="-7.692307692307698e-2">Q9o</text><text x="-0.5162066996493943" y="-0.15384615384615385">QTo</text><text x="-0.5162066996493943" y="-0.23076923076923073">QJo</text><text x="-0.5162066996493943" y="-0.3076923076923077">QQ</text><text x="-0.5162066996493943" y="-0.3846153846153847">KQs</text><text x="-0.5162066996493943" y="-0.46153846153846156">AQs</text><text x="-0.6097240197896366" y="0.46153846153846156">K2o</text><text x="-0.6097240197896366" y="0.3846153846153846">K3o</text><text x="-0.6097240197896366" y="0.3076923076923077">K4o</text><text x="-0.6097240197896366" y="0.23076923076923073">K5o</text><text x="-0.6097240197896366" y="0.15384615384615385">K6o</text><text x="-0.6097240197896366" y="7.692307692307687e-2">K7o</text><text x="-0.6097240197896366" y="-0.0">K8o</text><text x="-0.6097240197896366" y="-7.692307692307698e-2">K9o</text><text x="-0.6097240197896366" y="-0.15384615384615385">KTo</text><text x="-0.6097240197896366" y="-0.23076923076923073">KJo</text><text x="-0.6097240197896366" y="-0.3076923076923077">KQo</text><text x="-0.6097240197896366" y="-0.3846153846153847">KK</text><text x="-0.6097240197896366" y="-0.46153846153846156">AKs</text><text x="-0.7032413399298789" y="0.46153846153846156">A2o</text><text x="-0.7032413399298789" y="0.3846153846153846">A3o</text><text x="-0.7032413399298789" y="0.3076923076923077">A4o</text><text x="-0.7032413399298789" y="0.23076923076923073">A5o</text><text x="-0.7032413399298789" y="0.15384615384615385">A6o</text><text x="-0.7032413399298789" y="7.692307692307687e-2">A7o</text><text x="-0.7032413399298789" y="-0.0">A8o</text><text x="-0.7032413399298789" y="-7.692307692307698e-2">A9o</text><text x="-0.7032413399298789" y="-0.15384615384615385">ATo</text><text x="-0.7032413399298789" y="-0.23076923076923073">AJo</text><text x="-0.7032413399298789" y="-0.3076923076923077">AQo</text><text x="-0.7032413399298789" y="-0.3846153846153847">AKo</text><text x="-0.7032413399298789" y="-0.46153846153846156">AA</text></g></svg>